<svg id="Group_2408" data-name="Group 2408" xmlns="http://www.w3.org/2000/svg" width="17.13" height="15.939" viewBox="0 0 17.13 15.939">
  <path id="Path_1903" data-name="Path 1903" d="M571.664,448.53a1.062,1.062,0,0,1,.383.218,4.392,4.392,0,0,1-.639.383c-.3.167-.594.336-.9.488-.247.12-.508.22-.764.325a14.485,14.485,0,0,1-2.527.759c-.163.033-.305-.1-.334-.316a.6.6,0,0,1,.632-.726,7.141,7.141,0,0,0,3.05-.655C570.8,448.9,571.6,448.527,571.664,448.53Zm-.049-.178a7.072,7.072,0,0,1,.073-1.852,6.506,6.506,0,0,1,1.135-2.7,7.81,7.81,0,0,1,1.1-1.231,10.845,10.845,0,0,1,1.4-1.035c.884-.57,1.79-1.1,2.685-1.661.176-.111.886-.57,1.051-.7.563-.443,1.115-.9,1.67-1.354.08-.065.129-.031.151.051a.933.933,0,0,1,.022.191,13.777,13.777,0,0,1-.069,2.326c-.022.171-.138.906-.18,1.1a10.579,10.579,0,0,1-.637,2.028,14.118,14.118,0,0,1-.766,1.576c-.165.278-.684,1.024-.739,1.093-.1.12-.167.265-.274.376-.251.263-.508.521-.775.766a6.244,6.244,0,0,1-2.3,1.389,5.441,5.441,0,0,1-1.9.249,8.12,8.12,0,0,1-1.124-.178c-.12-.042-.038-.14-.018-.154.169-.122.343-.234.512-.356a16.768,16.768,0,0,0,2.925-2.663c.338-.4.672-.8.991-1.209.256-.334,1.411-2.155,1.507-2.318-.074.047-1.67,2.144-2.157,2.741-.232.283-.494.541-.739.815-.107.12-.893.915-1.189,1.147-.477.374-.946.753-1.414,1.138a4.221,4.221,0,0,1-.81.539A.118.118,0,0,1,571.615,448.351Z" transform="translate(-566.874 -435.735)" fill="#5fa0bb"/>
  <path id="Path_1904" data-name="Path 1904" d="M578.234,439.029a.568.568,0,0,1-.3.608c-.679.421-1.34.871-2.017,1.3-.539.341-1.093.661-1.638.993-.167.1-.336.207-.492.325-.058.045-.859.65-.937.717a7.333,7.333,0,0,0-1.324,1.478,5.194,5.194,0,0,0-.323.474c-.2.4-.392.8-.57,1.2a5.777,5.777,0,0,0-.408,1.423.142.142,0,0,1-.16.14c-.595-.009-1.189,0-1.781-.031a.982.982,0,0,1-.839-.817,3.218,3.218,0,0,1-.027-.463c0-1.035-.009-2.07,0-3.1a2.8,2.8,0,0,1,.116-.757.933.933,0,0,1,.254-.39.507.507,0,0,1,.323-.143c.189,0,2.87,0,4.306,0,.131,0,.131-.073.131-.165,0-.777,0-1.556,0-2.333,0-.53-.011-1.062,0-1.592a.991.991,0,0,1,.131-.55,1.139,1.139,0,0,1,.917-.481c1.035.007,2.068,0,3.1,0a4.936,4.936,0,0,1,.514,0,1.083,1.083,0,0,1,.773.354,1.143,1.143,0,0,1,.238.668C578.238,437.992,578.22,438.8,578.234,439.029Z" transform="translate(-566.217 -436.863)" fill="#5fa0bb"/>
  <path id="Path_1905" data-name="Path 1905" d="M572.449,444.865c.147-.225.285-.445.405-.65.178-.3.341-.612.512-.917.078-.138.171-.265.236-.407a10.387,10.387,0,0,0,.762-2q.18-.8.381-1.6a.2.2,0,0,1,.131-.118c.434-.007.868-.011,1.3,0a1.076,1.076,0,0,1,.991,1.066c-.013,1.193,0,2.389,0,3.582a1.016,1.016,0,0,1-1.006,1.037c-1.178.013-2.355.007-3.533.007Z" transform="translate(-560.038 -434.041)" fill="#5fa0bb"/>
  <path id="Path_1906" data-name="Path 1906" d="M575.39,441.954c0,.116,0,.174,0,.225,0,1.1.013,2.166.02,3.266a1.115,1.115,0,0,1-.416.917.876.876,0,0,1-.439.178c-1.28.007-2.56.027-3.84.016a.991.991,0,0,1-.989-1c-.007-.24,0-.483,0-.723,0-.136.031-.176.187-.169.247.011,1.04-.06,1.075-.067a6.264,6.264,0,0,0,1.712-.532A6.647,6.647,0,0,0,574.312,443c.32-.3.623-.608.933-.915C575.28,442.05,575.318,442.014,575.39,441.954Z" transform="translate(-563.389 -430.62)" fill="#5fa0bb"/>
</svg>
