<svg id="amex" xmlns="http://www.w3.org/2000/svg" width="24.462" height="17.583" viewBox="0 0 24.462 17.583">
  <path id="Path_1016" data-name="Path 1016" d="M1.529,41.025h21.4a1.53,1.53,0,0,1,1.529,1.53V57.079a1.529,1.529,0,0,1-1.529,1.529H1.529A1.529,1.529,0,0,1,0,57.079V42.555A1.53,1.53,0,0,1,1.529,41.025Z" transform="translate(0 -41.025)" fill="#26a6d1"/>
  <path id="Path_1017" data-name="Path 1017" d="M20.651,113.966l-2.416,5.346h2.892l.359-.852H22.3l.359.852h3.183v-.651l.284.651h1.647l.284-.664v.664h6.62l.8-.83.754.83,3.4.007-2.423-2.665,2.423-2.688H36.292l-.784.815-.73-.815h-7.2l-.618,1.38-.633-1.38H23.439v.628l-.321-.628Zm.56.759h1.41l1.6,3.625v-3.625h1.544l1.238,2.6,1.141-2.6h1.536v3.836h-.935l-.008-3.006-1.363,3.006h-.836l-1.371-3.006v3.006H23.245l-.365-.86h-1.97l-.364.859h-1.03Zm9.326,0h3.8l1.163,1.256,1.2-1.256h1.163L36.1,116.653l1.767,1.906H36.648l-1.163-1.271-1.206,1.271H30.536v-3.834Zm-8.64.649-.649,1.532h1.3Zm9.579.145v.7h2.074V117H31.475v.764H33.8l1.081-1.126-1.035-1.12H31.475Z" transform="translate(-16.706 -107.851)" fill="#fff"/>
</svg>
