<svg xmlns="http://www.w3.org/2000/svg" width="84.382" height="84.354" viewBox="0 0 84.382 84.354">
  <g id="analysis" transform="translate(0 -0.08)">
    <g id="Group_2323" data-name="Group 2323" transform="translate(5.656 5.708)">
      <g id="Group_2322" data-name="Group 2322">
        <path id="Path_1831" data-name="Path 1831" d="M61.7,32.106A29.522,29.522,0,1,0,91.227,61.628,29.522,29.522,0,0,0,61.7,32.106Zm0,2.812A26.682,26.682,0,0,1,83.517,46.263L80,49.777a5.548,5.548,0,0,0-2.834-.8A5.623,5.623,0,0,0,71.545,54.6a5.548,5.548,0,0,0,.8,2.838l-9.205,9.205a5.452,5.452,0,0,0-5.677,0l-6.394-6.394a5.548,5.548,0,0,0,.8-2.838,5.612,5.612,0,0,0-11.047-1.406H35.6A26.749,26.749,0,0,1,61.7,34.918ZM79.98,54.6a2.812,2.812,0,1,1-2.812-2.812A2.812,2.812,0,0,1,79.98,54.6ZM63.11,71.469A2.812,2.812,0,1,1,60.3,68.658,2.812,2.812,0,0,1,63.11,71.469ZM49.052,57.411A2.812,2.812,0,1,1,46.24,54.6,2.812,2.812,0,0,1,49.052,57.411ZM74.683,84.984A26.705,26.705,0,0,1,35.144,58.817h5.673a5.624,5.624,0,0,0,5.424,4.217,5.548,5.548,0,0,0,2.838-.8l6.394,6.394a5.548,5.548,0,0,0-.8,2.838,5.623,5.623,0,0,0,11.247,0,5.548,5.548,0,0,0-.8-2.838l6.584-6.584,2.621-2.621a5.548,5.548,0,0,0,2.838.8A5.623,5.623,0,0,0,82.792,54.6a5.548,5.548,0,0,0-.8-2.838L85.06,48.7A26.687,26.687,0,0,1,74.683,84.984Z" transform="translate(-32.182 -32.106)" fill="#000f5f"/>
      </g>
    </g>
    <g id="Group_2325" data-name="Group 2325" transform="translate(0 0.08)">
      <g id="Group_2324" data-name="Group 2324" transform="translate(0 0)">
        <path id="Path_1832" data-name="Path 1832" d="M70.324,14.143a5.623,5.623,0,0,0,5.424-4.217h8.635V7.114H75.748A5.611,5.611,0,0,0,64.7,8.52a5.548,5.548,0,0,0,.8,2.838l-2.47,2.47a35.146,35.146,0,1,0-8.775,50.9L58.5,68.971l1.988,1.988L71.8,82.275A7.37,7.37,0,0,0,82.223,71.853L70.906,60.536l-1.988-1.988L64.675,54.3a35.029,35.029,0,0,0,0-38.149l2.812-2.812A5.55,5.55,0,0,0,70.324,14.143Zm0-8.435A2.812,2.812,0,1,1,67.512,8.52,2.812,2.812,0,0,1,70.324,5.708ZM80.235,73.84a4.559,4.559,0,0,1-6.374,6.52l-.073-.073L62.471,68.971l6.447-6.447Zm-13.3-13.3-6.447,6.447-3.891-3.891c.2-.152.384-.319.579-.475s.422-.343.631-.519c.308-.259.612-.52.91-.789.153-.141.3-.281.45-.422q.865-.81,1.674-1.674c.141-.15.281-.3.422-.45.269-.3.53-.6.789-.91q.264-.312.519-.631c.155-.194.322-.38.474-.578Zm-5.452-6.53c-.443.619-.9,1.224-1.382,1.808-.141.17-.291.335-.436.5q-.645.751-1.333,1.456-.3.309-.609.609-.7.687-1.456,1.333c-.167.141-.332.294-.5.436-.583.482-1.189.939-1.808,1.382a32.385,32.385,0,1,1,7.525-7.525Z" transform="translate(0 -0.08)" fill="#000f5f"/>
      </g>
    </g>
  </g>
</svg>
