<svg xmlns="http://www.w3.org/2000/svg" width="26.058" height="20.847" viewBox="0 0 26.058 20.847">
  <path id="Icon_awesome-car-crash" data-name="Icon awesome-car-crash" d="M5.832,8.99l-.506,1.888a3.839,3.839,0,0,0-.1,1.4L3.8,13.458a.368.368,0,0,1-.6-.357l.629-3.122A.368.368,0,0,0,3.5,9.54L.333,9.232a.368.368,0,0,1-.169-.673L2.817,6.8A.369.369,0,0,0,2.9,6.255L.874,3.8a.369.369,0,0,1,.357-.6l3.122.629a.369.369,0,0,0,.44-.326L5.1.333A.369.369,0,0,1,5.774.164L7.537,2.816a.369.369,0,0,0,.541.081L10.537.873a.368.368,0,0,1,.6.357l-.461,2.287c-.11.124-.221.248-.322.383L9.04,5.649,8.6,6.232A3.927,3.927,0,0,0,5.832,8.99Zm20.137,5.4-.506,1.888a2.551,2.551,0,0,1-.715,1.2,2.723,2.723,0,0,1-.357.285l-.57,2.127a1.3,1.3,0,0,1-1.6.921l-1.259-.337a1.3,1.3,0,0,1-.921-1.6l.337-1.259-10.068-2.7-.337,1.259a1.3,1.3,0,0,1-1.6.921l-1.259-.337a1.3,1.3,0,0,1-.921-1.6l.57-2.127a2.712,2.712,0,0,1-.167-.425,2.551,2.551,0,0,1-.021-1.392l.506-1.888a2.587,2.587,0,0,1,1.5-1.719,2.62,2.62,0,0,1,.753-.192l.738-.987,1.309-1.75a4.586,4.586,0,0,1,1.545-1.317A4.47,4.47,0,0,1,13.55,3.1a4.52,4.52,0,0,1,1.313-.246,4.6,4.6,0,0,1,1.361.155l4.995,1.338a4.589,4.589,0,0,1,1.256.547A4.536,4.536,0,0,1,24.567,8.21l.259,2.17.146,1.224a2.626,2.626,0,0,1,.926,1.219,2.571,2.571,0,0,1,.071,1.563ZM10.406,9.541a1.229,1.229,0,0,0-1.595.917,1.229,1.229,0,0,0,.922,1.592c.755.2,1.854.632,2.056-.121A2.506,2.506,0,0,0,10.406,9.541Zm11.832,1.147-.259-2.17a1.954,1.954,0,0,0-1.435-1.656L15.55,5.524a1.955,1.955,0,0,0-2.071.717L12.17,7.99l7,1.876,3.065.822Zm.753,2.225A2.507,2.507,0,0,0,20.6,14.289c-.2.753.965.931,1.72,1.133a1.3,1.3,0,1,0,.672-2.509Z" transform="translate(0 0.001)" fill="#000f5f"/>
</svg>
