<svg id="Icon_ionic-md-sad" data-name="Icon ionic-md-sad" xmlns="http://www.w3.org/2000/svg" width="31.277" height="31.277" viewBox="0 0 31.277 31.277">
  <path id="Path_1822" data-name="Path 1822" d="M18.5,20.25a8.5,8.5,0,0,0-7.684,4.812H26.182A8.5,8.5,0,0,0,18.5,20.25Z" transform="translate(-2.859 -2.206)" fill="#000f5f"/>
  <path id="Path_1823" data-name="Path 1823" d="M19.014,3.375A15.639,15.639,0,1,0,34.652,19.014,15.634,15.634,0,0,0,19.014,3.375Zm0,28.149A12.511,12.511,0,1,1,31.525,19.014,12.548,12.548,0,0,1,19.014,31.524Z" transform="translate(-3.375 -3.375)" fill="#000f5f"/>
  <path id="Path_1824" data-name="Path 1824" d="M23.271,16.842A2.346,2.346,0,1,0,20.925,14.5,2.3,2.3,0,0,0,23.271,16.842Z" transform="translate(-2.159 -2.767)" fill="#000f5f"/>
  <path id="Path_1825" data-name="Path 1825" d="M13.033,16.842A2.346,2.346,0,1,0,10.687,14.5,2.3,2.3,0,0,0,13.033,16.842Z" transform="translate(-2.868 -2.767)" fill="#000f5f"/>
</svg>
