<svg xmlns="http://www.w3.org/2000/svg" width="17.585" height="17.585" viewBox="0 0 17.585 17.585">
  <g id="broken-bone" transform="translate(0 -0.001)">
    <path id="Path_1933" data-name="Path 1933" d="M9.309,235.374A.517.517,0,0,0,8.978,235L8,234.652l-.348-.977a.517.517,0,0,0-.374-.331l-1-.226a.517.517,0,0,0-.481.14l-2.741,2.762a.365.365,0,0,1-.324.088A2.3,2.3,0,0,0,0,238.384a2.627,2.627,0,0,0,1.787,2.483,2.535,2.535,0,0,0,4.138,1.1,2.338,2.338,0,0,0,.619-2.043.365.365,0,0,1,.087-.323l2.764-2.742a.517.517,0,0,0,.14-.481Z" transform="translate(0 -225.067)" fill="#5fa0bb"/>
    <path id="Path_1934" data-name="Path 1934" d="M251.614,1.695A2.445,2.445,0,0,0,249.268,0a2.369,2.369,0,0,0-2.345,2.718.379.379,0,0,1-.1.325l-2.529,2.509a.518.518,0,0,0,.364.884h.722l.132.921a.517.517,0,0,0,.439.439l.921.132v.722a.518.518,0,0,0,.884.364l2.507-2.528a.38.38,0,0,1,.326-.1,2.368,2.368,0,0,0,2.718-2.345,2.445,2.445,0,0,0-1.693-2.346Z" transform="translate(-235.723 0)" fill="#5fa0bb"/>
    <path id="Path_1935" data-name="Path 1935" d="M114.126,109.368a.517.517,0,0,0,.731-.731l-1.17-1.17a.517.517,0,0,0-.731.731Z" transform="translate(-108.915 -103.613)" fill="#5fa0bb"/>
    <path id="Path_1936" data-name="Path 1936" d="M192.517,50.691a.517.517,0,0,0,.517-.517V48.518a.517.517,0,1,0-1.034,0v1.655A.517.517,0,0,0,192.517,50.691Z" transform="translate(-185.38 -46.345)" fill="#5fa0bb"/>
    <path id="Path_1937" data-name="Path 1937" d="M54.008,187.545h1.655a.517.517,0,1,0,0-1.034H54.008a.517.517,0,1,0,0,1.034Z" transform="translate(-51.647 -180.079)" fill="#5fa0bb"/>
    <path id="Path_1938" data-name="Path 1938" d="M342.422,333.123a.517.517,0,0,0-.731.731l1.17,1.17a.517.517,0,1,0,.731-.731Z" transform="translate(-329.763 -321.489)" fill="#5fa0bb"/>
    <path id="Path_1939" data-name="Path 1939" d="M296.8,378.226a.517.517,0,0,0-.517.517V380.4a.517.517,0,0,0,1.034,0v-1.655A.517.517,0,0,0,296.8,378.226Z" transform="translate(-286.069 -365.183)" fill="#5fa0bb"/>
    <path id="Path_1940" data-name="Path 1940" d="M388.966,287.717h-1.655a.517.517,0,1,0,0,1.034h1.655a.517.517,0,1,0,0-1.034Z" transform="translate(-373.457 -277.795)" fill="#5fa0bb"/>
  </g>
</svg>
