<svg xmlns="http://www.w3.org/2000/svg" width="11.808" height="11.397" viewBox="0 0 11.808 11.397">
  <path id="Icon_ionic-ios-call" data-name="Icon ionic-ios-call" d="M15.957,13.427a9.95,9.95,0,0,0-2.072-1.338c-.621-.288-.848-.282-1.288.024-.366.255-.6.493-1.024.4a6.105,6.105,0,0,1-2.056-1.469A5.862,5.862,0,0,1,8,9.062c-.089-.409.157-.635.418-.988.317-.424.326-.644.025-1.243a9.369,9.369,0,0,0-1.386-2c-.452-.436-.553-.341-.8-.255a4.628,4.628,0,0,0-.735.377,2.172,2.172,0,0,0-.882.9c-.175.365-.378,1.044.655,2.819a15.788,15.788,0,0,0,2.865,3.688h0l0,0,0,0h0a16.324,16.324,0,0,0,3.821,2.765c1.838,1,2.542.8,2.92.632a2.15,2.15,0,0,0,.931-.852,4.353,4.353,0,0,0,.39-.709C16.31,13.961,16.412,13.863,15.957,13.427Z" transform="translate(-4.49 -4.502)" fill="#fff"/>
</svg>
