<svg xmlns="http://www.w3.org/2000/svg" width="12" height="12" viewBox="0 0 12 12">
  <g id="Group_918" data-name="Group 918" transform="translate(-270 -297.964)">
    <path id="close_mini" d="M279.44,306.564l1.26,1.26-.84.84-1.26-1.26-1.26,1.26-.84-.84,1.26-1.26-1.26-1.26.84-.84,1.26,1.26,1.26-1.26.84.84Z" transform="translate(-2.6 -2.6)" fill="#d67d7a"/>
    <path id="Path_555" data-name="Path 555" d="M276,297.964a6,6,0,1,0,6,6A6,6,0,0,0,276,297.964Zm0,10.8a4.8,4.8,0,1,1,4.8-4.8A4.805,4.805,0,0,1,276,308.764Z" fill="#d67d7a"/>
  </g>
</svg>
