<svg xmlns="http://www.w3.org/2000/svg" width="286.965" height="160.459" viewBox="0 0 286.965 160.459">
  <g id="Group_2904" data-name="Group 2904" transform="translate(46.522 24.965)">
    <path id="Path_1955" data-name="Path 1955" d="M1916.377,595.98c0,1.34-.023,2.753-.072,4.231-.01.276-.019.557-.031.838q-.068,1.668-.176,3.427c-.018.266-.034.533-.052.8-.021.324-.045.651-.069.977-.1,1.381-.22,2.795-.357,4.231-.029.291-.058.579-.087.87-.141,1.391-.3,2.806-.477,4.231-.037.292-.076.589-.112.881q-.272,2.1-.594,4.229c-.045.3-.093.6-.14.89q-.262,1.678-.558,3.352-.159.881-.321,1.759-.4,2.13-.854,4.231c-.062.292-.128.581-.192.873-.318,1.426-.653,2.838-1.009,4.226q-.113.443-.23.882c-.313,1.186-.642,2.354-.982,3.5q-.281.941-.575,1.86c-.464,1.454-.956,2.867-1.471,4.226-.112.3-.224.59-.339.881-.586,1.482-1.2,2.894-1.845,4.223-.136.282-.274.56-.417.834a36.114,36.114,0,0,1-2.488,4.218q-.421.614-.857,1.178a16.562,16.562,0,0,1-4.544,4.209c-.119.069-.239.138-.36.2l-.09.048c-.236.127-.473.241-.712.347l-12.629.026-35.7.069-44.311-.356-2.974-.024-14.346-.116-34.273-.274-53.617-.431-49.905-.4a52.457,52.457,0,0,1-9.018-10.065,54.588,54.588,0,0,1-10.182-31.568c0-.364,0-.727.009-1.094.209-10.349,1.781-27.57,12.172-41.53a49.561,49.561,0,0,1,15.224-13.467q1.042-.6,2.137-1.163c.149-.079.3-.156.451-.231q1.447-.732,2.988-1.406,2-.869,4.152-1.63c.231-.083.466-.164.7-.244s.486-.164.731-.244q1.89-.618,3.9-1.149l.08-.021q1.928-.505,3.974-.927c.278-.059.555-.114.836-.168q2.023-.395,3.877-.931c.188-.055.374-.109.56-.167a39.889,39.889,0,0,0,4.945-1.848q.677-.3,1.329-.629l.192-.1.127-.066q1.4-.712,2.7-1.515a40.039,40.039,0,0,0,4-2.806c.023-.016.043-.034.064-.049,18.781-14.964,22.167-43.335,57.927-45.684a84.708,84.708,0,0,1,13.088.225,49.55,49.55,0,0,1,18.868,5.89c5.739,2.988,10.758,6.445,15.829,8.793l.347.16c4.974,2.254,10.012,3.41,15.846,1.98.283-.066.568-.143.857-.224a159.673,159.673,0,0,1,18.124-4.1c.117-.018.233-.037.35-.056,13.54-2.153,24.773-1.738,34.109.661.115.029.232.058.348.092a52.558,52.558,0,0,1,11.063,4.25q1.406.736,2.732,1.545c.028.018.055.032.082.05l.441.274.424.266.039.026q1.636,1.052,3.164,2.216,1.81,1.379,3.469,2.9c.315.29.627.583.934.879a52.167,52.167,0,0,1,3.934,4.25c.246.292.485.587.72.886q1.629,2.043,3.081,4.246c.248.376.491.753.731,1.134q1.3,2.063,2.463,4.242c.157.294.311.589.465.886q1.073,2.072,2.033,4.241c.14.313.278.629.412.945q.874,2.034,1.656,4.133c.194.523.385,1.045.573,1.572.324.913.635,1.837.935,2.766q.378,1.167.732,2.344.628,2.1,1.187,4.239c.079.294.154.589.228.883q.38,1.48.725,2.978c.1.417.194.839.287,1.261.066.294.131.594.2.892q.082.387.165.772.327,1.555.629,3.121l.067.343c.054.294.111.587.166.883q.392,2.109.738,4.234c.047.29.093.583.141.874q.334,2.113.629,4.236c.042.294.083.587.124.883q.177,1.3.341,2.6c.045.359.086.736.125,1.128.014.164.03.332.045.5.032.364.061.743.085,1.133.083,1.287.131,2.705.146,4.231C1916.377,595.387,1916.377,595.683,1916.377,595.98Z" transform="translate(-1675.935 -527.236)" fill="#ebf3fa"/>
    <path id="Path_2647" data-name="Path 2647" d="M2062.135,272.133a3.319,3.319,0,1,1,3.319,3.319A3.319,3.319,0,0,1,2062.135,272.133Z" transform="translate(-1877.903 -268.814)" fill="#f8fbff"/>
    <path id="Path_2648" data-name="Path 2648" d="M1365.6,307.86s3.058-4.323,10.371-3.843c0,0,10.617-7.205,21.94-.961,0,0,12.035-1.547,20.948,1.34,5.943,1.925,7.906,3.944,7.906,3.944Z" transform="translate(-1248.723 -297.445)" fill="#f8fcff"/>
    <path id="Path_2649" data-name="Path 2649" d="M1935.436,439.2a8.076,8.076,0,0,1,7.682-3.508s7.864-6.577,16.25-.877c0,0,8.914-1.412,15.516,1.223,4.4,1.757,5.855,3.6,5.855,3.6Z" transform="translate(-1763.455 -416.666)" fill="#f8fcff"/>
    <path id="Path_2651" data-name="Path 2651" d="M618.385,1379.29H499.611l-38.825,27.01c25.78,12.607,62.428,17.283,98.3,17.283,37.132,0,73.438-5.009,96.014-11.423Z" transform="translate(-460.786 -1296.173)" fill="#adcef6"/>
    <g id="Group_2903" data-name="Group 2903" transform="translate(18.378 2.503)">
      <g id="Group_2892" data-name="Group 2892" transform="translate(139.14 29.147)">
        <path id="Rectangle_1062" data-name="Rectangle 1062" d="M3.056,0H15.179a0,0,0,0,1,0,0V5.754a2.88,2.88,0,0,1-2.88,2.88H5.579A5.579,5.579,0,0,1,0,3.056v0A3.056,3.056,0,0,1,3.056,0Z" transform="translate(21.087 8.634) rotate(180)" fill="#ff9f57"/>
        <rect id="Rectangle_1063" data-name="Rectangle 1063" width="5.908" height="3.718" transform="translate(0 4.916)" fill="#ff9f57"/>
      </g>
      <g id="Group_2893" data-name="Group 2893" transform="translate(0 29.148)">
        <path id="Path_2655" data-name="Path 2655" d="M666.03,849.054v6.617H653.191a2.247,2.247,0,0,1-2.341-2.139v-2.588a4.1,4.1,0,0,1,4.274-3.906h8.7A2.118,2.118,0,0,1,666.03,849.054Z" transform="translate(-650.85 -847.037)" fill="#ff9f57"/>
        <path id="Path_2656" data-name="Path 2656" d="M671.937,897.874v3.718H653.191a2.247,2.247,0,0,1-2.341-2.139v-1.579Z" transform="translate(-650.85 -892.958)" fill="#ff9f57"/>
      </g>
      <path id="Path_2657" data-name="Path 2657" d="M800.856,919.734l3.59-5.532h123.8l1.331,5.532-35.452,20.919H827.335Z" transform="translate(-786.351 -878.56)" fill="#ed8e49"/>
      <path id="Path_2658" data-name="Path 2658" d="M854.782,547.541c11.745-1.03,50.132-3.812,86.889,0a7.121,7.121,0,0,1,5.188,3.632c3.582,5.844,10.786,18.393,13.42,28.777.472,1.859-.545,3.794-2,3.794H838.362c-1.456,0-2.443-2-1.879-3.805a138.838,138.838,0,0,1,12.176-28.084A8.168,8.168,0,0,1,854.782,547.541Z" transform="translate(-818.388 -545.594)" fill="#f99746"/>
      <path id="Path_2659" data-name="Path 2659" d="M992.053,608.508h0l-.049.028a1.543,1.543,0,0,1-.759.2H878.939c-.024,0-.048,0-.073,0a1.728,1.728,0,0,1-1.317-.805,2.724,2.724,0,0,1-.309-.592,3.339,3.339,0,0,1-.061-2.164,130.047,130.047,0,0,1,11.4-26.3,7.651,7.651,0,0,1,5.736-4.041c11-.964,46.952-3.57,81.377,0a6.669,6.669,0,0,1,4.86,3.4c3.354,5.474,10.1,17.226,12.567,26.951A3.069,3.069,0,0,1,992.053,608.508Z" transform="translate(-855.158 -570.357)" fill="#c2d9ff"/>
      <path id="Path_2660" data-name="Path 2660" d="M1009.239,577.207a6.987,6.987,0,0,1,4.505-2.374c11-.964,46.952-3.57,81.377,0a5.232,5.232,0,0,1,3.923,2.14C1099.188,577.165,1009.239,577.207,1009.239,577.207Z" transform="translate(-974.585 -570.359)" fill="#f9ddbf"/>
      <path id="Path_2661" data-name="Path 2661" d="M702.812,991.174a22,22,0,0,1,9.308-20.919s31.707-3.03,39.8,20.919Z" transform="translate(-697.616 -929.081)" fill="#ffa969"/>
      <path id="Path_2662" data-name="Path 2662" d="M1769.525,991.174a22,22,0,0,0-9.308-20.919s-31.707-3.03-39.8,20.919Z" transform="translate(-1616.994 -929.081)" fill="#ffa969"/>
      <path id="Rectangle_1064" data-name="Rectangle 1064" d="M10.295,0h0a10.3,10.3,0,0,1,10.3,10.3v4.4a10.3,10.3,0,0,1-10.3,10.3h0A10.3,10.3,0,0,1,0,14.69v-4.4A10.295,10.295,0,0,1,10.295,0Z" transform="translate(10.793 79.259)" fill="#000f5f"/>
      <path id="Rectangle_1065" data-name="Rectangle 1065" d="M10.295,0h0a10.3,10.3,0,0,1,10.3,10.3v4.4a10.3,10.3,0,0,1-10.3,10.3h0A10.295,10.295,0,0,1,0,14.69v-4.4A10.295,10.295,0,0,1,10.295,0Z" transform="translate(128.712 79.259)" fill="#000f5f"/>
      <path id="Path_2663" data-name="Path 2663" d="M852.111,1187.75v28.9a5.7,5.7,0,0,1-5.941,5.432H812.1a5.39,5.39,0,0,1-3.2-1.032,4.818,4.818,0,0,1-1.338-1.494,4.333,4.333,0,0,0-3.782-2.148h-51.62a5.68,5.68,0,0,0-4.838,2.615c-.785,1.1-1.6,2.123-3.489,2.059h-33.65a5.367,5.367,0,0,1-5.59-5.11V1187.75Z" transform="translate(-699.39 -1125.657)" fill="#ffa969"/>
      <path id="Path_2664" data-name="Path 2664" d="M1850.094,1038.284v8.83a2.293,2.293,0,0,1-2.389,2.184h-32.157a1.258,1.258,0,0,1-1.15-1.949l3.244-4.512a13.757,13.757,0,0,1,10.656-5.529l19.792-.781A1.854,1.854,0,0,1,1850.094,1038.284Z" transform="translate(-1701.684 -989.057)" fill="#f9ddbf"/>
      <path id="Path_2665" data-name="Path 2665" d="M817.418,1049.3H785.26a2.293,2.293,0,0,1-2.389-2.184v-8.83a1.854,1.854,0,0,1,2-1.756l1.656.066,11.155.439,1.936.077,5.044.2a14.12,14.12,0,0,1,8.529,3.239,12.6,12.6,0,0,1,2.128,2.29l3.243,4.512A1.257,1.257,0,0,1,817.418,1049.3Z" transform="translate(-770.105 -989.057)" fill="#f9ddbf"/>
      <path id="Path_2666" data-name="Path 2666" d="M779.74,1401.015H763.661a1.146,1.146,0,0,0-1.195,1.092v4.415a.927.927,0,0,0,1,.878l.828-.033,5.578-.219.968-.039,2.522-.1a7.062,7.062,0,0,0,4.264-1.619,6.307,6.307,0,0,0,1.064-1.146l1.621-2.256A.629.629,0,0,0,779.74,1401.015Z" transform="translate(-751.673 -1318.301)" fill="#f9ddbf"/>
      <path id="Path_2667" data-name="Path 2667" d="M1996.254,1401.015h16.079a1.147,1.147,0,0,1,1.195,1.092v4.415a.927.927,0,0,1-1,.878l-.828-.033-5.577-.219-.969-.039-2.522-.1a7.061,7.061,0,0,1-4.264-1.619,6.3,6.3,0,0,1-1.064-1.146l-1.621-2.256A.629.629,0,0,1,1996.254,1401.015Z" transform="translate(-1865.539 -1318.301)" fill="#f9ddbf"/>
      <path id="Path_2668" data-name="Path 2668" d="M1184.806,1072.935h52.5a1.093,1.093,0,0,1,1.015,1.552l-2.608,5.443a4.023,4.023,0,0,1-3.638,2.257H1190.5a3.932,3.932,0,0,1-3.421-1.961l-3.243-5.685A1.081,1.081,0,0,1,1184.806,1072.935Z" transform="translate(-1132.172 -1021.944)" fill="#ffa969"/>
      <rect id="Rectangle_1066" data-name="Rectangle 1066" width="47.73" height="8.943" rx="4.471" transform="translate(56.331 71.857)" fill="#f9ddbf"/>
      <path id="Path_2669" data-name="Path 2669" d="M956.781,1046.532c0,3.781-3.353,6.847-7.49,6.847s-7.49-3.066-7.49-6.847a6.429,6.429,0,0,1,1.385-3.969l5.044.2a14.122,14.122,0,0,1,8.529,3.239C956.773,1046.176,956.781,1046.353,956.781,1046.532Z" transform="translate(-913.668 -994.509)" fill="#fff3e9"/>
      <path id="Path_2670" data-name="Path 2670" d="M829.878,1038.691a5.77,5.77,0,0,1-11.493,0,4.8,4.8,0,0,1,.227-1.465l11.155.439A4.824,4.824,0,0,1,829.878,1038.691Z" transform="translate(-802.185 -989.688)" fill="#fff3e9"/>
      <path id="Path_2671" data-name="Path 2671" d="M1872.149,1046.532c0,3.781,3.353,6.847,7.49,6.847s7.49-3.066,7.49-6.847a6.429,6.429,0,0,0-1.385-3.969l-5.044.2a14.122,14.122,0,0,0-8.529,3.239C1872.157,1046.176,1872.149,1046.353,1872.149,1046.532Z" transform="translate(-1754.057 -994.509)" fill="#fff3e9"/>
      <path id="Path_2672" data-name="Path 2672" d="M2031.626,1038.691a5.77,5.77,0,0,0,11.493,0,4.8,4.8,0,0,0-.227-1.465l-11.155.439A4.828,4.828,0,0,0,2031.626,1038.691Z" transform="translate(-1898.114 -989.688)" fill="#fff3e9"/>
      <path id="Path_2673" data-name="Path 2673" d="M1208.058,1443.444a4.818,4.818,0,0,1-1.338-1.494,4.333,4.333,0,0,0-3.781-2.148h-51.62a5.681,5.681,0,0,0-4.839,2.615s1.155-8.441,7.058-8.46,48.438,0,48.438,0S1207.357,1434.119,1208.058,1443.444Z" transform="translate(-1098.556 -1348.05)" fill="#000f5f"/>
      <rect id="Rectangle_1067" data-name="Rectangle 1067" width="10.362" height="6.066" rx="3.033" transform="translate(104.061 12.027)" fill="#95beef" opacity="0.5"/>
      <rect id="Rectangle_1068" data-name="Rectangle 1068" width="10.362" height="6.066" rx="3.033" transform="translate(43.509 12.027)" fill="#95beef" opacity="0.5"/>
      <path id="Path_2674" data-name="Path 2674" d="M990.472,747.477v12.76a4.578,4.578,0,0,1-.245,1.479,4.431,4.431,0,0,1-.187.459H957.991a4.557,4.557,0,0,1-.431-1.939v-12.76c0-.023,0-.046,0-.07a4.622,4.622,0,0,1,4.607-4.538h23.7a4.567,4.567,0,0,1,2.469.722A4.648,4.648,0,0,1,990.227,746a4.565,4.565,0,0,1,.243,1.37C990.472,747.4,990.472,747.441,990.472,747.477Z" transform="translate(-927.903 -723.795)" fill="#95beef" opacity="0.5"/>
      <path id="Path_2675" data-name="Path 2675" d="M1325.783,747.477v12.76a4.558,4.558,0,0,1-.431,1.939H1293.3a4.457,4.457,0,0,1-.187-.459,4.575,4.575,0,0,1-.245-1.479v-12.76a4.633,4.633,0,0,1,.034-.56,4.555,4.555,0,0,1,.211-.92,4.644,4.644,0,0,1,3.139-2.961,4.529,4.529,0,0,1,1.224-.167h23.7a4.564,4.564,0,0,1,1.525.261h0a4.563,4.563,0,0,1,1.052.534h0c.113.076.222.159.327.245a4.645,4.645,0,0,1,.887.959h0A4.573,4.573,0,0,1,1325.783,747.477Z" transform="translate(-1230.791 -723.795)" fill="#95beef" opacity="0.5"/>
      <path id="Path_2676" data-name="Path 2676" d="M1667.892,747.477v12.76c0,.029,0,.057,0,.085a4.586,4.586,0,0,1-.224,1.335h0a4.395,4.395,0,0,1-.206.517h-32.049a4.56,4.56,0,0,1-.431-1.939v-12.76a4.622,4.622,0,0,1,4.608-4.607h23.7a4.624,4.624,0,0,1,4.227,2.78A4.547,4.547,0,0,1,1667.892,747.477Z" transform="translate(-1539.821 -723.795)" fill="#95beef" opacity="0.5"/>
      <path id="Path_2677" data-name="Path 2677" d="M969.773,770.817v9.758c0,.071,0,.141,0,.211,0,.182-.018.362-.038.54H941.842a6.88,6.88,0,0,1-.042-.75v-9.758a6.769,6.769,0,0,1,6.3-6.732c.148-.011.3-.016.448-.016h14.479a6.681,6.681,0,0,1,2.224.379A6.774,6.774,0,0,1,969.773,770.817Z" transform="translate(-913.667 -742.945)" fill="#73a3dd"/>
      <path id="Path_2678" data-name="Path 2678" d="M1748.383,770.817v9.758a6.864,6.864,0,0,1-.042.75h-27.889a6.834,6.834,0,0,1-.042-.75v-9.758a6.767,6.767,0,0,1,6.747-6.747h14.479a6.693,6.693,0,0,1,3.044.73A6.768,6.768,0,0,1,1748.383,770.817Z" transform="translate(-1616.99 -742.945)" fill="#73a3dd"/>
      <path id="Rectangle_1069" data-name="Rectangle 1069" d="M4.254,0h6.431A4.254,4.254,0,0,1,14.94,4.254v0a4.254,4.254,0,0,1-4.254,4.254H4.254A4.254,4.254,0,0,1,0,4.254v0A4.254,4.254,0,0,1,4.254,0Z" transform="translate(109.231 11.227)" fill="#73a3dd"/>
      <rect id="Rectangle_1070" data-name="Rectangle 1070" width="14.94" height="8.509" rx="4.254" transform="translate(34.654 11.227)" fill="#73a3dd"/>
      <g id="Group_2897" data-name="Group 2897" transform="translate(54.649 14.389)">
        <path id="Path_2679" data-name="Path 2679" d="M1415.475,858.017h-4.962c-.192-.5-.3-.812-.3-.812l.2-8.235a8.079,8.079,0,0,1,2.853,2.909c.15.34.32.771.5,1.262C1414.281,854.5,1414.9,856.335,1415.475,858.017Z" transform="translate(-1391.434 -834.025)" fill="#ffb27d"/>
        <path id="Path_2680" data-name="Path 2680" d="M1224.582,847.868s-.244.266-.632.694l-.489.541c-.426.471-.935,1.039-1.462,1.634-.752.851-1.54,1.758-2.171,2.519h-3.8c.321-.678.666-1.35,1.02-2h0q.216-.4.436-.789c.557-.99,1.123-1.921,1.642-2.744.557-.883,1.061-1.64,1.445-2.209a17.489,17.489,0,0,1,2.515-1.808l.372,1.039.489,1.365Z" transform="translate(-1216.03 -829.264)" fill="#ffb27d"/>
        <path id="Path_2681" data-name="Path 2681" d="M1266.723,836.046a5.556,5.556,0,0,1-.264.726,4.1,4.1,0,0,1-1.753,2.075l-.052,2.8h-14.438q0-.672-.025-1.344l-.006-.13-.044-1.026-.05-.019a4.514,4.514,0,0,1-2.87-3.02,2.714,2.714,0,0,1-.091-.46,13.957,13.957,0,0,1,4-4.137,3.088,3.088,0,0,1,.427-.188,4.955,4.955,0,0,1,.489-.146,14.308,14.308,0,0,1,2.971-.322,43.64,43.64,0,0,1,4.572.174h0c.512.044,1.009.095,1.478.147a6.2,6.2,0,0,1,3.8,1.788A8.2,8.2,0,0,1,1266.723,836.046Z" transform="translate(-1244.123 -817.656)" fill="#b23f36"/>
        <g id="Group_2896" data-name="Group 2896" transform="translate(5.532)">
          <path id="Path_2682" data-name="Path 2682" d="M1330.982,788.586a3.871,3.871,0,0,1-4.095-.367c-.184-.17-.127-.482-.067-.725a10.743,10.743,0,0,0,.3-2.671,12.209,12.209,0,0,0-.31-2.629l4.026,1.333a7.024,7.024,0,0,0-.017.877c.006.147.016.308.033.477a6.357,6.357,0,0,0,.195,1.071c.042.147.09.294.145.438a3.742,3.742,0,0,0,.231.487A1.148,1.148,0,0,1,1330.982,788.586Z" transform="translate(-1321.587 -773.705)" fill="#ffb27d"/>
          <path id="Path_2683" data-name="Path 2683" d="M1334.348,810.511c-3.169.079-3.927-1.128-3.927-1.128l3.732.058A6.37,6.37,0,0,0,1334.348,810.511Z" transform="translate(-1324.892 -798.265)" fill="#f4a671"/>
          <g id="Group_2895" data-name="Group 2895">
            <path id="Path_2684" data-name="Path 2684" d="M1314.389,733.4s-4.058,1.772-6.038-1.366c-2.137-3.387-.818-6.3.591-6.7,2.81-.8,4.643.036,5.325,1.112S1316.631,732.439,1314.389,733.4Z" transform="translate(-1303.941 -722.052)" fill="#ffb27d"/>
            <path id="Path_2685" data-name="Path 2685" d="M1360.914,787s.245.409,1.323-.009c0,0,.905-.35.723-.827A3.119,3.119,0,0,0,1360.914,787Z" transform="translate(-1352.437 -777.29)" fill="#fff"/>
            <g id="Group_2894" data-name="Group 2894">
              <path id="Path_2686" data-name="Path 2686" d="M1280.578,705.443a7.943,7.943,0,0,1-.782-2.166s-1.322-1.237-.733-1.685,1.065.331,1.187.145-.076-2.988.719-3.022,3.823.415,4.921-.874-2.636-5.082-7.59-2.627S1275.306,703.3,1280.578,705.443Z" transform="translate(-1275.231 -694.406)" fill="#000f5f"/>
              <path id="Path_2687" data-name="Path 2687" d="M1280,719.083a1.854,1.854,0,0,1-.169-1.209,1.95,1.95,0,0,0,.439.957C1280.587,719.1,1280,719.083,1280,719.083Z" transform="translate(-1279.146 -715.605)" fill="#000f5f"/>
              <path id="Path_2688" data-name="Path 2688" d="M1274.128,725.115a1.051,1.051,0,0,0-.883.569.838.838,0,0,1,.916-.123Z" transform="translate(-1273.245 -722.146)" fill="#000f5f"/>
            </g>
          </g>
        </g>
      </g>
      <g id="Group_2898" data-name="Group 2898" transform="translate(80.822 15.684)">
        <path id="Path_2689" data-name="Path 2689" d="M1490.661,875.28l-.953,6.5H1486.7c.163-1.054.528-3.42.766-4.988.132-.864.225-1.486.225-1.514Z" transform="translate(-1486.7 -859.086)" fill="#ffb27d"/>
        <path id="Path_2690" data-name="Path 2690" d="M1520.953,727.639a3.03,3.03,0,0,0-2.332,0c-1.233.527-2.131,2.772-1.578,4.869s-1.312,2.132-.449,3.814c.306.6,4.359,1.1,4.5-1.219.085-1.439-1.217-1.51-.837-3.074S1520.953,727.639,1520.953,727.639Z" transform="translate(-1513.494 -725.509)" fill="#000f5f"/>
        <path id="Path_2691" data-name="Path 2691" d="M1536.528,710.566a6.438,6.438,0,0,1,4.056-2.715,3.876,3.876,0,0,1,4.436,3.27c.328,2.138-.006,4.909-3.5,5.908Z" transform="translate(-1531.71 -707.798)" fill="#000f5f"/>
        <path id="Path_2692" data-name="Path 2692" d="M1543.154,784.5l3.948,2.345,1-2.779a8.693,8.693,0,0,1-.591-2.633,10.794,10.794,0,0,1,.064-2.336l-3.433,1.491a6.319,6.319,0,0,1,.084.77,5.551,5.551,0,0,1-.171,1.775A2.469,2.469,0,0,1,1543.154,784.5Z" transform="translate(-1537.695 -772.204)" fill="#ffb27d"/>
        <path id="Path_2693" data-name="Path 2693" d="M1552.467,804.253a5.129,5.129,0,0,0,3.456-1.7l-3.286-.075A5.544,5.544,0,0,1,1552.467,804.253Z" transform="translate(-1546.108 -793.323)" fill="#ed975d"/>
        <path id="Path_2694" data-name="Path 2694" d="M1532.491,737.792s3.708,1.236,5.2-1.681c1.61-3.147.22-5.6-1.051-5.844-2.533-.48-4.079.4-4.593,1.4S1530.444,737.129,1532.491,737.792Z" transform="translate(-1526.982 -727.974)" fill="#ffb27d"/>
        <path id="Path_2695" data-name="Path 2695" d="M1542.713,787.421s-.182.379-1.163.1c0,0-.824-.236-.7-.67A2.751,2.751,0,0,1,1542.713,787.421Z" transform="translate(-1535.602 -779.195)" fill="#fff"/>
        <path id="Path_2696" data-name="Path 2696" d="M1518.988,839.96h-13.144c-.118-1.571-.208-3.147-.252-4.548-.022-.7-.034-1.363-.033-1.955a7.343,7.343,0,0,1,.307-2.844l.029-.031a6.869,6.869,0,0,1,3.821-1.6c0,.015,0,.029,0,.044h0c-.041.569.175,1.1,1.17,1.291a4.038,4.038,0,0,0,3.233-1.125h0l.07-.061a9.076,9.076,0,0,1,3.72,1.824c.057.05.113.1.167.156.03.03.06.06.089.091C1518.7,831.762,1518.924,835.431,1518.988,839.96Z" transform="translate(-1503.736 -817.262)" fill="#f9ddbf"/>
        <path id="Path_2697" data-name="Path 2697" d="M1535.662,720.534a4.642,4.642,0,0,0,2.949,4.711c1.312.49,2-4.823-.747-5.884s-5.446.2-5.769,2.054-.077,2.241-.077,2.241S1533.3,720.128,1535.662,720.534Z" transform="translate(-1527.555 -717.893)" fill="#000f5f"/>
        <path id="Path_2698" data-name="Path 2698" d="M1611.57,727.668a2.723,2.723,0,0,1,2.331,0c1.233.594,2.131,3.122,1.578,5.483s1.312,2.4.449,4.295c-.306.672-4.359,1.243-4.5-1.372-.086-1.62,1.217-1.7.837-3.461S1611.57,727.668,1611.57,727.668Z" transform="translate(-1599.367 -725.508)" fill="#000f5f"/>
        <path id="Path_2699" data-name="Path 2699" d="M1492.214,845.551a7.349,7.349,0,0,0-1.8,4.107,3.108,3.108,0,0,0,2.117.727C1493.541,850.2,1492.214,845.551,1492.214,845.551Z" transform="translate(-1490.054 -832.231)" fill="#f9ddbf"/>
        <path id="Path_2700" data-name="Path 2700" d="M1582.49,888.493s-.5,1.948-1.176,3.912h-3.984c.57-2.115,1.242-5.366,1.242-5.366A5.384,5.384,0,0,0,1582.49,888.493Z" transform="translate(-1568.567 -869.708)" fill="#ffb27d"/>
      </g>
      <g id="Group_2899" data-name="Group 2899" transform="translate(96.438 6.954)">
        <path id="Path_2701" data-name="Path 2701" d="M1683.155,798.528a21.7,21.7,0,0,0-1.87-1.739,9.394,9.394,0,0,0-1.451-.929,26.477,26.477,0,0,0-7.6-2.246l-.074-.011c0,1.172-2.5,2.185-4.534,2.052-1.714-.112-2.828-1.416-2.828-2.122l0,0h0l-.065.013a25.152,25.152,0,0,0-9.034,3.741,6.056,6.056,0,0,0-.514.434,36.251,36.251,0,0,0-6.982,10.219h39.649a1.307,1.307,0,0,0,.194-.013,1.556,1.556,0,0,0,.614-.216h0a2.158,2.158,0,0,0,.705-.717A35.776,35.776,0,0,0,1683.155,798.528Z" transform="translate(-1648.2 -776.51)" fill="#b23f36"/>
        <path id="Path_2702" data-name="Path 2702" d="M1821.733,752.4c-2.813-.334-2.613-2.617-2.613-2.617a8.56,8.56,0,0,0,.484-1.821,11.44,11.44,0,0,0,.115-2.73l.886-.145,5.421.109a.114.114,0,0,1,.024.018c.038.033.056.061.052.083a9.376,9.376,0,0,0,.525,4.557C1826.7,751.611,1824.544,752.73,1821.733,752.4Z" transform="translate(-1802.59 -732.747)" fill="#ffb27d"/>
        <path id="Path_2703" data-name="Path 2703" d="M1830.6,745.192l0,.018a5.189,5.189,0,0,1-4.338,2.762,13.4,13.4,0,0,1-2.108-.014,11.445,11.445,0,0,0,.115-2.73l.886-.145,5.421.109Z" transform="translate(-1807.14 -732.747)" fill="#e2915a"/>
        <path id="Path_2704" data-name="Path 2704" d="M1812.127,654.534c-.632,3.4-5.022,3.291-6.919,3.077-.534-.059-.87-.127-.87-.127-.6-.161-.938-1.109-1.094-2.351a19.342,19.342,0,0,1,.5-6.989c.625-1.389,1.8-2.891,6.223-1.807S1812.938,650.174,1812.127,654.534Z" transform="translate(-1788.151 -643.213)" fill="#ffb27d"/>
        <path id="Path_2705" data-name="Path 2705" d="M1809.668,738.011s.124.7.687.785c1.329.212,1.651-.489,1.651-.489A5.176,5.176,0,0,0,1809.668,738.011Z" transform="translate(-1794.055 -726.305)" fill="#fff"/>
        <path id="Path_2706" data-name="Path 2706" d="M1800,618.869a.106.106,0,0,0,.028-.031c.063-.112.237-.087.237-.087a1.313,1.313,0,0,0-.638-.041c.009-.006-.007-.024-.042-.05a1.023,1.023,0,0,0-.393-.582,1.135,1.135,0,0,1,.186.459,4.5,4.5,0,0,0-4.976-.484,17.492,17.492,0,0,1-3.416,1.174,1.79,1.79,0,0,0-1.065,2.762,5.531,5.531,0,0,0,1.341,1.37c1.64.515,3.869-.4,4.943.473s.051,2.3,1.279,2.813l.006,0a.684.684,0,0,0,.848-.275c.3-.494.714-.953,1.149-.674.9.58.456,2.373.239,2.744a3.632,3.632,0,0,0-.286,1.611s2.324-1.331,2.994-2.9C1804.082,623.3,1802.9,620.273,1800,618.869Z" transform="translate(-1775.924 -617.509)" fill="#000f5f"/>
      </g>
      <path id="Path_2707" data-name="Path 2707" d="M1668.858,905.051h1.889c.11-.728.192-1.391.247-1.882q.007-.067.015-.128c.047-.434.072-.707.074-.729v0a.889.889,0,0,0-.356-1.013,2.323,2.323,0,0,0-1.358-.254s-.289.124-.767.348c-.161.075-.345.163-.547.261a31.633,31.633,0,0,0-5.6,3.4h6.408Z" transform="translate(-1564.635 -866.669)" fill="#c65447"/>
      <path id="Path_2708" data-name="Path 2708" d="M1970.786,895.6c-.862-.541-1.448-.863-1.448-.863h0a2.672,2.672,0,0,0-1.651.436h0a2.269,2.269,0,0,0-.22.166,2.769,2.769,0,0,0-.49.553h0a2.707,2.707,0,0,0-.354.722s.037.431.116,1.1c.006.055.012.113.019.172.052.424.118.929.2,1.471h8.524a1.3,1.3,0,0,0,.194-.014A29.407,29.407,0,0,0,1970.786,895.6Z" transform="translate(-1839.393 -860.972)" fill="#c65447"/>
      <g id="Group_2900" data-name="Group 2900" transform="translate(29.022 8.687)">
        <path id="Path_2709" data-name="Path 2709" d="M978.076,657.083a9.949,9.949,0,0,0-2.037-3.345,9.628,9.628,0,0,1-2.485-5.483,17,17,0,0,1-.046-2.429c.01-.279.02-.555.03-.83,0-.049,0-.1,0-.153a12.247,12.247,0,0,0-1.851-6.066,6.387,6.387,0,0,0-6.406-3.146,5.048,5.048,0,0,0-3.8.407,6.752,6.752,0,0,0-2.45,1.994c-1.459,1.92-1.791,4.463-2.1,6.792-.044.339-.088.674-.135,1a17.347,17.347,0,0,1-.4,2.065,4.16,4.16,0,0,1-1.668,2.612,8.1,8.1,0,0,0-3.108,3.305,6,6,0,0,0,0,5.374,5.451,5.451,0,0,0,.478.765,5.119,5.119,0,0,0,5.488,1.846c-.088-.17.293-.534.946-.919,2.359-1.391,8.267-3.07,8.383,3.016a29.063,29.063,0,0,0,5.726-.8,10.729,10.729,0,0,0,4.329-2,3.873,3.873,0,0,0,1.1-1.515A3.675,3.675,0,0,0,978.076,657.083Z" transform="translate(-950.992 -635.439)" fill="#000f5f"/>
        <path id="Path_2710" data-name="Path 2710" d="M1042.012,783.557H1027.53c.048-1.468.1-2.923.146-4.257.122-3.465.224-6.124.224-6.124.268-.083.806-.158,1.1-.222a2.76,2.76,0,0,0,2.014-1.752,14.059,14.059,0,0,0,.683-4.661h0l.29.057,4.869.964s0,.03-.006.086c0,.013,0,.026,0,.042v.006a.254.254,0,0,0,0,.028c0,.047-.007.1-.011.171,0,.021,0,.044,0,.067s0,.038,0,.058,0,.04,0,.061c0,.084-.01.176-.016.276l0,.061c0,.1-.011.2-.015.311,0,.038,0,.075,0,.115,0,.014,0,.027,0,.041,0,.039,0,.078,0,.118s0,.1-.006.154c0,.1-.008.212-.011.32,0,.069,0,.138-.006.208,0,.14-.007.282-.009.424,0,.022,0,.044,0,.066,0,.121,0,.243,0,.364v.036a2.8,2.8,0,0,0,2.021,2.707c.6.173,1.121.321,1.149.33h0a46.484,46.484,0,0,1,1.874,7.9C1041.879,782.181,1041.958,782.867,1042.012,783.557Z" transform="translate(-1020.129 -753.863)" fill="#ffb27d"/>
        <path id="Path_2711" data-name="Path 2711" d="M1078.487,768.092s-.111,1.532-.114,2.975c-2.724-.077-4.164-2.562-4.754-3.94Z" transform="translate(-1061.762 -754.394)" fill="#e8945b"/>
        <path id="Path_2712" data-name="Path 2712" d="M1072.444,689.627s-6.446.106-6.45-3.909-.839-6.705,3.276-6.943,4.917,1.294,5.244,2.633S1074.121,689.5,1072.444,689.627Z" transform="translate(-1054.809 -674.563)" fill="#ffb27d"/>
        <path id="Path_2713" data-name="Path 2713" d="M1052.844,670.365s-1.765,4.71-4.473,5.407-3.883-.029-3.883-.029a7.67,7.67,0,0,0,2.509-4.531S1051.513,668.123,1052.844,670.365Z" transform="translate(-1035.448 -666.251)" fill="#000f5f"/>
        <path id="Path_2714" data-name="Path 2714" d="M1126.386,674.768a4,4,0,0,1,1.847,1.444,6.49,6.49,0,0,1,.871,3.686s1.33-3.2-.165-5.013C1127.355,672.964,1126.386,674.768,1126.386,674.768Z" transform="translate(-1109.427 -670.271)" fill="#163560"/>
        <path id="Path_2715" data-name="Path 2715" d="M1118.873,763.37a1.619,1.619,0,0,0,1.334.543,1.185,1.185,0,0,0,.993-.656A4.33,4.33,0,0,0,1118.873,763.37Z" transform="translate(-1102.64 -750.797)" fill="#ebf3fa"/>
        <path id="Path_2716" data-name="Path 2716" d="M1120.354,763.758s.111.473,1.288.4c0,0,.988-.061.958-.581A3.18,3.18,0,0,0,1120.354,763.758Z" transform="translate(-1103.978 -751.077)" fill="#fff"/>
        <path id="Path_2717" data-name="Path 2717" d="M979.886,844.967c.053.183.1.363.155.54H953c.137-1,.282-1.983.441-2.894.146-.838.3-1.616.478-2.291a8.782,8.782,0,0,1,.594-1.709,6.585,6.585,0,0,1,6.064-3.488h0c6.736,5.493,11.922.519,12.01.433h0s3.29.694,4.438,2.171a14.258,14.258,0,0,1,1.765,3.731c.231.663.453,1.355.662,2.041h0C979.6,844,979.748,844.49,979.886,844.967Z" transform="translate(-952.806 -815.812)" fill="#f9ddbf"/>
      </g>
      <g id="Group_2902" data-name="Group 2902" transform="translate(104.223 28.783)">
        <g id="Group_2901" data-name="Group 2901">
          <path id="Path_2718" data-name="Path 2718" d="M1752.818,848.725l-.031-.04h0c-.029-.04-.08-.106-.148-.19-.007-.01-.014-.018-.022-.028s-.032-.041-.049-.061c-.056-.069-.12-.144-.19-.224a13.8,13.8,0,0,0-3.689-3.09h0a13.755,13.755,0,0,0-16.974,2.632h0c-.108.117-.216.238-.319.36h0c-.055.063-.108.127-.161.19q-.337.406-.642.838a13.827,13.827,0,0,0-1.2,2.065,13.614,13.614,0,0,0-.664,1.688h2.412a11.289,11.289,0,0,1,.842-1.716,11.5,11.5,0,0,1,19.8.095c.031.05.06.1.087.151q.264.464.484.952h0q.114.255.217.517h2.413A13.735,13.735,0,0,0,1752.818,848.725Z" transform="translate(-1728.72 -843.27)" fill="#142644"/>
        </g>
        <path id="Path_2719" data-name="Path 2719" d="M1769,907.939s-.09.021-.252.065-.42.116-.727.211l-.068.021a20.788,20.788,0,0,0-3.847,1.622h-11.816a10.329,10.329,0,0,0-4.134-1.716q-.535-.1-1.119-.165l-.225-.021h0l-.178-.016.492-.82v0l.454-.757c.05,0,.31.066.758.167.229.051.509.111.835.177a45.752,45.752,0,0,0,17.669-.045q.692-.136,1.4-.3l.016.035h0l.49,1.019Z" transform="translate(-1744.898 -900.26)" fill="#142644"/>
      </g>
      <path id="Path_2720" data-name="Path 2720" d="M1931.412,862.68a16.958,16.958,0,0,0-1.237-1.4c-.916-.927-2.186-1.984-3.249-2.037-.613-.03-2.483.555-2.274,1.222.237.758,2.022,1.074,3.386,1.153.655.038,1.752,1.535,1.752,1.535A2.964,2.964,0,0,1,1931.412,862.68Z" transform="translate(-1801.468 -828.917)" fill="#ffb27d"/>
      <path id="Path_2721" data-name="Path 2721" d="M1726.525,888.052a3.626,3.626,0,0,1,1.579.556c.861.655,1.914,1.45,0,2.582a2.451,2.451,0,0,1-2.5.179C1725.266,891.035,1725.3,888.31,1726.525,888.052Z" transform="translate(-1621.518 -854.932)" fill="#ffb27d"/>
      <path id="Path_2722" data-name="Path 2722" d="M1739.957,886.956s1.283-.068,1.757-.151.008.48-.186.609a5.8,5.8,0,0,1-.831.344Z" transform="translate(-1634.647 -853.804)" fill="#ffb27d"/>
      <rect id="Rectangle_1071" data-name="Rectangle 1071" width="10.362" height="6.066" rx="3.033" transform="translate(73.462 12.027)" fill="#95beef" opacity="0.5"/>
      <rect id="Rectangle_1072" data-name="Rectangle 1072" width="0.463" height="0.983" transform="translate(75.652 18.093)" fill="#95beef"/>
      <rect id="Rectangle_1073" data-name="Rectangle 1073" width="0.463" height="0.983" transform="translate(106.465 18.093)" fill="#95beef"/>
      <rect id="Rectangle_1074" data-name="Rectangle 1074" width="0.463" height="0.983" transform="translate(80.938 18.093)" fill="#95beef"/>
      <path id="Path_2723" data-name="Path 2723" d="M996.875,928.6a1.544,1.544,0,0,1-.759.2H883.809c-.024,0-.048,0-.073,0A1.729,1.729,0,0,1,882.42,928a14.44,14.44,0,0,1,3.931-.631c2.548-.069,105.4,0,105.4,0S996.168,927.537,996.875,928.6Z" transform="translate(-860.029 -890.423)" fill="#ffa969"/>
      <rect id="Rectangle_1075" data-name="Rectangle 1075" width="17.744" height="4.36" rx="2.18" transform="translate(69.112 5.672)" fill="#2c3a64"/>
      <rect id="Rectangle_1076" data-name="Rectangle 1076" width="0.456" height="3.021" transform="translate(77.756 2.651)" fill="#2c3a64"/>
      <rect id="Rectangle_1077" data-name="Rectangle 1077" width="147.442" height="3.085" transform="translate(5.196 62.09)" fill="#ffbb8d"/>
    </g>
    <rect id="Rectangle_1078" data-name="Rectangle 1078" width="3.962" height="7.839" transform="translate(93.919 96.624)" fill="#fff"/>
    <rect id="Rectangle_1079" data-name="Rectangle 1079" width="3.962" height="7.839" transform="translate(93.919 113.109)" fill="#fff"/>
  </g>
</svg>
