<svg xmlns="http://www.w3.org/2000/svg" width="24.448" height="15.989" viewBox="0 0 24.448 15.989">
  <g id="Group_3159" data-name="Group 3159" transform="translate(-2444.876 -544.544)">
    <path id="Path_3225" data-name="Path 3225" d="M2469.325,556.757c-.024.107-.048.214-.073.32a2.608,2.608,0,0,1-1.92,2.052,37.531,37.531,0,0,1-5.6,1.116,38.043,38.043,0,0,1-5.888.268,31.564,31.564,0,0,1-5-.511c-1.286-.248-2.566-.53-3.841-.83a2.6,2.6,0,0,1-2.114-2.479,5.167,5.167,0,0,1,.217-1.405q1.013-4.34,2.051-8.674a2.6,2.6,0,0,1,2.515-2.064,6.451,6.451,0,0,1,1.45.244,29.286,29.286,0,0,0,3.933.6,25.378,25.378,0,0,0,3.747.031,24.429,24.429,0,0,0,4.842-.781,2.736,2.736,0,0,1,3.435,2.1c.685,3.013,1.412,6.016,2.121,9.024.047.2.091.4.135.6Zm-10.852,1.8.01.041c.165,0,.331.013.494,0,.831-.077,1.662-.15,2.491-.246a30.24,30.24,0,0,0,4.551-.912,1.31,1.31,0,0,0,.952-1.636q-.684-2.9-1.365-5.8c-.209-.885-.413-1.772-.641-2.653a1.258,1.258,0,0,0-1.335-.934,7.413,7.413,0,0,0-1.184.213,19.745,19.745,0,0,1-4.111.6,22.52,22.52,0,0,1-4.374-.168c-1.057-.152-2.1-.387-3.15-.608a1.328,1.328,0,0,0-1.64,1.011q-.989,4.175-1.974,8.351a1.3,1.3,0,0,0,.758,1.542.444.444,0,0,0,.244.036q2-.428,4.007-.868c.05-.011.1-.029.148-.044a.3.3,0,0,0-.17-.054c-.424-.018-.849-.033-1.274-.051-.242-.01-.371-.149-.345-.367.021-.178.143-.271.378-.262q2.245.089,4.489.185c.417.018.834.043,1.251.068a.294.294,0,0,1,.3.3.314.314,0,0,1-.3.328,2.49,2.49,0,0,1-.28-.012,6.388,6.388,0,0,0-1.332-.019c-1.512.288-3.012.634-4.517.959-.3.065-.6.135-.893.2v.065c.653.119,1.306.242,1.959.357a33.07,33.07,0,0,0,4.874.456.556.556,0,0,0,.231-.036q2.106-.92,4.209-1.847a1.326,1.326,0,0,0,.132-.077c-.5.045-.991.123-1.48.2a.307.307,0,0,1-.372-.242.3.3,0,0,1,.24-.373,1.113,1.113,0,0,1,.147-.032q2.023-.318,4.047-.635c.518-.081,1.036-.166,1.557-.233a.282.282,0,0,1,.354.259.313.313,0,0,1-.285.365c-.2.036-.4.06-.6.094a4.411,4.411,0,0,0-.949.181c-1.248.522-2.481,1.079-3.719,1.622Q2459.241,558.225,2458.472,558.56Z" fill="#000f5f"/>
  </g>
</svg>
