<svg xmlns="http://www.w3.org/2000/svg" width="29.721" height="18.669" viewBox="0 0 29.721 18.669">
  <g id="car-collision" transform="translate(0 -113.781)">
    <path id="Path_1917" data-name="Path 1917" d="M18.106,116.3l-2.443,3.2,1.564-3.735a.36.36,0,0,1,.306-.306c.039,0,.073.039.151.073l.228.112.228.112C18.339,115.879,18.3,116.064,18.106,116.3ZM14.793,119.8l.685-5.376c.073-.379-.039-.646-.306-.646H14.41c-.267,0-.379.228-.306.646Zm.952,5.828a3.111,3.111,0,0,1,.306,1.37v5.07a.376.376,0,0,1-.379.379H13.691a.357.357,0,0,1-.379-.379v-1.258H2.749v1.258a.376.376,0,0,1-.379.379H.379A.357.357,0,0,1,0,132.071V127a2.9,2.9,0,0,1,.306-1.37l2.477-5.182a2.009,2.009,0,0,1,1.714-1.1H11.51a2.151,2.151,0,0,1,1.758,1.1ZM2.21,125.408H13.793l-1.676-3.579a1.247,1.247,0,0,0-1.37-.84H4.993a1.194,1.194,0,0,0-1.064.84ZM3.812,128a1.238,1.238,0,0,0-1.258-1.219A1.2,1.2,0,0,0,1.336,128a1.238,1.238,0,0,0,1.219,1.258A1.268,1.268,0,0,0,3.812,128Zm10.9,0a1.238,1.238,0,0,0-1.258-1.219A1.2,1.2,0,0,0,12.234,128a1.238,1.238,0,0,0,1.219,1.258A1.264,1.264,0,0,0,14.711,128Zm-.758-8.159L12.389,116.1c-.073-.194-.194-.306-.306-.306h-.112c-.039,0-.039.039-.073.039l-.228.112-.194.151c-.194.112-.151.306.039.534Zm15.658,7.319-1.146,4.308-.151.573a.388.388,0,0,1-.457.267l-1.9-.5a.388.388,0,0,1-.267-.457l.151-.573.194-.612-9.417-2.516v-.724a4.246,4.246,0,0,0-.112-.952,1.241,1.241,0,0,0,1.1-.918,1.258,1.258,0,0,0-.879-1.525,1.38,1.38,0,0,0-1.146.306L14.7,122c.039-.039.073-.112.112-.151l3.735-4.347A2.108,2.108,0,0,1,20,116.821a2.012,2.012,0,0,1,.5.039l6.673,1.714a2.11,2.11,0,0,1,1.408,1.525l1.064,5.643A2.747,2.747,0,0,1,29.611,127.156Zm-1.637-1.977-.724-3.885a1.272,1.272,0,0,0-1.1-1.185l-5.3-1.452a2.2,2.2,0,0,0-.646-.073,1.461,1.461,0,0,0-.879.573l-2.593,3.006Zm-.724,1.219a.464.464,0,0,0-.228-.039h-.228a1.122,1.122,0,0,0-1.03.918,1.238,1.238,0,0,0,.84,1.525,1.245,1.245,0,1,0,.646-2.4Z" fill="#000f5f"/>
  </g>
</svg>
