<svg xmlns="http://www.w3.org/2000/svg" width="23.306" height="17.48" viewBox="0 0 23.306 17.48">
  <path id="Icon_awesome-car" data-name="Icon awesome-car" d="M22.76,9.6H20.035L19.277,7.7a5.072,5.072,0,0,0-4.733-3.2H8.763A5.074,5.074,0,0,0,4.029,7.7L3.272,9.6H.547a.546.546,0,0,0-.53.679L.29,11.37a.546.546,0,0,0,.53.414h.914A2.893,2.893,0,0,0,.728,13.968v2.185a2.89,2.89,0,0,0,.728,1.909v2.461A1.457,1.457,0,0,0,2.913,21.98H4.37a1.457,1.457,0,0,0,1.457-1.457V19.067H17.48v1.457a1.457,1.457,0,0,0,1.457,1.457h1.457a1.457,1.457,0,0,0,1.457-1.457V18.062a2.888,2.888,0,0,0,.728-1.909V13.968a2.894,2.894,0,0,0-1-2.185h.914a.546.546,0,0,0,.53-.414l.273-1.092a.547.547,0,0,0-.53-.679ZM6.734,8.787A2.185,2.185,0,0,1,8.763,7.413h5.781a2.185,2.185,0,0,1,2.029,1.373l.907,2.268H5.827l.907-2.268ZM4.37,16.144a1.374,1.374,0,0,1-1.457-1.452A1.374,1.374,0,0,1,4.37,13.24a2.8,2.8,0,0,1,2.185,2.178C6.555,16.289,5.244,16.144,4.37,16.144Zm14.567,0c-.874,0-2.185.145-2.185-.726a2.8,2.8,0,0,1,2.185-2.178,1.374,1.374,0,0,1,1.457,1.452,1.374,1.374,0,0,1-1.457,1.452Z" transform="translate(0 -4.5)" fill="#000f5f"/>
</svg>
