<svg xmlns="http://www.w3.org/2000/svg" width="42.876" height="42.876" viewBox="0 0 42.876 42.876">
  <path id="Icon_awesome-check-circle" data-name="Icon awesome-check-circle" d="M43.438,22A21.438,21.438,0,1,1,22,.563,21.438,21.438,0,0,1,43.438,22ZM19.521,33.352,35.426,17.446a1.383,1.383,0,0,0,0-1.956L33.47,13.534a1.383,1.383,0,0,0-1.956,0L18.543,26.506,12.487,20.45a1.383,1.383,0,0,0-1.956,0L8.575,22.406a1.383,1.383,0,0,0,0,1.956l8.99,8.99A1.383,1.383,0,0,0,19.521,33.352Z" transform="translate(-0.563 -0.563)" fill="#40a2be"/>
</svg>
