<svg id="Icon_ionic-ios-document" data-name="Icon ionic-ios-document" xmlns="http://www.w3.org/2000/svg" width="9.68" height="12.737" viewBox="0 0 9.68 12.737">
  <path id="Path_1704" data-name="Path 1704" d="M21.207,7.094h2.9a.158.158,0,0,0,.159-.159h0a.942.942,0,0,0-.341-.729L21.493,4.18a1.023,1.023,0,0,0-.656-.236h0a.235.235,0,0,0-.236.236V6.489A.6.6,0,0,0,21.207,7.094Z" transform="translate(-14.583 -3.941)" fill="#000f5f"/>
  <path id="Path_1705" data-name="Path 1705" d="M12.5,6.485V3.938H8.331A1.022,1.022,0,0,0,7.313,4.956v10.7a1.022,1.022,0,0,0,1.019,1.019h7.642a1.022,1.022,0,0,0,1.019-1.019V7.918H13.936A1.435,1.435,0,0,1,12.5,6.485Z" transform="translate(-7.313 -3.938)" fill="#000f5f"/>
</svg>
