<svg xmlns="http://www.w3.org/2000/svg" width="24" height="24.019" viewBox="0 0 24 24.019">
  <g id="zliCMR" transform="translate(-812.313 -392.665)">
    <g id="Group_2973" data-name="Group 2973" transform="translate(812.313 392.665)">
      <path id="Path_2807" data-name="Path 2807" d="M954.883,536.461a3.56,3.56,0,0,1-4.615-5.375,3.544,3.544,0,0,1,4.564-.476c1.6,1.1,1.941,2.859.926,5.02l2.608,2.579c.478.473.408.935-.217,1.19-.118.048-.359-.064-.474-.175-.845-.82-1.673-1.658-2.506-2.49C955.074,536.64,954.975,536.549,954.883,536.461Zm-2.041-.4a2.526,2.526,0,1,0-2.542-2.516A2.53,2.53,0,0,0,952.842,536.061Z" transform="translate(-938.16 -518.834)" fill="#000f5f"/>
      <path id="Path_2808" data-name="Path 2808" d="M854.849,509.87v-.862h2.532c.014.253.028.515.045.812h.825l.037-.809h.82c.012.255.024.518.039.833h.813c.016.3.029.551.045.835l.823.051v.812l-.814.038c-.023.307-.046.6-.068.891l.016-.016h-.823l.013.013v-1.748h-1.707v.868h.8v.88l.01-.013h-.848v1.674h-2.54V513.3h1.662v-.857h-2.543v-.846l.864-.046v-.889l-.015.017.825.056.036.808h.827v-1.686h-1.689Z" transform="translate(-850.599 -499.556)" fill="#000f5f"/>
      <path id="Path_2809" data-name="Path 2809" d="M853.966,439.977v-5.109h5.114v5.109Zm.874-4.257v3.4h3.386v-3.4Z" transform="translate(-850.582 -431.44)" fill="#000f5f"/>
      <path id="Path_2810" data-name="Path 2810" d="M859.231,588.4h-5.114v-5.122h5.114Zm-.861-4.267h-3.4v3.4h3.4Z" transform="translate(-850.721 -567.792)" fill="#000f5f"/>
      <path id="Path_2811" data-name="Path 2811" d="M1002.781,434.729h5.079v5.119h-5.079Zm.839.865V439h3.4v-3.4Z" transform="translate(-987.308 -431.312)" fill="#000f5f"/>
      <path id="Path_2812" data-name="Path 2812" d="M1031,605.026h0a.538.538,0,0,1,.537.538c0,.286,0,.568,0,.849,0,.609.008,1.219,0,1.828a3.467,3.467,0,0,1-3.216,3.507c-.983.079-1.976.036-2.985.021a.538.538,0,0,1-.53-.538h0a.538.538,0,0,1,.538-.538c.789,0,1.57,0,2.351,0a4.014,4.014,0,0,0,.847-.062,2.448,2.448,0,0,0,1.919-2.367c.011-.663.008-1.957.005-2.7A.537.537,0,0,1,1031,605.026Z" transform="translate(-1007.544 -587.774)" fill="#000f5f"/>
      <path id="Path_2813" data-name="Path 2813" d="M812.927,399.433h0a.519.519,0,0,1-.519-.51,26.97,26.97,0,0,1,.031-3.274,3.34,3.34,0,0,1,3.079-2.925c.773-.067,2.245-.062,3.046-.054a.538.538,0,0,1,.532.555v.011a.539.539,0,0,1-.534.522c-.7.005-1.919.008-2.56.012a2.469,2.469,0,0,0-2.554,2.565c0,.855,0,1.71,0,2.579A.519.519,0,0,1,812.927,399.433Z" transform="translate(-812.369 -392.665)" fill="#000f5f"/>
      <path id="Path_2814" data-name="Path 2814" d="M1024.69,393.744h0a.512.512,0,0,1,.5-.512,26.377,26.377,0,0,1,3.4.034,3.361,3.361,0,0,1,2.827,3.213c.032.961.015,1.923.009,2.9a.534.534,0,0,1-.534.531h0a.535.535,0,0,1-.535-.535c0-.4,0-.805,0-1.206,0-.487.008-.975,0-1.462a2.455,2.455,0,0,0-2.459-2.451c-.889-.01-1.778,0-2.694,0A.512.512,0,0,1,1024.69,393.744Z" transform="translate(-1007.437 -393.151)" fill="#000f5f"/>
      <path id="Path_2815" data-name="Path 2815" d="M812.855,605h0a.536.536,0,0,1,.536.536c0,.409,0,.812,0,1.215,0,.474,0,.948,0,1.421a2.464,2.464,0,0,0,2.5,2.495c.874.009,1.748,0,2.641,0a.512.512,0,0,1,.512.512h0a.511.511,0,0,1-.5.511,24.878,24.878,0,0,1-3.4-.036,3.226,3.226,0,0,1-2.82-3.133c-.026-.989-.014-1.978-.01-2.99A.536.536,0,0,1,812.855,605Z" transform="translate(-812.313 -587.75)" fill="#000f5f"/>
      <path id="Path_2816" data-name="Path 2816" d="M941.038,437.473h-1.711l.009.013v-1.717h-.907l.013.016v-.872h1.708v1.666l.875.046c0,.3,0,.583,0,.862Z" transform="translate(-928.184 -431.48)" fill="#000f5f"/>
      <path id="Path_2817" data-name="Path 2817" d="M960.995,469.079c-.019-.292-.039-.584-.06-.913l-.817-.039v-.811l.847-.046c0-.281,0-.556,0-.831l-.013.013h1.686v.8l-.82.049v1.663l-.832.107Z" transform="translate(-948.111 -460.445)" fill="#000f5f"/>
      <path id="Path_2818" data-name="Path 2818" d="M970.656,499.379h.825c.015-.262.03-.514.046-.8h.8c.013.254.026.516.042.809h.813v.873H970.67c0-.32,0-.61,0-.9Z" transform="translate(-957.793 -489.979)" fill="#000f5f"/>
      <path id="Path_2819" data-name="Path 2819" d="M930.045,466.424V468.1h-1.719V467.3l.833-.037v-.833l-.013.01h.908Z" transform="translate(-918.901 -460.432)" fill="#000f5f"/>
      <path id="Path_2820" data-name="Path 2820" d="M929.221,446.862h-.827v-1.734l.828.042-.013-.016v1.717Z" transform="translate(-918.964 -440.866)" fill="#000f5f"/>
      <path id="Path_2821" data-name="Path 2821" d="M981.46,434.833h.791V436.5h-.791Z" transform="translate(-967.719 -431.407)" fill="#000f5f"/>
      <path id="Path_2822" data-name="Path 2822" d="M1013.227,508.925h.8v.819h-.8Z" transform="translate(-996.905 -499.48)" fill="#000f5f"/>
      <path id="Path_2823" data-name="Path 2823" d="M929.1,508.1l.046.876H928.3v-.8l.8-.072Z" transform="translate(-918.88 -498.72)" fill="#000f5f"/>
      <path id="Path_2824" data-name="Path 2824" d="M929.211,593.917v.8h-.8v-.8Z" transform="translate(-918.98 -577.568)" fill="#000f5f"/>
      <path id="Path_2825" data-name="Path 2825" d="M928.415,614.94h.789v.819h-.789Z" transform="translate(-918.983 -596.883)" fill="#000f5f"/>
      <path id="Path_2826" data-name="Path 2826" d="M918.238,561.38q-.018.471-.036.942l0,0-.756-.086v-.853l-.016.015h.822Z" transform="translate(-908.892 -547.673)" fill="#000f5f"/>
      <path id="Path_2827" data-name="Path 2827" d="M907.32,552.248h-.864c-.013-.281-.025-.544-.037-.807l-.01.013h.908l-.013-.013q0,.411,0,.822Z" transform="translate(-898.765 -538.542)" fill="#000f5f"/>
      <path id="Path_2828" data-name="Path 2828" d="M854.9,520.238l-.859.043v-.834h.86l-.016-.015q0,.411,0,.823Z" transform="translate(-850.652 -509.135)" fill="#000f5f"/>
      <path id="Path_2829" data-name="Path 2829" d="M1035.311,509.105v.8h-.794v-.8Z" transform="translate(-1016.465 -499.646)" fill="#000f5f"/>
      <path id="Path_2830" data-name="Path 2830" d="M960.03,498.126q-.007.388-.013.775l.014-.013-.955-.013.008.009.087-.821.866.071Z" transform="translate(-947.154 -489.501)" fill="#000f5f"/>
      <path id="Path_2831" data-name="Path 2831" d="M939.037,499.374l-.966.006.008.007c.019-.25.038-.5.061-.779h.794q.048.384.1.772Z" transform="translate(-927.855 -490.001)" fill="#000f5f"/>
      <path id="Path_2832" data-name="Path 2832" d="M949.923,508.04l.06.89h-.869c.024-.314.046-.6.068-.891l-.006.005.756.006Z" transform="translate(-938 -498.666)" fill="#000f5f"/>
      <path id="Path_2833" data-name="Path 2833" d="M926.907,572.292l.909-.061v.835h-.762c-.047-.256-.1-.517-.144-.777Z" transform="translate(-917.597 -557.643)" fill="#000f5f"/>
      <path id="Path_2834" data-name="Path 2834" d="M927.351,551.161l.871-.042v.834h-.871l.016.015q0-.412,0-.823Z" transform="translate(-918.005 -538.246)" fill="#000f5f"/>
      <path id="Path_2835" data-name="Path 2835" d="M876.9,456.092v1.647h-1.668v-1.647Z" transform="translate(-870.123 -450.939)" fill="#000f5f"/>
      <path id="Path_2836" data-name="Path 2836" d="M877.046,604.606v1.656h-1.66v-1.656Z" transform="translate(-870.262 -587.388)" fill="#000f5f"/>
      <path id="Path_2837" data-name="Path 2837" d="M1025.554,456v1.663H1023.9V456Z" transform="translate(-1006.708 -450.851)" fill="#000f5f"/>
    </g>
  </g>
</svg>
