<svg xmlns="http://www.w3.org/2000/svg" width="10.922" height="12.482" viewBox="0 0 10.922 12.482"><path d="M7.8,10.922V11.9a.585.585,0,0,1-.585.585H.585A.585.585,0,0,1,0,11.9V2.925A.585.585,0,0,1,.585,2.34H2.34V9.557a1.367,1.367,0,0,0,1.365,1.365Zm0-8.386V0h-4.1a.585.585,0,0,0-.585.585V9.557a.585.585,0,0,0,.585.585h6.631a.585.585,0,0,0,.585-.585V3.121H8.386A.587.587,0,0,1,7.8,2.535Zm2.949-.756L9.143.171A.585.585,0,0,0,8.729,0H8.581V2.34h2.34V2.193a.585.585,0,0,0-.171-.414Z" fill="#000f5f"/></svg>