<svg xmlns="http://www.w3.org/2000/svg" width="21" height="20" viewBox="0 0 21 20">
  <path id="menu_navigation_grid-_1529_" data-name="menu_navigation_grid-[#1529]" d="M60.85,51H57.7a3.078,3.078,0,0,0-3.15,3v3a3.078,3.078,0,0,0,3.15,3h3.15A3.078,3.078,0,0,0,64,57V54a3.078,3.078,0,0,0-3.15-3M49.3,51H46.15A3.078,3.078,0,0,0,43,54v3a3.078,3.078,0,0,0,3.15,3H49.3a3.078,3.078,0,0,0,3.15-3V54a3.078,3.078,0,0,0-3.15-3M60.85,40H57.7a3.078,3.078,0,0,0-3.15,3v3a3.078,3.078,0,0,0,3.15,3h3.15A3.078,3.078,0,0,0,64,46V43a3.078,3.078,0,0,0-3.15-3m-8.4,3v3a3.078,3.078,0,0,1-3.15,3H46.15A3.078,3.078,0,0,1,43,46V43a3.078,3.078,0,0,1,3.15-3H49.3a3.078,3.078,0,0,1,3.15,3" transform="translate(-43 -40)" fill="#0e2b5c" fill-rule="evenodd"/>
</svg>
