<svg xmlns="http://www.w3.org/2000/svg" width="16.738" height="15.451" viewBox="0 0 16.738 15.451">
  <g id="Icon_ionic-ios-calendar" data-name="Icon ionic-ios-calendar" transform="translate(-3.375 -4.5)">
    <path id="Path_1022" data-name="Path 1022" d="M18.5,6.75H16.894v.966a.323.323,0,0,1-.322.322h-.644a.323.323,0,0,1-.322-.322V6.75H7.881v.966a.323.323,0,0,1-.322.322H6.916a.323.323,0,0,1-.322-.322V6.75H4.984A1.614,1.614,0,0,0,3.375,8.359V19.3a1.614,1.614,0,0,0,1.609,1.609H18.5A1.614,1.614,0,0,0,20.113,19.3V8.359A1.614,1.614,0,0,0,18.5,6.75Zm.322,12.071a.807.807,0,0,1-.8.8H5.467a.807.807,0,0,1-.8-.8V11.578a.323.323,0,0,1,.322-.322H18.5a.323.323,0,0,1,.322.322Z" transform="translate(0 -0.962)" fill="#000f5f"/>
    <path id="Path_1023" data-name="Path 1023" d="M10.288,4.822A.323.323,0,0,0,9.966,4.5H9.322A.323.323,0,0,0,9,4.822v.966h1.288Z" transform="translate(-2.406)" fill="#000f5f"/>
    <path id="Path_1024" data-name="Path 1024" d="M26.038,4.822a.323.323,0,0,0-.322-.322h-.644a.323.323,0,0,0-.322.322v.966h1.288Z" transform="translate(-9.143)" fill="#000f5f"/>
  </g>
</svg>
