<svg xmlns="http://www.w3.org/2000/svg" width="18.595" height="19.43" viewBox="0 0 18.595 19.43">
  <g id="deaf_1_" data-name="deaf (1)" transform="translate(-11 0)">
    <path id="Path_1942" data-name="Path 1942" d="M393.892,203.088l1.115-1.115a.569.569,0,1,0-.805-.805l-1.115,1.115-1.115-1.115a.569.569,0,0,0-.805.805l1.115,1.115-1.115,1.115a.569.569,0,1,0,.805.805l1.115-1.115,1.115,1.115a.569.569,0,1,0,.805-.805Z" transform="translate(-365.579 -193.373)" fill="#5fa0bb"/>
    <path id="Path_1943" data-name="Path 1943" d="M23.628,12.926a4.529,4.529,0,0,1,.09-3.575A6.647,6.647,0,0,0,22.263,1.9,6.631,6.631,0,0,0,11,6.666a6.6,6.6,0,0,0,1.367,4.045,13.486,13.486,0,0,1,2.022,3.446,6.977,6.977,0,0,0,.487,1.034,9.351,9.351,0,0,0,3.574,3.561,5.377,5.377,0,0,0,2.5.677,3.761,3.761,0,0,0,1.828-.458c1.231-.676,1.753-2.32,1.4-4.4a8.674,8.674,0,0,0-.544-1.646ZM20.7,9.757a.569.569,0,0,1-.8-.813,3.251,3.251,0,0,0,.483-.6,2.085,2.085,0,1,0-3.1,2.783,2.1,2.1,0,0,1,.551,1.556.937.937,0,0,0,.052.334.945.945,0,0,0,1.608.323.569.569,0,0,1,.854.753,2.073,2.073,0,0,1-1.564.707,2.172,2.172,0,0,1-.409-.039,2.1,2.1,0,0,1-1.678-2.118.983.983,0,0,0-.23-.723A3.222,3.222,0,0,1,20.82,7.184a3.269,3.269,0,0,0,.046-.544,3.226,3.226,0,1,0-6.451,0,.569.569,0,1,1-1.138,0A4.364,4.364,0,1,1,20.7,9.757Z" transform="translate(0 0)" fill="#5fa0bb"/>
  </g>
</svg>
