<svg xmlns="http://www.w3.org/2000/svg" width="17.913" height="18.783" viewBox="0 0 17.913 18.783">
  <g id="Group_2985" data-name="Group 2985" transform="translate(-711.325 -243.98)">
    <path id="Path_2839" data-name="Path 2839" d="M764.505,258.7h13.138c0-.125,0-.22,0-.315-.008-2.751,0-5.5-.032-8.254a5.76,5.76,0,0,0-.8-2.768,6.564,6.564,0,0,0-12.052,1.381,7.257,7.257,0,0,0-.257,2.011C764.5,253.326,764.505,255.893,764.505,258.7Z" transform="translate(-51.18 0)" fill="#5fa0bb"/>
    <path id="Path_2840" data-name="Path 2840" d="M729.045,584.78a1.167,1.167,0,0,0-1.229-1.168c-.322,0-.643,0-.965,0H713.318c-.345,0-.691-.008-1.036.006a1.15,1.15,0,0,0-1.116,1.091c-.024.565,0,1.132-.019,1.7a.727.727,0,0,0,.448.785h17.017a.648.648,0,0,0,.44-.588C729.052,585.995,729.068,585.387,729.045,584.78Z" transform="translate(0.18 -324.428)" fill="#5fa0bb"/>
    <g id="Group_2984" data-name="Group 2984" transform="translate(-5450.175 -4057.39)">
      <line id="Line_189" data-name="Line 189" x2="7.032" transform="translate(6166.5 4306.5)" fill="none" stroke="#fff" stroke-linecap="round" stroke-width="1"/>
      <line id="Line_190" data-name="Line 190" x2="5.032" transform="translate(6167.5 4309.5)" fill="none" stroke="#fff" stroke-linecap="round" stroke-width="1"/>
    </g>
  </g>
</svg>
