<svg xmlns="http://www.w3.org/2000/svg" width="22.021" height="18.23" viewBox="0 0 22.021 18.23">
  <g id="Group_2414" data-name="Group 2414" transform="translate(-956.304 -518.971)">
    <g id="Q7kY35" transform="translate(963.078 522.471)">
      <g id="Group_2409" data-name="Group 2409" transform="translate(0 0)">
        <path id="Path_1907" data-name="Path 1907" d="M964.778,527.541v-.153a1.738,1.738,0,0,1,.153-.268,11.084,11.084,0,0,1,2.291-2.087,9.176,9.176,0,0,1,4.042-1.616,7.83,7.83,0,0,1,2.451.06,9.335,9.335,0,0,1,3.111,1.2,14.938,14.938,0,0,1,2.974,2.377.765.765,0,0,1,.224.336v.153a1.809,1.809,0,0,1-.153.268,11,11,0,0,1-1.884,1.793,9.942,9.942,0,0,1-2.966,1.574,7.968,7.968,0,0,1-4.138.23,9.58,9.58,0,0,1-3.13-1.292A15.18,15.18,0,0,1,965,527.872.76.76,0,0,1,964.778,527.541Zm7.62,2.944a3.02,3.02,0,1,0-3.017-3.023,3.02,3.02,0,0,0,3.017,3.023Zm-2.907-5.656a10.369,10.369,0,0,0-3.641,2.6,12.5,12.5,0,0,0,3.524,2.516,3.883,3.883,0,0,1-.886-2.582A3.93,3.93,0,0,1,969.49,524.829Zm5.953.142a3.961,3.961,0,0,1-.115,5.127,10.383,10.383,0,0,0,3.644-2.609,12.456,12.456,0,0,0-3.532-2.516Z" transform="translate(-964.778 -523.349)" fill="#5fa0bb"/>
        <path id="Path_1908" data-name="Path 1908" d="M970.558,527.26a1.844,1.844,0,0,1,.054-.207,3.532,3.532,0,0,1,2.074-2.117.511.511,0,0,1,.395.942l-.019.007a2.537,2.537,0,0,0-1.5,1.534.512.512,0,0,1-.569.345A.527.527,0,0,1,970.558,527.26Z" transform="translate(-965.938 -523.659)" fill="#5fa0bb"/>
      </g>
    </g>
    <g id="Group_2413" data-name="Group 2413" transform="translate(956.304 518.971)">
      <path id="Path_1913" data-name="Path 1913" d="M969.1,531.413a11.756,11.756,0,0,1-3.833-1.581,18.621,18.621,0,0,1-3.377-2.746.933.933,0,0,1-.268-.405v-.187a2.212,2.212,0,0,1,.187-.328,13.581,13.581,0,0,1,2.807-2.556,11.227,11.227,0,0,1,4.949-1.978,9.619,9.619,0,0,1,2.846.05,4.809,4.809,0,0,0-3.338-2.576,5.9,5.9,0,0,0-3.684.378,1.732,1.732,0,0,1-1.518.014c-3.743-1.48-7.509.276-7.568,4.74a5.865,5.865,0,0,0,1.076,3.54,9.427,9.427,0,0,1,1.642,4.744,8.463,8.463,0,0,0,1.25,3.947c.641.978,1.54.976,2.073-.063a14.4,14.4,0,0,0,.886-2.433c.267-.887.423-1.809.708-2.689.09-.276.44-.64.677-.645s.588.358.683.631c.265.758.387,1.565.633,2.332a20.489,20.489,0,0,0,1.1,2.987c.417.825,1.241.792,1.814.049a2.133,2.133,0,0,0,.375-.619,19.43,19.43,0,0,0,.91-3.117q.093-.665.225-1.31A9.6,9.6,0,0,1,969.1,531.413Z" transform="translate(-956.304 -518.971)" fill="#5fa0bb"/>
    </g>
  </g>
</svg>
