<svg xmlns="http://www.w3.org/2000/svg" width="17.586" height="21.781" viewBox="0 0 17.586 21.781">
  <g id="XMLID_28_" transform="translate(-47.38)">
    <path id="XMLID_31_" d="M178.97,4.293a2.146,2.146,0,1,0-2.147-2.146A2.147,2.147,0,0,0,178.97,4.293Z" transform="translate(-123.712)" fill="#5fa0bb"/>
    <path id="XMLID_30_" d="M58.575,206.244a4.744,4.744,0,1,1-6.468-5.652V198.58a6.634,6.634,0,1,0,7.93,9.13l-.749-1.472Z" transform="translate(0 -189.788)" fill="#5fa0bb"/>
    <path id="XMLID_29_" d="M194.074,131.107l-2.875-5.652a1.259,1.259,0,0,0-1.123-.689h-3.682v-.84h3.169a.991.991,0,0,0,.945-.945.945.945,0,0,0-.945-.945h-3.169v-2.848a1.89,1.89,0,1,0-3.781,0v6.17a1.929,1.929,0,0,0,1.929,1.929H189.3l2.525,4.964a1.26,1.26,0,1,0,2.246-1.143Z" transform="translate(-129.246 -112.103)" fill="#5fa0bb"/>
  </g>
</svg>
