<svg id="dollar" xmlns="http://www.w3.org/2000/svg" width="15.245" height="15.245" viewBox="0 0 15.245 15.245">
  <path id="Path_1927" data-name="Path 1927" d="M13.012,2.233a7.622,7.622,0,0,0-10.78,10.78,7.622,7.622,0,0,0,10.78-10.78ZM7.622,7.146a2.144,2.144,0,0,1,.586,4.205.15.15,0,0,0-.11.143v.4a.485.485,0,0,1-.453.489.476.476,0,0,1-.5-.476v-.415a.149.149,0,0,0-.109-.143A2.147,2.147,0,0,1,5.479,9.3a.484.484,0,0,1,.462-.489.476.476,0,0,1,.49.476A1.191,1.191,0,1,0,7.622,8.1a2.144,2.144,0,0,1-.586-4.205.15.15,0,0,0,.11-.143v-.4A.485.485,0,0,1,7.6,2.859a.476.476,0,0,1,.5.476V3.75a.149.149,0,0,0,.109.143A2.147,2.147,0,0,1,9.766,5.942a.484.484,0,0,1-.462.489.476.476,0,0,1-.49-.476A1.191,1.191,0,1,0,7.622,7.146Z" transform="translate(0)" fill="#5fa0bb"/>
</svg>
