<svg xmlns="http://www.w3.org/2000/svg" width="11.022" height="14.696" viewBox="0 0 11.022 14.696"><path d="M6.43,3.9V0H.689A.687.687,0,0,0,0,.689V14.007a.687.687,0,0,0,.689.689h9.644a.687.687,0,0,0,.689-.689V4.593h-3.9A.691.691,0,0,1,6.43,3.9ZM8.624,9.971,5.856,12.717a.489.489,0,0,1-.69,0L2.4,9.971a.459.459,0,0,1,.323-.785H4.593v-2.3a.459.459,0,0,1,.459-.459H5.97a.459.459,0,0,1,.459.459v2.3H8.3A.459.459,0,0,1,8.624,9.971Zm2.2-6.957L8.011.2A.688.688,0,0,0,7.523,0H7.348V3.674h3.674V3.5A.687.687,0,0,0,10.821,3.014Z" fill="#fff"/></svg>