<svg xmlns="http://www.w3.org/2000/svg" width="27.036" height="19.311" viewBox="0 0 27.036 19.311">
  <g id="Icon_ionic-ios-card" data-name="Icon ionic-ios-card" transform="translate(-2.25 -6.75)">
    <path id="Path_1025" data-name="Path 1025" d="M29.286,8.681A1.937,1.937,0,0,0,27.355,6.75H4.181A1.937,1.937,0,0,0,2.25,8.681v2.9H29.286Z" fill="#0e2b5c"/>
    <path id="Path_1026" data-name="Path 1026" d="M2.25,25.406a1.937,1.937,0,0,0,1.931,1.931H27.355a1.937,1.937,0,0,0,1.931-1.931V15.75H2.25Zm8.569-2.9h9.9a.847.847,0,0,1,.845.845h0a.847.847,0,0,1-.845.845h-9.9a.847.847,0,0,1-.845-.845h0A.847.847,0,0,1,10.819,22.509Zm-4.345,0H7.2a.847.847,0,0,1,.845.845h0A.847.847,0,0,1,7.2,24.2H6.474a.847.847,0,0,1-.845-.845h0A.847.847,0,0,1,6.474,22.509Z" transform="translate(0 -1.275)" fill="#0e2b5c"/>
  </g>
</svg>
