<svg xmlns="http://www.w3.org/2000/svg" width="19.5" height="19.5" viewBox="0 0 19.5 19.5">
  <path id="edit" d="M66.014,269.957l9.025-9.176a.573.573,0,0,1,.812,0L79.088,264a.572.572,0,0,1,0,.815l-9.323,9.15a.571.571,0,0,1-.4.165H66.321a.471.471,0,0,1-.471-.471v-3.3A.575.575,0,0,1,66.014,269.957Zm10.722,8.069H62.763a.814.814,0,0,1-.814-.814V263.238a.813.813,0,0,1,.814-.813h6.011a.975.975,0,0,0,.975-.976h0a.975.975,0,0,0-.975-.975H61.659A1.659,1.659,0,0,0,60,262.135v16.181a1.659,1.659,0,0,0,1.659,1.659H77.84a1.66,1.66,0,0,0,1.66-1.659V271.2a.975.975,0,0,0-.975-.975h0a.975.975,0,0,0-.976.975v6.011A.813.813,0,0,1,76.737,278.026Z" transform="translate(-60 -260.475)" fill="#000f5f"/>
</svg>
