<svg xmlns="http://www.w3.org/2000/svg" width="12.133" height="8.19" viewBox="0 0 12.133 8.19">
  <path id="Icon_zocial-email" data-name="Icon zocial-email" d="M.072,11.532V4.793q0-.012.035-.222L4.073,7.964l-3.954,3.8a.992.992,0,0,1-.047-.234ZM.6,4.1a.5.5,0,0,1,.2-.035H11.479a.663.663,0,0,1,.211.035l-3.978,3.4-.526.421-1.041.854L5.1,7.929l-.526-.421Zm.012,8.12L4.6,8.4,6.144,9.649,7.689,8.4l3.99,3.826a.562.562,0,0,1-.2.035H.8a.53.53,0,0,1-.187-.035Zm7.6-4.259,3.954-3.393a.7.7,0,0,1,.035.222v6.739a.9.9,0,0,1-.035.234Z" transform="translate(-0.072 -4.068)" fill="#fafafa"/>
</svg>
