<svg xmlns="http://www.w3.org/2000/svg" width="17.939" height="16.658" viewBox="0 0 17.939 16.658">
  <path id="Icon_ionic-ios-star" data-name="Icon ionic-ios-star" d="M19.508,9.141h-5.89L11.828,3.8a.649.649,0,0,0-1.217,0L8.821,9.141H2.891a.643.643,0,0,0-.641.641.471.471,0,0,0,.012.108.616.616,0,0,0,.268.452l4.841,3.412-1.858,5.4a.643.643,0,0,0,.22.721.62.62,0,0,0,.36.156.785.785,0,0,0,.4-.144l4.725-3.368,4.725,3.368a.75.75,0,0,0,.4.144.575.575,0,0,0,.356-.156.635.635,0,0,0,.22-.721l-1.858-5.4,4.8-3.444.116-.1a.672.672,0,0,0,.208-.428A.678.678,0,0,0,19.508,9.141Z" transform="translate(-2.25 -3.375)" fill="#5fc4ba"/>
</svg>
