<svg id="fetus" xmlns="http://www.w3.org/2000/svg" width="18.881" height="18.881" viewBox="0 0 18.881 18.881">
  <path id="Path_1951" data-name="Path 1951" d="M9.441,0A9.382,9.382,0,0,0,3.613,2.074,6.515,6.515,0,0,1,4.489,3.79,5.452,5.452,0,0,0,5.921,6.021,1.636,1.636,0,0,1,8.3,5.447a3.828,3.828,0,0,1,.75-1.091,3.872,3.872,0,1,1,4.109,6.359A6.046,6.046,0,0,1,11.4,14.526l-.547.548a3.877,3.877,0,0,1-5.476,0,4.165,4.165,0,0,1-1.194-3.3A1.638,1.638,0,0,1,2.9,11.287a1.664,1.664,0,0,1,0-2.348,2.959,2.959,0,0,1,2.911-.793,6.064,6.064,0,0,1-.089-.866A6.552,6.552,0,0,1,3.44,4.14a5.413,5.413,0,0,0-.666-1.324A9.4,9.4,0,1,0,9.441,0Z" fill="#5fa0bb"/>
  <path id="Path_1952" data-name="Path 1952" d="M95.823,122.748a.569.569,0,0,0-.041.823.554.554,0,0,0,.782,0l.587-.586.616.862-.234.34a3.074,3.074,0,0,0,.721,3.172,2.769,2.769,0,0,0,3.912,0l.547-.548a4.951,4.951,0,0,0,1.457-3.446l.006-.421a3.224,3.224,0,0,0,1.666-.826,2.764,2.764,0,1,0-2.989.61l-.414,1.026a3.842,3.842,0,0,1-2.4-3.836h-.015a.556.556,0,0,0-.519-.588.566.566,0,0,0-.586.519c-.127,2.038.823,2.588.918,3.766a2.763,2.763,0,0,1-.8,2.18l-.782-.782a1.662,1.662,0,1,0-2.431-2.263Z" transform="translate(-92.099 -113.067)" fill="#5fa0bb"/>
</svg>
