<svg xmlns="http://www.w3.org/2000/svg" width="22.98" height="22.948" viewBox="0 0 22.98 22.948">
  <path id="Path_3220" data-name="Path 3220" d="M-107.175,324.875c.445.373.886.75,1.336,1.117q4.644,3.786,9.292,7.567c.039.032.075.069.136.124l-10.793,8.822v-5.462c-.532.067-1.038.1-1.531.2a12.165,12.165,0,0,0-8.881,6.572c-.613,1.176-1.067,2.435-1.6,3.654-.053.122-.119.238-.179.357v-5.344a1.526,1.526,0,0,0,.037-.2,11.738,11.738,0,0,1,1.1-4.39,12.729,12.729,0,0,1,9.648-7.409c.454-.084.917-.119,1.39-.179v-5.43Z" transform="translate(-96.411 347.823) rotate(180)" fill="#000f5f"/>
</svg>
