<svg xmlns="http://www.w3.org/2000/svg" width="13.5" height="13.5" viewBox="0 0 13.5 13.5">
    <path id="Icon_awesome-coins" data-name="Icon awesome-coins"
        d="M0,10.291v1.084C0,12.271,2.184,13,4.875,13s4.875-.729,4.875-1.625V10.291a9.233,9.233,0,0,1-4.875,1.084A9.233,9.233,0,0,1,0,10.291ZM8.125,3.25C10.816,3.25,13,2.521,13,1.625S10.816,0,8.125,0,3.25.729,3.25,1.625,5.434,3.25,8.125,3.25ZM0,7.627v1.31c0,.9,2.184,1.625,4.875,1.625S9.75,9.834,9.75,8.937V7.627a8.177,8.177,0,0,1-4.875,1.31A8.177,8.177,0,0,1,0,7.627Zm10.563.279C12.017,7.625,13,7.1,13,6.5V5.416a6.235,6.235,0,0,1-2.437.876ZM4.875,4.062C2.184,4.062,0,4.971,0,6.094S2.184,8.125,4.875,8.125,9.75,7.216,9.75,6.094,7.566,4.062,4.875,4.062Zm5.568,1.429C11.967,5.218,13,4.679,13,4.062V2.978A8.266,8.266,0,0,1,8.92,4.04,2.843,2.843,0,0,1,10.443,5.492Z"
        fill="#000f5f" />
</svg>
