<svg xmlns="http://www.w3.org/2000/svg" xmlns:xlink="http://www.w3.org/1999/xlink" width="160.234" height="141.099" viewBox="0 0 160.234 141.099">
  <defs>
    <filter id="Path_2360">
      <feOffset dy="3" input="SourceAlpha"/>
      <feGaussianBlur stdDeviation="3" result="blur"/>
      <feFlood flood-opacity="0.161" result="color"/>
      <feComposite operator="out" in="SourceGraphic" in2="blur"/>
      <feComposite operator="in" in="color"/>
      <feComposite operator="in" in2="SourceGraphic"/>
    </filter>
  </defs>
  <g id="Group_2717" data-name="Group 2717" transform="translate(-86.22 -36.794)">
    <g id="Group_2700" data-name="Group 2700" transform="translate(86.22 57.456)">
      <path id="Path_2354" data-name="Path 2354" d="M2550.1,1078.534s5.16-15.1,16.051-22.46,20.143-7.764,19.735-4.177-15.926,6.119-23.281,12.841A104.051,104.051,0,0,0,2550.1,1078.534Z" transform="translate(-2447.399 -1010.108)" fill="#dde9f8" opacity="0.657"/>
      <path id="Path_2355" data-name="Path 2355" d="M2556.369,1153.013s4.705-10.646,13.086-15.307,15.131-4.368,14.607-1.787-11.961,3.439-17.732,7.859A75.906,75.906,0,0,0,2556.369,1153.013Z" transform="translate(-2452.589 -1079.923)" fill="#dde9f8" opacity="0.657"/>
      <g id="Group_2699" data-name="Group 2699" transform="translate(0 10.943)">
        <g id="Group_2698" data-name="Group 2698" transform="translate(14.449)">
          <path id="Path_2356" data-name="Path 2356" d="M2075.626,911.618s-5.734-15.046-16.978-22.09-20.59-7.124-20.052-3.519,16.277,5.612,23.932,12.134A105.032,105.032,0,0,1,2075.626,911.618Z" transform="translate(-2038.574 -883.659)" fill="#dde9f8" opacity="0.663"/>
          <path id="Path_2357" data-name="Path 2357" d="M2110.924,985.652s-5.12-10.572-13.737-14.98-15.415-3.875-14.8-1.289,12.186,3.049,18.162,7.3A76.625,76.625,0,0,1,2110.924,985.652Z" transform="translate(-2074.799 -952.951)" fill="#dde9f8" opacity="0.663"/>
        </g>
        <path id="Path_2358" data-name="Path 2358" d="M1955.911,1015.118c2.8-7.964,16.325-4.415,16.325-4.415s8.264,14.906,10.948,15.444-4.577-14.124-4.577-14.124c5.286-.122,18.187,7.3,18.187,7.3s-2.068,16.529.666,16.39,1.084-14.729,1.084-14.729c4.967,1.9,9.271,8.172,9.271,8.172,5.215,10.086-8.006,16.262-8.006,16.262a27.077,27.077,0,0,0,2.476,12.608h0a19.644,19.644,0,0,1,1.375,3.41l-1.385-.1q-.129-.569-.3-1.1a.009.009,0,0,0,0-.006c0-.005,0-.01,0-.015-.08-.221-.193-.536-.336-.919h0v0c-.362-.859-.6-1.492-.751-1.947a.01.01,0,0,1,0,0c-1.076-2.693-2.653-6.214-3.819-7.014a2.684,2.684,0,0,0,.343-.613l-.343.613c-2.744,4.9-14.657,4.878-21.16,3.038s-3.488-3.491.29-6.252,11.168-1.416,13.456-2.439-.842-2.445-5.268-2.43-6.952,4.254-14.112,4.408-11.593-13.619-11.593-13.619c4.8,1.885,13.8-.176,14.263-1.844s-12.585-2.458-14.579-3.116S1953.112,1023.083,1955.911,1015.118Z" transform="translate(-1954.823 -988.133)" fill="#aec3ff"/>
        <path id="Path_2359" data-name="Path 2359" d="M2042.458,1337.493a21.169,21.169,0,0,0,.555,4.788l-25.072.028c.6-.529,1.318-1.1,2.069-1.73,3.436-2.873,10.578-2.048,12.7-3.167s-.956-2.282-5.183-1.993-6.375,4.5-13.2,5.088-11.921-12.286-11.921-12.286c4.7,1.5,13.171-1.027,13.509-2.649s-12.173-1.565-14.119-2.069-5.324-4.432-3.147-12.213,15.317-5.234,15.317-5.234,8.823,13.723,11.42,14.069-5.252-13.206-5.252-13.206c5.041-.445,17.825,5.836,17.825,5.836s-.946,15.916,1.656,15.613.119-14.135.119-14.135c4.862,1.5,9.364,7.228,9.364,7.228C2054.7,1330.771,2042.458,1337.493,2042.458,1337.493Z" transform="translate(-1990.5 -1232.854)" fill="#d2e0ff" opacity="0.657"/>
      </g>
      <g data-type="innerShadowGroup">
        <path id="Path_2360-2" data-name="Path 2360" d="M2534.055,1232.3c-2.635,1-20.089,2.832-19.37,5.043s12.917,4.441,19.241,1.628c0,0-5.131,18.735-14.743,18.953s-13.25-5.32-19.188-5.077-10.052,2.335-6.922,3.572,12.963-1.005,18.193,2.473c.767.51,1.512.991,2.2,1.446.412.274.8.54,1.162.8h-34.967c0-.283,0-.55-.007-.8a20.619,20.619,0,0,0-.156-2.315s-18.1-7.5-11.7-21.337c0,0,5.4-8.67,11.951-11.509,0,0-1.348,19.665,2.326,19.689s-.077-22.021-.077-22.021,16.863-10.713,23.96-10.863c0,0-8.871,20.1-5.3,19.215s13.769-21.362,13.769-21.362,17.931-5.56,22.157,4.955S2536.691,1231.3,2534.055,1232.3Z" transform="translate(-2378.162 -1141.408)" fill="#aec3ff" opacity="0.6"/>
        <g transform="matrix(1, 0, 0, 1, 0, -20.66)" filter="url(#Path_2360)">
          <path id="Path_2360-3" data-name="Path 2360" d="M2534.055,1232.3c-2.635,1-20.089,2.832-19.37,5.043s12.917,4.441,19.241,1.628c0,0-5.131,18.735-14.743,18.953s-13.25-5.32-19.188-5.077-10.052,2.335-6.922,3.572,12.963-1.005,18.193,2.473c.767.51,1.512.991,2.2,1.446.412.274.8.54,1.162.8h-34.967c0-.283,0-.55-.007-.8a20.619,20.619,0,0,0-.156-2.315s-18.1-7.5-11.7-21.337c0,0,5.4-8.67,11.951-11.509,0,0-1.348,19.665,2.326,19.689s-.077-22.021-.077-22.021,16.863-10.713,23.96-10.863c0,0-8.871,20.1-5.3,19.215s13.769-21.362,13.769-21.362,17.931-5.56,22.157,4.955S2536.691,1231.3,2534.055,1232.3Z" transform="translate(-2378.16 -1120.74)" fill="#fff" opacity="0.6"/>
        </g>
      </g>
      <path id="Path_2361" data-name="Path 2361" d="M2507.472,825.6c-1.977-7.318-14.326-5.04-14.326-5.04s-8.392,12.8-10.832,13.1,5.038-12.344,5.038-12.344c-4.725-.46-16.771,5.325-16.771,5.325s.752,14.94-1.686,14.633.009-13.262.009-13.262c-4.574,1.369-8.846,6.7-8.846,6.7-5.341,8.686,6.088,15.1,6.088,15.1a24.316,24.316,0,0,1-3.056,11.126h0a17.653,17.653,0,0,0-1.459,2.962h1.247q.153-.5.339-.968a.011.011,0,0,1,0-.006l.006-.013c.085-.193.208-.467.361-.8h0v0c.382-.745.639-1.3.8-1.694v0c1.143-2.34,2.789-5.389,3.886-6.028a2.42,2.42,0,0,1-.267-.572c.085.182.174.373.267.572,2.131,4.575,12.8,5.343,18.748,4.127s3.356-2.894.156-5.618-9.907-2.01-11.888-3.078.916-2.133,4.879-1.826,5.943,4.272,12.344,4.886,11.288-11.426,11.288-11.426c-4.422,1.369-12.347-1.075-12.651-2.6s11.434-1.365,13.264-1.821S2509.449,832.923,2507.472,825.6Z" transform="translate(-2371.717 -820.23)" fill="#d2e0ff" opacity="0.659"/>
    </g>
    <g id="Group_2702" data-name="Group 2702" transform="translate(118.176 48.01)">
      <path id="Path_2362" data-name="Path 2362" d="M2200.036,793.667c-.474-.912,10.322-4.2,10.493,4.807,0,0,20.222-.5,10.566-11.768-3.343-3.9-3-7.128-2.9-10.131s-2.082-11.733-9.567-10.854a5.573,5.573,0,0,0-4.406.471C2198.66,769.078,2186.2,796.988,2200.036,793.667Z" transform="translate(-2184.473 -765.473)" fill="#151f2c"/>
      <path id="Path_2363" data-name="Path 2363" d="M2421.885,975.833s1.316-2,2.377-2.043,3.025-.589,2.868-.2-1.375.432-1.493.668,1.807.589,2.358.629,1.846,0,1.807.275a6.241,6.241,0,0,1-3.958,1.257,10.992,10.992,0,0,0-3.625.472Z" transform="translate(-2373.262 -937.571)" fill="#ee805f"/>
      <path id="Path_2364" data-name="Path 2364" d="M2311.543,914.259a19.73,19.73,0,0,0,2.013,3.045c1.564,1.959,3.976,4.222,7,4.669a7.518,7.518,0,0,0,4.161-.675h.005a18.976,18.976,0,0,0,6.443-5.387,3.024,3.024,0,0,0-.413-2.967s-7.426,1.67-8.133,1.317-4.833-12.239-5.815-13.732-4.331-2.269-4.331-2.269Z" transform="translate(-2281.957 -875.35)" fill="#677282"/>
      <path id="Path_2365" data-name="Path 2365" d="M2322.091,989.779c1.564,1.959,3.976,4.222,7,4.669a7.516,7.516,0,0,0,4.16-.675c-.143.019-3.816.473-5.28-2.146-1.494-2.672-3.108-6.916-5.327-5.5C2321.692,986.736,2321.734,988.253,2322.091,989.779Z" transform="translate(-2290.492 -947.825)" fill="#384152"/>
      <path id="Path_2366" data-name="Path 2366" d="M2141.932,1450.943s-2.266,2.068-1.823,3.537,2.487,2.449,2.763,4.244,1.382,2.776,2.377,2.776h4.743s.732-1.264-1.036-1.645-2.436-2.491-2.325-4.45a34.523,34.523,0,0,0-.166-4.571l-3.758-.871Z" transform="translate(-2140.052 -1331.873)" fill="#151f2c"/>
      <path id="Path_2367" data-name="Path 2367" d="M2260.615,1460.729s-.815,8.76.18,9.25l12.731-.026s0-1.469-2.045-1.8-5.637-1.524-6.245-4.19S2260.615,1460.729,2260.615,1460.729Z" transform="translate(-2239.555 -1340.782)" fill="#151f2c"/>
      <path id="Path_2368" data-name="Path 2368" d="M2209.258,893.149c2.621-5.875,4.224-7.562,3.918-9.385-.228-1.357.693-25.306.693-25.306.311-.1.934-.182,1.275-.258a3.2,3.2,0,0,0,2.334-2.03,16.3,16.3,0,0,0,.792-5.4l.336.066,5.642,1.117s-.128,1.776-.132,3.449v.042a3.246,3.246,0,0,0,2.342,3.138c.713.206,1.333.381,1.333.381a51.74,51.74,0,0,1,2.468,11.993c.4,6.077-3.768,8.717.031,20.862C2234.17,904.217,2207.812,896.4,2209.258,893.149Z" transform="translate(-2197.271 -836.051)" fill="#feb27d"/>
      <path id="Path_2369" data-name="Path 2369" d="M2269.357,852.267s-.128,1.776-.132,3.449c-3.158-.089-4.826-2.97-5.51-4.566Z" transform="translate(-2242.38 -836.369)" fill="#ed975d"/>
      <path id="Path_2370" data-name="Path 2370" d="M2266.274,806.344s-7.471.123-7.476-4.531-.973-7.772,3.8-8.047,5.7,1.5,6.078,3.052S2268.218,806.192,2266.274,806.344Z" transform="translate(-2238.242 -788.862)" fill="#feb27d"/>
      <path id="Path_2371" data-name="Path 2371" d="M2254.476,788.705s-2.045,5.46-5.185,6.267-4.5-.034-4.5-.034a8.889,8.889,0,0,0,2.908-5.252S2252.933,786.107,2254.476,788.705Z" transform="translate(-2226.72 -783.915)" fill="#151f2c"/>
      <path id="Path_2372" data-name="Path 2372" d="M2297.993,791.541a4.636,4.636,0,0,1,2.141,1.673,7.526,7.526,0,0,1,1.01,4.272s1.541-3.711-.191-5.81C2299.116,789.45,2297.993,791.541,2297.993,791.541Z" transform="translate(-2270.744 -786.307)" fill="#151f2c"/>
      <path id="Path_2373" data-name="Path 2373" d="M2204.951,905.942a50.716,50.716,0,0,0,0,5.885c.126,2.128,2.278,4.977,2.583,5.682.767,1.768,1.631,2.056,1.631,2.056l6.684,1.638,2.35.575,7.412-2.214s3.376-9.423,2.02-14.727a40.758,40.758,0,0,0-3.427-8.988s-6.048,5.922-13.923-.5Z" transform="translate(-2193.685 -872.942)" fill="#677282"/>
      <path id="Path_2374" data-name="Path 2374" d="M2216.7,974.011a20.852,20.852,0,0,0,.627,4.814c.766,1.768,1.631,2.056,1.631,2.056l6.684,1.638,4.719-.746s-8.8,1.035-9.186-12.325Z" transform="translate(-2203.474 -934.258)" fill="#384152"/>
      <path id="Path_2375" data-name="Path 2375" d="M2263.4,1044.008s3.67,11.425,3.906,15.315-7.016,55.258-7.308,57.05c-.275,1.689-2.373,2.766-2.373,2.766a3.174,3.174,0,0,1-2.342.18,5.794,5.794,0,0,1-2.515-1.186s-2.857-36.635-1.089-49.722a207.291,207.291,0,0,0,1.789-24.4Z" transform="translate(-2231.939 -995.955)" fill="#5591aa"/>
      <path id="Path_2376" data-name="Path 2376" d="M2168.689,1042.034s-5.6,7.512-6.121,12.591-.818,22.916-1.93,27.867-5.2,14.478-5.2,29.919a3.079,3.079,0,0,0,1.736,1.356,14.219,14.219,0,0,0,1.527.422,2.4,2.4,0,0,0,2.684-1.274c2.762-5.562,11.561-23.5,12.012-27.223.319-2.635,3.1-20.075,9.158-30.307,1.455-2.457-.893-12.227-.893-12.227Z" transform="translate(-2152.785 -994.321)" fill="#5fa0bb"/>
      <path id="Path_2377" data-name="Path 2377" d="M2244.57,1033.786a7.7,7.7,0,0,1-4.4,1.224c-3.5.07-12.161-.891-12.161-.891a7.162,7.162,0,0,0-.369,2.211s10.582,2.669,16.712.39A3.873,3.873,0,0,0,2244.57,1033.786Z" transform="translate(-2212.529 -987.496)" fill="#151f2c"/>
      <g id="Group_2701" data-name="Group 2701" transform="translate(26.885 46.916)">
        <path id="Path_2378" data-name="Path 2378" d="M2295.884,1039.221a1.608,1.608,0,1,1,1.6,1.806A1.712,1.712,0,0,1,2295.884,1039.221Zm.529,0a1.084,1.084,0,1,0,1.067-1.277A1.187,1.187,0,0,0,2296.413,1039.221Z" transform="translate(-2295.884 -1037.415)" fill="#fff"/>
      </g>
      <path id="Path_2379" data-name="Path 2379" d="M2263.288,1092.105a33.829,33.829,0,0,0,2.6,3.285,7.281,7.281,0,0,1,1.857,2.669s-.011.315-.3.315-.951-1.125-1.432-.946a9.863,9.863,0,0,0,.972,1.867,5.825,5.825,0,0,1,.493,2.686c-.073.412-2.547-1.552-3.583-2.444-.552-.475-.3-2.092-.471-3.395-.15-1.143-2.566-2.513-2.566-2.513Z" transform="translate(-2240.011 -1035.754)" fill="#feb27d"/>
      <path id="Path_2380" data-name="Path 2380" d="M2198.8,895.348s-5.916.6-7.336,5.024.641,17.493,2.358,20.831,7.557,10.593,11.508,11.478l1.941-1.388s-6.922-12.526-6.922-13.2-.344-12.872-.429-14.158S2198.8,895.348,2198.8,895.348Z" transform="translate(-2182.199 -872.942)" fill="#677282"/>
    </g>
    <g id="Group_2709" data-name="Group 2709" transform="translate(156.467 36.794)">
      <path id="Path_2381" data-name="Path 2381" d="M2390.808,843.271s-10.829,18.924-8.657,25.451,9.438,6.943,9.438,6.943Z" transform="translate(-2378.437 -818.633)" fill="#5fa0bb"/>
      <path id="Path_2382" data-name="Path 2382" d="M2395.246,973.7a4.023,4.023,0,0,0-2.5,4.772c.851,3.553,3.977.767,3.977.767l.183-2.351Z" transform="translate(-2387.323 -926.563)" fill="#5591aa"/>
      <path id="Path_2383" data-name="Path 2383" d="M2401.162,1478.5h15.118c1.083-.734-.292-7.916-.292-7.916s-4.126-1.566-4.839,1.618-5.256,4.193-7.659,4.581A2.587,2.587,0,0,0,2401.162,1478.5Z" transform="translate(-2394.406 -1337.405)" fill="#151f2c"/>
      <path id="Path_2384" data-name="Path 2384" d="M2531.13,1478.5h15.118c1.083-.734-.292-7.916-.292-7.916s-4.126-1.566-4.839,1.618-5.256,4.193-7.659,4.581A2.587,2.587,0,0,0,2531.13,1478.5Z" transform="translate(-2501.951 -1337.405)" fill="#151f2c"/>
      <path id="Path_2385" data-name="Path 2385" d="M2424.74,1088s.68,8.478,1.478,18.67c1.086,13.844,4.013,48.168,4.013,48.168s1.92,1.638,6.171.742a134.347,134.347,0,0,0,4.7-25.356c.017-.221.033-.445.05-.668,1.007-13.759,2.573-42.73,2.573-42.73Z" transform="translate(-2413.916 -1020.17)" fill="#384152"/>
      <path id="Path_2386" data-name="Path 2386" d="M2419.586,1068.03s1.569,12.9,2.367,23.087l14.886,23.554c.017-.221.033-.444.051-.668,1.006-13.759,2.571-42.73,2.571-42.73Z" transform="translate(-2409.651 -1004.616)" fill="#151f2c"/>
      <path id="Path_2387" data-name="Path 2387" d="M2448.545,1040.981s10.8,26.875,14.248,37.062c2.458,7.256,9.392,32.712,9.392,32.712a6.967,6.967,0,0,0,5.549-.856s2.579-26.007-2.631-33.341c-2.764-3.89-.049-42.692-11.257-43.005S2448.545,1040.981,2448.545,1040.981Z" transform="translate(-2433.614 -976.079)" fill="#384152"/>
      <path id="Path_2388" data-name="Path 2388" d="M2473.624,796.374a6.737,6.737,0,0,0,4.651.626,9.647,9.647,0,0,0,3.151-1.33,9.255,9.255,0,0,0,1.271-.958s-.055-.081-.149-.239a13.6,13.6,0,0,1-1.306-8.638,3.428,3.428,0,0,0-1.188.2c-2.142.507-6.449,1.729-6.64,1.783h-.007s-.052,1.012-.23,2.826c-.015.16-.031.327-.048.5-.022.213-.044.438-.07.67A14.99,14.99,0,0,0,2473.624,796.374Z" transform="translate(-2453.871 -771.089)" fill="#feb27d"/>
      <path id="Path_2389" data-name="Path 2389" d="M2473.906,791.681c3.2.733,7.971-3.988,7.971-3.988a5.022,5.022,0,0,0-1.094-.62c-2.142.507-6.449,1.729-6.64,1.783h-.007S2474.083,789.867,2473.906,791.681Z" transform="translate(-2454.6 -772.13)" fill="#ed975d"/>
      <path id="Path_2390" data-name="Path 2390" d="M2414.442,862.274c.232,3.081.622,5.761.622,5.761,10.56,3.052,27.35-.346,27.124-2.085-.119-.926-.231-2.415-.29-3.791l-.012-.266c-.167-4.026-.141-9.573-.16-14.883-.015-3.262-.047-6.432-.157-9.107,0,0,1.5-10.505-.164-12.229-1.947-2.017-8.236-2.608-8.346-2.626,0,0-5.447,3.166-8.6.358,0,0-5.265,1.526-6.782,3.131a14.1,14.1,0,0,0-2.672,7.668c-.079,5.192.125,11.091.125,11.092-.055.844-.146,1.931-.245,3.172-.105,1.323-.223,2.816-.322,4.374-.049.785-.095,1.586-.132,2.387A60.911,60.911,0,0,0,2414.442,862.274Z" transform="translate(-2405.306 -801.899)" fill="#5fa0bb"/>
      <g id="Group_2703" data-name="Group 2703" transform="translate(17.333 0)">
        <path id="Path_2391" data-name="Path 2391" d="M2463.356,732.944a16.284,16.284,0,0,0,2.991.7c2.452.331,5.676.136,6.688-2.831,1.706-4.993,3.885-7.987-1.135-10.026-2.687-1.091-4.406-1.149-5.574-.733a4.039,4.039,0,0,0-2.066,1.788C2463.286,723.369,2461.325,732.07,2463.356,732.944Z" transform="translate(-2462.47 -716.474)" fill="#feb27d"/>
        <path id="Path_2392" data-name="Path 2392" d="M2465.088,702.812a1.63,1.63,0,0,0-.565,2.8c1.935,1.331,4.3.809,5.171,1.2,1.249.555,1.473,2.649,1.5,3.313s.11,1.227,1.806.829a.826.826,0,0,1,.616.037c.7.417-.2,2.44-.467,2.878,0,0-.39,1.449.476,2.154.1.084,1.806.828,5.9-5.445a5.825,5.825,0,0,0,.265-5.338,9.1,9.1,0,0,0-7.755-4.78C2469.115,700.461,2467.488,702.229,2465.088,702.812Z" transform="translate(-2463.677 -700.461)" fill="#151f2c"/>
      </g>
      <path id="Path_2393" data-name="Path 2393" d="M2446.594,1017.853s-4.052,2.673-5.616,2.845c-1.064.117-5.267-.055-5.291-.587-.032-.75,2.568-1.543,3.241-1.844s1.2-.649,1.2-.94-2.6.672-2.324.037,2.683-1.739,3.263-1.845,2.453.529,3.18.193S2446.594,1017.853,2446.594,1017.853Z" transform="translate(-2422.975 -961.155)" fill="#feb27d"/>
      <path id="Path_2394" data-name="Path 2394" d="M2488.21,941.5c-.539,1.011,1.778,2.345,1.778,2.345a42.614,42.614,0,0,0,12.972,3.563c0-.088-.008-.176-.012-.266-.167-4.026.032-15.762.012-21.072a19.8,19.8,0,0,1-7.415,10.356C2491.918,938.875,2488.592,940.779,2488.21,941.5Z" transform="translate(-2466.369 -887.145)" fill="#5591aa"/>
      <path id="Path_2395" data-name="Path 2395" d="M2499.45,832.611s2.774,1.172,6.073,7.335,6.419,19.214,5.082,21.336-12.6,6.98-22.416,5.685c0,0-2.435-2.218-1.944-3.073,0,0,16.46-6.71,16.47-7.513s-5.872-7.717-6.206-11.16S2499.45,832.611,2499.45,832.611Z" transform="translate(-2464.756 -809.812)" fill="#5fa0bb"/>
      <g id="Group_2708" data-name="Group 2708" transform="translate(0 26.753)">
        <path id="Path_2396" data-name="Path 2396" d="M2439.271,922.976a11.8,11.8,0,0,1,0,2.659c-.2.547-5.8.67-5.943.156s-.352-2.072,0-2.346S2439.271,922.976,2439.271,922.976Z" transform="translate(-2420.864 -911.34)" fill="#feb27d"/>
        <path id="Path_2397" data-name="Path 2397" d="M2418.548,950.114h1.26a5.69,5.69,0,0,0,5.674-5.674V939c0-3.12-.068-5.893-3.423-6.923l-5.9.445c-5.095,1.406-3.287,3.358-3.287,6.478v5.436A5.69,5.69,0,0,0,2418.548,950.114Z" transform="translate(-2403.84 -918.874)" fill="#feb27d"/>
        <g id="Group_2704" data-name="Group 2704" transform="translate(1.031 6.722)">
          <path id="Path_2398" data-name="Path 2398" d="M2386.254,910.625a3.762,3.762,0,0,1-2.384-.192c-1.433-.791-3.148-1.234-3.448-1.6-.507-.612-2.98-3.132-2.98-3.132l-1.188.794s1.145,4.654,2.071,5.485,2.587,3.783,5.385,4.2C2385.164,916.4,2386.254,910.625,2386.254,910.625Z" transform="translate(-2374.826 -903.771)" fill="#feb27d"/>
          <path id="Path_2399" data-name="Path 2399" d="M2370.592,896.425s.434-1.17.076-1.324-.567.7-.567.7-.933-1.937-1.882-1.1,1.185,2.519,1.185,2.519Z" transform="translate(-2367.975 -894.49)" fill="#feb27d"/>
        </g>
        <g id="Group_2705" data-name="Group 2705" transform="translate(18.433 6.417)">
          <path id="Path_2400" data-name="Path 2400" d="M2468.844,908.857a3.761,3.761,0,0,0,2.384-.192c1.433-.791,3.147-1.234,3.447-1.6.508-.612,2.981-3.131,2.981-3.131l1.189.793s-1.145,4.654-2.071,5.485-2.587,3.783-5.385,4.2C2469.934,914.635,2468.844,908.857,2468.844,908.857Z" transform="translate(-2468.844 -902.003)" fill="#feb27d"/>
          <path id="Path_2401" data-name="Path 2401" d="M2518.878,894.656s-.434-1.171-.076-1.324.567.7.567.7.933-1.937,1.882-1.1-1.185,2.519-1.185,2.519Z" transform="translate(-2510.066 -892.721)" fill="#feb27d"/>
        </g>
        <g id="Group_2706" data-name="Group 2706" transform="translate(0 23.336)">
          <path id="Path_2402" data-name="Path 2402" d="M2378.262,990.793s-3.3,1.447-5.041,1.959a11.92,11.92,0,0,0-3.673,1.8c-.042.184-.063,1.8.76,2.112s9.753,1.593,11.078,1.072C2381.386,997.736,2380.434,991.334,2378.262,990.793Z" transform="translate(-2368.233 -990.793)" fill="#feb27d"/>
          <path id="Path_2403" data-name="Path 2403" d="M2370.341,993.148a3.865,3.865,0,0,1,2.5,1.266.951.951,0,0,0,1.05.287,3.338,3.338,0,0,1,.9,4.568s-3.336-.208-3.811-.655S2370.341,993.148,2370.341,993.148Z" transform="translate(-2368.902 -992.742)" fill="#d4d5d9"/>
          <path id="Path_2404" data-name="Path 2404" d="M2364.076,998.6a2.725,2.725,0,0,1-1.967-2.062c-.3-1.668.01-3.246,1.107-3.384a1.857,1.857,0,0,1,2.092,1.25C2365.609,995.2,2366.492,998.682,2364.076,998.6Z" transform="translate(-2362.001 -992.732)" fill="#5591aa"/>
        </g>
        <path id="Path_2405" data-name="Path 2405" d="M2421.95,857.7a4.893,4.893,0,0,0-4.6,3.014c-1.268,3.163-1.517,8.6,1.425,9.46a9.686,9.686,0,0,0,6.1-.569c1.022-.392,1.37-1.254,1.955-1.935C2430.591,863.294,2429.379,858.094,2421.95,857.7Z" transform="translate(-2407.061 -857.327)" fill="#feb27d"/>
        <path id="Path_2406" data-name="Path 2406" d="M2423.026,986.233a33.17,33.17,0,0,1-12.6,0,12.029,12.029,0,0,0-.782,1.534c-.19.749.152,1.978,1.5,3.543,1.982,2.3,8.755,4.019,11.131,2.547C2424.356,992.567,2424.825,988.174,2423.026,986.233Z" transform="translate(-2401.384 -963.684)" fill="#d4d5d9"/>
        <g id="Group_2707" data-name="Group 2707" transform="translate(4.933 24.775)">
          <path id="Path_2407" data-name="Path 2407" d="M2407.867,999.695a35.1,35.1,0,0,0-4.562,2.291,11.927,11.927,0,0,0-3.183,2.569c0,.189.336,1.765,1.208,1.891s9.864-.6,11.041-1.406a2.287,2.287,0,0,0,1.537-1.944C2414.164,1000.836,2413.054,997.888,2407.867,999.695Z" transform="translate(-2398.479 -999.135)" fill="#feb27d"/>
          <path id="Path_2408" data-name="Path 2408" d="M2396.519,1011.3a3.865,3.865,0,0,1,2.718.682.952.952,0,0,0,1.088.047,3.339,3.339,0,0,1,1.887,4.256s-3.3.535-3.862.2S2396.519,1011.3,2396.519,1011.3Z" transform="translate(-2395.497 -1009.179)" fill="#d4d5d9"/>
          <path id="Path_2409" data-name="Path 2409" d="M2393.447,1016.269a2.724,2.724,0,0,1-2.374-1.576c-.662-1.56-.709-3.167.331-3.545a1.857,1.857,0,0,1,2.316.756C2394.19,1012.613,2395.821,1015.812,2393.447,1016.269Z" transform="translate(-2390.596 -1008.958)" fill="#5fa0bb"/>
        </g>
        <path id="Path_2410" data-name="Path 2410" d="M2428.254,909.356a1.564,1.564,0,0,1-1.554.5,1.615,1.615,0,0,1-1.018-1.246A5.7,5.7,0,0,1,2428.254,909.356Z" transform="translate(-2414.696 -899.455)" fill="#fff"/>
        <path id="Path_2411" data-name="Path 2411" d="M2463.662,898.3s1.29-1.132,1.7-.311-.527,2.023-1.29,2.038S2463.155,898.663,2463.662,898.3Z" transform="translate(-2445.879 -890.418)" fill="#ed975d"/>
        <path id="Path_2412" data-name="Path 2412" d="M2462.886,898.736s.985-.864,1.3-.237-.4,1.545-.985,1.556S2462.5,899.012,2462.886,898.736Z" transform="translate(-2445.295 -890.897)" fill="#feb27d"/>
        <path id="Path_2413" data-name="Path 2413" d="M2430.691,857.565a6.083,6.083,0,0,1-4.954,2.091,3.032,3.032,0,0,1-1.878-1.045,3.27,3.27,0,0,0,1.619.245s-3.165-.483-3.125-1.329,1.7-1.795,2.913-1.94c.965-.116,3.881-.1,4.765.387S2430.939,857.282,2430.691,857.565Z" transform="translate(-2411.94 -855.529)" fill="#151f2c"/>
        <path id="Path_2414" data-name="Path 2414" d="M2451.117,856.711s3.663.595,4.315,3.515a6.853,6.853,0,0,1-.292,2.888s.074-3.476-2.855-3.621c-2.131-.106-3.527-.322-3.527-.322Z" transform="translate(-2433.79 -856.507)" fill="#151f2c"/>
        <path id="Path_2415" data-name="Path 2415" d="M2459.38,957.1a.22.22,0,1,0,.22-.22A.22.22,0,0,0,2459.38,957.1Z" transform="translate(-2442.58 -939.398)" fill="#ed975d"/>
        <path id="Path_2416" data-name="Path 2416" d="M2427.454,957.1a.22.22,0,1,0,.22-.22A.22.22,0,0,0,2427.454,957.1Z" transform="translate(-2416.162 -939.398)" fill="#ed975d"/>
      </g>
      <path id="Path_2417" data-name="Path 2417" d="M2400.176,966.961a2.273,2.273,0,0,1,1.249-1.481,14.575,14.575,0,0,1,2.4-.941c.825-.15,2.511-1.141,2.649-.626s-1.19,1.112-1.2,1.68,3.729,1.957,3.629,2.547a2.293,2.293,0,0,1-2.612,1.555c-1.448-.352-5.042-1.195-5.872-1.427C2399.981,968.144,2400.026,967.533,2400.176,966.961Z" transform="translate(-2393.503 -918.34)" fill="#ed975d"/>
    </g>
    <g id="Group_2710" data-name="Group 2710" transform="translate(143.018 97.44)">
      <path id="Path_2418" data-name="Path 2418" d="M2291.972,1052.955s-2.827,1.161-3.785,2.729-1.91,4.728-1.238,6.315-3.332,1.555-2.865,4.281,3.175,1.224,1.984,3.641,2.136,3.218,5.131,2.808,11.842-.457,12.262-2.351-3.279-2.743-1.789-4.18,3.057-1.181,1.392-4.7S2299.718,1051.01,2291.972,1052.955Z" transform="translate(-2284.046 -1052.509)" fill="#151f2c"/>
      <path id="Path_2419" data-name="Path 2419" d="M2344.817,1278.861s-1.561,11.04-2.685,20.654a12.014,12.014,0,0,1-5.788-.319,2.792,2.792,0,0,0-.873-.2,15.475,15.475,0,0,1-.168-3.221c.419-3.741-3.355-19.094.118-20.453C2338.911,1273.978,2344.817,1278.861,2344.817,1278.861Z" transform="translate(-2325.331 -1236.598)" fill="#feb27d"/>
      <path id="Path_2420" data-name="Path 2420" d="M2342.8,1413.692c.664,5.32,2.831,13.816,2.831,13.816l2.715.329c-.2-1.5.367-7.255,1.118-13.631a11.908,11.908,0,0,1-5.782-.319A2.745,2.745,0,0,0,2342.8,1413.692Z" transform="translate(-2332.664 -1351.29)" fill="#b8c0c7"/>
      <path id="Path_2421" data-name="Path 2421" d="M2321.581,1276.68s-2.282,11.325-3.993,21.04a17.437,17.437,0,0,1-6.51-.5,19.892,19.892,0,0,1-.033-4.245c.637-3.691-2.182-19.261,1.376-20.4C2315.977,1271.445,2321.581,1276.68,2321.581,1276.68Z" transform="translate(-2306.004 -1234.383)" fill="#feb27d"/>
      <path id="Path_2422" data-name="Path 2422" d="M2355.541,1491.008a3.174,3.174,0,0,0,1.875,1.46,3.082,3.082,0,0,1,1.845,1.149.722.722,0,0,1-.587,1.147l-6.247-.036a.9.9,0,0,1-.888-.993c.049-.462.1-1,.125-1.414a2.972,2.972,0,0,1,1.029-1.712,6.423,6.423,0,0,0,1.188.55A4.427,4.427,0,0,0,2355.541,1491.008Z" transform="translate(-2339.89 -1414.937)" fill="#5591aa"/>
      <path id="Path_2423" data-name="Path 2423" d="M2373.562,1143.711s4.082,6.882,4.906,12.494c0,0-1.985,2.679-2.793.8S2369.071,1145.052,2373.562,1143.711Z" transform="translate(-2356.721 -1127.887)" fill="#feb27d"/>
      <path id="Path_2424" data-name="Path 2424" d="M2323.468,1055.6a8.388,8.388,0,0,0-5.285-3.537,5.05,5.05,0,0,0-5.781,4.26c-.427,2.786.009,6.4,4.554,7.7Z" transform="translate(-2307.404 -1051.989)" fill="#151f2c"/>
      <path id="Path_2425" data-name="Path 2425" d="M2341.409,1111.1l-5.145,3.056-1.3-3.621a11.341,11.341,0,0,0,.77-3.43,14.1,14.1,0,0,0-.083-3.043l4.473,1.943a8.267,8.267,0,0,0-.109,1,7.229,7.229,0,0,0,.222,2.314A3.215,3.215,0,0,0,2341.409,1111.1Z" transform="translate(-2326.181 -1095.076)" fill="#feb27d"/>
      <path id="Path_2426" data-name="Path 2426" d="M2343.919,1123.445c-2.468.091-4.5-2.215-4.5-2.215l4.281-.1A7.221,7.221,0,0,0,2343.919,1123.445Z" transform="translate(-2329.864 -1109.203)" fill="#ed975d"/>
      <path id="Path_2427" data-name="Path 2427" d="M2334.905,1078.28s-4.831,1.61-6.775-2.19c-2.1-4.1-.286-7.3,1.369-7.614,3.3-.625,5.315.521,5.985,1.825S2337.572,1077.416,2334.905,1078.28Z" transform="translate(-2319.741 -1065.486)" fill="#feb27d"/>
      <path id="Path_2428" data-name="Path 2428" d="M2359.836,1110.47s.238.494,1.516.127c0,0,1.073-.308.913-.873A3.587,3.587,0,0,0,2359.836,1110.47Z" transform="translate(-2346.76 -1099.753)" fill="#fff"/>
      <path id="Path_2429" data-name="Path 2429" d="M2300.883,1180.44c1.4,1.334,11.709,4.093,17.522,2.109,1.042-.355-.625-32.492-1.618-38.7a3.909,3.909,0,0,0-3.332-3.257c-.289-.04-.6-.077-.939-.11.072.764-.189,1.481-1.519,1.741a5.339,5.339,0,0,1-4.3-1.547,16.3,16.3,0,0,0-3.292.854,2.893,2.893,0,0,0-1.751,3.055l.333,2.45,1.058,7.807a10.324,10.324,0,0,1-.022,2.954c-.451,2.967-1.168,10.2-1.648,15.694C2301.033,1177.36,2300.813,1180.372,2300.883,1180.44Z" transform="translate(-2297.967 -1125.217)" fill="#384152"/>
      <path id="Path_2430" data-name="Path 2430" d="M2326.721,1062.183a6.049,6.049,0,0,1-3.842,6.139c-1.71.639-2.6-6.284.973-7.667s7.1.259,7.517,2.676.1,2.92.1,2.92S2329.8,1061.654,2326.721,1062.183Z" transform="translate(-2314.943 -1058.742)" fill="#151f2c"/>
      <path id="Path_2431" data-name="Path 2431" d="M2313.072,1150.379s1.972,7.8,2.048,10.9c0,0,4.328,7.558,4.582,8.1s-1.562,1.272-1.562,1.272-5.429-5.79-6.476-8.223-4.758-10.346-3.273-12.708S2313.072,1150.379,2313.072,1150.379Z" transform="translate(-2303.905 -1132.111)" fill="#feb27d"/>
      <path id="Path_2432" data-name="Path 2432" d="M2389.44,1216.1a13.928,13.928,0,0,1-3.393,9.5s-1.032-1.243-.9-1.628,1.61-6.307,2.691-7.149S2389.44,1216.1,2389.44,1216.1Z" transform="translate(-2367.693 -1187.784)" fill="#feb27d"/>
      <path id="Path_2433" data-name="Path 2433" d="M2368.126,1267.995s2.42-.017,2.555.552a1.751,1.751,0,0,1-2.392,1.729c-1.77-.62-1.725-1.008-1.725-1.008Z" transform="translate(-2352.328 -1230.729)" fill="#feb27d"/>
      <path id="Path_2434" data-name="Path 2434" d="M2378.386,1261.752s-1.945.9-1.284,1.856a1.3,1.3,0,0,0,2.186-.228C2379.492,1262.767,2378.386,1261.752,2378.386,1261.752Z" transform="translate(-2360.934 -1225.563)" fill="#feb27d"/>
      <path id="Path_2435" data-name="Path 2435" d="M2311.647,1153.955a8.842,8.842,0,0,1-6.451,2s-1.928-6.834,1.164-7.673S2312.008,1151.489,2311.647,1153.955Z" transform="translate(-2301.056 -1131.573)" fill="#384152"/>
      <path id="Path_2436" data-name="Path 2436" d="M2386.763,1150.692l2.238,3.825a2.363,2.363,0,0,1-1.962,1.951C2385.365,1156.645,2386.763,1150.692,2386.763,1150.692Z" transform="translate(-2368.589 -1133.664)" fill="#384152"/>
      <path id="Path_2437" data-name="Path 2437" d="M2313.488,1416.242c.461,5.423,1.935,13.173,1.935,13.173l2.686.621c-.1-1.483.775-7.064,1.882-13.307A17.1,17.1,0,0,1,2313.488,1416.242Z" transform="translate(-2308.408 -1353.4)" fill="#d4d5d9"/>
      <path id="Path_2438" data-name="Path 2438" d="M2321.492,1490.659a3.174,3.174,0,0,0,1.874,1.46,3.083,3.083,0,0,1,1.846,1.149.722.722,0,0,1-.587,1.147l-6.247-.036a.9.9,0,0,1-.888-.993c.049-.463.1-1,.124-1.415a2.973,2.973,0,0,1,1.029-1.712,6.394,6.394,0,0,0,1.189.55A4.418,4.418,0,0,0,2321.492,1490.659Z" transform="translate(-2311.716 -1414.648)" fill="#5fa0bb"/>
    </g>
  </g>
</svg>
