<svg xmlns="http://www.w3.org/2000/svg" width="31.277" height="31.277" viewBox="0 0 31.277 31.277">
  <path id="Icon_ionic-md-happy" data-name="Icon ionic-md-happy" d="M19.014,3.375A15.639,15.639,0,1,0,34.652,19.014,15.634,15.634,0,0,0,19.014,3.375Zm0,28.149A12.511,12.511,0,1,1,31.525,19.014,12.548,12.548,0,0,1,19.014,31.524ZM24.487,17.45A2.346,2.346,0,1,0,22.141,15.1,2.3,2.3,0,0,0,24.487,17.45Zm-10.947,0A2.346,2.346,0,1,0,11.194,15.1,2.3,2.3,0,0,0,13.54,17.45Zm5.473,10.165a8.521,8.521,0,0,0,7.976-5.474H11.038A8.521,8.521,0,0,0,19.014,27.615Z" transform="translate(-3.375 -3.375)" fill="#000f5f"/>
</svg>
