<svg xmlns="http://www.w3.org/2000/svg" width="15.393" height="9.896" viewBox="0 0 15.393 9.896">
  <path id="Icon_ionic-md-people" data-name="Icon ionic-md-people" d="M12.745,12a2.062,2.062,0,1,0-2.1-2.062A2.087,2.087,0,0,0,12.745,12Zm-5.6,0a2.062,2.062,0,1,0-2.1-2.062A2.087,2.087,0,0,0,7.148,12Zm0,1.512c-1.644,0-4.9.79-4.9,2.405v1.855h9.9V15.915C12.146,14.3,8.792,13.51,7.148,13.51Zm5.6.378a3.734,3.734,0,0,0-.6.034,2.049,2.049,0,0,1,1.1,1.993v1.855h4.4V15.915C17.643,14.3,14.39,13.888,12.745,13.888Z" transform="translate(-2.25 -7.875)" fill="#000f5f"/>
</svg>
