<svg xmlns="http://www.w3.org/2000/svg" width="22.768" height="22.768" viewBox="0 0 22.768 22.768">
  <path id="Icon_metro-headphones" data-name="Icon metro-headphones" d="M8.974,14.735H7.551V24.7H8.974a.714.714,0,0,0,.712-.712V15.447a.714.714,0,0,0-.712-.712Zm9.961,0a.714.714,0,0,0-.712.712v8.538a.714.714,0,0,0,.712.712h1.423V14.735Zm6.4-1.423A11.384,11.384,0,1,0,3.252,17.2,4.982,4.982,0,0,0,6.84,24.646V14.786a4.95,4.95,0,0,0-1.951.72,9.249,9.249,0,1,1,18.133,0,4.952,4.952,0,0,0-1.952-.721v9.86A4.982,4.982,0,0,0,24.658,17.2a11.362,11.362,0,0,0,.681-3.888Z" transform="translate(-2.571 -1.928)" fill="#000252"/>
</svg>
