<svg xmlns="http://www.w3.org/2000/svg" width="17.65" height="16.215" viewBox="0 0 17.65 16.215">
  <g id="XMLID_481_" transform="translate(0 -13.407)">
    <path id="XMLID_482_" d="M6.184,27.583q.477.419.985.867l.007.006,1.124.971a.8.8,0,0,0,1.049,0l1.124-.971.007-.006a47.424,47.424,0,0,0,5.1-4.945A7.624,7.624,0,0,0,17.65,18.62a5.158,5.158,0,0,0-5.213-5.213,5.6,5.6,0,0,0-3.612,1.352,5.6,5.6,0,0,0-3.612-1.352A5.158,5.158,0,0,0,0,18.62C0,22.154,2.46,24.314,6.184,27.583ZM5.615,19.91h2.14V17.77h2.14v2.14h2.14v2.14H9.895v2.14H7.755V22.05H5.615V19.91Z" fill="#5fa0bb"/>
  </g>
</svg>
