<svg id="help-header_icon" data-name="help-header icon" xmlns="http://www.w3.org/2000/svg" width="16" height="16" viewBox="0 0 16 16">
  <path id="Path_81" data-name="Path 81" d="M318,398a8,8,0,1,0,8,8A8,8,0,0,0,318,398Zm.553,12.5a1.116,1.116,0,0,1-1.518,0,1.012,1.012,0,0,1,0-1.458,1.116,1.116,0,0,1,1.518,0,1.012,1.012,0,0,1,0,1.458Zm2.593-6.758a2.236,2.236,0,0,1-.354,1.266,3.1,3.1,0,0,1-1.046.938,4.481,4.481,0,0,0-.674.467,1.238,1.238,0,0,0-.34.445,1.371,1.371,0,0,0-.1.539v.268H316.9l-.014-.372a2.448,2.448,0,0,1,.082-.834,1.689,1.689,0,0,1,.379-.66,3.152,3.152,0,0,1,.723-.566,4.655,4.655,0,0,0,.66-.458,1.214,1.214,0,0,0,.34-.441,1.36,1.36,0,0,0,.1-.534v-.013a1,1,0,0,0-.157-.556,1.053,1.053,0,0,0-.435-.376,1.475,1.475,0,0,0-.65-.134,1.363,1.363,0,0,0-.654.15,1.154,1.154,0,0,0-.444.412,1.232,1.232,0,0,0-.183.6l-.006.052h-1.779l.006-.059a2.718,2.718,0,0,1,.4-1.373,2.607,2.607,0,0,1,1.076-.952,3.775,3.775,0,0,1,1.7-.35,3.838,3.838,0,0,1,1.632.324,2.619,2.619,0,0,1,1.085.889,2.266,2.266,0,0,1,.39,1.318Z" transform="translate(-310 -398)" fill="#fff"/>
</svg>
