<svg xmlns="http://www.w3.org/2000/svg" width="19.592" height="19.592" viewBox="0 0 19.592 19.592"><path d="M319.8,398a9.8,9.8,0,1,0,9.8,9.8A9.8,9.8,0,0,0,319.8,398Zm.677,15.309a1.367,1.367,0,0,1-1.858,0,1.239,1.239,0,0,1,0-1.786,1.367,1.367,0,0,1,1.858,0,1.239,1.239,0,0,1,0,1.786Zm3.175-8.276a2.739,2.739,0,0,1-.433,1.55,3.8,3.8,0,0,1-1.28,1.149,5.489,5.489,0,0,0-.825.572,1.516,1.516,0,0,0-.416.545,1.68,1.68,0,0,0-.12.66v.328h-2.13l-.017-.456a3,3,0,0,1,.1-1.022,2.067,2.067,0,0,1,.464-.808,3.86,3.86,0,0,1,.886-.693,5.7,5.7,0,0,0,.808-.561,1.486,1.486,0,0,0,.416-.54,1.665,1.665,0,0,0,.12-.653v-.016a1.222,1.222,0,0,0-.192-.681,1.289,1.289,0,0,0-.533-.46,1.807,1.807,0,0,0-.8-.164,1.668,1.668,0,0,0-.8.184,1.413,1.413,0,0,0-.544.5,1.508,1.508,0,0,0-.224.729l-.008.064h-2.179l.008-.072a3.328,3.328,0,0,1,.493-1.681,3.192,3.192,0,0,1,1.318-1.166,4.622,4.622,0,0,1,2.082-.428,4.7,4.7,0,0,1,2,.4,3.207,3.207,0,0,1,1.328,1.088,2.775,2.775,0,0,1,.477,1.613Z" transform="translate(-310 -398)" fill="#000f5f"/></svg>