<svg xmlns="http://www.w3.org/2000/svg" width="13" height="13" viewBox="0 0 13 13">
  <path id="Icon_awesome-house-damage" data-name="Icon awesome-house-damage" d="M6.964,2.78,1.68,7.44a1.119,1.119,0,0,1-.132.081v4.472a.387.387,0,0,0,.387.387H5.543l-.9-1.761L7.16,9.072,5.705,6.189,9.285,9.5,6.768,11.044l.965,1.336h4.26a.387.387,0,0,0,.387-.387V7.522a1.128,1.128,0,0,1-.127-.077ZM13.8,5.713,12.38,4.46v-3.3a.387.387,0,0,0-.387-.387H10.446a.387.387,0,0,0-.387.387V2.41L7.611.249a.964.964,0,0,0-1.292,0L.128,5.713A.387.387,0,0,0,.1,6.26l.517.576a.387.387,0,0,0,.546.029L6.708,1.974a.387.387,0,0,1,.512,0l5.545,4.891a.387.387,0,0,0,.546-.029l.517-.576A.387.387,0,0,0,13.8,5.713Z" transform="translate(0)" fill="#000f5f"/>
</svg>
