<svg xmlns="http://www.w3.org/2000/svg" width="23.49" height="20.88" viewBox="0 0 23.49 20.88">
  <path id="Icon_awesome-house-damage" data-name="Icon awesome-house-damage" d="M11.745,4.688,2.833,12.549a1.887,1.887,0,0,1-.223.137v7.542a.652.652,0,0,0,.652.652H9.348L7.83,17.911l4.246-2.61L9.622,10.439l6.038,5.578-4.246,2.61,1.628,2.253h7.185a.652.652,0,0,0,.652-.652v-7.54a1.9,1.9,0,0,1-.215-.13ZM23.274,9.636,20.88,7.522V1.957a.652.652,0,0,0-.652-.652h-2.61a.652.652,0,0,0-.653.652V4.065L12.836.42a1.625,1.625,0,0,0-2.18,0L.217,9.636a.653.653,0,0,0-.049.922l.873.971a.653.653,0,0,0,.922.049l9.352-8.249a.653.653,0,0,1,.863,0l9.352,8.249a.653.653,0,0,0,.922-.049l.873-.971A.652.652,0,0,0,23.274,9.636Z" transform="translate(0)" fill="#000f5f"/>
</svg>
