<svg xmlns="http://www.w3.org/2000/svg" width="10.206" height="13.608" viewBox="0 0 10.206 13.608">
  <path id="Icon_awesome-file-download" data-name="Icon awesome-file-download" d="M5.953,3.615V0H.638A.636.636,0,0,0,0,.638V12.97a.636.636,0,0,0,.638.638h8.93a.636.636,0,0,0,.638-.638V4.252H6.591A.64.64,0,0,1,5.953,3.615ZM7.985,9.232,5.423,11.776a.453.453,0,0,1-.639,0L2.221,9.232a.425.425,0,0,1,.3-.727H4.252V6.379a.425.425,0,0,1,.425-.425h.85a.425.425,0,0,1,.425.425V8.5H7.686A.425.425,0,0,1,7.985,9.232ZM10.02,2.791l-2.6-2.6A.637.637,0,0,0,6.966,0H6.8V3.4h3.4V3.24A.636.636,0,0,0,10.02,2.791Z" fill="#000f5f"/>
</svg>
