<svg xmlns="http://www.w3.org/2000/svg" width="26.005" height="26" viewBox="0 0 26.005 26">
  <g id="krYtj9" transform="translate(-82.69 -341.713)">
    <g id="Group_2395" data-name="Group 2395" transform="translate(82.69 341.713)">
      <path id="Path_1889" data-name="Path 1889" d="M129.17,381.789a4.607,4.607,0,1,1,6.041-6.942c1.957,1.886,1.843,4.649-.324,6.959l.534.326a6.776,6.776,0,0,1,3.481,5.888c.016.5,0,1,0,1.5s-.218.858-.74.865-.755-.332-.769-.84a21.222,21.222,0,0,0-.088-2.216,5.288,5.288,0,0,0-5.676-4.551,5.349,5.349,0,0,0-4.946,5.134c-.016.5-.013,1,0,1.505.011.554-.181.977-.788.966-.563-.011-.731-.427-.755-.942C124.968,385.794,125.934,383.936,129.17,381.789Zm2.852-.561a3.06,3.06,0,1,0-3.045-3.053A3.077,3.077,0,0,0,132.022,381.228Z" transform="translate(-119.038 -369.002)" fill="#000f5f"/>
      <path id="Path_1890" data-name="Path 1890" d="M218.477,472.334c0,.478.015.956,0,1.432a3.817,3.817,0,0,1-3.686,3.675c-1,.026-2.006,0-3.008,0-.525,0-.913-.188-.919-.761s.392-.773.909-.776c.931-.006,1.863.009,2.794-.006a2.248,2.248,0,0,0,2.375-2.388c.014-.836,0-1.671,0-2.507s.255-1.226.79-1.185c.727.055.761.591.749,1.15-.01.454,0,.907,0,1.361Z" transform="translate(-192.485 -451.453)" fill="#000f5f"/>
      <path id="Path_1891" data-name="Path 1891" d="M213.374,341.737c.5,0,1-.021,1.5,0a3.77,3.77,0,0,1,3.593,3.6c.041,1.025.01,2.054.015,3.08,0,.525-.2.918-.764.923s-.771-.4-.774-.915c-.006-.932.007-1.863-.008-2.794a2.265,2.265,0,0,0-2.383-2.39c-.907-.022-1.815-.017-2.722-.007-.548.006-.975-.148-.969-.775.006-.585.416-.745.932-.738s1.051,0,1.576,0Z" transform="translate(-192.488 -341.726)" fill="#000f5f"/>
      <path id="Path_1892" data-name="Path 1892" d="M87.794,477.476c-.478,0-.956.016-1.433,0a3.766,3.766,0,0,1-3.651-3.619c-.039-1.026-.008-2.054-.014-3.081,0-.523.177-.915.759-.912s.757.395.753.919c-.007.908-.011,1.815,0,2.723a2.286,2.286,0,0,0,2.417,2.436c.907.012,1.815,0,2.723,0,.541,0,.98.182.963.8-.015.565-.423.749-.943.744s-1.051,0-1.576,0Z" transform="translate(-82.69 -451.489)" fill="#000f5f"/>
      <path id="Path_1893" data-name="Path 1893" d="M87.835,341.717c.549,0,1.1,0,1.648,0,.506,0,.849.244.84.765s-.365.744-.866.745c-.907,0-1.815-.01-2.722,0a2.333,2.333,0,0,0-2.519,2.495c-.012.883-.006,1.767,0,2.65.005.552-.185.979-.793.961-.567-.017-.729-.438-.724-.956.009-.931-.012-1.863,0-2.794a3.778,3.778,0,0,1,3.844-3.867C86.975,341.708,87.405,341.717,87.835,341.717Z" transform="translate(-82.696 -341.713)" fill="#000f5f"/>
    </g>
  </g>
</svg>
