<svg xmlns="http://www.w3.org/2000/svg" width="24.297" height="15.789" viewBox="0 0 24.297 15.789">
  <g id="illness-on-bed" transform="translate(0 -5.557)">
    <g id="Group_2466" data-name="Group 2466" transform="translate(0 5.557)">
      <circle id="Ellipse_205" data-name="Ellipse 205" cx="1.693" cy="1.693" r="1.693" transform="translate(6.117 1.635)" fill="#5fa0bb"/>
      <path id="Path_1928" data-name="Path 1928" d="M14.466,10.867a1.384,1.384,0,0,0-1.453,1.381v1.595h9.22a.342.342,0,0,0,.213-.609C21.442,12.433,19.1,11.1,14.466,10.867Z" transform="translate(-3.051 -6.802)" fill="#5fa0bb"/>
      <path id="Path_1929" data-name="Path 1929" d="M9.936,13.89a.927.927,0,0,0-.727-.9l-3.1-.687a.529.529,0,0,0-.643.517v1.312H9.936Z" transform="translate(-1.281 -7.134)" fill="#5fa0bb"/>
      <path id="Path_1930" data-name="Path 1930" d="M23.184,17.53V10.842a.879.879,0,1,0-1.758,0V13.5H2.874V6.437a.88.88,0,1,0-1.759,0V17.53a2.012,2.012,0,1,0,1.759-.021V15.916h18.55v1.592a2.016,2.016,0,1,0,1.76.021Zm-20.036,1.8a1.133,1.133,0,1,1-2.032-.688v.131a.88.88,0,1,0,1.759,0v-.179A1.126,1.126,0,0,1,3.147,19.331Zm19.136,1.132a1.133,1.133,0,0,1-.86-1.869v.178a.879.879,0,1,0,1.758,0v-.129a1.132,1.132,0,0,1-.9,1.821Z" transform="translate(0 -5.557)" fill="#5fa0bb"/>
    </g>
  </g>
</svg>
