<svg xmlns="http://www.w3.org/2000/svg" width="242.798" height="149.972" viewBox="0 0 242.798 149.972">
  <g id="Group_2841" data-name="Group 2841" transform="translate(0 0)">
    <g id="Group_2722" data-name="Group 2722" transform="translate(164.335 25.456)">
      <g id="Group_2719" data-name="Group 2719" transform="translate(0 0)">
        <path id="Path_2455" data-name="Path 2455" d="M2559.521,793.029s40.7-82.392,66.957-70.522-41.867,49.175-52.809,73.534Z" transform="translate(-2559.521 -721.337)" fill="#aec3ff"/>
      </g>
      <g id="Group_2721" data-name="Group 2721" transform="translate(7.222 11.456)">
        <g id="Group_2720" data-name="Group 2720">
          <path id="Path_2456" data-name="Path 2456" d="M2601.683,849.132c7.251-16.961,20.9-32.752,31.072-43.013a221.252,221.252,0,0,1,20.549-18.391l-.446-.586a221.829,221.829,0,0,0-20.626,18.459c-10.218,10.306-23.929,26.174-31.226,43.242Z" transform="translate(-2601.005 -787.142)" fill="#fff"/>
        </g>
      </g>
    </g>
    <g id="Group_2736" data-name="Group 2736" transform="translate(153.105 72.729)">
      <g id="Group_2724" data-name="Group 2724" transform="translate(0)">
        <g id="Group_2723" data-name="Group 2723">
          <path id="Path_2457" data-name="Path 2457" d="M2568.046,1026.138c-10.016,2.284-8.179,17.464-19.651,14.772-9.7-2.282-10.528-3.166-13.846-.341a15.8,15.8,0,0,0-2.937,3.356,9.336,9.336,0,0,1-5.829,4.251c-17.919,3.35-42.762-22.928-24.194-37.768,1.341-1.072,3.3-1.5,5.481-1.866,11.8-1.977,15.548,3.41,24.708-10.628s22.027,5.8,29.949,5.009,14.883-3.247,21.155,5.086S2578.063,1023.861,2568.046,1026.138Z" transform="translate(-2495.017 -992.875)" fill="#d2e0ff"/>
        </g>
      </g>
      <g id="Group_2735" data-name="Group 2735" transform="translate(12.124 1.499)" opacity="0.5">
        <g id="Group_2726" data-name="Group 2726" transform="translate(0 16.006)">
          <g id="Group_2725" data-name="Group 2725">
            <path id="Path_2458" data-name="Path 2458" d="M2565.043,1112.7l-.383-.556c.245-.169,25.137-16.933,77.19-18.726l.023.676C2590.016,1095.884,2565.287,1112.537,2565.043,1112.7Z" transform="translate(-2564.66 -1093.423)" fill="#fff"/>
          </g>
        </g>
        <g id="Group_2728" data-name="Group 2728" transform="translate(24.307 3.458)">
          <g id="Group_2727" data-name="Group 2727">
            <path id="Path_2459" data-name="Path 2459" d="M2712.53,1032.714c-6.936-6.105-8.2-11-8.249-11.2l.656-.162c.012.048,1.281,4.909,8.04,10.858Z" transform="translate(-2704.281 -1021.349)" fill="#fff"/>
          </g>
        </g>
        <g id="Group_2730" data-name="Group 2730" transform="translate(32.44)">
          <g id="Group_2729" data-name="Group 2729">
            <path id="Path_2460" data-name="Path 2460" d="M2752.383,1023.583c-1.967-3.379-1.838-8.282.371-14.177a45.153,45.153,0,0,1,3.941-7.922l.565.37c-.088.135-8.815,13.619-4.293,21.389Z" transform="translate(-2750.996 -1001.484)" fill="#fff"/>
          </g>
        </g>
        <g id="Group_2732" data-name="Group 2732" transform="translate(46.224 19.161)">
          <g id="Group_2731" data-name="Group 2731">
            <path id="Path_2461" data-name="Path 2461" d="M2831.467,1113.156c-.824-.675-1.271-1.115-1.292-1.135l.478-.478c.094.093,9.51,9.343,23.252,8.777l.028.675C2842.859,1121.452,2834.54,1115.671,2831.467,1113.156Z" transform="translate(-2830.175 -1111.544)" fill="#fff"/>
          </g>
        </g>
        <g id="Group_2734" data-name="Group 2734" transform="translate(50.041 22.78)">
          <g id="Group_2733" data-name="Group 2733">
            <path id="Path_2462" data-name="Path 2462" d="M2856.5,1145.877a15.94,15.94,0,0,1-4.333-9.268,11.82,11.82,0,0,1,.286-4.274l.646.2c-.02.065-1.915,6.542,3.9,12.886Z" transform="translate(-2852.1 -1132.335)" fill="#fff"/>
          </g>
        </g>
      </g>
    </g>
    <g id="Group_2737" data-name="Group 2737" transform="translate(214.158 68.329)" opacity="0.6">
      <path id="Path_2463" data-name="Path 2463" d="M2853.4,967.789c3-.569,4.068.214,4.291,1.388s-.487,2.3-3.483,2.864c-5.458,1.036-8.5-.589-8.5-.589S2847.866,968.84,2853.4,967.789Z" transform="translate(-2845.712 -967.599)" fill="#d4e4f8"/>
    </g>
    <g id="Group_2738" data-name="Group 2738" transform="translate(217.874 11.087)" opacity="0.6">
      <path id="Path_2464" data-name="Path 2464" d="M2878.708,638.8c4.335-.083,5.65,1.27,5.682,2.969s-1.23,3.1-5.566,3.183c-7.9.15-11.771-2.853-11.771-2.853S2870.7,638.955,2878.708,638.8Z" transform="translate(-2867.054 -638.798)" fill="#d4e4f8"/>
    </g>
    <g id="Group_2739" data-name="Group 2739" transform="translate(212.5 0)" opacity="0.6">
      <path id="Path_2465" data-name="Path 2465" d="M2841.585,577.675c2.782-2.982,4.557-2.984,5.726-1.894s1.288,2.861-1.494,5.843c-5.068,5.431-9.633,6.082-9.633,6.082S2836.444,583.185,2841.585,577.675Z" transform="translate(-2836.184 -575.115)" fill="#d4e4f8"/>
    </g>
    <g id="Group_2759" data-name="Group 2759" transform="translate(42.939 33.467)">
      <path id="Path_2475" data-name="Path 2475" d="M1921.777,830.858s-35.959-72.975-55.394-62.474,34.93,43.561,44.725,65.136Z" transform="translate(-1862.219 -767.35)" fill="#aec3ff"/>
    </g>
    <g id="Group_2763" data-name="Group 2763" transform="translate(9.231 34.862)">
      <g id="Group_2760" data-name="Group 2760" transform="translate(0 0)">
        <path id="Path_2476" data-name="Path 2476" d="M1743.386,826.335s-50.338-63.748-70.854-48.659,45.238,34.816,59.177,53.865Z" transform="translate(-1668.599 -775.365)" fill="#aec3ff"/>
      </g>
      <g id="Group_2762" data-name="Group 2762" transform="translate(12.362 9.754)">
        <g id="Group_2761" data-name="Group 2761">
          <path id="Path_2477" data-name="Path 2477" d="M1795.523,875.58c-9.387-13.33-24.09-24.473-34.771-31.474a195.333,195.333,0,0,0-21.147-12.122l.278-.589a196.031,196.031,0,0,1,21.227,12.166c10.729,7.032,25.5,18.229,34.947,31.643Z" transform="translate(-1739.605 -831.395)" fill="#fff"/>
        </g>
      </g>
    </g>
    <g id="Group_2777" data-name="Group 2777" transform="translate(0 60.101)">
      <g id="Group_2765" data-name="Group 2765" transform="translate(0)">
        <g id="Group_2764" data-name="Group 2764">
          <path id="Path_2478" data-name="Path 2478" d="M1704.849,982.374c-8.185-.156-17.743-.01-27.536.256a13.711,13.711,0,0,1-1.642-2.952c-6.132-6.324-5.065-5.382-18.849-2.934-9.888,1.751-11.048-6.958-15.245-13.262-.076-.116-.154-.229-.232-.343a12.328,12.328,0,0,0-6.86-5.2,40.4,40.4,0,0,1-9.781-4.269q-.374-.227-.74-.465c-5.948-3.848-9.957-9.146-7.8-14.626.05-.13.1-.26.163-.388a11.6,11.6,0,0,1,1.748-2.727c7.986-9.472,16.081-6.1,25.424-4.644,5.166.806,12.536-5.768,19.776-8.893.1-.045.208-.089.311-.132,5.748-2.4,11.392-2.529,15.76,5.048,0,0,0,0,0,0,.089.154.177.306.265.456,9.762,16.685,14.594,10.679,28.34,13.77,2.556.576,4.859,1.214,6.379,2.574C1728.511,956.314,1719,973.846,1704.849,982.374Z" transform="translate(-1615.576 -920.335)" fill="#d2e0ff"/>
        </g>
      </g>
      <g id="Group_2776" data-name="Group 2776" transform="translate(0.556 1.421)">
        <g id="Group_2767" data-name="Group 2767" transform="translate(0 16.42)">
          <g id="Group_2766" data-name="Group 2766">
            <path id="Path_2479" data-name="Path 2479" d="M1708.672,1050.728l.491-.635c-.279-.217-28.7-21.733-90.321-27.275l-.072.8C1680.159,1029.139,1708.394,1050.513,1708.672,1050.728Z" transform="translate(-1618.771 -1022.818)" fill="#fff"/>
          </g>
        </g>
        <g id="Group_2769" data-name="Group 2769" transform="translate(52.59 4.967)">
          <g id="Group_2768" data-name="Group 2768">
            <path id="Path_2480" data-name="Path 2480" d="M1921.349,970.008c8.627-6.785,10.446-12.506,10.519-12.746l-.768-.234c-.017.057-1.842,5.738-10.248,12.35Z" transform="translate(-1920.852 -957.027)" fill="#fff"/>
          </g>
        </g>
        <g id="Group_2771" data-name="Group 2771" transform="translate(46.745)">
          <g id="Group_2770" data-name="Group 2770">
            <path id="Path_2481" data-name="Path 2481" d="M1891.634,954.993c2.554-3.879,2.724-9.7.49-16.839a53.606,53.606,0,0,0-4.154-9.655l-.694.4c.1.166,9.562,16.731,3.688,25.65Z" transform="translate(-1887.275 -928.499)" fill="#fff"/>
          </g>
        </g>
        <g id="Group_2773" data-name="Group 2773" transform="translate(7.794 22.163)">
          <g id="Group_2772" data-name="Group 2772">
            <path id="Path_2482" data-name="Path 2482" d="M1690.7,1057.664c1.023-.746,1.581-1.239,1.607-1.261l-.535-.6c-.117.1-11.893,10.457-28.153,8.884l-.077.8C1676.644,1066.755,1686.891,1060.445,1690.7,1057.664Z" transform="translate(-1663.542 -1055.805)" fill="#fff"/>
          </g>
        </g>
        <g id="Group_2775" data-name="Group 2775" transform="translate(25.159 26.214)">
          <g id="Group_2774" data-name="Group 2774">
            <path id="Path_2483" data-name="Path 2483" d="M1763.847,1094.867a18.933,18.933,0,0,0,5.748-10.708,14.032,14.032,0,0,0-.059-5.088l-.779.194c.019.078,1.842,7.884-5.471,15.027Z" transform="translate(-1763.286 -1079.072)" fill="#fff"/>
          </g>
        </g>
      </g>
    </g>
    <g id="Group_2778" data-name="Group 2778" transform="translate(4.058 56.443)">
      <path id="Path_2484" data-name="Path 2484" d="M1641.582,903.546c-2.551-1.069-2.971-2.2-2.552-3.2s1.518-1.492,4.068-.424c4.647,1.947,6.135,4.7,6.135,4.7S1646.3,905.521,1641.582,903.546Z" transform="translate(-1638.889 -899.324)" fill="#dde9f8"/>
    </g>
    <g id="Group_2779" data-name="Group 2779" transform="translate(68.189 9.898)">
      <path id="Path_2485" data-name="Path 2485" d="M2103.78,724.842l-87.212,1.533a6.8,6.8,0,0,1-6.919-6.66l-2.389-116.164a6.8,6.8,0,0,1,6.539-6.935l93.615-3.588a6.8,6.8,0,0,1,7.057,7.026l-4.014,118.219A6.8,6.8,0,0,1,2103.78,724.842Z" transform="translate(-2007.259 -593.023)" fill="#364154"/>
    </g>
    <g id="Group_2780" data-name="Group 2780" transform="translate(76.076 17.993)">
      <path id="Path_2486" data-name="Path 2486" d="M2135.961,755.3l-76.573,1.346a5.971,5.971,0,0,1-6.075-5.847l-.752-105.353a2.641,2.641,0,0,1,2.54-2.658l85.095-3.261a5,5,0,0,1,5.187,5.164l-3.559,104.842A5.971,5.971,0,0,1,2135.961,755.3Z" transform="translate(-2052.562 -639.521)" fill="#eaeaea"/>
    </g>
    <g id="Group_2781" data-name="Group 2781" transform="translate(97.415 7.943)">
      <path id="Path_2487" data-name="Path 2487" d="M2177.834,595.607l40.47-1.29a3.3,3.3,0,0,0,3.173-3.637l-.321-3.069a6.487,6.487,0,0,0-6.617-5.811l-32.3.821a6.846,6.846,0,0,0-6.626,6.055l-.466,4.015A2.616,2.616,0,0,0,2177.834,595.607Z" transform="translate(-2175.134 -581.798)" fill="#000f5f"/>
    </g>
    <g id="Group_2791" data-name="Group 2791" transform="translate(86.15 34.449)">
      <g id="Group_2782" data-name="Group 2782" transform="translate(0 0.15)">
        <path id="Path_2488" data-name="Path 2488" d="M2111.208,734.907h.365a.78.78,0,0,1,.781.78v7.193a.781.781,0,0,1-.781.78h-.365a.78.78,0,0,1-.781-.78v-7.193A.78.78,0,0,1,2111.208,734.907Z" transform="translate(-2110.428 -734.907)" fill="#000f5f"/>
      </g>
      <g id="Group_2783" data-name="Group 2783" transform="translate(4.114 0.15)">
        <path id="Path_2489" data-name="Path 2489" d="M2134.841,734.907h.609a.78.78,0,0,1,.621.308l2.466,3.24a.78.78,0,0,0,1.4-.473v-2.3a.781.781,0,0,1,.781-.78h.34a.78.78,0,0,1,.78.78v7.193a.78.78,0,0,1-.78.78h-.471a.779.779,0,0,1-.621-.307l-2.6-3.418a.78.78,0,0,0-1.4.473v2.472a.78.78,0,0,1-.78.78h-.34a.78.78,0,0,1-.78-.78v-7.193A.78.78,0,0,1,2134.841,734.907Z" transform="translate(-2134.061 -734.907)" fill="#000f5f"/>
      </g>
      <g id="Group_2784" data-name="Group 2784" transform="translate(13.734 0.025)">
        <path id="Path_2490" data-name="Path 2490" d="M2189.5,741.165l.143-.172a.777.777,0,0,1,1.019-.157,3.675,3.675,0,0,0,2.065.656c.788,0,1.263-.313,1.263-.85,0-.488-.3-.738-1.763-1.113-1.763-.45-2.9-.938-2.9-2.7,0-1.588,1.275-2.638,3.063-2.638a5.153,5.153,0,0,1,2.558.644.776.776,0,0,1,.247,1.116l-.133.192a.781.781,0,0,1-1.02.239,3.524,3.524,0,0,0-1.678-.491c-.738,0-1.126.338-1.126.788,0,.575.375.763,1.888,1.15,1.776.463,2.776,1.1,2.776,2.651,0,1.738-1.325,2.713-3.214,2.713a5.612,5.612,0,0,1-3.019-.874A.778.778,0,0,1,2189.5,741.165Z" transform="translate(-2189.318 -734.189)" fill="#000f5f"/>
      </g>
      <g id="Group_2785" data-name="Group 2785" transform="translate(21.859 0.15)">
        <path id="Path_2491" data-name="Path 2491" d="M2235.988,739.909v-4.221a.78.78,0,0,1,.781-.78h.365a.78.78,0,0,1,.78.78v4.171c0,1.426.713,2.163,1.888,2.163s1.888-.713,1.888-2.1v-4.234a.781.781,0,0,1,.781-.78h.365a.78.78,0,0,1,.78.78v4.159c0,2.651-1.488,3.951-3.839,3.951S2235.988,742.485,2235.988,739.909Z" transform="translate(-2235.988 -734.907)" fill="#000f5f"/>
      </g>
      <g id="Group_2786" data-name="Group 2786" transform="translate(31.451 0.15)">
        <path id="Path_2492" data-name="Path 2492" d="M2291.081,735.687a.78.78,0,0,1,.781-.78h3.221a3.486,3.486,0,0,1,2.551.888,2.767,2.767,0,0,1,.75,2.025,2.694,2.694,0,0,1-1.169,2.354.782.782,0,0,0-.209,1.087l.806,1.178a.78.78,0,0,1-.644,1.221h-.358a.781.781,0,0,1-.646-.342l-1.436-2.117a.781.781,0,0,0-.646-.342h-.295a.78.78,0,0,0-.78.78v1.24a.78.78,0,0,1-.78.78h-.365a.78.78,0,0,1-.781-.78Zm3.876,3.471c.938,0,1.475-.5,1.475-1.263,0-.825-.575-1.25-1.513-1.25h-1.133a.78.78,0,0,0-.78.78v.953a.78.78,0,0,0,.78.78Z" transform="translate(-2291.081 -734.907)" fill="#000f5f"/>
      </g>
      <g id="Group_2787" data-name="Group 2787" transform="translate(40.14 0.088)">
        <path id="Path_2493" data-name="Path 2493" d="M2344.865,734.548h.744a.78.78,0,0,1,.718.475l3.088,7.255a.78.78,0,0,1-.718,1.086h-.309a.78.78,0,0,1-.723-.486l-.4-.992a.781.781,0,0,0-.723-.486h-2.653a.78.78,0,0,0-.722.486l-.4.992a.781.781,0,0,1-.723.486h-.258a.78.78,0,0,1-.718-1.086l3.087-7.255A.78.78,0,0,1,2344.865,734.548Zm1.069,4.076h0a.78.78,0,0,0-1.444,0h0a.78.78,0,0,0,.722,1.076h0A.78.78,0,0,0,2345.933,738.624Z" transform="translate(-2340.996 -734.548)" fill="#000f5f"/>
      </g>
      <g id="Group_2788" data-name="Group 2788" transform="translate(50.371 0.15)">
        <path id="Path_2494" data-name="Path 2494" d="M2400.54,734.907h.609a.779.779,0,0,1,.621.308l2.466,3.24a.78.78,0,0,0,1.4-.473v-2.3a.78.78,0,0,1,.78-.78h.34a.78.78,0,0,1,.78.78v7.193a.78.78,0,0,1-.78.78h-.471a.781.781,0,0,1-.621-.307l-2.6-3.418a.78.78,0,0,0-1.4.473v2.472a.78.78,0,0,1-.78.78h-.34a.78.78,0,0,1-.78-.78v-7.193A.78.78,0,0,1,2400.54,734.907Z" transform="translate(-2399.76 -734.907)" fill="#000f5f"/>
      </g>
      <g id="Group_2789" data-name="Group 2789" transform="translate(59.862 0)">
        <path id="Path_2495" data-name="Path 2495" d="M2454.279,738.571a4.449,4.449,0,0,1,4.564-4.527,4.294,4.294,0,0,1,2.762.876.782.782,0,0,1,.119,1.135l-.147.17a.786.786,0,0,1-1.05.118,2.747,2.747,0,0,0-1.7-.523,2.76,2.76,0,0,0,0,5.5,2.815,2.815,0,0,0,1.767-.584.782.782,0,0,1,1.034.094l.192.206a.782.782,0,0,1-.09,1.148,4.5,4.5,0,0,1-2.966.911A4.424,4.424,0,0,1,2454.279,738.571Z" transform="translate(-2454.279 -734.045)" fill="#000f5f"/>
      </g>
      <g id="Group_2790" data-name="Group 2790" transform="translate(69.479 0.15)">
        <path id="Path_2496" data-name="Path 2496" d="M2510.3,734.907h5.042a.78.78,0,0,1,.78.78v.153a.78.78,0,0,1-.78.78h-3.129a.78.78,0,0,0-.781.78v.215a.78.78,0,0,0,.781.78h2.566a.78.78,0,0,1,.78.78v.153a.78.78,0,0,1-.78.78h-2.566a.78.78,0,0,0-.781.78v.278a.78.78,0,0,0,.781.78h3.191a.78.78,0,0,1,.78.78v.153a.78.78,0,0,1-.78.78h-5.1a.78.78,0,0,1-.781-.78v-7.193A.78.78,0,0,1,2510.3,734.907Z" transform="translate(-2509.516 -734.907)" fill="#000f5f"/>
      </g>
    </g>
    <g id="Group_2796" data-name="Group 2796" transform="translate(82.851 50.931)">
      <g id="Group_2792" data-name="Group 2792" transform="translate(0 0.446)">
        <path id="Path_2497" data-name="Path 2497" d="M2103.321,846.112q-.12,0-.239-.009l-8.606-.623a3.3,3.3,0,0,1-3-3.323v-7.425a3.073,3.073,0,0,1,2.935-3.127l9.475-.319a2.867,2.867,0,0,1,2.133.847,3.078,3.078,0,0,1,.892,2.267l-.251,8.362a3.515,3.515,0,0,1-1.143,2.5A3.257,3.257,0,0,1,2103.321,846.112Zm-.07-2.353a.929.929,0,0,0,.69-.245,1.156,1.156,0,0,0,.369-.822l.251-8.362a.717.717,0,0,0-.2-.531.526.526,0,0,0-.395-.163l-9.475.319a.744.744,0,0,0-.663.778v7.425a.943.943,0,0,0,.819.979Z" transform="translate(-2091.475 -831.284)" fill="#657285"/>
      </g>
      <g id="Group_2793" data-name="Group 2793" transform="translate(3.496)">
        <path id="Path_2498" data-name="Path 2498" d="M2112.217,833.151a.4.4,0,0,0-.607.517l3.219,5.79c.595,1.276,1.84.779,2.573-.414l6-9.78c.232-.318-.165-.719-.457-.462l-5.432,6.024c-2.533,2.569-2.762,1.206-4.2-.4C2112.919,833.988,2112.217,833.151,2112.217,833.151Z" transform="translate(-2111.556 -828.72)" fill="#000f5f"/>
      </g>
      <g id="Group_2794" data-name="Group 2794" transform="translate(21.757 4.029)">
        <path id="Path_2499" data-name="Path 2499" d="M2242.047,854.711l-24.567-.625a1.086,1.086,0,0,1-1.031-1.11h0a1.084,1.084,0,0,1,1.056-1.11H2242a1.076,1.076,0,0,1,1.048.972l.075.626A1.091,1.091,0,0,1,2242.047,854.711Z" transform="translate(-2216.45 -851.865)" fill="#657285"/>
      </g>
      <g id="Group_2795" data-name="Group 2795" transform="translate(21.757 8.845)">
        <path id="Path_2500" data-name="Path 2500" d="M2242.047,882.37l-24.567-.626a1.086,1.086,0,0,1-1.031-1.11h0a1.084,1.084,0,0,1,1.056-1.11H2242a1.076,1.076,0,0,1,1.048.972l.075.625A1.091,1.091,0,0,1,2242.047,882.37Z" transform="translate(-2216.45 -879.524)" fill="#657285"/>
      </g>
    </g>
    <g id="Group_2799" data-name="Group 2799" transform="translate(82.851 77.673)">
      <g id="Group_2797" data-name="Group 2797" transform="translate(0 0.446)">
        <path id="Path_2501" data-name="Path 2501" d="M2103.321,999.718c-.08,0-.159,0-.239-.009l-8.606-.623a3.3,3.3,0,0,1-3-3.323v-7.425a3.073,3.073,0,0,1,2.935-3.127l9.475-.319a2.857,2.857,0,0,1,2.133.847,3.077,3.077,0,0,1,.892,2.267l-.251,8.362a3.516,3.516,0,0,1-1.143,2.5A3.257,3.257,0,0,1,2103.321,999.718Zm-.07-2.354a.924.924,0,0,0,.69-.245,1.155,1.155,0,0,0,.369-.822l.251-8.362a.717.717,0,0,0-.2-.531.532.532,0,0,0-.395-.163l-9.475.319a.744.744,0,0,0-.663.778v7.425a.943.943,0,0,0,.819.979Z" transform="translate(-2091.475 -984.89)" fill="#657285"/>
      </g>
      <g id="Group_2798" data-name="Group 2798" transform="translate(3.496 0)">
        <path id="Path_2502" data-name="Path 2502" d="M2112.217,986.758a.4.4,0,0,0-.607.517l3.219,5.79c.595,1.275,1.84.779,2.573-.415l6-9.78c.232-.318-.165-.719-.457-.462l-5.432,6.024c-2.533,2.569-2.762,1.206-4.2-.4C2112.919,987.595,2112.217,986.758,2112.217,986.758Z" transform="translate(-2111.556 -982.327)" fill="#000f5f"/>
      </g>
      <g id="Group_2842" data-name="Group 2842" transform="translate(21.757 4.407)">
        <path id="Path_2499-2" data-name="Path 2499" d="M2242.047,854.711l-24.567-.625a1.086,1.086,0,0,1-1.031-1.11h0a1.084,1.084,0,0,1,1.056-1.11H2242a1.076,1.076,0,0,1,1.048.972l.075.626A1.091,1.091,0,0,1,2242.047,854.711Z" transform="translate(-2216.45 -851.865)" fill="#657285"/>
      </g>
      <g id="Group_2843" data-name="Group 2843" transform="translate(21.757 9.222)">
        <path id="Path_2500-2" data-name="Path 2500" d="M2242.047,882.37l-24.567-.626a1.086,1.086,0,0,1-1.031-1.11h0a1.084,1.084,0,0,1,1.056-1.11H2242a1.076,1.076,0,0,1,1.048.972l.075.625A1.091,1.091,0,0,1,2242.047,882.37Z" transform="translate(-2216.45 -879.524)" fill="#657285"/>
      </g>
    </g>
    <g id="Group_2804" data-name="Group 2804" transform="translate(82.851 101.547)">
      <g id="Group_2800" data-name="Group 2800" transform="translate(0 0.446)">
        <path id="Path_2503" data-name="Path 2503" d="M2103.321,1136.852q-.12,0-.239-.009l-8.606-.623a3.3,3.3,0,0,1-3-3.323v-7.425a3.073,3.073,0,0,1,2.935-3.128l9.475-.319a2.857,2.857,0,0,1,2.133.847,3.078,3.078,0,0,1,.892,2.267l-.251,8.363a3.516,3.516,0,0,1-1.143,2.5A3.257,3.257,0,0,1,2103.321,1136.852Zm-.07-2.353a.923.923,0,0,0,.69-.245,1.155,1.155,0,0,0,.369-.822l.251-8.363a.717.717,0,0,0-.2-.531.531.531,0,0,0-.395-.163l-9.475.319a.744.744,0,0,0-.663.778v7.425a.943.943,0,0,0,.819.978Z" transform="translate(-2091.475 -1122.025)" fill="#657285"/>
      </g>
      <g id="Group_2801" data-name="Group 2801" transform="translate(3.496)">
        <path id="Path_2504" data-name="Path 2504" d="M2112.217,1123.893a.4.4,0,0,0-.607.517l3.219,5.79c.595,1.276,1.84.779,2.573-.415l6-9.78c.232-.318-.165-.719-.457-.462l-5.432,6.024c-2.533,2.569-2.762,1.206-4.2-.4C2112.919,1124.729,2112.217,1123.893,2112.217,1123.893Z" transform="translate(-2111.556 -1119.462)" fill="#000f5f"/>
      </g>
      <g id="Group_2802" data-name="Group 2802" transform="translate(21.757 4.029)">
        <path id="Path_2505" data-name="Path 2505" d="M2242.047,1145.453l-24.567-.626a1.086,1.086,0,0,1-1.031-1.11h0a1.084,1.084,0,0,1,1.056-1.11H2242a1.076,1.076,0,0,1,1.048.972l.075.626A1.091,1.091,0,0,1,2242.047,1145.453Z" transform="translate(-2216.45 -1142.607)" fill="#657285"/>
      </g>
      <g id="Group_2803" data-name="Group 2803" transform="translate(21.757 8.845)">
        <path id="Path_2506" data-name="Path 2506" d="M2242.047,1173.112l-24.567-.626a1.086,1.086,0,0,1-1.031-1.11h0a1.084,1.084,0,0,1,1.056-1.111H2242a1.076,1.076,0,0,1,1.048.972l.075.625A1.091,1.091,0,0,1,2242.047,1173.112Z" transform="translate(-2216.45 -1170.266)" fill="#657285"/>
      </g>
    </g>
    <g id="Group_2839" data-name="Group 2839" transform="translate(93.56 53.258)">
      <g id="Group_2805" data-name="Group 2805" transform="translate(12.279 18.097)">
        <path id="Path_2507" data-name="Path 2507" d="M2230.9,991.585s-5.424.116-6.911-2.226,1.036-4.377,1.036-4.377l8.069,4.3Z" transform="translate(-2223.522 -984.982)" fill="#feb27d"/>
      </g>
      <g id="Group_2806" data-name="Group 2806" transform="translate(54.503 14.713)">
        <path id="Path_2508" data-name="Path 2508" d="M2479.682,982.279c-1.445-10.694-13.625-16.734-13.625-16.734s1.031,23.832,3.117,23.128C2472.739,987.468,2477.611,987.447,2479.682,982.279Z" transform="translate(-2466.057 -965.544)" fill="#364154"/>
      </g>
      <g id="Group_2814" data-name="Group 2814" transform="translate(0 9.745)">
        <g id="Group_2807" data-name="Group 2807" transform="translate(88.77 34.334)">
          <path id="Path_2509" data-name="Path 2509" d="M2664.1,1134.222l4.961,2.314a1.162,1.162,0,0,1,.337,1.46l-.187.527c-.234.659-.787,1.065-1.236.906l-5.083-1.8Z" transform="translate(-2662.888 -1134.222)" fill="#131f2d"/>
        </g>
        <g id="Group_2808" data-name="Group 2808" transform="translate(0 0.197)">
          <path id="Path_2510" data-name="Path 2510" d="M2154.69,938.253s-1.636-.3-1.7.051c-.1.559,1.286,1.108,1.286,1.108Z" transform="translate(-2152.988 -938.136)" fill="#000f5f"/>
        </g>
        <g id="Group_2809" data-name="Group 2809" transform="translate(60.621 17.991)">
          <path id="Path_2511" data-name="Path 2511" d="M2528.852,1054.745a.764.764,0,0,1-.091-.005.78.78,0,0,1-.684-.865l.376-3.205a.673.673,0,0,0-.471-.638l-26.233-8.16a.78.78,0,1,1,.463-1.49l26.234,8.16a2.236,2.236,0,0,1,1.567,2.208c0,.022,0,.043,0,.064l-.38,3.243A.78.78,0,0,1,2528.852,1054.745Z" transform="translate(-2501.198 -1040.346)" fill="#131f2d"/>
        </g>
        <g id="Group_2810" data-name="Group 2810" transform="translate(8.556 0.789)">
          <path id="Path_2512" data-name="Path 2512" d="M2202.132,949.3l79.2,31.521c.787.27,3.039-1.509,3.734-4.417l.685-1.932a1.518,1.518,0,0,0-.894-1.927l-79.287-31.007Z" transform="translate(-2202.132 -941.534)" fill="#000f5f"/>
        </g>
        <g id="Group_2811" data-name="Group 2811" transform="translate(70.274 24.978)">
          <path id="Path_2513" data-name="Path 2513" d="M2566.226,1082.828s-.125,5.012-3.811,8.083l-5.77-2.3a12.427,12.427,0,0,0,3.574-8.136Z" transform="translate(-2556.645 -1080.479)" fill="#131f2d"/>
        </g>
        <g id="Group_2812" data-name="Group 2812" transform="translate(1.279)">
          <path id="Path_2514" data-name="Path 2514" d="M2160.757,937.326l-.376,1.06a.8.8,0,0,0,.212.846l6.03,5.666a2.676,2.676,0,0,0,3.237.349,4.335,4.335,0,0,0,1.844-2.678,6.54,6.54,0,0,0,.152-3.735,2.125,2.125,0,0,0-1.918-1.412l-8.692-.416A.488.488,0,0,0,2160.757,937.326Z" transform="translate(-2160.336 -937.005)" fill="#131f2d"/>
        </g>
        <g id="Group_2813" data-name="Group 2813" transform="translate(79.136 34.166)">
          <path id="Path_2515" data-name="Path 2515" d="M2616.531,1137.132a.121.121,0,0,1-.046-.009l-8.865-3.634a.12.12,0,1,1,.091-.222l8.865,3.634a.12.12,0,0,1-.045.231Z" transform="translate(-2607.546 -1133.258)" fill="#131f2d"/>
        </g>
      </g>
      <g id="Group_2833" data-name="Group 2833" transform="translate(35.505 0)">
        <g id="Group_2832" data-name="Group 2832">
          <g id="Group_2815" data-name="Group 2815" transform="translate(3.77 91.56)">
            <path id="Path_2516" data-name="Path 2516" d="M2383.653,1406.952s-.093,1.79-1.319,2.263-4.75.834-3.469,2.021c.735.681,4.3.35,5.3.377s1.93.489,2.693-.161c.839-.716.119-4.409.119-4.409a4,4,0,0,1-1.654.386A3.189,3.189,0,0,1,2383.653,1406.952Z" transform="translate(-2378.59 -1406.952)" fill="#131f2d"/>
          </g>
          <g id="Group_2816" data-name="Group 2816" transform="translate(0.033 43.683)">
            <path id="Path_2517" data-name="Path 2517" d="M2357.13,1134.7c.234,3.716.677,8.54,1.5,14.438,1.561,11.245,3.455,22.586,4.388,28.023a4.221,4.221,0,0,0,3.849,3.533l1.035.069a3.543,3.543,0,0,0,3.729-3.739l-1.63-36.66-.155-5.831S2356.746,1128.606,2357.13,1134.7Z" transform="translate(-2357.121 -1131.949)" fill="#5fa0bb"/>
          </g>
          <g id="Group_2817" data-name="Group 2817" transform="translate(15.25 91.869)">
            <path id="Path_2518" data-name="Path 2518" d="M2449.59,1408.73s-.093,1.79-1.319,2.263-4.75.834-3.469,2.021c.735.681,4.295.35,5.3.377s1.931.489,2.694-.161c.839-.716.119-4.409.119-4.409a4,4,0,0,1-1.654.386A3.189,3.189,0,0,1,2449.59,1408.73Z" transform="translate(-2444.526 -1408.73)" fill="#131f2d"/>
          </g>
          <g id="Group_2818" data-name="Group 2818" transform="translate(11.273 37.531)">
            <path id="Path_2519" data-name="Path 2519" d="M2421.725,1096.611s-.46,8.077,1.7,23.654c1.56,11.245,3.455,22.586,4.387,28.023a4.221,4.221,0,0,0,3.849,3.533l1.035.07a3.543,3.543,0,0,0,3.728-3.739l-1.63-36.66-.32-12.06Z" transform="translate(-2421.684 -1096.611)" fill="#5fa0bb"/>
          </g>
          <g id="Group_2819" data-name="Group 2819" transform="translate(13.366 50.779)">
            <path id="Path_2520" data-name="Path 2520" d="M2433.86,1186.285l-.155-.021c.009-.067.894-6.687,1.56-9.064.674-2.4,3.772-4.47,3.8-4.491l.086.13c-.031.02-3.081,2.059-3.739,4.4C2434.753,1179.61,2433.869,1186.219,2433.86,1186.285Z" transform="translate(-2433.705 -1172.71)" fill="#131f2d"/>
          </g>
          <g id="Group_2820" data-name="Group 2820" transform="translate(9.416 5.443)">
            <path id="Path_2521" data-name="Path 2521" d="M2415.17,919.554l-.807-2.417-.234-.7-1.38-4.137-.181,4.115-.109,2.47-.035.782c-.023.531-.371.642-.8,1.1-.172.187-1.271,1.32-.024,1.832,1.554.638,4.46-.328,5.564-1.593C2417.16,921.005,2415.43,920.336,2415.17,919.554Z" transform="translate(-2411.016 -912.297)" fill="#ed975d"/>
          </g>
          <g id="Group_2821" data-name="Group 2821" transform="translate(6.556 1.81)">
            <ellipse id="Ellipse_219" data-name="Ellipse 219" cx="4.442" cy="3.951" rx="4.442" ry="3.951" transform="translate(0 8.683) rotate(-77.783)" fill="#feb27d"/>
          </g>
          <g id="Group_2822" data-name="Group 2822" transform="translate(5.74 0.056)">
            <path id="Path_2522" data-name="Path 2522" d="M2393.292,886.74c-2.264.079-3.362-1.134-3.388-2.257-.033-1.44.943-2.716,2.081-2.18s.649-.778,1.742-.917c2.043-.26,2.426,1.089,4.1,1.155,2.206.087,4.721,3.5,2.872,5.99C2400.7,888.53,2395.079,886.677,2393.292,886.74Z" transform="translate(-2389.903 -881.353)" fill="#131f2d"/>
          </g>
          <g id="Group_2823" data-name="Group 2823" transform="translate(7.113 2.974)">
            <path id="Path_2523" data-name="Path 2523" d="M2397.789,899.13s2.418,2.162,2.1,3.379-.239,1.693,1.174,2.342.165,1.7,2.048,1.779,4.189-1.99,4.188-5.386a4.9,4.9,0,0,0-1.171-3.132Z" transform="translate(-2397.789 -898.113)" fill="#131f2d"/>
          </g>
          <g id="Group_2824" data-name="Group 2824" transform="translate(7.819 6.956)">
            <path id="Path_2524" data-name="Path 2524" d="M2402.019,921.344a.858.858,0,0,1,1.125-.242.725.725,0,0,1,.133,1.066.858.858,0,0,1-1.126.242A.726.726,0,0,1,2402.019,921.344Z" transform="translate(-2401.847 -920.983)" fill="#ed975d"/>
          </g>
          <g id="Group_2825" data-name="Group 2825" transform="translate(16.772 7.3)">
            <path id="Path_2525" data-name="Path 2525" d="M2453.942,923.831a.056.056,0,0,1-.055-.043,1.292,1.292,0,0,0-.585-.722.056.056,0,0,1,.054-.1,1.386,1.386,0,0,1,.64.794.056.056,0,0,1-.042.068Z" transform="translate(-2453.273 -922.961)" fill="#131f2d"/>
          </g>
          <g id="Group_2826" data-name="Group 2826" transform="translate(16.772 6.511)">
            <path id="Path_2526" data-name="Path 2526" d="M2453.329,919.067a.056.056,0,0,1,0-.112c.006,0,.619-.042.707-.48a.055.055,0,0,1,.066-.044.057.057,0,0,1,.044.066c-.1.524-.781.569-.81.57Z" transform="translate(-2453.273 -918.429)" fill="#131f2d"/>
          </g>
          <g id="Group_2827" data-name="Group 2827" transform="translate(6.563)">
            <path id="Path_2527" data-name="Path 2527" d="M2396.231,881.952a.46.46,0,0,1-.122-.017,1.627,1.627,0,0,1-.464-.229.956.956,0,0,0-.944-.161.056.056,0,1,1-.032-.108,1.071,1.071,0,0,1,1.037.174,1.537,1.537,0,0,0,.432.215.279.279,0,0,0,.245-.035c.247-.168.305-.705.306-.711a.055.055,0,0,1,.062-.05.056.056,0,0,1,.05.062c0,.024-.064.594-.354.792A.38.38,0,0,1,2396.231,881.952Z" transform="translate(-2394.63 -881.03)" fill="#131f2d"/>
          </g>
          <g id="Group_2828" data-name="Group 2828" transform="translate(12.019 0.405)">
            <path id="Path_2528" data-name="Path 2528" d="M2427.441,884.017a2.426,2.426,0,0,1-1.451-.564.056.056,0,1,1,.074-.084,2.258,2.258,0,0,0,1.617.518.055.055,0,0,1,.064.047.056.056,0,0,1-.047.064A1.751,1.751,0,0,1,2427.441,884.017Z" transform="translate(-2425.972 -883.355)" fill="#131f2d"/>
          </g>
          <g id="Group_2829" data-name="Group 2829" transform="translate(8.422 7.965)">
            <path id="Path_2529" data-name="Path 2529" d="M2405.485,927.357a.579.579,0,0,1-.156-.019.027.027,0,0,1-.018-.034.027.027,0,0,1,.034-.018c.021.007.512.153.859-.491a.027.027,0,0,1,.036-.011.028.028,0,0,1,.011.037A.869.869,0,0,1,2405.485,927.357Z" transform="translate(-2405.311 -926.781)" fill="#131f2d"/>
          </g>
          <g id="Group_2830" data-name="Group 2830" transform="translate(0 41.962)">
            <path id="Path_2530" data-name="Path 2530" d="M2356.974,1126.536s16.42-.9,24.211.981l.116-2.221-10.926-3.235-8.821.217-2.71.578-1.912,2.953Z" transform="translate(-2356.932 -1122.061)" fill="#131f2d"/>
          </g>
          <g id="Group_2831" data-name="Group 2831" transform="translate(0 13.166)">
            <path id="Path_2531" data-name="Path 2531" d="M2379.728,962.873s-1.445-6.214-10.286-6.214c-15.406,0-11.084,12.566-12.51,32.543,0,0,9.933-2.153,24.3.712,0,0,1.4-10.819-.408-19.965C2380.351,967.534,2380.438,964.973,2379.728,962.873Z" transform="translate(-2356.932 -956.659)" fill="#364154"/>
          </g>
        </g>
      </g>
      <g id="Group_2834" data-name="Group 2834" transform="translate(27.868 13.166)">
        <path id="Path_2532" data-name="Path 2532" d="M2331.436,956.656a14.118,14.118,0,0,0-8.617,3.541c-3.675,3.469-8.407,8.247-9.412,11-1.236,3.385,1.04,6.781,3.93,6.853a9.633,9.633,0,0,0,5.481-2.023Z" transform="translate(-2313.063 -956.656)" fill="#364154"/>
      </g>
      <g id="Group_2835" data-name="Group 2835" transform="translate(59.187 25.585)">
        <path id="Path_2533" data-name="Path 2533" d="M2494.042,1043.957l-.108-.006a80.984,80.984,0,0,0-.972-15.939l.106-.019A81.061,81.061,0,0,1,2494.042,1043.957Z" transform="translate(-2492.961 -1027.993)" fill="#131f2d"/>
      </g>
      <g id="Group_2836" data-name="Group 2836" transform="translate(35.856 27.294)">
        <path id="Path_2534" data-name="Path 2534" d="M2359,1044.175l-.055-.093c2.9-1.713,6.683-6.226,6.721-6.271l.083.069C2365.711,1037.925,2361.92,1042.452,2359,1044.175Z" transform="translate(-2358.945 -1037.81)" fill="#131f2d"/>
      </g>
      <g id="Group_2837" data-name="Group 2837" transform="translate(15.744 22.362)">
        <path id="Path_2535" data-name="Path 2535" d="M2243.42,1012.713c-.036,2.215,11.105,10.315,17.791,8.962,7.108-1.438-1.662-9.226-1.662-9.226l-13.1-2.969S2243.456,1010.468,2243.42,1012.713Z" transform="translate(-2243.42 -1009.48)" fill="#364154"/>
      </g>
      <g id="Group_2838" data-name="Group 2838" transform="translate(15.663 18.272)">
        <path id="Path_2536" data-name="Path 2536" d="M2246.067,990.074a1.592,1.592,0,0,0-.519-1.405c-.671-.583-1.371-3.247-1.808-2.579s-.035,2.792-.7,3.021S2246.067,990.074,2246.067,990.074Z" transform="translate(-2242.956 -985.984)" fill="#feb27d"/>
      </g>
    </g>
    <g id="Group_2840" data-name="Group 2840" transform="translate(99.965 120.012)">
      <path id="Path_2537" data-name="Path 2537" d="M2193.851,1233.491a3.668,3.668,0,0,1-2.775-1.354,4.86,4.86,0,0,1-1.131-4.423,2.293,2.293,0,0,1,1.792-1.567,2.621,2.621,0,0,1,2.592.521,2.348,2.348,0,0,1,.318,2.141.6.6,0,0,1-1.133-.365c.055-.174.156-.728-.078-.989-.206-.231-.743-.282-1.472-.14a1.1,1.1,0,0,0-.894.783,3.727,3.727,0,0,0,.9,3.253,2.432,2.432,0,0,0,2.351.9,3.536,3.536,0,0,0,1.936-1.081,3.246,3.246,0,0,1-.285-.446c-.74-1.391-.693-3.537.1-4.334a1.075,1.075,0,0,1,1.313-.2,2.8,2.8,0,0,1,1.066,2.986,5.4,5.4,0,0,1-.581,1.767,1.5,1.5,0,0,0,.758.02,3.051,3.051,0,0,0,1.794-1.165c-.858-1.005-1.5-2.505-1.2-3.437a1.183,1.183,0,0,1,1.154-.837c.969-.025,1.669.756,1.8,1.978a4.424,4.424,0,0,1-.292,2.043.71.71,0,0,0,.792.122c1.313-.892.933-1.853.885-1.96a.591.591,0,0,1,.278-.791.6.6,0,0,1,.8.28,2.769,2.769,0,0,1-1.291,3.455,1.794,1.794,0,0,1-2.034-.061,3.9,3.9,0,0,1-2.462,1.542,2.621,2.621,0,0,1-1.673-.2,4.694,4.694,0,0,1-2.614,1.48A3.527,3.527,0,0,1,2193.851,1233.491Zm3.022-6.219a3.518,3.518,0,0,0,.069,2.73l.028.061a4.108,4.108,0,0,0,.3-1.05A1.875,1.875,0,0,0,2196.873,1227.272Zm3.48-.553a2.894,2.894,0,0,0,.6,1.833,3.286,3.286,0,0,0,.03-.925c-.016-.153-.12-.913-.579-.913h-.009A.315.315,0,0,0,2200.353,1226.719Z" transform="translate(-2189.778 -1225.525)" fill="#000f5f"/>
    </g>
  </g>
</svg>
