<svg xmlns="http://www.w3.org/2000/svg" width="284.197" height="158.911" viewBox="0 0 284.197 158.911">
  <path id="Path_1955" data-name="Path 1955" d="M1913.609,595.076c0,1.327-.022,2.727-.072,4.19-.01.273-.019.551-.03.83q-.067,1.652-.175,3.394c-.018.264-.034.528-.051.794-.021.321-.044.645-.069.968-.1,1.368-.218,2.768-.354,4.19-.029.288-.058.574-.086.861-.14,1.378-.3,2.779-.472,4.19-.037.289-.075.583-.111.872q-.27,2.083-.588,4.189c-.044.3-.092.59-.138.882q-.26,1.662-.553,3.32-.158.872-.318,1.742-.4,2.109-.845,4.19c-.062.289-.127.575-.19.864-.314,1.413-.647,2.811-1,4.186q-.112.438-.227.874c-.31,1.174-.636,2.331-.972,3.463-.186.621-.377,1.235-.569,1.842-.459,1.44-.947,2.84-1.457,4.186-.111.292-.222.585-.335.872-.58,1.468-1.187,2.867-1.827,4.182-.135.28-.271.555-.413.826a35.789,35.789,0,0,1-2.464,4.177q-.417.608-.849,1.166a16.4,16.4,0,0,1-4.5,4.168c-.118.068-.237.137-.356.2l-.089.048c-.233.126-.469.238-.706.343l-12.507.025-35.355.068-43.883-.353-2.946-.024-14.208-.115-33.942-.272-102.524-.825s-19.015-15.07-19.015-41.231c0-.361,0-.72.009-1.084.207-10.249,1.764-27.3,12.055-41.129a49.082,49.082,0,0,1,15.077-13.337q1.032-.591,2.117-1.152c.147-.078.3-.154.446-.229q1.432-.725,2.959-1.392,1.976-.861,4.112-1.615c.229-.082.461-.162.693-.241s.481-.162.724-.242q1.872-.612,3.867-1.138l.079-.021q1.909-.5,3.936-.918c.275-.059.55-.113.828-.167q2-.391,3.839-.922c.186-.054.371-.108.555-.165a39.5,39.5,0,0,0,4.9-1.831q.67-.3,1.316-.623l.19-.1.126-.065q1.389-.706,2.676-1.5a39.67,39.67,0,0,0,3.963-2.779c.023-.016.043-.033.063-.049,18.6-14.819,21.953-42.917,57.368-45.244a83.892,83.892,0,0,1,12.962.222,49.073,49.073,0,0,1,18.686,5.833c5.684,2.959,10.654,6.383,15.676,8.708l.343.159c4.926,2.233,9.915,3.377,15.693,1.961.28-.065.562-.141.849-.222a158.142,158.142,0,0,1,17.95-4.065c.116-.017.23-.036.347-.055,13.41-2.133,24.534-1.721,33.78.655.114.029.23.057.344.091a52.052,52.052,0,0,1,10.957,4.209q1.392.729,2.706,1.53c.027.017.054.032.081.049l.437.272.42.264.038.025q1.621,1.042,3.133,2.194,1.793,1.366,3.436,2.876c.312.288.621.577.925.871a51.675,51.675,0,0,1,3.9,4.209c.243.289.48.581.714.877q1.613,2.024,3.051,4.2c.246.372.486.745.724,1.123q1.289,2.043,2.439,4.2c.156.291.308.583.461.877q1.063,2.052,2.013,4.2c.138.31.275.623.408.936q.865,2.014,1.64,4.093c.192.518.382,1.034.567,1.557.321.9.629,1.819.926,2.739q.374,1.156.725,2.322.622,2.081,1.176,4.2c.078.291.153.583.226.874q.376,1.466.718,2.949c.1.413.192.831.285,1.249.065.291.13.588.2.883q.081.384.164.764.324,1.54.623,3.091l.067.34c.054.291.109.582.164.874q.388,2.088.731,4.194c.046.288.093.577.14.866q.331,2.093.623,4.2c.041.291.083.582.123.874q.175,1.289.338,2.577c.044.356.085.729.124,1.117.014.162.03.329.045.5.032.361.06.736.084,1.122.083,1.274.13,2.679.144,4.19C1913.609,594.489,1913.609,594.782,1913.609,595.076Z" transform="translate(-1629.413 -502.271)" fill="#ebf3fa"/>
</svg>
