<svg xmlns="http://www.w3.org/2000/svg" width="13.376" height="18.15" viewBox="0 0 13.376 18.15">
  <g id="Group_3040" data-name="Group 3040" transform="translate(0 0)">
    <path id="Icon_ionic-ios-star" data-name="Icon ionic-ios-star" d="M10.9,3.643H7.182L6.051.268a.41.41,0,0,0-.769,0L4.152,3.643H.4a.406.406,0,0,0-.4.4.3.3,0,0,0,.008.068.389.389,0,0,0,.17.286L3.236,6.557,2.062,9.97a.406.406,0,0,0,.139.455.391.391,0,0,0,.228.1.5.5,0,0,0,.253-.091L5.667,8.305l2.985,2.128a.474.474,0,0,0,.253.091.363.363,0,0,0,.225-.1.4.4,0,0,0,.139-.455L8.1,6.557l3.033-2.176.073-.063a.424.424,0,0,0,.132-.271A.428.428,0,0,0,10.9,3.643Z" transform="translate(0 7.704) rotate(-7)" fill="#03115b"/>
    <path id="Icon_ionic-ios-star-2" data-name="Icon ionic-ios-star" d="M3.754,1.254H2.473L2.083.092a.141.141,0,0,0-.265,0L1.429,1.254H.139A.14.14,0,0,0,0,1.394a.1.1,0,0,0,0,.024.134.134,0,0,0,.058.1l1.053.742L.71,3.432a.14.14,0,0,0,.048.157.135.135,0,0,0,.078.034.171.171,0,0,0,.087-.031l1.028-.732,1.028.732a.163.163,0,0,0,.087.031.125.125,0,0,0,.078-.034.138.138,0,0,0,.048-.157l-.4-1.175,1.044-.749.025-.022A.146.146,0,0,0,3.9,1.394.147.147,0,0,0,3.754,1.254Z" transform="translate(9.533 4.513) rotate(10)" fill="#03115b"/>
    <path id="Icon_ionic-ios-star-3" data-name="Icon ionic-ios-star" d="M4.831,1.614H3.182l-.5-1.5a.182.182,0,0,0-.341,0l-.5,1.5H.179A.18.18,0,0,0,0,1.793a.132.132,0,0,0,0,.03.172.172,0,0,0,.075.127l1.355.955L.913,4.417a.18.18,0,0,0,.062.2.173.173,0,0,0,.1.044.22.22,0,0,0,.112-.04l1.323-.943,1.323.943a.21.21,0,0,0,.112.04.161.161,0,0,0,.1-.044.178.178,0,0,0,.062-.2l-.52-1.512L4.93,1.941l.033-.028a.188.188,0,0,0,.058-.12A.19.19,0,0,0,4.831,1.614Z" transform="matrix(0.974, -0.225, 0.225, 0.974, 4.28, 1.129)" fill="#03115b"/>
  </g>
</svg>
