<svg xmlns="http://www.w3.org/2000/svg" width="307.659" height="165.597" viewBox="0 0 307.659 165.597">
  <g id="Group_2890" data-name="Group 2890" transform="translate(-167.113 -193)">
    <path id="Path_2538" data-name="Path 2538" d="M455.329,358.2l-80.068.312-56.3-.216-125.877-.481a57.224,57.224,0,0,1-17.619-42.24c.28-17.148,4.012-53.349,43.124-61.811,36.684-7.937,28.467-67.19,81.019-53.461,29.073,7.595,47.128,2.889,63.582-2.413,62.118-20.016,77.647,26.573,69.71,46.243C419.051,278.451,488.8,278.646,455.329,358.2Z" transform="translate(-1.406)" fill="#ebf3fa"/>
    <g id="Group_2848" data-name="Group 2848" transform="translate(194.123 309.176)">
      <path id="Path_2539" data-name="Path 2539" d="M416.034,1326.672v1.211c0,.424-.137.771-.3.771H371.523c-.168,0-.3-.346-.3-.771v-1.211c0-.423.137-.771.3-.771h44.206C415.9,1325.9,416.034,1326.249,416.034,1326.672Z" transform="translate(-371.218 -1325.902)" fill="#8fadef"/>
      <path id="Path_2540" data-name="Path 2540" d="M496.209,1326.672v1.211c0,.424-.126.771-.28.771H460.835c-.154,0-.28-.346-.28-.771v-1.211c0-.423.126-.771.28-.771h35.095C496.083,1325.9,496.209,1326.249,496.209,1326.672Z" transform="translate(-451.394 -1325.902)" fill="#bbd0ff"/>
      <rect id="Rectangle_1031" data-name="Rectangle 1031" width="31.383" height="45.743" transform="translate(2.244 2.753)" fill="#aec3ff"/>
      <rect id="Rectangle_1032" data-name="Rectangle 1032" width="31.383" height="45.743" transform="translate(11.039 2.753)" fill="#d2e0ff"/>
      <g id="Group_2847" data-name="Group 2847" transform="translate(12.725 4.045)">
        <g id="Group_2844" data-name="Group 2844">
          <path id="Path_2541" data-name="Path 2541" d="M523.32,1407.271H495.31v-41.925h28.01Zm-27.708-.3h27.406v-41.32H495.612Z" transform="translate(-495.31 -1365.346)" fill="#aec3ff"/>
        </g>
        <g id="Group_2845" data-name="Group 2845" transform="translate(0.151 13.869)">
          <rect id="Rectangle_1033" data-name="Rectangle 1033" width="27.708" height="0.302" fill="#aec3ff"/>
        </g>
        <g id="Group_2846" data-name="Group 2846" transform="translate(0.151 28.008)">
          <rect id="Rectangle_1034" data-name="Rectangle 1034" width="27.708" height="0.302" fill="#aec3ff"/>
        </g>
        <path id="Path_2542" data-name="Path 2542" d="M610.6,1383.771h-5.142a.455.455,0,0,1-.454-.454h0a.455.455,0,0,1,.454-.454H610.6a.455.455,0,0,1,.454.454h0A.455.455,0,0,1,610.6,1383.771Z" transform="translate(-593.758 -1381.068)" fill="#aec3ff"/>
        <path id="Path_2543" data-name="Path 2543" d="M610.6,1518.6h-5.142a.455.455,0,0,1-.454-.454h0a.455.455,0,0,1,.454-.454H610.6a.455.455,0,0,1,.454.454h0A.455.455,0,0,1,610.6,1518.6Z" transform="translate(-593.758 -1502.074)" fill="#aec3ff"/>
        <path id="Path_2544" data-name="Path 2544" d="M610.6,1659.159h-5.142a.455.455,0,0,1-.454-.454h0a.455.455,0,0,1,.454-.454H610.6a.455.455,0,0,1,.454.454h0A.455.455,0,0,1,610.6,1659.159Z" transform="translate(-593.758 -1628.215)" fill="#aec3ff"/>
      </g>
    </g>
    <g id="Group_2855" data-name="Group 2855" transform="translate(191.661 266.912)">
      <g id="Group_2850" data-name="Group 2850" transform="translate(22.463 16.777)">
        <path id="Path_2545" data-name="Path 2545" d="M602.8,1084.477s-2.94-3.43-.181-5.608a7.826,7.826,0,0,1,3.658-1.121s-2.328,3.9-1.575,4.292,2.28-4.537,2.28-4.537,4.585-.445,6.06.264c0,0-3.92,3.208-3.094,3.4s5.06-2.958,5.06-2.958,4.268.726,4.04,3.33-1.7,3.407-2.344,3.338-4.427-1.512-4.509-.983,2.193,2.26,3.787,2.341c0,0-3.009,3.318-5.008,2.361s-2.17-2.476-3.417-3.045-2.311-.568-1.8.013,2.771,1.145,3.483,2.406,1.353,2.111-.716,1.8-5.432-1.825-5.58-3.559Z" transform="translate(-597.826 -1077.366)" fill="#aec3ff"/>
        <g id="Group_2849" data-name="Group 2849" transform="translate(0 4.223)">
          <path id="Path_2546" data-name="Path 2546" d="M606.29,1118.568s-11.591-.447-14.151,2.868a8.384,8.384,0,0,1-2.308,3.24l-.271.74s2.008-2.118,2.727-2.246C592.286,1123.17,591.162,1119.063,606.29,1118.568Z" transform="translate(-587.17 -1118.548)" fill="#aec3ff"/>
          <path id="Path_2547" data-name="Path 2547" d="M568.92,1175.752a7.279,7.279,0,0,0-2.661,5.128l.452.04s.795-3.4,2.231-4.729S568.92,1175.752,568.92,1175.752Z" transform="translate(-566.259 -1169.624)" fill="#aec3ff"/>
        </g>
      </g>
      <g id="Group_2852" data-name="Group 2852" transform="translate(0 7.465)">
        <path id="Path_2548" data-name="Path 2548" d="M364.361,998.67s4.677-2.619,2.494-6.173a9.285,9.285,0,0,0-3.616-2.744s1,5.3,0,5.425-.686-5.986-.686-5.986-4.926-2.369-6.859-2.182c0,0,3.055,5.175,2.058,5.051s-4.427-5.362-4.427-5.362-5.051-.935-5.861,2.058.5,4.49,1.247,4.676,5.549.125,5.425.748-3.367,1.621-5.175,1.06c0,0,2,4.926,4.614,4.677s3.429-1.871,5.051-2,2.806.312,2,.748-3.554.143-4.864,1.256-2.369,1.8.062,2.3,6.8.187,7.67-1.684Z" transform="translate(-347.207 -986.56)" fill="#d4e4f8"/>
        <g id="Group_2851" data-name="Group 2851" transform="translate(2.563 3.131)">
          <path id="Path_2549" data-name="Path 2549" d="M372.2,1017.1s13.094,4.24,14.591,8.979a9.947,9.947,0,0,0,1.247,4.552v.935s-1.372-3.18-2.12-3.616C385.917,1027.946,388.847,1023.83,372.2,1017.1Z" transform="translate(-372.199 -1017.096)" fill="#d4e4f8"/>
          <path id="Path_2550" data-name="Path 2550" d="M521.167,1143.947a8.637,8.637,0,0,1,.868,6.8l-.52-.14s.5-4.111-.552-6.179S521.167,1143.947,521.167,1143.947Z" transform="translate(-505.329 -1130.417)" fill="#d4e4f8"/>
        </g>
      </g>
      <g id="Group_2854" data-name="Group 2854" transform="translate(20.541)">
        <path id="Path_2551" data-name="Path 2551" d="M551.566,929.727s-6.165-3.452-3.288-8.137c0,0,2.3-2.877,4.767-3.616,0,0-1.315,6.986,0,7.151s.9-7.891.9-7.891,6.493-3.123,9.041-2.877c0,0-4.028,6.822-2.712,6.658s5.836-7.069,5.836-7.069,6.658-1.233,7.726,2.712-.658,5.918-1.644,6.164-7.315.164-7.151.986,4.439,2.137,6.822,1.4c0,0-2.63,6.493-6.082,6.164s-4.521-2.466-6.658-2.63-3.7.411-2.63.986,4.685.188,6.411,1.656,3.123,2.371-.082,3.029-8.959.247-10.11-2.219Z" transform="translate(-547.513 -913.764)" fill="#d2e0ff"/>
        <g id="Group_2853" data-name="Group 2853" transform="translate(0.797 4.128)">
          <path id="Path_2552" data-name="Path 2552" d="M591.88,954.015s-17.261,5.589-19.233,11.836a13.114,13.114,0,0,1-1.644,6v1.233s1.808-4.192,2.795-4.767C573.8,968.317,569.934,962.892,591.88,954.015Z" transform="translate(-569.391 -954.015)" fill="#d4e4f8"/>
          <path id="Path_2553" data-name="Path 2553" d="M556.9,1121.229a11.384,11.384,0,0,0-1.144,8.963l.685-.184s-.665-5.42.728-8.145S556.9,1121.229,556.9,1121.229Z" transform="translate(-555.283 -1103.393)" fill="#d4e4f8"/>
        </g>
      </g>
      <path id="Path_2554" data-name="Path 2554" d="M479.329,1213.719a12.075,12.075,0,0,0,12.075-12.075H467.254A12.075,12.075,0,0,0,479.329,1213.719Z" transform="translate(-454.943 -1172.123)" fill="#aec3ff"/>
      <path id="Path_2555" data-name="Path 2555" d="M490.112,1312.35H465.628a1.49,1.49,0,0,1,1.49-1.49h21.5a1.49,1.49,0,0,1,1.49,1.49Z" transform="translate(-453.484 -1270.139)" fill="#aec3ff"/>
      <rect id="Rectangle_1035" data-name="Rectangle 1035" width="24.822" height="0.37" transform="translate(11.913 29.521)" fill="#bbd0ff"/>
    </g>
    <g id="Group_2862" data-name="Group 2862" transform="translate(406.24 298.734)">
      <g id="Group_2859" data-name="Group 2859" transform="translate(0 13.82)">
        <rect id="Rectangle_1036" data-name="Rectangle 1036" width="0.701" height="25.734" transform="translate(30.46 43.159) rotate(180)" fill="#aec3ff"/>
        <rect id="Rectangle_1037" data-name="Rectangle 1037" width="0.701" height="25.734" transform="translate(2.041 43.159) rotate(180)" fill="#aec3ff"/>
        <rect id="Rectangle_1038" data-name="Rectangle 1038" width="29.125" height="18.066" transform="translate(30.46 18.066) rotate(180)" fill="#aec3ff"/>
        <rect id="Rectangle_1039" data-name="Rectangle 1039" width="29.125" height="18.066" transform="translate(39.906 18.066) rotate(180)" fill="#aec3ff"/>
        <rect id="Rectangle_1040" data-name="Rectangle 1040" width="28.419" height="8.38" transform="translate(30.109 8.713) rotate(180)" fill="#d2e0ff"/>
        <rect id="Rectangle_1041" data-name="Rectangle 1041" width="28.419" height="8.605" transform="translate(30.109 17.691) rotate(180)" fill="#d2e0ff"/>
        <rect id="Rectangle_1042" data-name="Rectangle 1042" width="28.977" height="0.46" transform="translate(30.46 27.451) rotate(180)" fill="#aec3ff"/>
        <g id="Group_2856" data-name="Group 2856" transform="translate(28.144 41.055)">
          <circle id="Ellipse_220" data-name="Ellipse 220" cx="1.834" cy="1.834" r="1.834" transform="matrix(0.987, -0.16, 0.16, 0.987, 0, 0.587)" fill="#131375"/>
          <circle id="Ellipse_221" data-name="Ellipse 221" cx="1.075" cy="1.075" r="1.075" transform="translate(1.028 1.028)" fill="#cedaef"/>
        </g>
        <rect id="Rectangle_1043" data-name="Rectangle 1043" width="0.701" height="25.734" transform="translate(39.757 43.159) rotate(180)" fill="#aec3ff"/>
        <rect id="Rectangle_1044" data-name="Rectangle 1044" width="28.976" height="0.46" transform="translate(39.757 27.451) rotate(180)" fill="#aec3ff"/>
        <g id="Group_2857" data-name="Group 2857" transform="translate(37.712 41.325)">
          <path id="Path_2556" data-name="Path 2556" d="M2811.107,1763.665a1.834,1.834,0,1,0-1.834,1.834A1.834,1.834,0,0,0,2811.107,1763.665Z" transform="translate(-2807.44 -1761.831)" fill="#131375"/>
          <path id="Path_2557" data-name="Path 2557" d="M2816.984,1770.3a1.075,1.075,0,1,0-1.075,1.075A1.075,1.075,0,0,0,2816.984,1770.3Z" transform="translate(-2814.075 -1768.466)" fill="#cedaef"/>
        </g>
        <g id="Group_2858" data-name="Group 2858" transform="translate(0 41.325)">
          <path id="Path_2558" data-name="Path 2558" d="M2443.354,1763.665a1.833,1.833,0,1,0-1.834,1.834A1.834,1.834,0,0,0,2443.354,1763.665Z" transform="translate(-2439.687 -1761.831)" fill="#131375"/>
          <path id="Path_2559" data-name="Path 2559" d="M2449.231,1770.3a1.075,1.075,0,1,0-1.076,1.075A1.076,1.076,0,0,0,2449.231,1770.3Z" transform="translate(-2446.322 -1768.466)" fill="#cedaef"/>
        </g>
        <path id="Path_2560" data-name="Path 2560" d="M2573.417,1398.788h3.626a.373.373,0,0,0,.373-.373h0a.373.373,0,0,0-.373-.373h-3.626a.373.373,0,0,0-.373.373h0A.373.373,0,0,0,2573.417,1398.788Z" transform="translate(-2559.368 -1394.022)" fill="#91b5f8"/>
        <path id="Path_2561" data-name="Path 2561" d="M2573.417,1487.7h3.626a.373.373,0,0,0,.373-.373h0a.373.373,0,0,0-.373-.373h-3.626a.373.373,0,0,0-.373.373h0A.373.373,0,0,0,2573.417,1487.7Z" transform="translate(-2559.368 -1473.818)" fill="#91b5f8"/>
      </g>
      <g id="Group_2860" data-name="Group 2860" transform="translate(26.388)">
        <path id="Path_2562" data-name="Path 2562" d="M2697.016,1233.1v8.291h8.359v-8.317a2.147,2.147,0,0,0-.012-.239,2.549,2.549,0,0,0-1.543-2.109,1.688,1.688,0,0,1-1.057-1.457l-.061-1.2h-3.069l-.019,1.194a1.631,1.631,0,0,1-1.024,1.462,2.576,2.576,0,0,0-1.559,2.108A2.646,2.646,0,0,0,2697.016,1233.1Z" transform="translate(-2697.016 -1227.658)" fill="#c8dbf4"/>
        <path id="Path_2563" data-name="Path 2563" d="M2720.391,1225.013h3.58l-.095-.935h-3.39Z" transform="translate(-2717.994 -1224.078)" fill="#b7d3f3"/>
        <path id="Path_2564" data-name="Path 2564" d="M2697.016,1274.791v5.346h8.359v-5.373a2.147,2.147,0,0,0-.012-.239h-8.333A2.646,2.646,0,0,0,2697.016,1274.791Z" transform="translate(-2697.016 -1269.353)" fill="#fff"/>
      </g>
      <g id="Group_2861" data-name="Group 2861" transform="translate(19.522 6.049)">
        <path id="Path_2565" data-name="Path 2565" d="M2630.053,1288.113v4.637h4.676V1288.1a1.207,1.207,0,0,0-.007-.133,1.425,1.425,0,0,0-.863-1.18.944.944,0,0,1-.592-.815l-.034-.67h-1.717l-.01.668a.912.912,0,0,1-.573.818,1.44,1.44,0,0,0-.872,1.179C2630.056,1288.014,2630.053,1288.063,2630.053,1288.113Z" transform="translate(-2630.053 -1285.071)" fill="#c8dbf4"/>
        <path id="Path_2566" data-name="Path 2566" d="M2643.127,1283.591h2l-.053-.523h-1.9Z" transform="translate(-2641.786 -1283.068)" fill="#b7d3f3"/>
        <path id="Path_2567" data-name="Path 2567" d="M2630.053,1311.435v2.991h4.676v-3.005a1.2,1.2,0,0,0-.007-.133h-4.661C2630.056,1311.336,2630.053,1311.385,2630.053,1311.435Z" transform="translate(-2630.053 -1308.393)" fill="#fff"/>
      </g>
    </g>
    <g id="Group_2869" data-name="Group 2869" transform="translate(251.151 244.267)">
      <g id="Group_2867" data-name="Group 2867" transform="translate(3.514 71.274)">
        <path id="Rectangle_1045" data-name="Rectangle 1045" d="M3.14,0H86.379a3.14,3.14,0,0,1,3.14,3.14v0a3.14,3.14,0,0,1-3.14,3.14H3.14A3.14,3.14,0,0,1,0,3.14v0A3.14,3.14,0,0,1,3.14,0Z" transform="translate(89.647 6.28) rotate(180)" fill="#aec3ff"/>
        <g id="Group_2864" data-name="Group 2864" transform="translate(0 6.28)">
          <g id="Group_2863" data-name="Group 2863">
            <path id="Path_2568" data-name="Path 2568" d="M961.6,1485h.8l6.2-23.466v0l1.409-5.336,0,0,1.827-6.921-3.65-.062-1.244,6.758-.931,5.062c0,.026-.011.049-.015.073Z" transform="translate(-961.602 -1449.203)" fill="#aec3ff"/>
          </g>
          <path id="Path_2569" data-name="Path 2569" d="M1013.7,1455.961a10.076,10.076,0,0,1,1.656,5.564l1.409-5.336,0,0,1.827-6.921-3.651-.062Z" transform="translate(-1008.359 -1449.203)" fill="#aec3ff"/>
        </g>
        <g id="Group_2866" data-name="Group 2866" transform="translate(79.497 6.28)">
          <g id="Group_2865" data-name="Group 2865">
            <path id="Path_2570" data-name="Path 2570" d="M1747.06,1485h-.8l-6.2-23.466v0l-1.409-5.336,0,0-1.828-6.921,3.651-.062,1.244,6.758.931,5.062c0,.026.011.049.015.073Z" transform="translate(-1736.823 -1449.203)" fill="#aec3ff"/>
          </g>
          <path id="Path_2571" data-name="Path 2571" d="M1741.718,1455.961a10.075,10.075,0,0,0-1.656,5.564l-1.409-5.336,0,0-1.828-6.921,3.651-.062Z" transform="translate(-1736.823 -1449.203)" fill="#aec3ff"/>
        </g>
      </g>
      <g id="Group_2868" data-name="Group 2868" transform="translate(0 0)">
        <path id="Path_2572" data-name="Path 2572" d="M1630.212,1677.287c.086,1.471,2.158,1.518,4.515,1.281s1.722.349,5.015.444,4.445-.976,4.611-1.444c.149-.415-1.432-.791-3.123-1.23-.213-.055-.426-.112-.639-.169-1.906-.515-3.151-1.967-4.77-3.242-1.533-1.208-3.468-5.525-3.468-5.525l-4.5-.271s1.837,3.871,2.523,5.539a5.426,5.426,0,0,1,.011,3.091A5.769,5.769,0,0,0,1630.212,1677.287Z" transform="translate(-1556.019 -1567.229)" fill="#ffb27d"/>
        <path id="Path_2573" data-name="Path 2573" d="M1655.295,1754.1c2.356-.237,1.722.349,5.015.444s4.445-.976,4.611-1.444c.148-.415-1.433-.791-3.123-1.23l-.021.031a9.229,9.229,0,0,1-4.846.792c-2.207-.255-4.449-1.212-5.972-1.4a5.763,5.763,0,0,0-.179,1.526C1650.866,1754.287,1652.938,1754.334,1655.295,1754.1Z" transform="translate(-1576.587 -1642.758)" fill="#233862"/>
        <path id="Path_2574" data-name="Path 2574" d="M1121.792,1245.3a3.591,3.591,0,0,1-1.689.762,14.78,14.78,0,0,1-3.666-.136s-13.943-16.683-15.341-21.121-4.534-11.312-6.571-11.194c-.234.013-1.679.045-3.875.079-2.425.038-5.766.078-9.4.1-10.6.068-23.464-.238-23.636-.974a57.789,57.789,0,0,1-.8-17.54l15.818-1.622,2.84,4.786s24.569,3.485,27.17,4.745C1108.5,1206.029,1121.792,1245.3,1121.792,1245.3Z" transform="translate(-1043.23 -1142.309)" fill="#2b478b"/>
        <path id="Path_2575" data-name="Path 2575" d="M1246.525,1292.881l0,.018c-2.425.038-5.766.078-9.4.1-3.308-3.188-8.487-11.985-6.534-11.01C1233.262,1283.329,1246.282,1292.881,1246.525,1292.881Z" transform="translate(-1199.103 -1221.517)" fill="#233862"/>
        <path id="Path_2576" data-name="Path 2576" d="M1070.739,1219.751s21.171,17.886,23.361,21.171,11.133,25,11.133,25l-4.745,1.46s-16.243-18.8-16.973-20.989-27.736-6.254-27.817-17.368.649-13.222.649-13.222S1071.057,1220,1070.739,1219.751Z" transform="translate(-1042.529 -1162.187)" fill="#2b478b"/>
        <path id="Path_2577" data-name="Path 2577" d="M1362.553,1498.817c-.185.863-2.077,1.3-4.478,1.493-.523.041-1.071.071-1.629.09-.719.024-1.457.032-2.188.027-.447,0-.891-.012-1.325-.024-1.665-.047-3.2-.156-4.282-.275-.511-.057-.919-.117-1.186-.174-.358-.076-1.057-.786-1.983-1.928-.695-.86-1.519-1.964-2.42-3.228l-.224-.315c-.05-.07-.1-.14-.15-.211-.549-.776-1.123-1.606-1.712-2.47-.679-1-1.377-2.037-2.08-3.1-.173-.259-.345-.521-.518-.782-.819-1.239-1.635-2.493-2.427-3.717-.358-.555-.712-1.1-1.056-1.641-.68-1.059-1.329-2.077-1.931-3.027-1.382-2.179-2.514-3.991-3.181-5.062a.954.954,0,0,1,.515-1.409c.875-.291,1.695-.607,2.46-.938a27.744,27.744,0,0,0,7.666-4.9.607.607,0,0,1,.96.207c.31.7.823,1.855,1.46,3.291l1.23,2.769c.666,1.5,1.393,3.13,2.131,4.78.254.571.511,1.144.765,1.713.394.881.786,1.755,1.168,2.6l.018.039c.462,1.034.911,2.032,1.331,2.957.163.36.321.711.475,1.048.217.477.422.928.615,1.348.179.392.347.758.5,1.092v0c.5,1.071.854,1.825,1.012,2.117a3,3,0,0,0,.836.842,23.577,23.577,0,0,0,2.693,1.625c.6.325,1.228.658,1.854,1,.512.274,1.022.551,1.509.828C1361.069,1496.666,1362.761,1497.847,1362.553,1498.817Z" transform="translate(-1288.383 -1387.685)" fill="#ffefe1"/>
        <path id="Path_2578" data-name="Path 2578" d="M970.728,693.2a17.942,17.942,0,0,0-6.19.051c-6.475.638-8.651,7.861-7.671,13.465.9,5.172-1.719,6.6-4.759,10.688-6.1,8.191-2.112,15.1,2.7,16.878,2.886,1.068,6.893-1.627,6.893-1.627.072.029,12.59-8.2,17.722-12.84C987.967,716.473,976.8,694.766,970.728,693.2Z" transform="translate(-946.789 -692.931)" fill="#000f5f"/>
        <path id="Path_2579" data-name="Path 2579" d="M1091.847,857.006c.03.011-2.662,1.7-4.824,1.3-2.034-.379-4.144-3.08-4.117-3.088.829-.236,1.576-1.186,1.15-6.159l.387.044,6.508.743s.02,2.027.171,3.926C1091.247,855.361,1091.468,856.865,1091.847,857.006Z" transform="translate(-1066.951 -833.044)" fill="#ffb27d"/>
        <path id="Path_2580" data-name="Path 2580" d="M1104.4,850.223s.02,2.027.171,3.926c-3.592.193-5.754-2.921-6.679-4.669Z" transform="translate(-1080.404 -833.426)" fill="#ed975d"/>
        <path id="Path_2581" data-name="Path 2581" d="M1092.248,749.894s-8.467.835-8.906-4.446-1.827-8.73,3.56-9.486,6.607,1.171,7.182,2.9S1094.44,749.54,1092.248,749.894Z" transform="translate(-1066.905 -731.397)" fill="#ffb27d"/>
        <path id="Path_2582" data-name="Path 2582" d="M1069.354,721.993s-1.066,6.451-5.889,7.982c-3.518,1.117-5.111.38-5.111.38a14.339,14.339,0,0,0,2.3-5.367,2.582,2.582,0,0,1,1.722-1.97C1064.871,722.2,1067.9,719.947,1069.354,721.993Z" transform="translate(-1044.918 -718.262)" fill="#000f5f"/>
        <path id="Path_2583" data-name="Path 2583" d="M1150.06,729.787a5.6,5.6,0,0,1,3.01,2.414,10.8,10.8,0,0,1,1.515,5.218s1.482-5.971-.679-8.192C1151.615,726.872,1150.06,729.787,1150.06,729.787Z" transform="translate(-1127.22 -724.68)" fill="#000f5f"/>
        <path id="Path_2584" data-name="Path 2584" d="M1036.46,921.988c-.255,17.07-.07,13.5-1.937,15.123a7.173,7.173,0,0,1-3.379.732c-5.234.347-14.435-.515-14.785-1.482-1.207-3.347-.355-4.387-1.362-9.511-.1-.545-.235-1.135-.387-1.777-.84-3.519-1.657-4.717,1.322-10.371,2.7-5.122,5.509-9.278,5.761-9.129,7.129,4.232,7.7.675,7.7.675S1036.586,913.662,1036.46,921.988Z" transform="translate(-1004.961 -883.764)" fill="#f9ddbf"/>
        <path id="Path_2585" data-name="Path 2585" d="M1041.339,1061.867c-5.234.347-14.435-.515-14.785-1.482-1.207-3.347-.355-4.387-1.362-9.511l2.525-7.109s-.417,7.916,1.917,10,9.558,4.019,10.693,5.759A6.369,6.369,0,0,1,1041.339,1061.867Z" transform="translate(-1015.156 -1007.788)" fill="#eac3a0"/>
        <path id="Path_2586" data-name="Path 2586" d="M1165.619,912.179s7.335,1.244,8.2,4.4,3.96,18.744,3.96,18.744-3.368,5.332-5.09,3.61-4.385-17.664-4.385-17.664Z" transform="translate(-1141.183 -889.696)" fill="#f9ddbf"/>
        <path id="Path_2587" data-name="Path 2587" d="M944.058,905.572s-6.934.427-9.334,3.775c-3.379,4.712-10.081,24.8-6.24,27.475,4.326,3.016,6.3-3.957,7.514-6.392.852-1.7,5.839-10.324,5.839-11.925S944.058,905.572,944.058,905.572Z" transform="translate(-927.33 -883.766)" fill="#f9ddbf"/>
        <path id="Path_2588" data-name="Path 2588" d="M1357.452,1236.373c.2,0,3.61.406,4.38,1.42s2.636,2.555,1.906,2.8-2.718-1.136-3.326-1.136-2.068.243-2.718-.527-1.744-1.785-1.744-1.785Z" transform="translate(-1311.997 -1180.644)" fill="#ffb27d"/>
        <path id="Path_2589" data-name="Path 2589" d="M1375.381,1261.934a14.344,14.344,0,0,1,1.917,1.217c.259.3.2-.3-.03-.639s-.5-.776-.5-.776Z" transform="translate(-1329.434 -1203.406)" fill="#ffb27d"/>
        <path id="Path_2590" data-name="Path 2590" d="M1220.307,1128.792c-.008,0,9.876,10.789,9.876,10.789a3.448,3.448,0,0,1-2.312,1.7s-9.126-3.529-12.513-7.625a26.343,26.343,0,0,1-2.19-3.488Z" transform="translate(-1183.857 -1084.096)" fill="#f9ddbf"/>
        <path id="Path_2591" data-name="Path 2591" d="M990.981,1354.395s3.479,1.436,3.7,2.362.255,3.542-.7,3.606-1.947-2.521-2.553-2.521-2.489.255-2.649-.7a9.42,9.42,0,0,0-.83-2.234S991.3,1354.331,990.981,1354.395Z" transform="translate(-981.733 -1286.558)" fill="#ffb27d"/>
        <path id="Path_2592" data-name="Path 2592" d="M1016.426,1354.594a20.189,20.189,0,0,0,2.394.4c.287.016.527.51-.878.431S1016.426,1354.594,1016.426,1354.594Z" transform="translate(-1007.289 -1286.742)" fill="#ffb27d"/>
        <path id="Path_2593" data-name="Path 2593" d="M936.4,1168.344l2.271,18.982a9.458,9.458,0,0,1-3.812.811s-5.76-16.3-5.678-17.2S936.4,1168.344,936.4,1168.344Z" transform="translate(-928.989 -1119.592)" fill="#f9ddbf"/>
        <path id="Path_2594" data-name="Path 2594" d="M1371.942,1502.695c-.736.643-6.027,6.8-9.88,8.813.6.95,1.251,1.969,1.931,3.027.344.538.7,1.087,1.056,1.642.571-.616,1.259-1.375,2-2.219,2.246-2.573,4.943-5.942,6.128-8.493Z" transform="translate(-1317.481 -1419.655)" fill="#f2d9c7" opacity="0.4"/>
        <path id="Path_2595" data-name="Path 2595" d="M1392.942,1578.08c-1.66,3.676-6.095,6.522-8.565,7.88-.819-1.239-1.635-2.493-2.428-3.717-.358-.555-.712-1.1-1.056-1.641a23.314,23.314,0,0,0,3.052-.578,28.51,28.51,0,0,0,8.258-3.714C1392.615,1577.234,1392.742,1577.586,1392.942,1578.08Z" transform="translate(-1334.381 -1485.722)" fill="#f2d9c7"/>
        <path id="Path_2596" data-name="Path 2596" d="M1466.59,1624.891v0c-.638,3.83-1.823,8.677-2.425,11.052-.511-.057-.919-.117-1.186-.174-.65-.139-2.424-2.364-4.628-5.472a32.768,32.768,0,0,0,2.734-5.189c.983-2.252,1.868-4.659,2.566-6.7.47,1.048.925,2.059,1.349,3C1465.608,1622.748,1466.153,1623.943,1466.59,1624.891Z" transform="translate(-1403.896 -1523.503)" fill="#f2d9c7"/>
        <path id="Path_2597" data-name="Path 2597" d="M1574.443,1736.882a31.614,31.614,0,0,1-.905,4.828c-.523.041-1.071.071-1.629.09-.719.024-1.457.032-2.188.027a19.979,19.979,0,0,0,3.214-5.772C1573.447,1736.329,1573.957,1736.606,1574.443,1736.882Z" transform="translate(-1503.845 -1629.085)" fill="#f2d9c7"/>
        <path id="Path_2598" data-name="Path 2598" d="M1430.983,1622.792c-1.078,1.916-3.616,5.965-6.9,8.163l-.224-.315c-.05-.069-.1-.14-.15-.211-.549-.776-1.123-1.606-1.712-2.47-.679-1-1.377-2.037-2.08-3.1,1.974-.959,6.913-3.508,9.26-6.077.462,1.034.911,2.032,1.331,2.957C1430.672,1622.1,1430.83,1622.455,1430.983,1622.792Z" transform="translate(-1369.404 -1523.844)" fill="#f2d9c7" opacity="0.4"/>
        <path id="Path_2599" data-name="Path 2599" d="M1494.271,1712.133a40.454,40.454,0,0,1-2.684,6.743c-1.665-.047-3.2-.156-4.282-.275-.511-.057-.919-.117-1.186-.174-.358-.077-1.057-.786-1.983-1.928a31.547,31.547,0,0,0,7.443-5.99A23.571,23.571,0,0,0,1494.271,1712.133Z" transform="translate(-1427.036 -1606.159)" fill="#f2d9c7" opacity="0.4"/>
      </g>
    </g>
    <g id="Group_2870" data-name="Group 2870" transform="translate(296.905 227.984)">
      <rect id="Rectangle_1046" data-name="Rectangle 1046" width="63.642" height="51.697" fill="#fff"/>
      <rect id="Rectangle_1047" data-name="Rectangle 1047" width="60.24" height="47.977" transform="translate(1.746 1.881)" fill="#d2e3fc"/>
    </g>
    <path id="Path_2600" data-name="Path 2600" d="M1768.392,900.974c0,.02.009.031.021.032,0-.015-.008-.027-.01-.036C1768.391,900.94,1768.388,900.939,1768.392,900.974Z" transform="translate(-1430.99 -635.349)" fill="#abddda"/>
    <g id="Group_2877" data-name="Group 2877" transform="translate(270.797 211.176)">
      <path id="Rectangle_1048" data-name="Rectangle 1048" d="M7.335,0h.452a7.335,7.335,0,0,1,7.335,7.335v0a7.335,7.335,0,0,1-7.335,7.335H7.335A7.335,7.335,0,0,1,0,7.335v0A7.335,7.335,0,0,1,7.335,0Z" transform="translate(0 0)" fill="#c0d8fb"/>
      <rect id="Rectangle_1049" data-name="Rectangle 1049" width="13.811" height="13.398" rx="6.699" transform="translate(0.655 0.636)" fill="#dfebfd"/>
      <g id="Group_2873" data-name="Group 2873" transform="translate(1.785 1.661)">
        <g id="Group_2871" data-name="Group 2871" transform="translate(5.462)">
          <path id="Path_2601" data-name="Path 2601" d="M1189.578,386.76a.313.313,0,1,1,.313.313A.313.313,0,0,1,1189.578,386.76Z" transform="translate(-1189.578 -386.447)" fill="#b7d3f3"/>
          <path id="Path_2602" data-name="Path 2602" d="M1213.879,392.409a.313.313,0,1,1,.122.426A.313.313,0,0,1,1213.879,392.409Z" transform="translate(-1211.351 -391.653)" fill="#b7d3f3"/>
          <path id="Path_2603" data-name="Path 2603" d="M1234.084,410.156a.313.313,0,1,1-.093.433A.313.313,0,0,1,1234.084,410.156Z" transform="translate(-1229.391 -407.68)" fill="#b7d3f3"/>
          <path id="Path_2604" data-name="Path 2604" d="M1243.057,436.559a.313.313,0,1,1-.313.313A.313.313,0,0,1,1243.057,436.559Z" transform="translate(-1237.292 -431.42)" fill="#b7d3f3"/>
          <path id="Path_2605" data-name="Path 2605" d="M1235.779,465.888a.313.313,0,1,1-.443,0A.313.313,0,0,1,1235.779,465.888Z" transform="translate(-1230.561 -457.659)" fill="#b7d3f3"/>
          <path id="Path_2606" data-name="Path 2606" d="M1216.6,485.118a.313.313,0,1,1-.443,0A.313.313,0,0,1,1216.6,485.118Z" transform="translate(-1213.348 -474.917)" fill="#b7d3f3"/>
          <path id="Path_2607" data-name="Path 2607" d="M1189.578,493.091a.313.313,0,1,1,.313.313A.313.313,0,0,1,1189.578,493.091Z" transform="translate(-1189.578 -481.874)" fill="#b7d3f3"/>
        </g>
        <g id="Group_2872" data-name="Group 2872" transform="translate(0 0.595)">
          <path id="Path_2608" data-name="Path 2608" d="M1165.806,392.409a.313.313,0,1,0-.122.426A.313.313,0,0,0,1165.806,392.409Z" transform="translate(-1162.255 -392.248)" fill="#b7d3f3"/>
          <path id="Path_2609" data-name="Path 2609" d="M1145.6,410.156a.313.313,0,1,0,.093.433A.313.313,0,0,0,1145.6,410.156Z" transform="translate(-1144.215 -408.275)" fill="#b7d3f3"/>
          <path id="Path_2610" data-name="Path 2610" d="M1136.628,436.559a.313.313,0,1,0,.313.313A.313.313,0,0,0,1136.628,436.559Z" transform="translate(-1136.315 -432.015)" fill="#b7d3f3"/>
          <path id="Path_2611" data-name="Path 2611" d="M1143.908,465.888a.313.313,0,1,0,.443,0A.313.313,0,0,0,1143.908,465.888Z" transform="translate(-1143.047 -458.254)" fill="#b7d3f3"/>
          <path id="Path_2612" data-name="Path 2612" d="M1163.087,485.118a.313.313,0,1,0,.443,0A.313.313,0,0,0,1163.087,485.118Z" transform="translate(-1160.259 -475.512)" fill="#b7d3f3"/>
        </g>
      </g>
      <g id="Group_2876" data-name="Group 2876" transform="translate(7.476 3.2)">
        <path id="Path_2613" data-name="Path 2613" d="M1191.809,436.872a.313.313,0,1,1,.313.313A.313.313,0,0,1,1191.809,436.872Z" transform="translate(-1191.809 -432.959)" fill="#b7d3f3"/>
        <g id="Group_2874" data-name="Group 2874" transform="translate(0.27)">
          <rect id="Rectangle_1050" data-name="Rectangle 1050" width="0.086" height="3.913" fill="#b7d3f3"/>
        </g>
        <g id="Group_2875" data-name="Group 2875" transform="translate(0.195 2.178)">
          <rect id="Rectangle_1051" data-name="Rectangle 1051" width="2.637" height="0.257" transform="matrix(0.787, -0.617, 0.617, 0.787, 0, 1.628)" fill="#b7d3f3"/>
        </g>
      </g>
    </g>
    <g id="Group_2886" data-name="Group 2886" transform="translate(327.144 204.457)">
      <path id="Path_2614" data-name="Path 2614" d="M1820.058,614.038s-13.009,16.743-15.541,16.617-12.709-10.134-12.709-10.134l-2.231,2.665s12.281,16.079,16.205,15.066,17.092-11.521,17.092-11.521Z" transform="translate(-1777.149 -582.319)" fill="#ffb27d"/>
      <g id="Group_2878" data-name="Group 2878" transform="translate(30.223 62.582)">
        <path id="Path_2615" data-name="Path 2615" d="M2045.424,1027.491l2.7,1s11.716-16.25,13.159-30.547a21.714,21.714,0,0,0-.385-7.309s.115-.654.315-1.81c.092-.539.207-1.189.337-1.934.381-2.182.905-5.169,1.5-8.569,1.379-7.825,3.165-17.827,4.552-25.181l-.727-.233-7.864-2.537-1.625-5.162-5.856-1.542s-1.308,2.559-2.478,14.647c-.216,1.586-.412,3.334-.559,5.23a103.494,103.494,0,0,0,.557,21.175q.4,3.152,1.028,6.5a28.99,28.99,0,0,1,.225,6.417C2049.714,1009.328,2045.424,1027.491,2045.424,1027.491Z" transform="translate(-2036.982 -940.731)" fill="#5fa0bb"/>
        <path id="Path_2616" data-name="Path 2616" d="M2075.361,963.549l12.716,25.28c.093-.539.207-1.189.337-1.934.381-2.182.905-5.169,1.5-8.569,1.379-7.825,3.165-17.827,4.552-25.181l-.727-.233-7.865-2.537-1.625-5.162-5.856-1.542s-1.308,2.559-2.478,14.647C2075.7,959.9,2075.509,961.653,2075.361,963.549Z" transform="translate(-2063.849 -940.731)" fill="#5d99b2"/>
        <path id="Path_2617" data-name="Path 2617" d="M2129.912,921.182l.294-2.524c4.932,1.31,18.109-3.66,18.109-3.66s4.778,4.2,4.15,14.266c-.306,4.914-.865,25.793-1.449,31.971-.211,2.239-.4,3.833-.472,4.469a.012.012,0,0,0,0,.006.881.881,0,0,0,.143.547,29.034,29.034,0,0,1,2.156,4.534c5.733,15.278-.883,34.092-.883,34.092l-1.717-.692s-3.765-20.938-6.824-30.188a18.306,18.306,0,0,0-1.473-3.538,39.967,39.967,0,0,1-3.685-9.827,241.728,241.728,0,0,1-4.956-26.068C2133.147,934.577,2129.912,921.182,2129.912,921.182Z" transform="translate(-2112.806 -914.997)" fill="#5fa0bb"/>
        <path id="Path_2618" data-name="Path 2618" d="M2247.568,1738.193h13.586a7.459,7.459,0,0,0-.384-3.642c-.68-1.507-1.745-2.192-1.49-4.016a4.893,4.893,0,0,1-4.234,1.62,14.9,14.9,0,0,1-2.357,3.056C2251.8,1735.849,2247.842,1735.621,2247.568,1738.193Z" transform="translate(-2218.397 -1646.904)" fill="#233862"/>
        <path id="Path_2619" data-name="Path 2619" d="M1963.1,1743.526h13.586a5.647,5.647,0,0,0-.384-3.642,2.619,2.619,0,0,1,.1-3.127,5.278,5.278,0,0,1-2.288.431,4.79,4.79,0,0,1-2.021-.711,48.841,48.841,0,0,1-3.871,4.066C1967.336,1741.181,1963.377,1740.954,1963.1,1743.526Z" transform="translate(-1963.104 -1652.236)" fill="#233862"/>
      </g>
      <path id="Path_2620" data-name="Path 2620" d="M2200.967,307.3c.145-.341,1.838-3.962,7.584-1.986,0,0-2.917-.735-3.868.307,0,0,2.479-.788,3.839.291s1.231,4.137.9,5.032-2.291,3.439-3.366,3.307a3.206,3.206,0,0,1-1.19-.454,14.294,14.294,0,0,1,.241,1.652c.485,5.512-3.587,9.16-5.311,7.925-1.106-.792-2.256,1.172-2.256,1.172l-8.24-14.235S2197.159,302.91,2200.967,307.3Z" transform="translate(-2135.882 -304.723)" fill="#000f5f"/>
      <path id="Path_2621" data-name="Path 2621" d="M2147.437,503.586c7.8,3.488,13.671-8.823,13.161-8.949-.78-.883-1.585-4.027-1.013-8.553l-.4.028-6.787.5s-.106,2.105-.34,4.069a11.65,11.65,0,0,1-.642,3.059,6.437,6.437,0,0,1-1.555.375C2149.741,494.241,2145.354,502.656,2147.437,503.586Z" transform="translate(-2097.808 -467.485)" fill="#ffb27d"/>
      <path id="Path_2622" data-name="Path 2622" d="M2040.234,580.136c-.562,2.059-1.024,3.9-1.251,5.145-1.045,5.727-.682,32.555-.682,32.555,8.356,7.533,30.891,6.52,30.891,6.52.569-5.429-.6-39.289-.771-41.644a47.467,47.467,0,0,0-.7-5.5c-2.2-11.482-7.864-12.744-7.864-12.744-2.648,5.142-11,6.526-11,6.526a28.275,28.275,0,0,1,.833-6.58c-1.058.127-4.044.056-5.59,1.029-2.459,1.549-8.836,9.155-8.836,9.155S2036.4,578.9,2040.234,580.136Z" transform="translate(-1997.639 -537.785)" fill="#abddda"/>
      <path id="Path_2623" data-name="Path 2623" d="M2197.694,486.871s-.1,2.1-.34,4.069c3.721.349,6.094-2.794,7.127-4.571Z" transform="translate(-2143.109 -467.742)" fill="#ed985f"/>
      <path id="Path_2624" data-name="Path 2624" d="M2169.913,380.872s8.756,1.217,9.43-4.247,2.258-8.987-3.3-10-6.907.943-7.576,2.712S2167.652,380.414,2169.913,380.872Z" transform="translate(-2116.793 -360.033)" fill="#ffb27d"/>
      <path id="Path_2625" data-name="Path 2625" d="M2166.091,357.554c1.557-1.478,2.538-.992,3.052-.428a6.178,6.178,0,0,1,7.731,2.225,10.518,10.518,0,0,0,2.661,6.585s-1.72.792-5.291-.606a6.31,6.31,0,0,1-2.734-2.426,20.616,20.616,0,0,0,3,4.733c-4.155-2.574-5.175-8.915-5.271-9.584a6.924,6.924,0,0,0-2.225,2.316c-.607,1.338-1.154,4.179-1.977,3.98C2165.033,364.35,2163.756,359.771,2166.091,357.554Z" transform="translate(-2113.79 -351.253)" fill="#000f5f"/>
      <path id="Path_2626" data-name="Path 2626" d="M2134.729,752.97c.15-.084,23.234,1.208,21.8-19.324-.325-2.633-3.061-11.625-3.923-9.066C2150.829,729.847,2134.775,752.75,2134.729,752.97Z" transform="translate(-2086.906 -681.118)" fill="#91cecf"/>
      <g id="Group_2879" data-name="Group 2879" transform="translate(40.298 32.608)">
        <path id="Path_2627" data-name="Path 2627" d="M2061.346,661.731l.986,2.542s.882-.257,2.287-.669c.42-.127.659-.214.659-.214,1.122-.342,2.458-.789,3.918-1.271l.021,0c2.491-.876,5.276-1.907,7.6-2.974.208-.1.413-.2.613-.293a19.716,19.716,0,0,0,3.365-2,2.594,2.594,0,0,0,.266-.233c2.211-1.984,4.526-7.387,6.169-13.093.229-.787.438-1.574.646-2.339a56.133,56.133,0,0,0,1.53-8.009,22.112,22.112,0,0,0,.17-3.756,8.966,8.966,0,0,0-.087-1.044c-.651-5.924-4.906-6.1-5.388-5.373a18.723,18.723,0,0,0-1.789,4.089c-.893,2.756-1.767,6.3-2.562,9.808-.443,1.926-.864,3.85-1.3,5.629-.24,1.078-.487,2.095-.721,3.028a28.39,28.39,0,0,1-1.306,4.163,9.955,9.955,0,0,1-2.281,2.529c-.305.274-.635.557-.98.85-1.923,1.618-4.394,3.454-6.6,5.013-1.077.772-2.1,1.477-2.949,2.06C2062.254,661.12,2061.346,661.731,2061.346,661.731Z" transform="translate(-2061.346 -622.703)" fill="#ffb27d"/>
      </g>
      <path id="Path_2628" data-name="Path 2628" d="M2234.373,606.387s4.137,2.01,5.582,4.761,1.621,11.534-.615,22.952a16.526,16.526,0,0,1-11.15-6.288S2229.828,604.736,2234.373,606.387Z" transform="translate(-2170.784 -575.376)" fill="#abddda"/>
      <path id="Path_2629" data-name="Path 2629" d="M2178.486,547.332a3.238,3.238,0,0,1,1.512,2.331s-1.782,4.87-12.189,6C2167.809,555.664,2177.387,550.953,2178.486,547.332Z" transform="translate(-2116.594 -522.453)" fill="#91cecf"/>
      <path id="Path_2630" data-name="Path 2630" d="M2169.985,548.491s-2.625,4.823-2.55,7.173c0,0-.178-5.34.194-6.58s2.586-1.752,2.586-1.752Z" transform="translate(-2116.22 -522.453)" fill="#91cecf"/>
      <g id="Group_2882" data-name="Group 2882" transform="translate(25.65 45.894)">
        <g id="Group_2880" data-name="Group 2880" transform="translate(4.329 0.782)">
          <path id="Path_2631" data-name="Path 2631" d="M1979.421,761.818l-.353,2.521-4.595,32.759a6.31,6.31,0,1,1-12.5-1.752l4.574-32.62.354-2.525c-.425-.108-.814-.211-1.163-.309l-.356,2.53-4.593,32.758a7.505,7.505,0,0,0,14.865,2.085l4.616-32.916.354-2.527Z" transform="translate(-1960.719 -759.892)" fill="#000f5f"/>
        </g>
        <g id="Group_2881" data-name="Group 2881" transform="translate(5.44)">
          <path id="Path_2632" data-name="Path 2632" d="M1993.194,756.161a1.261,1.261,0,0,1-1.217,1.305q-1.01.034-1.981.036-.611,0-1.205-.01a58.806,58.806,0,0,1-7.013-.556,54.792,54.792,0,0,1-5.5-1.057c-.419-.1-.808-.205-1.165-.3-1.67-.46-2.64-.831-2.751-.873a1.262,1.262,0,0,1,.915-2.352c.024.009.8.305,2.192.7.349.1.738.2,1.163.309a55.245,55.245,0,0,0,12.516,1.617c.273,0,.548.006.827.006.127,0,.253,0,.38,0q.758,0,1.538-.03A1.262,1.262,0,0,1,1993.194,756.161Z" transform="translate(-1971.553 -752.263)" fill="#b97227"/>
        </g>
        <rect id="Rectangle_1052" data-name="Rectangle 1052" width="1.594" height="60.57" transform="translate(10.104 43.71) rotate(7.981)" fill="#000f5f"/>
        <path id="Path_2633" data-name="Path 2633" d="M1922.651,1747.945l-4.144-.581,1.029-5.109,3.42.48Z" transform="translate(-1918.508 -1640.734)" fill="#b97227"/>
        <rect id="Rectangle_1053" data-name="Rectangle 1053" width="13.814" height="1.063" transform="translate(6.425 26.696) rotate(7.982)" fill="#2b478b"/>
      </g>
      <g id="Group_2883" data-name="Group 2883" transform="translate(32.383 69.919)">
        <path id="Path_2634" data-name="Path 2634" d="M1992.311,995.3s-4.437-1.256-5.494-.962-3.081,2.881-2.572,3.532,2.52-.545,3.988-.348,2.185.887,3.242.731a19.684,19.684,0,0,0,3.035-.931Z" transform="translate(-1984.164 -993.496)" fill="#ffb27d"/>
        <path id="Path_2635" data-name="Path 2635" d="M2035.656,988.342a16.634,16.634,0,0,1-2.789-1.75.173.173,0,0,0-.27.031c-.166.261-.321.765.441,1.266A4.1,4.1,0,0,0,2035.656,988.342Z" transform="translate(-2027.509 -986.541)" fill="#ffb27d"/>
      </g>
      <g id="Group_2885" data-name="Group 2885" transform="translate(0 34.22)">
        <rect id="Rectangle_1054" data-name="Rectangle 1054" width="24.815" height="32.031" fill="#233862"/>
        <path id="Path_2636" data-name="Path 2636" d="M1724.8,660.912a25.523,25.523,0,0,0-6.077.169c-2.87.506-3.039,5.993-3.545,10.8s-.76,14.939,1.519,15.952,7.259.928,9.284.76,3.8-1.941,2.954-7.512S1729.439,660.912,1724.8,660.912Z" transform="translate(-1710.068 -658.507)" fill="#2b478b"/>
        <g id="Group_2884" data-name="Group 2884" transform="translate(9.649 3.605)">
          <path id="Path_2637" data-name="Path 2637" d="M1776.8,674.15a10.058,10.058,0,0,1,1.035,4.294c.038,2.482.03,14.84-.387,15.624s-.7,1.906-.193,2.291,1.264.068,2.263.317,1-1.5.617-2.367-.729-14.162-.523-16.465,1.348-3.317.729-3.89-.822.128-1.748-.043S1776.937,673.136,1776.8,674.15Z" transform="translate(-1775.331 -673.575)" fill="#4568af"/>
          <path id="Path_2638" data-name="Path 2638" d="M1764.241,682.165s-.053-.882-.522-.968-.868-.009-.88.456S1764.057,682.57,1764.241,682.165Z" transform="translate(-1762.802 -680.388)" fill="#4568af"/>
          <path id="Path_2639" data-name="Path 2639" d="M1762.475,697.905a24.24,24.24,0,0,1,.545,6.565c-.18,3.767.139,10.922.014,11.477s.132.692.507.552.1-.463.019-.763-.156-16.27-.041-16.888.207-1.031-.184-1.041S1762.419,697.665,1762.475,697.905Z" transform="translate(-1762.471 -695.282)" fill="#4568af"/>
          <path id="Path_2640" data-name="Path 2640" d="M1780.385,903.048s-.114-.4-.807-.467-1.385-.183-1.772.4-.721,1.049-.028,1.141S1780.376,903.371,1780.385,903.048Z" transform="translate(-1775.847 -879.047)" fill="#4568af"/>
          <path id="Path_2641" data-name="Path 2641" d="M1769.519,897.3c.078.008,1.04.075,1.034.323s0,.844-.539.731S1769.022,897.248,1769.519,897.3Z" transform="translate(-1768.604 -874.354)" fill="#4568af"/>
        </g>
      </g>
      <path id="Path_2642" data-name="Path 2642" d="M1760.951,628.142a3.439,3.439,0,0,0-2.553-.7c-1.308.3-1.182,2.616.042,2.49S1761.057,628.712,1760.951,628.142Z" transform="translate(-1748.333 -594.302)" fill="#ffb27d"/>
    </g>
    <g id="Group_2887" data-name="Group 2887" transform="translate(303.475 232.835)">
      <rect id="Rectangle_1055" data-name="Rectangle 1055" width="7.438" height="6.978" transform="translate(0 1.376) rotate(-10.66)" fill="#abddda"/>
      <rect id="Rectangle_1056" data-name="Rectangle 1056" width="7.438" height="1.281" transform="translate(0.007 1.414) rotate(-10.66)" fill="#91cecf"/>
    </g>
    <g id="Group_2888" data-name="Group 2888" transform="translate(303.475 261.016)">
      <rect id="Rectangle_1057" data-name="Rectangle 1057" width="7.438" height="6.978" transform="translate(0 1.376) rotate(-10.66)" fill="#abddda"/>
      <rect id="Rectangle_1058" data-name="Rectangle 1058" width="7.438" height="1.281" transform="matrix(0.983, -0.185, 0.185, 0.983, 0.007, 1.414)" fill="#91cecf"/>
    </g>
    <g id="Group_2889" data-name="Group 2889" transform="translate(310.89 242.072)">
      <rect id="Rectangle_1059" data-name="Rectangle 1059" width="7.438" height="6.978" transform="matrix(0.968, 0.252, -0.252, 0.968, 1.756, 0)" fill="#b97227"/>
      <rect id="Rectangle_1060" data-name="Rectangle 1060" width="7.438" height="1.281" transform="translate(1.746 0.037) rotate(14.571)" fill="#e89c4b"/>
    </g>
    <path id="Rectangle_1061" data-name="Rectangle 1061" d="M.538,0H307.122a.538.538,0,0,1,.538.538v0a.538.538,0,0,1-.538.538H.538A.538.538,0,0,1,0,.538v0A.538.538,0,0,1,.538,0Z" transform="translate(167.113 357.521)" fill="#2e3552"/>
  </g>
</svg>
