<svg xmlns="http://www.w3.org/2000/svg" width="16.36" height="16.204" viewBox="0 0 16.36 16.204">
  <path id="Icon_metro-heartbeat" data-name="Icon metro-heartbeat" d="M14.256,13.859h2.784a1.023,1.023,0,0,1-.091.111q-.046.047-.082.079l-.027.042-5.688,6.329a.52.52,0,0,1-.8,0l-5.7-6.351a.925.925,0,0,1-.192-.211H7.829a.528.528,0,0,0,.361-.142.649.649,0,0,0,.205-.364l.639-2.964,1.735,7.036a.681.681,0,0,0,.21.348.522.522,0,0,0,.356.137.511.511,0,0,0,.347-.137.681.681,0,0,0,.21-.348l1.333-5.116.511,1.182a.545.545,0,0,0,.52.369Zm4.674-4.515a6.345,6.345,0,0,1-.94,3.165H14.621l-1.013-2.331a.608.608,0,0,0-.233-.285.484.484,0,0,0-.333-.084.569.569,0,0,0-.511.485l-1.178,4.536L9.564,7.593a.668.668,0,0,0-.215-.348.539.539,0,0,0-.361-.137.511.511,0,0,0-.356.142.66.66,0,0,0-.2.364L7.373,12.509H3.511a6.345,6.345,0,0,1-.94-3.165A5.283,5.283,0,0,1,3.73,5.715a4.06,4.06,0,0,1,3.2-1.308,3.2,3.2,0,0,1,1.155.227,4.44,4.44,0,0,1,1.1.612q.507.385.872.723a8.975,8.975,0,0,1,.694.717,8.963,8.963,0,0,1,.694-.717q.365-.338.872-.723a4.439,4.439,0,0,1,1.1-.612,3.2,3.2,0,0,1,1.155-.227,4.06,4.06,0,0,1,3.2,1.308A5.283,5.283,0,0,1,18.93,9.344Z" transform="translate(-2.571 -4.407)" fill="#5fa0bb"/>
</svg>
