<svg xmlns="http://www.w3.org/2000/svg" xmlns:xlink="http://www.w3.org/1999/xlink" width="308.802" height="165.52" viewBox="0 0 308.802 165.52">
  <defs>
    <clipPath id="clip-path">
      <path id="Path_2065" data-name="Path 2065" d="M1916.377,595.98c0,1.34-.023,2.753-.072,4.231-.01.276-.019.557-.031.838q-.067,1.668-.176,3.427c-.018.266-.034.533-.052.8-.021.324-.045.651-.069.977-.1,1.381-.22,2.795-.357,4.231-.029.291-.058.579-.087.87-.141,1.391-.3,2.806-.477,4.231-.037.292-.076.589-.112.881q-.272,2.1-.594,4.229c-.045.3-.093.6-.14.89q-.262,1.678-.558,3.352-.159.881-.321,1.759-.4,2.13-.854,4.231c-.062.292-.128.581-.192.873-.318,1.426-.653,2.838-1.009,4.226q-.113.443-.229.882c-.313,1.186-.642,2.354-.982,3.5-.187.628-.38,1.247-.575,1.86-.464,1.454-.956,2.867-1.471,4.226-.112.3-.224.59-.339.881-.586,1.482-1.2,2.894-1.845,4.223-.136.282-.274.56-.417.834a36.132,36.132,0,0,1-2.489,4.218q-.421.614-.857,1.178a16.562,16.562,0,0,1-4.544,4.209c-.119.069-.239.138-.36.2l-.09.048c-.236.127-.473.241-.712.347l-12.629.026-35.7.069-44.311-.356-2.975-.024-14.346-.116-34.273-.274-103.522-.833s-19.2-15.217-19.2-41.633c0-.364,0-.727.009-1.094.209-10.349,1.781-27.57,12.172-41.53a49.563,49.563,0,0,1,15.224-13.467q1.042-.6,2.137-1.163c.149-.079.3-.156.451-.231q1.447-.732,2.988-1.406,2-.869,4.152-1.63c.231-.083.466-.164.7-.244s.486-.164.731-.244q1.89-.618,3.9-1.149l.08-.021q1.928-.505,3.974-.927c.277-.059.555-.114.836-.168q2.023-.395,3.877-.931c.188-.055.374-.109.56-.167a39.894,39.894,0,0,0,4.945-1.848q.677-.3,1.329-.629l.192-.1.127-.066q1.4-.712,2.7-1.515a40.068,40.068,0,0,0,4-2.806c.023-.016.043-.034.064-.049,18.781-14.964,22.167-43.335,57.927-45.684a84.712,84.712,0,0,1,13.088.225,49.552,49.552,0,0,1,18.868,5.89c5.739,2.988,10.758,6.445,15.829,8.793l.347.16c4.974,2.254,10.012,3.41,15.846,1.98.283-.066.568-.143.857-.224a159.652,159.652,0,0,1,18.124-4.1c.117-.018.233-.037.35-.056,13.54-2.153,24.773-1.738,34.109.661.115.029.232.058.348.092a52.556,52.556,0,0,1,11.063,4.25q1.406.736,2.733,1.545c.028.018.055.032.082.05l.441.274.424.266.039.026q1.636,1.052,3.164,2.216,1.81,1.379,3.469,2.9c.315.29.627.583.934.879a52.158,52.158,0,0,1,3.934,4.25c.246.292.485.587.72.886q1.629,2.043,3.081,4.246c.248.376.491.753.731,1.134q1.3,2.063,2.463,4.242c.157.294.311.589.465.886.716,1.381,1.393,2.8,2.033,4.241.14.313.278.629.412.945q.874,2.034,1.656,4.133c.194.523.385,1.044.573,1.572.324.913.635,1.837.935,2.766.252.778.494,1.558.732,2.344q.628,2.1,1.188,4.239c.079.294.154.589.228.883q.38,1.48.725,2.978c.1.417.194.839.287,1.261.066.294.131.594.2.892q.082.388.165.772.327,1.555.629,3.121l.067.343c.054.294.111.587.166.883q.391,2.109.738,4.234c.047.29.093.583.141.874q.334,2.114.629,4.236c.042.294.083.587.124.883q.177,1.3.342,2.6c.045.359.086.736.125,1.128.014.164.03.332.045.5.032.364.061.743.085,1.133.084,1.287.131,2.705.146,4.231C1916.377,595.387,1916.377,595.683,1916.377,595.98Z" transform="translate(-1629.413 -502.271)" fill="none"/>
    </clipPath>
  </defs>
  <g id="Group_2551" data-name="Group 2551" transform="translate(-1612.215 -502.271)">
    <path id="Path_1955" data-name="Path 1955" d="M1916.377,595.98c0,1.34-.023,2.753-.072,4.231-.01.276-.019.557-.031.838q-.067,1.668-.176,3.427c-.018.266-.034.533-.052.8-.021.324-.045.651-.069.977-.1,1.381-.22,2.795-.357,4.231-.029.291-.058.579-.087.87-.141,1.391-.3,2.806-.477,4.231-.037.292-.076.589-.112.881q-.272,2.1-.594,4.229c-.045.3-.093.6-.14.89q-.262,1.678-.558,3.352-.159.881-.321,1.759-.4,2.13-.854,4.231c-.062.292-.128.581-.192.873-.318,1.426-.653,2.838-1.009,4.226q-.113.443-.229.882c-.313,1.186-.642,2.354-.982,3.5-.187.628-.38,1.247-.575,1.86-.464,1.454-.956,2.867-1.471,4.226-.112.3-.224.59-.339.881-.586,1.482-1.2,2.894-1.845,4.223-.136.282-.274.56-.417.834a36.132,36.132,0,0,1-2.489,4.218q-.421.614-.857,1.178a16.562,16.562,0,0,1-4.544,4.209c-.119.069-.239.138-.36.2l-.09.048c-.236.127-.473.241-.712.347l-12.629.026-35.7.069-44.311-.356-2.975-.024-14.346-.116-34.273-.274-103.522-.833s-19.2-15.217-19.2-41.633c0-.364,0-.727.009-1.094.209-10.349,1.781-27.57,12.172-41.53a49.563,49.563,0,0,1,15.224-13.467q1.042-.6,2.137-1.163c.149-.079.3-.156.451-.231q1.447-.732,2.988-1.406,2-.869,4.152-1.63c.231-.083.466-.164.7-.244s.486-.164.731-.244q1.89-.618,3.9-1.149l.08-.021q1.928-.505,3.974-.927c.277-.059.555-.114.836-.168q2.023-.395,3.877-.931c.188-.055.374-.109.56-.167a39.894,39.894,0,0,0,4.945-1.848q.677-.3,1.329-.629l.192-.1.127-.066q1.4-.712,2.7-1.515a40.068,40.068,0,0,0,4-2.806c.023-.016.043-.034.064-.049,18.781-14.964,22.167-43.335,57.927-45.684a84.712,84.712,0,0,1,13.088.225,49.552,49.552,0,0,1,18.868,5.89c5.739,2.988,10.758,6.445,15.829,8.793l.347.16c4.974,2.254,10.012,3.41,15.846,1.98.283-.066.568-.143.857-.224a159.652,159.652,0,0,1,18.124-4.1c.117-.018.233-.037.35-.056,13.54-2.153,24.773-1.738,34.109.661.115.029.232.058.348.092a52.556,52.556,0,0,1,11.063,4.25q1.406.736,2.733,1.545c.028.018.055.032.082.05l.441.274.424.266.039.026q1.636,1.052,3.164,2.216,1.81,1.379,3.469,2.9c.315.29.627.583.934.879a52.158,52.158,0,0,1,3.934,4.25c.246.292.485.587.72.886q1.629,2.043,3.081,4.246c.248.376.491.753.731,1.134q1.3,2.063,2.463,4.242c.157.294.311.589.465.886.716,1.381,1.393,2.8,2.033,4.241.14.313.278.629.412.945q.874,2.034,1.656,4.133c.194.523.385,1.044.573,1.572.324.913.635,1.837.935,2.766.252.778.494,1.558.732,2.344q.628,2.1,1.188,4.239c.079.294.154.589.228.883q.38,1.48.725,2.978c.1.417.194.839.287,1.261.066.294.131.594.2.892q.082.388.165.772.327,1.555.629,3.121l.067.343c.054.294.111.587.166.883q.391,2.109.738,4.234c.047.29.093.583.141.874q.334,2.114.629,4.236c.042.294.083.587.124.883q.177,1.3.342,2.6c.045.359.086.736.125,1.128.014.164.03.332.045.5.032.364.061.743.085,1.133.084,1.287.131,2.705.146,4.231C1916.377,595.387,1916.377,595.683,1916.377,595.98Z" transform="translate(-10.566 0)" fill="#ebf3fa"/>
    <g id="Group_2500" data-name="Group 2500" transform="translate(1618.847 544.742)">
      <path id="Path_1956" data-name="Path 1956" d="M1916,769.346v15.246c-.024.266-.045.533-.071.8-.027.324-.058.651-.092.977-.135,1.381-.294,2.795-.479,4.231-.037.291-.076.579-.116.87-.187,1.391-.4,2.807-.638,4.231-.048.292-.1.589-.151.881q-.361,2.1-.794,4.229c-.06.3-.124.6-.187.891-.234,1.119-.486,2.235-.747,3.352q-.212.881-.43,1.759-.534,2.13-1.144,4.231c-.083.292-.17.581-.257.873q-.641,2.14-1.353,4.226-.151.443-.306.882c-.421,1.186-.86,2.354-1.316,3.5q-.375.942-.769,1.86c-.623,1.454-1.281,2.867-1.97,4.227-.149.3-.3.59-.454.881-.783,1.483-1.606,2.894-2.471,4.223-.183.282-.367.56-.559.834a35.811,35.811,0,0,1-3.331,4.218q-.566.614-1.151,1.178a21.058,21.058,0,0,1-6.084,4.209c-.159.069-.319.138-.48.2l-.122.048-89.779.061-14.346-.116-34.273-.274-103.522-.833s-19.2-15.217-19.2-41.633c0-.364,0-.727.009-1.094.209-10.349,1.781-27.571,12.172-41.53h1.972v5.231H1650v-3.039h5.974V747.117h2.976v-5.625h.451v5.625h7.14V736.574h.7v10.543h4.724v-.144h-.008v-1.338h.008v-1.267h-.008V742.26h.008v-1.348h-.008v-2.105h.008v-1.346h-.008v-2.109h.008V733.9h-.008v-2.107h.008v-1.852h-.008v-2.108h.008v-1.4h1.406v-1.577h.226v1.577h10.426v-1.577h.225v1.577h1.9v11.025l1.34.008v-.008h-.011v-2.109h.011V733.9h-.011v-2.107h.011v-1.451h-.011v-2.107h.011v-.006h12.642v.006h2.172l.339.168v12.031h9.242v15.8h7.464V727.016h1.625v-2.044h.291v2.044h5.9v-2.044h.294v2.044h8.348v-2.044h.292v2.044h5.253v-2.044h.291v2.044h2.159v27.272h8.251v-4.411l9.733.04v-7.148h1.959v-1.415H1764v1.415h7.514v0h1.5v-1.417h.26v1.417h1.813v14.216h11.588v5.231h6.439v-3.039h5.974V747.117h2.976v-5.625h.451v5.625h7.14V736.574h.7v10.543h4.724v-.144h-.008v-1.338h.008v-1.267h-.008V742.26h.008v-1.348h-.008v-2.105h.008v-1.346h-.008v-2.109h.008V733.9h-.008v-2.107h.008v-1.852h-.008v-2.108h.008v-1.4h1.407v-1.577h.225v1.577h10.424v-1.577h.227v1.577h1.9v11.025l1.322.008h.018v-.008h-.01v-2.109h.01V733.9h-.01v-2.107h.01v-1.451h-.01v-2.107h.01v-.006h12.642v.006h2.172c.113.056.225.111.337.168v12.031h15.512v15.8h7.466V727.016h1.624v-2.044h.292v2.044h5.9v-2.044h.29v2.044h8.35v-2.044h.291v2.044h7.7V754.29h8.252v-4.413l9.733.04v-1.8c.13.417.258.839.383,1.261.088.294.177.594.265.892.076.258.148.515.221.772q.44,1.555.846,3.121c.029.112.058.228.089.343q.11.44.223.882.523,2.108.987,4.234c.063.29.125.583.188.874q.45,2.113.844,4.236c.056.293.11.587.165.882q.239,1.3.459,2.6C1915.9,768.578,1915.952,768.955,1916,769.346Z" transform="translate(-1629.413 -724.859)" fill="#aec3ff"/>
      <g id="Group_2499" data-name="Group 2499" transform="translate(42.469 1.578)">
        <rect id="Rectangle_709" data-name="Rectangle 709" width="18.652" height="4.623" transform="translate(53.27 0.579)" fill="#f4f4f4"/>
        <rect id="Rectangle_710" data-name="Rectangle 710" width="18.652" height="4.623" transform="translate(53.27 7.694)" fill="#f4f4f4"/>
        <rect id="Rectangle_711" data-name="Rectangle 711" width="18.652" height="4.623" transform="translate(53.27 14.959)" fill="#f4f4f4"/>
        <rect id="Rectangle_712" data-name="Rectangle 712" width="18.652" height="4.623" transform="translate(53.27 22.339)" fill="#f4f4f4"/>
        <rect id="Rectangle_713" data-name="Rectangle 713" width="18.652" height="4.623" transform="translate(53.27 29.459)" fill="#f4f4f4"/>
        <g id="Group_2489" data-name="Group 2489" transform="translate(143.225)">
          <rect id="Rectangle_714" data-name="Rectangle 714" width="8.703" height="2.808" fill="#f4f4f4"/>
          <rect id="Rectangle_715" data-name="Rectangle 715" width="8.703" height="2.808" transform="translate(0 4.321)" fill="#f4f4f4"/>
          <rect id="Rectangle_716" data-name="Rectangle 716" width="8.703" height="2.808" transform="translate(0 8.733)" fill="#f4f4f4"/>
          <rect id="Rectangle_717" data-name="Rectangle 717" width="8.703" height="2.808" transform="translate(0 13.215)" fill="#f4f4f4"/>
          <rect id="Rectangle_718" data-name="Rectangle 718" width="8.703" height="2.808" transform="translate(0 17.539)" fill="#f4f4f4"/>
        </g>
        <g id="Group_2490" data-name="Group 2490" transform="translate(143.225 22.299)">
          <rect id="Rectangle_719" data-name="Rectangle 719" width="8.703" height="2.808" fill="#f4f4f4"/>
          <rect id="Rectangle_720" data-name="Rectangle 720" width="8.703" height="2.808" transform="translate(0 4.321)" fill="#f4f4f4"/>
          <rect id="Rectangle_721" data-name="Rectangle 721" width="8.703" height="2.808" transform="translate(0 8.733)" fill="#f4f4f4"/>
          <rect id="Rectangle_722" data-name="Rectangle 722" width="8.703" height="2.808" transform="translate(0 13.215)" fill="#f4f4f4"/>
          <rect id="Rectangle_723" data-name="Rectangle 723" width="8.703" height="2.808" transform="translate(0 17.539)" fill="#f4f4f4"/>
        </g>
        <g id="Group_2491" data-name="Group 2491" transform="translate(158.706 1.841)">
          <rect id="Rectangle_724" data-name="Rectangle 724" width="9.326" height="2.808" fill="#f4f4f4"/>
          <rect id="Rectangle_725" data-name="Rectangle 725" width="9.326" height="2.808" transform="translate(0 4.321)" fill="#f4f4f4"/>
          <rect id="Rectangle_726" data-name="Rectangle 726" width="9.326" height="2.808" transform="translate(0 8.733)" fill="#f4f4f4"/>
          <rect id="Rectangle_727" data-name="Rectangle 727" width="9.326" height="2.808" transform="translate(0 13.215)" fill="#f4f4f4"/>
          <rect id="Rectangle_728" data-name="Rectangle 728" width="9.326" height="2.808" transform="translate(0 17.539)" fill="#f4f4f4"/>
        </g>
        <g id="Group_2492" data-name="Group 2492" transform="translate(158.706 23.889)">
          <rect id="Rectangle_729" data-name="Rectangle 729" width="9.326" height="2.808" fill="#f4f4f4"/>
          <rect id="Rectangle_730" data-name="Rectangle 730" width="9.326" height="2.808" transform="translate(0 4.321)" fill="#f4f4f4"/>
          <rect id="Rectangle_731" data-name="Rectangle 731" width="9.326" height="2.808" transform="translate(0 8.733)" fill="#f4f4f4"/>
          <rect id="Rectangle_732" data-name="Rectangle 732" width="9.326" height="2.808" transform="translate(0 13.215)" fill="#f4f4f4"/>
          <rect id="Rectangle_733" data-name="Rectangle 733" width="9.326" height="2.808" transform="translate(0 17.539)" fill="#f4f4f4"/>
        </g>
        <g id="Group_2493" data-name="Group 2493" transform="translate(158.706 46.388)">
          <rect id="Rectangle_734" data-name="Rectangle 734" width="9.326" height="2.808" fill="#f4f4f4"/>
          <rect id="Rectangle_735" data-name="Rectangle 735" width="9.326" height="2.808" transform="translate(0 4.321)" fill="#f4f4f4"/>
          <rect id="Rectangle_736" data-name="Rectangle 736" width="9.326" height="2.808" transform="translate(0 8.733)" fill="#f4f4f4"/>
          <rect id="Rectangle_737" data-name="Rectangle 737" width="9.326" height="2.808" transform="translate(0 13.215)" fill="#f4f4f4"/>
          <rect id="Rectangle_738" data-name="Rectangle 738" width="9.326" height="2.808" transform="translate(0 17.539)" fill="#f4f4f4"/>
        </g>
        <rect id="Rectangle_739" data-name="Rectangle 739" width="16.982" height="4.623" transform="translate(204.319 0.579)" fill="#f4f4f4"/>
        <rect id="Rectangle_740" data-name="Rectangle 740" width="16.982" height="4.623" transform="translate(204.319 7.694)" fill="#f4f4f4"/>
        <rect id="Rectangle_741" data-name="Rectangle 741" width="16.982" height="4.623" transform="translate(204.319 14.959)" fill="#f4f4f4"/>
        <rect id="Rectangle_742" data-name="Rectangle 742" width="16.982" height="4.623" transform="translate(204.319 22.339)" fill="#f4f4f4"/>
        <rect id="Rectangle_743" data-name="Rectangle 743" width="16.982" height="4.623" transform="translate(204.319 29.459)" fill="#f4f4f4"/>
        <g id="Group_2494" data-name="Group 2494">
          <rect id="Rectangle_744" data-name="Rectangle 744" width="9.326" height="2.808" fill="#f4f4f4"/>
          <rect id="Rectangle_745" data-name="Rectangle 745" width="9.326" height="2.808" transform="translate(0 4.321)" fill="#f4f4f4"/>
          <rect id="Rectangle_746" data-name="Rectangle 746" width="9.326" height="2.808" transform="translate(0 8.733)" fill="#f4f4f4"/>
          <rect id="Rectangle_747" data-name="Rectangle 747" width="9.326" height="2.808" transform="translate(0 13.215)" fill="#f4f4f4"/>
          <rect id="Rectangle_748" data-name="Rectangle 748" width="9.326" height="2.808" transform="translate(0 17.539)" fill="#f4f4f4"/>
        </g>
        <g id="Group_2495" data-name="Group 2495" transform="translate(0 22.299)">
          <rect id="Rectangle_749" data-name="Rectangle 749" width="9.326" height="2.808" fill="#f4f4f4"/>
          <rect id="Rectangle_750" data-name="Rectangle 750" width="9.326" height="2.808" transform="translate(0 4.321)" fill="#f4f4f4"/>
          <rect id="Rectangle_751" data-name="Rectangle 751" width="9.326" height="2.808" transform="translate(0 8.733)" fill="#f4f4f4"/>
          <rect id="Rectangle_752" data-name="Rectangle 752" width="9.326" height="2.808" transform="translate(0 13.215)" fill="#f4f4f4"/>
          <rect id="Rectangle_753" data-name="Rectangle 753" width="9.326" height="2.808" transform="translate(0 17.539)" fill="#f4f4f4"/>
        </g>
        <g id="Group_2496" data-name="Group 2496" transform="translate(15.793 1.841)">
          <rect id="Rectangle_754" data-name="Rectangle 754" width="10.6" height="2.808" fill="#f4f4f4"/>
          <rect id="Rectangle_755" data-name="Rectangle 755" width="10.6" height="2.808" transform="translate(0 4.321)" fill="#f4f4f4"/>
          <rect id="Rectangle_756" data-name="Rectangle 756" width="10.6" height="2.808" transform="translate(0 8.733)" fill="#f4f4f4"/>
          <rect id="Rectangle_757" data-name="Rectangle 757" width="10.6" height="2.808" transform="translate(0 13.215)" fill="#f4f4f4"/>
          <rect id="Rectangle_758" data-name="Rectangle 758" width="10.6" height="2.808" transform="translate(0 17.539)" fill="#f4f4f4"/>
        </g>
        <g id="Group_2497" data-name="Group 2497" transform="translate(15.793 23.889)">
          <rect id="Rectangle_759" data-name="Rectangle 759" width="10.6" height="2.808" fill="#f4f4f4"/>
          <rect id="Rectangle_760" data-name="Rectangle 760" width="10.6" height="2.808" transform="translate(0 4.321)" fill="#f4f4f4"/>
          <rect id="Rectangle_761" data-name="Rectangle 761" width="10.6" height="2.808" transform="translate(0 8.733)" fill="#f4f4f4"/>
          <rect id="Rectangle_762" data-name="Rectangle 762" width="10.6" height="2.808" transform="translate(0 13.215)" fill="#f4f4f4"/>
          <rect id="Rectangle_763" data-name="Rectangle 763" width="10.6" height="2.808" transform="translate(0 17.539)" fill="#f4f4f4"/>
        </g>
        <g id="Group_2498" data-name="Group 2498" transform="translate(15.793 46.388)">
          <rect id="Rectangle_764" data-name="Rectangle 764" width="10.6" height="2.808" fill="#f4f4f4"/>
          <rect id="Rectangle_765" data-name="Rectangle 765" width="10.6" height="2.808" transform="translate(0 4.321)" fill="#f4f4f4"/>
          <rect id="Rectangle_766" data-name="Rectangle 766" width="10.6" height="2.808" transform="translate(0 8.733)" fill="#f4f4f4"/>
          <rect id="Rectangle_767" data-name="Rectangle 767" width="10.6" height="2.808" transform="translate(0 13.215)" fill="#f4f4f4"/>
          <rect id="Rectangle_768" data-name="Rectangle 768" width="10.6" height="2.808" transform="translate(0 17.539)" fill="#f4f4f4"/>
        </g>
      </g>
    </g>
    <path id="Path_1957" data-name="Path 1957" d="M2127.282,610.547a8.12,8.12,0,0,1,7.619-3.3s7.8-6.184,16.118-.825c0,0,8.842-1.328,15.39,1.15,4.366,1.652,5.808,3.385,5.808,3.385Z" transform="translate(-413.438 -82.512)" fill="#fff" opacity="0.5"/>
    <path id="Path_1958" data-name="Path 1958" d="M2301.569,706.561a7.092,7.092,0,0,1,6.739-3.062s6.9-5.742,14.255-.766c0,0,7.82-1.233,13.611,1.068,3.861,1.534,5.137,3.143,5.137,3.143Z" transform="translate(-554.47 -160.571)" fill="#fff" opacity="0.5"/>
    <path id="Path_1959" data-name="Path 1959" d="M2512.365,621.456a6.373,6.373,0,0,1,6.136-2.979s6.282-5.585,12.982-.745c0,0,7.121-1.2,12.4,1.038,3.516,1.492,4.677,3.057,4.677,3.057Z" transform="translate(-725.044 -91.834)" fill="#fff" opacity="0.5"/>
    <g id="Group_2523" data-name="Group 2523" transform="translate(1727.831 602.435)">
      <path id="Path_1961" data-name="Path 1961" d="M2267.218,1202.028h114.414l38.641-3.481s-6.915-17.228-8.8-17.487-140.632,0-140.632,0Z" transform="translate(-2254.504 -1151.614)" fill="#151f2c"/>
      <path id="Path_1962" data-name="Path 1962" d="M2382.865,1075.94c-2.848,1.166-20.06,1.424-20.06,1.424s.389-21.094-17.341-18.636-14.629,19.967-14.629,19.967l-85.235,1.521s1.384-22.237-17.435-19.9c-15.635,1.943-11.618,19.815-11.618,19.815-8.067.416-12.391-.8-14.684-2.07,0,0,0,0,0,0-1.718-2.422-.717-3.839-.617-4.087s-.249-4.37-.3-4.966c-.028-.335.7-1.189,1.339-1.872a1.545,1.545,0,0,0,.078-2.031l-.853-1.051a4.135,4.135,0,0,1-.577-4.258l1.694-3.878v0c5.524-9.488,48.832-12.078,48.832-12.078,6.577-3.78,12.031-6.591,16.3-8.632,6.8-3.256,14.563-6.431,22.072-7.173a170.19,170.19,0,0,1,41.142.931c4.788.776,28.859,11.259,30.671,12.165s16.587,2.133,18.486,2.365a2.071,2.071,0,0,1,1.841,2.128l.261,1.684.992,6.413.242,1.566c1.381.69,1.383,2.667,1.383,2.667S2385.711,1074.775,2382.865,1075.94Z" transform="translate(-2200.588 -1027.222)" fill="#2b478b"/>
      <g id="Group_2507" data-name="Group 2507" transform="translate(11.675 28.51)">
        <circle id="Ellipse_210" data-name="Ellipse 210" cx="13.125" cy="13.125" r="13.125" transform="translate(0 20.691) rotate(-52.018)" fill="#384152"/>
        <g id="Group_2502" data-name="Group 2502" transform="translate(8.158 8.158)">
          <path id="Path_1963" data-name="Path 1963" d="M2314.8,1239.927a10.264,10.264,0,1,1,10.264-10.265A10.276,10.276,0,0,1,2314.8,1239.927Zm0-19.58a9.316,9.316,0,1,0,9.315,9.315A9.326,9.326,0,0,0,2314.8,1220.347Z" transform="translate(-2304.533 -1219.398)" fill="#e9e9e9"/>
        </g>
        <g id="Group_2506" data-name="Group 2506" transform="translate(8.954 8.57)">
          <g id="Group_2503" data-name="Group 2503" transform="translate(7.375)">
            <path id="Path_1964" data-name="Path 1964" d="M2351.2,1241.21h-3.677l1.181-10.079-1.35-9.573,4.2.26-1.4,9.314Z" transform="translate(-2347.354 -1221.557)" fill="#e9e9e9"/>
          </g>
          <g id="Group_2504" data-name="Group 2504" transform="translate(0 3.094)">
            <path id="Path_1965" data-name="Path 1965" d="M2310.54,1250.929l-1.838-3.185,9.32-4.016,7.617-5.954,1.876,3.77-8.767,3.443Z" transform="translate(-2308.702 -1237.773)" fill="#e9e9e9"/>
          </g>
          <g id="Group_2505" data-name="Group 2505" transform="translate(0.364 2.982)">
            <path id="Path_1966" data-name="Path 1966" d="M2310.61,1240.256l2.021-3.073,7.773,6.524,8.74,4.132-2.526,3.37-7.013-6.288Z" transform="translate(-2310.61 -1237.183)" fill="#e9e9e9"/>
          </g>
          <path id="Path_1967" data-name="Path 1967" d="M2340.274,1258.574A3.425,3.425,0,1,1,2343.7,1262,3.425,3.425,0,0,1,2340.274,1258.574Z" transform="translate(-2334.25 -1248.74)" fill="#e9e9e9"/>
        </g>
      </g>
      <g id="Group_2513" data-name="Group 2513" transform="translate(130.806 31.261)">
        <circle id="Ellipse_211" data-name="Ellipse 211" cx="13.125" cy="13.125" r="13.125" transform="translate(0 25.618) rotate(-77.399)" fill="#384152"/>
        <g id="Group_2508" data-name="Group 2508" transform="translate(5.408 5.408)">
          <path id="Path_1968" data-name="Path 1968" d="M2924.738,1239.927A10.264,10.264,0,1,1,2935,1229.662,10.276,10.276,0,0,1,2924.738,1239.927Zm0-19.58a9.316,9.316,0,1,0,9.315,9.315A9.326,9.326,0,0,0,2924.738,1220.347Z" transform="translate(-2914.473 -1219.398)" fill="#e9e9e9"/>
        </g>
        <g id="Group_2512" data-name="Group 2512" transform="translate(6.203 5.82)">
          <g id="Group_2509" data-name="Group 2509" transform="translate(7.375)">
            <path id="Path_1969" data-name="Path 1969" d="M2961.141,1241.21h-3.678l1.18-10.079-1.349-9.573,4.2.26-1.4,9.314Z" transform="translate(-2957.295 -1221.557)" fill="#e9e9e9"/>
          </g>
          <g id="Group_2510" data-name="Group 2510" transform="translate(0 3.094)">
            <path id="Path_1970" data-name="Path 1970" d="M2920.48,1250.929l-1.838-3.185,9.319-4.016,7.617-5.954,1.876,3.77-8.767,3.443Z" transform="translate(-2918.643 -1237.773)" fill="#e9e9e9"/>
          </g>
          <g id="Group_2511" data-name="Group 2511" transform="translate(0.364 2.982)">
            <path id="Path_1971" data-name="Path 1971" d="M2920.55,1240.256l2.02-3.073,7.774,6.524,8.74,4.132-2.526,3.37-7.012-6.288Z" transform="translate(-2920.55 -1237.183)" fill="#e9e9e9"/>
          </g>
          <path id="Path_1972" data-name="Path 1972" d="M2950.215,1258.574a3.424,3.424,0,1,1,3.424,3.425A3.424,3.424,0,0,1,2950.215,1258.574Z" transform="translate(-2944.191 -1248.74)" fill="#e9e9e9"/>
        </g>
      </g>
      <path id="Path_1973" data-name="Path 1973" d="M2222.42,1178.643l-3.369,3.652a2.557,2.557,0,0,1-1.878.823H2206.84a.8.8,0,0,1-.7-1.187l.295-.528a7.819,7.819,0,0,1,1.334-1.752h0a7.841,7.841,0,0,1,5.51-2.262h8.585A.748.748,0,0,1,2222.42,1178.643Z" transform="translate(-2205 -1148.735)" fill="#e9e9e9"/>
      <path id="Path_1974" data-name="Path 1974" d="M2211.441,1273.193h-2.93a2.677,2.677,0,0,0-2.336,1.371l-.1.18a.272.272,0,0,0,.238.405h3.526a.872.872,0,0,0,.641-.281l1.15-1.246A.256.256,0,0,0,2211.441,1273.193Z" transform="translate(-2204.999 -1226.26)" fill="#151f2c"/>
      <path id="Path_1975" data-name="Path 1975" d="M2785.694,1056.875l-43.813,1.041a1.529,1.529,0,0,1-1.566-1.529v-10.094a1.423,1.423,0,0,1,1.444-1.424c18.683.26,25.086.78,28.926,2.105,3.386,1.168,11.307,5.973,15.4,8.411A.8.8,0,0,1,2785.694,1056.875Z" transform="translate(-2637.332 -1041.502)" fill="#e9e9e9"/>
      <path id="Path_1976" data-name="Path 1976" d="M2547.531,1044.512l2.087.025V1057.7l-42.267,1a.552.552,0,0,1-.323-1.009C2511.967,1054.369,2528.509,1044.3,2547.531,1044.512Z" transform="translate(-2448.361 -1041.21)" fill="#e9e9e9"/>
      <path id="Path_1977" data-name="Path 1977" d="M2977.26,1100.054h-.023v-1.83l.437.26A.844.844,0,0,1,2977.26,1100.054Z" transform="translate(-2829.048 -1084.677)" fill="#e9e9e9"/>
      <path id="Path_1978" data-name="Path 1978" d="M2718.361,1054.989l-5.176-.41.345-14.08h4.832Z" transform="translate(-2615.377 -1037.965)" fill="#2b478b"/>
      <path id="Path_1979" data-name="Path 1979" d="M2901.9,1062.819h-2.416v-12.644l2.416,1.45Z" transform="translate(-2766.127 -1045.796)" fill="#2b478b"/>
      <path id="Path_1980" data-name="Path 1980" d="M2511.135,1095.725l1.289,4.269-7.051.167a.418.418,0,0,1-.255-.758A33.531,33.531,0,0,1,2511.135,1095.725Z" transform="translate(-2446.871 -1082.655)" fill="#384152"/>
      <g id="Group_2514" data-name="Group 2514" transform="translate(57.532 2.972)">
        <path id="Path_1981" data-name="Path 1981" d="M2502.774,1057.687a.663.663,0,0,1-.379-1.207l.147-.1c.152-.106.323-.222.511-.349q.232-.156.5-.331l.267-.176c.2-.133.417-.271.644-.415l.5-.319.029-.018.074-.046c.146-.091.3-.188.459-.285l.035-.022.16-.1c.078-.049.161-.1.245-.149l.354-.214c.339-.2.7-.418,1.082-.637l.358-.206q.358-.207.737-.417h0l.177-.1c.509-.283,1.025-.564,1.534-.834l.168-.088.233-.123c.969-.508,1.965-1.005,2.962-1.481l.309-.146q.466-.221.947-.44c.106-.049.214-.1.323-.147.213-.1.431-.195.652-.292l.33-.146c.329-.145.68-.3,1.072-.461l.612-.255c1.382-.57,2.79-1.1,4.186-1.591l.306-.106.346-.117.435-.146.353-.116.014,0c.123-.041.246-.081.37-.12.225-.072.45-.144.677-.214q.231-.073.468-.144c.239-.072.479-.144.72-.215l.4-.115q.378-.109.76-.213c.5-.138,1.019-.273,1.527-.4l.031-.008.135-.034c.216-.054.438-.108.66-.16.131-.032.265-.063.4-.094l.1-.023.3-.068.4-.089.4-.087.407-.084c.133-.028.27-.056.406-.083l.022,0,.386-.076.386-.073.436-.079.281-.05.132-.023c.276-.047.551-.093.827-.136l.416-.065.021,0q.367-.055.733-.106c.457-.063.915-.122,1.364-.174l.029,0c.126-.014.252-.029.379-.042l.272-.029c.089-.011.188-.02.286-.03l.319-.031.43-.039.414-.034.321-.025.614-.042.364-.022.053,0,.4-.021.324-.015h.01l.291-.012.241-.009.286-.008a1.377,1.377,0,0,1,1.413,1.374v10.911a1.694,1.694,0,0,1-1.644,1.683l-38.64.917Zm6.382-4.568-.239.134q-.417.233-.813.459l-.355.2c-.376.218-.738.43-1.073.633l-.352.212-.243.148-.155.095-.037.022q-.237.145-.459.285l-.1.061-.5.317q-.337.214-.636.41l-.265.175q-.262.173-.492.328c-.185.125-.354.239-.505.345l-.07.048,7.259-.172,31.292-.743a1,1,0,0,0,.97-.993v-10.911a.686.686,0,0,0-.7-.684l-.283.009-.24.009-.284.012h-.011l-.321.015q-.2.009-.4.021l-.053,0-.356.021-.609.041-.311.024-.414.034-.426.039-.315.031c-.1.009-.188.018-.28.029l-.271.028-.374.042-.029,0c-.443.052-.9.109-1.348.171-.242.034-.484.069-.725.105l-.02,0-.413.065c-.275.043-.546.089-.817.135l-.132.023-.276.049-.432.078-.382.073-.384.075-.021,0c-.134.026-.267.053-.4.081l-.4.084-.4.086-.4.088-.3.067-.1.023-.394.092c-.222.052-.44.105-.656.159l-.129.032-.032.008c-.5.126-1.014.26-1.514.4-.253.069-.5.139-.753.21l-.4.115-.712.213-.463.142c-.226.07-.449.141-.672.213-.122.038-.243.078-.364.118l-.015.005-.349.115-.434.145-.341.116-.3.105c-1.384.483-2.78,1.013-4.149,1.578l-.608.253c-.388.163-.735.313-1.062.457l-.329.145q-.327.144-.646.289l-.319.145c-.32.146-.632.291-.941.437l-.308.146c-.987.471-1.975.965-2.935,1.468l-.233.123-.166.087C2510.076,1052.615,2509.614,1052.866,2509.156,1053.12Z" transform="translate(-2502.111 -1042.8)" fill="#151f2c"/>
      </g>
      <g id="Group_2515" data-name="Group 2515" transform="translate(135.464 6.294)">
        <path id="Path_1982" data-name="Path 1982" d="M2911.568,1069.928a.99.99,0,0,1-.694-.287,1.135,1.135,0,0,1-.334-.809v-7.367c0-.419.062-.954.4-1.166a1.34,1.34,0,0,1,1.148.107c.361.177.613.3.748.377l.054.029.147.08c1.836,1,4.449,2.581,7.77,4.692l.421.268c.335.213.661.422.974.624l1.165.751.582.378.083.053.025.016a1.069,1.069,0,0,1,.428,1.2.98.98,0,0,1-.918.743l-.126,0-11.847.307Zm.065-9.018a.431.431,0,0,0-.228.068.564.564,0,0,0-.254.488v7.367a.52.52,0,0,0,.149.371.387.387,0,0,0,.277.113l11.973-.311a.383.383,0,0,0,.346-.3.459.459,0,0,0-.173-.519l-.026-.016-.08-.052-.584-.379-1.162-.75c-.313-.2-.638-.41-.972-.623l-.42-.267c-3.309-2.1-5.911-3.675-7.735-4.672l-.149-.081-.045-.024c-.132-.071-.383-.2-.732-.369A.418.418,0,0,0,2911.634,1060.91Z" transform="translate(-2910.541 -1060.208)" fill="#151f2c"/>
      </g>
      <path id="Path_1983" data-name="Path 1983" d="M2511.135,1095.725l1.289,4.269-7.051.167a.418.418,0,0,1-.255-.758A33.531,33.531,0,0,1,2511.135,1095.725Z" transform="translate(-2446.871 -1082.655)" fill="#384152"/>
      <g id="Group_2516" data-name="Group 2516" transform="translate(102.638 3.022)">
        <path id="Path_1984" data-name="Path 1984" d="M2740.376,1056.8a1.875,1.875,0,0,1-1.871-1.874v-10.095a1.768,1.768,0,0,1,1.794-1.768c19.284.269,25.256.706,29.043,2.127l.224.084v10.834l-29.142.691Zm-.1-13.047a1.08,1.08,0,0,0-1.079,1.078v10.095a1.184,1.184,0,0,0,1.213,1.183l28.468-.676v-9.679c-3.686-1.308-10.006-1.743-28.586-2Z" transform="translate(-2738.505 -1043.061)" fill="#151f2c"/>
      </g>
      <path id="Path_1985" data-name="Path 1985" d="M3095.675,1138.891h-8.249a4,4,0,0,1-3.146-1.528l-3.12-3.964a.57.57,0,0,1,.448-.922h13.074Z" transform="translate(-2913.042 -1112.394)" fill="#c8817d"/>
      <g id="Group_2517" data-name="Group 2517" transform="translate(100.398 3.194)">
        <rect id="Rectangle_771" data-name="Rectangle 771" width="44.207" height="0.345" transform="matrix(0.012, -1, 1, 0.012, 0, 44.204)" fill="#151f2c"/>
      </g>
      <g id="Group_2518" data-name="Group 2518" transform="translate(44.841 46.748)">
        <rect id="Rectangle_772" data-name="Rectangle 772" width="85.294" height="0.345" transform="translate(0 1.707) rotate(-1.147)" fill="#151f2c"/>
      </g>
      <path id="Path_1986" data-name="Path 1986" d="M2663.314,1158.065c0,.467-2.085.846-4.658.846s-4.659-.379-4.659-.846,2.086-.847,4.659-.847S2663.314,1157.6,2663.314,1158.065Z" transform="translate(-2567.483 -1132.414)" fill="#384152"/>
      <path id="Path_1987" data-name="Path 1987" d="M2890.714,1158.065c0,.467-2.086.846-4.659.846s-4.658-.379-4.658-.846,2.086-.847,4.658-.847S2890.714,1157.6,2890.714,1158.065Z" transform="translate(-2751.493 -1132.414)" fill="#384152"/>
      <g id="Group_2519" data-name="Group 2519" transform="translate(126.451 15.374)">
        <path id="Path_1988" data-name="Path 1988" d="M2863.65,1139.363l-.344-.019a18.827,18.827,0,0,1,3.871-11.008,18.292,18.292,0,0,1,7.494-5.426,28.38,28.38,0,0,1,10.374-1.971v-13.144h.345v13.5l-.18-.008a27.893,27.893,0,0,0-10.419,1.946,17.943,17.943,0,0,0-7.349,5.323A18.5,18.5,0,0,0,2863.65,1139.363Z" transform="translate(-2863.306 -1107.794)" fill="#151f2c"/>
      </g>
      <g id="Group_2520" data-name="Group 2520" transform="translate(55.22 17.145)">
        <path id="Path_1989" data-name="Path 1989" d="M2490.011,1148.342a184.283,184.283,0,0,1,1.057-23.9,55.989,55.989,0,0,1,1.255-7.363l.333.093c-.026.091-2.556,9.4-2.3,31.167Z" transform="translate(-2489.993 -1117.078)" fill="#151f2c"/>
      </g>
      <g id="Group_2521" data-name="Group 2521" transform="translate(97.677 3.194)">
        <rect id="Rectangle_773" data-name="Rectangle 773" width="6.75" height="0.345" fill="#151f2c"/>
      </g>
      <path id="Path_1990" data-name="Path 1990" d="M2212.858,1192.711h-6.019a.8.8,0,0,1-.7-1.187l.295-.528a7.817,7.817,0,0,1,1.334-1.752h0l3.643.6-1.439,1.576,1.721.347Z" transform="translate(-2205 -1158.328)" fill="#384152"/>
      <g id="Group_2522" data-name="Group 2522" transform="translate(5.474 16.169)">
        <path id="Path_1991" data-name="Path 1991" d="M2229.725,1120.445a.447.447,0,0,1-.26-.811c.029-.02.735-.522,3.008-1.905a13.2,13.2,0,0,1,6.162-1.852c.927-.062,1.839-1.4,2.385-2.2a6.623,6.623,0,0,1,.5-.675c.216-.234.44-.476,16.922-.791,8.055-.154,18-.244,16.234-.244h1.841c.244,0,.254.585.3.826.544,2.974-2.684,1.494-2.931,1.5-12.3.134-30.1-.966-31.771-.607-.092.118-.218.3-.351.5-.678,1-1.7,2.5-3.064,2.593a12.336,12.336,0,0,0-5.758,1.724c-2.234,1.36-2.946,1.864-2.953,1.869A.446.446,0,0,1,2229.725,1120.445Z" transform="translate(-2229.278 -1111.963)" fill="#2b478b"/>
      </g>
      <path id="Rectangle_774" data-name="Rectangle 774" d="M2.533,0H6.519A2.533,2.533,0,0,1,9.052,2.533v0A2.533,2.533,0,0,1,6.519,5.066H2.533A2.533,2.533,0,0,1,0,2.533v0A2.533,2.533,0,0,1,2.533,0Z" transform="translate(63.292 14.096)" fill="#2b478b"/>
    </g>
    <g id="Group_2524" data-name="Group 2524" transform="translate(1696.295 581.022)">
      <path id="Path_1992" data-name="Path 1992" d="M2057.364,935.536s-.113-1.832-.1-2.625,1.972-3.068,2.637-3.068.444,2.1.333,2.749.222,1.244-.148,1.761-1.1,1.614-1.1,1.614Z" transform="translate(-2053.075 -927.011)" fill="#feb27d"/>
      <path id="Path_1993" data-name="Path 1993" d="M2092.7,957.383l-3.144,3.014a9.643,9.643,0,0,1-1.795-2.019q-.11-.162-.21-.322a15.206,15.206,0,0,1-.95-1.792q-.054-.118-.1-.225c-.174-.379,1.745-1.594,2.829-2.363a4.127,4.127,0,0,0,.683-.564,3.066,3.066,0,0,0,0,.855,3.512,3.512,0,0,0,.948,1.776A11.368,11.368,0,0,0,2092.7,957.383Z" transform="translate(-2076.723 -945.84)" fill="#feb27d"/>
      <path id="Path_1994" data-name="Path 1994" d="M2090.8,957.974s-.623,3.313-2.561,4.339c-.073-.108-.143-.216-.211-.322a15.208,15.208,0,0,1-.95-1.792,14.066,14.066,0,0,1,2.812-2.2C2090.43,957.985,2090.8,957.974,2090.8,957.974Z" transform="translate(-2077.2 -949.774)" fill="#ed975d"/>
      <path id="Path_1995" data-name="Path 1995" d="M2071.018,939.564s4.706-1.571,3.682-4.486-1.105-5.082-4.153-4.2-3.237,2.2-3.133,3.252S2069.767,939.9,2071.018,939.564Z" transform="translate(-2061.271 -927.686)" fill="#feb27d"/>
      <path id="Path_1996" data-name="Path 1996" d="M2068.218,923.271s-.479-.318.574-1.982a2.557,2.557,0,0,0,.258-3.059c-.769-1.4-.72-2.52-2.84-2.519s-2.333-.982-3.413-.64-2.04,1.929-2.964,2.227-1.625,5.142.49,5.009a3.036,3.036,0,0,0,1.151-1.036c.355-.64,2.16-2.1,2.733-1.623S2067.081,923.293,2068.218,923.271Z" transform="translate(-2054.428 -914.998)" fill="#151f2c"/>
      <path id="Path_1997" data-name="Path 1997" d="M2052.061,993.311s-9.282,4.154-14.923,5.107a2.107,2.107,0,0,1-1.827-2.294c-.037-1.379,9.263-8.15,12.661-7.949S2053.236,991.855,2052.061,993.311Z" transform="translate(-2035.311 -974.209)" fill="#5591aa"/>
      <path id="Path_1998" data-name="Path 1998" d="M2041.433,958.358l-.77,10.484-5.352,2.641a29.775,29.775,0,0,1,1.6-8.248c1.643-4.69,2.516-5.456,2.516-5.456S2040.906,957.445,2041.433,958.358Z" transform="translate(-2035.312 -949.568)" fill="#5591aa"/>
      <path id="Path_1999" data-name="Path 1999" d="M2078.384,1320.984c-.042.464-.143.857-.352.956a.743.743,0,0,1-.178.046h-7.066l-.3-.01s.018-.873,1.219-1.042a5.347,5.347,0,0,0,3.313-1.6,2.181,2.181,0,0,0,.4-.81c.389-1.577,2.934.547,2.934.547s.029.275.046.656A9.4,9.4,0,0,1,2078.384,1320.984Z" transform="translate(-2063.779 -1241.053)" fill="#151f2c"/>
      <path id="Path_2000" data-name="Path 2000" d="M2113.28,1321.986h-7.853a1.794,1.794,0,0,1,1.227-1,2.11,2.11,0,0,1,.252-.05,5.922,5.922,0,0,0,2.979-1.245,2.338,2.338,0,0,0,.728-1.17c.389-1.577,2.933.547,2.933.547s.026.252.045.61C2113.633,1320.451,2113.643,1321.721,2113.28,1321.986Z" transform="translate(-2092.048 -1241.053)" fill="#151f2c"/>
      <path id="Path_2001" data-name="Path 2001" d="M2082.645,1115.117l-.017.8c-.072,3.3-.354,16.081-.622,23.2-.011.26-.021.51-.03.754,0,.129-.01.258-.016.386a76.984,76.984,0,0,1-1.1,9.512c-.6,3.439-1.213,5.781-1.213,5.781a5.69,5.69,0,0,1-3.782-.408s-.618-5.337-.853-8.568c-.078-1.048-.455-4.625-.929-8.976-.367-3.365-.792-7.193-1.182-10.674-.02-.185-.041-.371-.062-.553-.629-5.629-1.151-10.213-1.151-10.213l4.057-.386Z" transform="translate(-2064.748 -1076.933)" fill="#384152"/>
      <path id="Path_2002" data-name="Path 2002" d="M2080.861,1152.556l-6.777-12.171c-.367-3.365-.792-7.193-1.182-10.674-.02-.186-.041-.371-.062-.554-.629-5.628-1.151-10.213-1.151-10.213l4.057-.386,6.882.141Z" transform="translate(-2064.748 -1079.718)" fill="#151f2c"/>
      <path id="Path_2003" data-name="Path 2003" d="M2075.617,1115.961s3.792,18.744,6.882,27.791,3.128,11.56,3.128,11.56,2.835.615,4.084-.1c0,0,.714-17.15-1.156-21.7-1.236-3.012-2.183-9.424-1.86-11.734s.621-6.941.621-6.941Z" transform="translate(-2067.926 -1076.704)" fill="#384152"/>
      <path id="Path_2004" data-name="Path 2004" d="M2075.892,1005.566a3.982,3.982,0,0,1-1.507,2.617,6.745,6.745,0,0,1-3.864.84,21.163,21.163,0,0,1-5.434-.886,12.721,12.721,0,0,1-2.151-.827c-2.4-1.252-2.061-2.919-2-9.158.059-6.367,3.978-14.6,4.684-15.976,1.256-2.453,6.586-1.646,6.586-1.646a10.436,10.436,0,0,1,2.889,5.115,20.433,20.433,0,0,1,.542,4c.288,4.833-.084,11.279.2,12.784A8.627,8.627,0,0,1,2075.892,1005.566Z" transform="translate(-2056.004 -967.923)" fill="#5fa0bb"/>
      <path id="Path_2005" data-name="Path 2005" d="M2090.934,968.324s.872,2.064.7,2.432c0,0-4.788.452-6.737,1.84,0,0,.641-2,1.42-2.5A42.972,42.972,0,0,1,2090.934,968.324Z" transform="translate(-2075.432 -958.149)" fill="#5591aa"/>
      <path id="Path_2006" data-name="Path 2006" d="M2114.672,1037.079c-9.918-3.775-4.256-17.733-4.256-17.733a7.191,7.191,0,0,1,4,1.809c.288,4.833-.084,11.279.2,12.784A8.633,8.633,0,0,1,2114.672,1037.079Z" transform="translate(-2094.784 -999.436)" fill="#5591aa"/>
      <path id="Path_2007" data-name="Path 2007" d="M2103.516,985.875s8.5,5.7,12.192,10.067a3.641,3.641,0,0,1-1.416,2.437c-1.192.693-11.562-3.343-13.117-6.371S2101.664,985.6,2103.516,985.875Z" transform="translate(-2088.163 -972.339)" fill="#5fa0bb"/>
      <path id="Path_2008" data-name="Path 2008" d="M2101.235,1082.39s-.543.941-1.066.719a2.7,2.7,0,0,0-2.363.049c-.784.505-1.967,1.869-1.228,2.2s2.144-.551,2.477-.7.911.148,1.552-.172a6.449,6.449,0,0,0,1.306-.961Z" transform="translate(-2084.698 -1050.45)" fill="#feb27d"/>
      <path id="Path_2009" data-name="Path 2009" d="M2117.292,1043.273l6.974-9.537,4.889.947a11.909,11.909,0,0,1-4.2,6.138c-3.653,3.006-5.668,3.6-5.668,3.6S2116.869,1044.84,2117.292,1043.273Z" transform="translate(-2101.61 -1011.08)" fill="#5fa0bb"/>
    </g>
    <g id="Group_2527" data-name="Group 2527" transform="translate(1759.915 582.994)">
      <g id="man">
        <path id="Path_2010" data-name="Path 2010" d="M2377.152,1009.452a4.1,4.1,0,0,0,1.515,2.192,2.346,2.346,0,0,1,.973.707l.554-.322.662-.385s-.015-.073-.047-.193-.082-.285-.149-.469a.64.64,0,0,1-.078-.589,1.371,1.371,0,0,0-.113-1.143c-.212-.308-.417-1.068-.545-1.046-.31.053.152,1.1.02,1.292a.228.228,0,0,1-.3.1l-.006,0c-.868-.382-1.922-2.441-2.388-2.163A4.168,4.168,0,0,0,2377.152,1009.452Z" transform="translate(-2375.483 -991.746)" fill="#feb27d"/>
        <g id="Group_2525" data-name="Group 2525" transform="translate(0 14.676)">
          <path id="Path_2011" data-name="Path 2011" d="M2375.648,1006.526l-1.088.765a.172.172,0,0,1-.238-.042l-2.787-3.966a.171.171,0,0,1,.042-.238l1.088-.765a.172.172,0,0,1,.238.042l2.788,3.966A.172.172,0,0,1,2375.648,1006.526Z" transform="translate(-2370.975 -1002.249)" fill="#151f2c"/>
          <path id="Path_2012" data-name="Path 2012" d="M2372.411,1010.226l-.638.448a.131.131,0,0,1-.181-.032l-2.834-4.033a.13.13,0,0,1,.031-.181l.638-.448a.13.13,0,0,1,.181.031l2.834,4.033A.131.131,0,0,1,2372.411,1010.226Z" transform="translate(-2368.735 -1005.25)" fill="#151f2c"/>
        </g>
        <path id="Path_2013" data-name="Path 2013" d="M2405.282,994.836s-5.536,9.656-7.545,11.433l-7.365-5.491a2.689,2.689,0,0,0-1.536,1.4s4.472,9.112,8.875,9.5,10.584-10.921,10.584-10.921Z" transform="translate(-2385.001 -981.575)" fill="#151f2c"/>
        <g id="Group_2526" data-name="Group 2526" transform="translate(14.246 35.577)">
          <path id="Path_2014" data-name="Path 2014" d="M2540.551,1311.513h3.2a1.94,1.94,0,0,0,.875-1.466c.155-1.031,1.311-1.592,1.561-2.436s-1.03-2.029-1.03-2.029l-.214-.276-.223-.287-2.124.5s-.053.506-.084,1.15c-.023.465-.035,1-.009,1.473.063,1.124-.314,2.334-1.312,2.553C2540.45,1310.857,2540.483,1311.3,2540.551,1311.513Z" transform="translate(-2521.986 -1268.15)" fill="#233862"/>
          <path id="Path_2015" data-name="Path 2015" d="M2443.394,1323.183h7.315c.352-.429.222-2.013.169-2.531l-.019-.165s-2.5-2-2.842-.468c-.01.048-.023.095-.037.141-.433,1.431-2.372,2.082-3.491,2.262A1.268,1.268,0,0,0,2443.394,1323.183Z" transform="translate(-2443.394 -1279.82)" fill="#233862"/>
          <path id="Path_2016" data-name="Path 2016" d="M2450.7,1122.26s.379,4.733.825,10.422c.606,7.728,1.334,17.22,1.406,19.018.125,3.123.625,8.117.625,8.117a3.927,3.927,0,0,0,3.559.687,81.7,81.7,0,0,0,2.719-14.675c.01-.123.019-.248.028-.372.562-7.68,1.435-23.852,1.435-23.852Z" transform="translate(-2449.305 -1119.731)" fill="#677282"/>
          <path id="Path_2017" data-name="Path 2017" d="M2450.7,1122.26s.379,4.733.825,10.422l8.309,13.147c.01-.123.019-.248.028-.372.562-7.68,1.435-23.852,1.435-23.852Z" transform="translate(-2449.305 -1119.731)" fill="#384152"/>
          <path id="Path_2018" data-name="Path 2018" d="M2459.779,1114.878s6.837,17.14,11.332,25.194,5.9,10.3,5.9,10.3,2.576-1.03,2.809-1.733c0,0-1.719-15.55-4.729-19.341-1.7-2.142-3.7-8.57-3.793-10.817s-.609-6.7-.609-6.7Z" transform="translate(-2456.653 -1111.787)" fill="#677282"/>
        </g>
        <path id="Path_2019" data-name="Path 2019" d="M2468.7,966.819c2.672.843,7.295-1.432,7.295-1.432a6.958,6.958,0,0,1-2.334-5.693l-2.066,1.665-1.4,1.131a16.78,16.78,0,0,0,.159,1.835c.041.308.091.65.154,1.024A6.391,6.391,0,0,0,2468.7,966.819Z" transform="translate(-2449.625 -953.138)" fill="#feb27d"/>
        <path id="Path_2020" data-name="Path 2020" d="M2476.513,969.379a16.915,16.915,0,0,0,.159,1.835c1.555-.267,3.319-2.78,3.319-2.78a4.955,4.955,0,0,0-2.075-.186Z" transform="translate(-2455.948 -960.028)" fill="#ed975d"/>
        <path id="Path_2021" data-name="Path 2021" d="M2468.58,943.05s4.413.733,4.827-2.022,1.263-4.516-1.537-5.1-3.507.384-3.869,1.27S2467.443,942.789,2468.58,943.05Z" transform="translate(-2448.832 -933.762)" fill="#feb27d"/>
        <path id="Path_2022" data-name="Path 2022" d="M2448.778,1011.271a.432.432,0,0,0,.281.107,43.392,43.392,0,0,0,6.4.29,18.449,18.449,0,0,0,5.918-1.708c.263-.118.87-.442.856-.736-.009-.322-.041-.79-.081-1.379a73.793,73.793,0,0,1-.147-9.632c.043-.757.066-1.507.069-2.246.02-5.507-1.072-10.35-3.266-11.989-.187-.134-1.338.428-2.395.949a4.376,4.376,0,0,1-2.876.348l-.923.816a9.216,9.216,0,0,0-2.89,4.616,51.972,51.972,0,0,0-.87,8.563c-.067,1.552-.12,3.118-.134,4.6v.053c-.014.147-.014.308-.014.455C2448.657,1008.193,2448.711,1011.216,2448.778,1011.271Z" transform="translate(-2433.433 -972.771)" fill="#384152"/>
        <path id="Path_2023" data-name="Path 2023" d="M2501.137,1042.553a73.853,73.853,0,0,1-.146-9.632c.043-.757.066-1.507.068-2.246-.914-2.217-1.661-3.825-1.661-3.825h-2.3S2495.4,1038.387,2501.137,1042.553Z" transform="translate(-2472.414 -1007.48)" fill="#151f2c"/>
        <path id="Path_2024" data-name="Path 2024" d="M2541.958,1108.378a3.405,3.405,0,0,1,.537.962c.139,1.862-.712,2.119,1.49,3.153,0,0,.94.358.957-.372s-.653-.742-.531-1.764c.141-1.178.127-1.189-.647-1.805l-.512-.846Z" transform="translate(-2508.906 -1072.909)" fill="#feb27d"/>
        <path id="Path_2025" data-name="Path 2025" d="M2498.69,1010.406a7.552,7.552,0,0,1-1.729.1s-2.463-7.608-2.78-8.3-7.315-8.921-7.315-8.921l2.916-7.3s7.569,12.644,8.338,14.421c1.27,2.936,1.711,9.518,1.711,9.518A3.167,3.167,0,0,1,2498.69,1010.406Z" transform="translate(-2464.325 -974.409)" fill="#384152"/>
        <path id="Path_2026" data-name="Path 2026" d="M2468.544,932.335s-.453-.076-.38-.7.072-1.439-.435-1.287-.532.558-.741.321-.212-1.236-1.72-1.306-2.123.456-2.825.147-.739-1.371-.739-1.371a1.2,1.2,0,0,0,.5.5s-1.171-1.6.184-2.7,2.738-.379,3.522-.332c1.728.1,2.845.208,3.409,1.344S2469.653,931.242,2468.544,932.335Z" transform="translate(-2443.965 -925.334)" fill="#151f2c"/>
        <path id="Path_2027" data-name="Path 2027" d="M2542.934,1115.516s-.5.518-.529.734c-.1.692-.332.991-.216,1.066.241.156.559-.356.711-.815A2.1,2.1,0,0,0,2542.934,1115.516Z" transform="translate(-2509.068 -1079.228)" fill="#feb27d"/>
      </g>
    </g>
    <path id="Path_2028" data-name="Path 2028" d="M1927.126,1335.856v.2c0,.267-.163.487-.361.485l-232.707-1.007-71.375-.31-4-.017c-.2,0-.359-.221-.359-.488v-.2c0-.269.163-.487.36-.487l4,.017,287.7,1.247,16.389.071C1926.965,1335.368,1927.126,1335.588,1927.126,1335.856Z" transform="translate(-6.11 -673.056)" fill="#151f2c"/>
    <g id="Group_2550" data-name="Group 2550" transform="translate(1618.847 502.271)">
      <g id="Group_2549" data-name="Group 2549" clip-path="url(#clip-path)">
        <g id="Group_2548" data-name="Group 2548" transform="translate(-109.741 99.56)">
          <path id="Path_2029" data-name="Path 2029" d="M1127.4,1198.861H1241.81l38.64-3.481s-6.914-17.228-8.8-17.487-140.632,0-140.632,0Z" transform="translate(-1113.443 -1148.447)" fill="#151f2c"/>
          <path id="Path_2030" data-name="Path 2030" d="M1239.3,1057.3c-.4,1.4-1.159,1.7-1.158,4.724,0,1.186.265,2.682-.331,4-.259.571-1.863,1.521-1.416,3.427a33.641,33.641,0,0,0-2.757,2.31,15.266,15.266,0,0,0-.3,1.714c-2.847,1.165-15.614.723-15.614.723s.387-21.093-17.341-18.634-14.631,19.966-14.631,19.966l-85.235,1.52s1.384-22.236-17.433-19.9c-15.635,1.943-11.619,19.815-11.619,19.815-15.587.806-17.2-4.487-17.2-4.487V1070.3h.978v-5.753h-.978v-4.284l3.28-7.507c1.381-2.372,5.123-4.314,9.961-5.89,14.51-4.732,38.871-6.188,38.871-6.188,6.578-3.782,12.032-6.592,16.3-8.633,6.8-3.255,14.562-6.431,22.07-7.173a170.267,170.267,0,0,1,41.143.933c4.787.776,28.857,11.257,30.669,12.163s16.589,2.135,18.487,2.365a2.07,2.07,0,0,1,1.84,2.128l.26,1.685-.307.986-1.417-.493.6,2.132-.186.894,1.9.3.4,2.591.243,1.565C1239.766,1052.81,1239.51,1056.582,1239.3,1057.3Z" transform="translate(-1054.271 -1024.057)" fill="#677282"/>
          <g id="Group_2533" data-name="Group 2533" transform="translate(16.041 31.636)">
            <circle id="Ellipse_212" data-name="Ellipse 212" cx="13.125" cy="13.125" r="13.125" transform="translate(0 25.811) rotate(-79.502)" fill="#384152"/>
            <g id="Group_2528" data-name="Group 2528" transform="translate(5.032 5.032)">
              <path id="Path_2031" data-name="Path 2031" d="M1174.977,1236.761a10.265,10.265,0,1,1,10.265-10.265A10.276,10.276,0,0,1,1174.977,1236.761Zm0-19.58a9.315,9.315,0,1,0,9.315,9.315A9.326,9.326,0,0,0,1174.977,1217.181Z" transform="translate(-1164.712 -1216.232)" fill="#e9e9e9"/>
            </g>
            <g id="Group_2532" data-name="Group 2532" transform="translate(5.828 5.444)">
              <g id="Group_2529" data-name="Group 2529" transform="translate(7.375)">
                <path id="Path_2032" data-name="Path 2032" d="M1211.379,1238.044H1207.7l1.181-10.079-1.349-9.573,4.2.259-1.4,9.314Z" transform="translate(-1207.532 -1218.391)" fill="#e9e9e9"/>
              </g>
              <g id="Group_2530" data-name="Group 2530" transform="translate(0 3.094)">
                <path id="Path_2033" data-name="Path 2033" d="M1170.719,1247.762l-1.838-3.185,9.32-4.016,7.617-5.954,1.876,3.77-8.767,3.443Z" transform="translate(-1168.88 -1234.607)" fill="#e9e9e9"/>
              </g>
              <g id="Group_2531" data-name="Group 2531" transform="translate(0.364 2.981)">
                <path id="Path_2034" data-name="Path 2034" d="M1170.788,1237.089l2.021-3.073,7.773,6.524,8.74,4.132-2.526,3.369-7.013-6.287Z" transform="translate(-1170.788 -1234.016)" fill="#e9e9e9"/>
              </g>
              <path id="Path_2035" data-name="Path 2035" d="M1200.453,1255.407a3.425,3.425,0,1,1,3.425,3.425A3.425,3.425,0,0,1,1200.453,1255.407Z" transform="translate(-1194.429 -1245.573)" fill="#e9e9e9"/>
            </g>
          </g>
          <g id="Group_2539" data-name="Group 2539" transform="translate(131.254 30.469)">
            <circle id="Ellipse_213" data-name="Ellipse 213" cx="13.125" cy="13.125" r="13.125" transform="matrix(0.301, -0.954, 0.954, 0.301, 0, 25.036)" fill="#384152"/>
            <g id="Group_2534" data-name="Group 2534" transform="translate(6.199 6.199)">
              <path id="Path_2036" data-name="Path 2036" d="M1784.917,1236.761a10.265,10.265,0,1,1,10.265-10.265A10.276,10.276,0,0,1,1784.917,1236.761Zm0-19.58a9.315,9.315,0,1,0,9.315,9.315A9.326,9.326,0,0,0,1784.917,1217.181Z" transform="translate(-1774.652 -1216.232)" fill="#e9e9e9"/>
            </g>
            <g id="Group_2538" data-name="Group 2538" transform="translate(6.995 6.611)">
              <g id="Group_2535" data-name="Group 2535" transform="translate(7.375)">
                <path id="Path_2037" data-name="Path 2037" d="M1821.319,1238.044h-3.678l1.18-10.079-1.349-9.573,4.2.259-1.4,9.314Z" transform="translate(-1817.473 -1218.391)" fill="#e9e9e9"/>
              </g>
              <g id="Group_2536" data-name="Group 2536" transform="translate(0 3.094)">
                <path id="Path_2038" data-name="Path 2038" d="M1780.659,1247.762l-1.839-3.185,9.32-4.016,7.617-5.954,1.877,3.77-8.767,3.443Z" transform="translate(-1778.821 -1234.607)" fill="#e9e9e9"/>
              </g>
              <g id="Group_2537" data-name="Group 2537" transform="translate(0.364 2.981)">
                <path id="Path_2039" data-name="Path 2039" d="M1780.729,1237.089l2.021-3.073,7.773,6.524,8.74,4.132-2.526,3.369-7.013-6.287Z" transform="translate(-1780.729 -1234.016)" fill="#e9e9e9"/>
              </g>
              <path id="Path_2040" data-name="Path 2040" d="M1810.393,1255.407a3.425,3.425,0,1,1,3.425,3.425A3.425,3.425,0,0,1,1810.393,1255.407Z" transform="translate(-1804.369 -1245.573)" fill="#e9e9e9"/>
            </g>
          </g>
          <path id="Path_2041" data-name="Path 2041" d="M1082.047,1174.218h-8.586a7.844,7.844,0,0,0-6.846,4.017l-.295.527a.8.8,0,0,0,.7,1.188h10.333a2.556,2.556,0,0,0,1.878-.823l3.37-3.652A.749.749,0,0,0,1082.047,1174.218Z" transform="translate(-1063.938 -1145.566)" fill="#f9ddbf"/>
          <path id="Path_2042" data-name="Path 2042" d="M1071.62,1270.027h-2.93a2.677,2.677,0,0,0-2.337,1.371l-.1.18a.272.272,0,0,0,.238.405h3.527a.873.873,0,0,0,.641-.281l1.15-1.246A.256.256,0,0,0,1071.62,1270.027Z" transform="translate(-1063.938 -1223.094)" fill="#151f2c"/>
          <path id="Path_2043" data-name="Path 2043" d="M1645.872,1053.709l-43.813,1.041a1.529,1.529,0,0,1-1.566-1.529v-10.094a1.424,1.424,0,0,1,1.444-1.424c18.683.26,25.086.781,28.926,2.105,3.387,1.168,11.307,5.973,15.4,8.411A.8.8,0,0,1,1645.872,1053.709Z" transform="translate(-1496.27 -1038.335)" fill="#e9e9e9"/>
          <path id="Path_2044" data-name="Path 2044" d="M1407.71,1041.345l2.087.025v13.166l-42.268,1a.551.551,0,0,1-.322-1.008C1372.146,1051.2,1388.688,1041.129,1407.71,1041.345Z" transform="translate(-1307.299 -1038.043)" fill="#e9e9e9"/>
          <path id="Path_2045" data-name="Path 2045" d="M1837.439,1096.888h-.023v-1.83l.436.26A.844.844,0,0,1,1837.439,1096.888Z" transform="translate(-1687.986 -1081.511)" fill="#e9e9e9"/>
          <path id="Path_2046" data-name="Path 2046" d="M1578.54,1051.822l-5.177-.41.345-14.08h4.832Z" transform="translate(-1474.317 -1034.799)" fill="#677282"/>
          <path id="Path_2047" data-name="Path 2047" d="M1762.075,1059.653h-2.416v-12.644l2.416,1.45Z" transform="translate(-1625.067 -1042.629)" fill="#677282"/>
          <path id="Path_2048" data-name="Path 2048" d="M1371.314,1092.559l1.289,4.269-7.051.167a.418.418,0,0,1-.255-.757A33.5,33.5,0,0,1,1371.314,1092.559Z" transform="translate(-1305.81 -1079.489)" fill="#384152"/>
          <g id="Group_2540" data-name="Group 2540" transform="translate(58.772 2.972)">
            <path id="Path_2049" data-name="Path 2049" d="M1362.953,1054.521a.663.663,0,0,1-.38-1.208l.147-.1c.152-.106.323-.222.511-.349q.232-.157.5-.331l.267-.175c.2-.133.417-.271.644-.416l.5-.319.028-.018.075-.046c.146-.091.3-.188.459-.285l.035-.021.159-.1.245-.15.355-.213c.338-.2.7-.418,1.082-.637l.358-.206q.358-.207.737-.417h0l.178-.1c.509-.283,1.026-.563,1.533-.834l.167-.088.233-.123c.969-.508,1.965-1.006,2.961-1.482l.31-.146q.466-.22.946-.44l.323-.146c.213-.1.431-.195.652-.292l.33-.146c.329-.145.68-.3,1.072-.461l.612-.254c1.381-.57,2.789-1.1,4.185-1.591l.306-.106.346-.118.435-.146.353-.116.014,0,.371-.12c.224-.072.45-.144.677-.214l.468-.144q.359-.108.72-.215l.4-.115q.379-.108.761-.212c.5-.139,1.019-.274,1.527-.4l.03-.008.135-.034c.216-.054.438-.108.66-.16.131-.032.265-.063.4-.094l.1-.023.3-.068.4-.089.4-.087.407-.084c.134-.028.27-.055.407-.082l.022,0,.387-.075.386-.074.436-.079.28-.05.132-.023q.413-.07.827-.136l.416-.065.021,0q.366-.055.734-.106c.456-.063.915-.122,1.364-.174l.029,0,.378-.042.272-.028c.09-.011.188-.021.286-.03s.211-.021.319-.031c.141-.014.285-.027.43-.039l.414-.034.321-.025.613-.041.364-.022.053,0c.132-.008.269-.015.4-.021l.325-.015h.01l.291-.012.24-.009.286-.008a1.376,1.376,0,0,1,1.413,1.374v10.911a1.694,1.694,0,0,1-1.644,1.684l-38.64.917Zm6.381-4.568-.239.133q-.418.233-.813.46l-.355.2c-.376.218-.737.43-1.073.633l-.352.212-.243.148-.155.095-.036.023q-.237.145-.459.285l-.1.061-.5.316q-.337.215-.635.41l-.266.175q-.263.174-.492.328-.277.187-.5.345l-.07.048,7.259-.172,31.292-.743a1,1,0,0,0,.97-.994v-10.911a.685.685,0,0,0-.7-.684l-.283.009-.24.009-.285.011h-.011l-.321.015-.4.021-.053,0-.356.021-.609.042-.311.024-.414.034c-.143.012-.284.025-.424.039-.107.01-.211.02-.316.031s-.188.018-.279.029l-.271.029-.374.041-.029,0c-.443.051-.9.109-1.349.171-.242.033-.484.069-.724.1l-.02,0-.413.064q-.411.065-.817.135l-.131.023-.276.049-.432.078-.382.073-.384.075-.022,0c-.134.026-.267.053-.4.081l-.4.084-.4.086-.4.088-.295.067-.1.023-.393.092c-.222.052-.44.1-.657.159l-.128.032-.032.008c-.5.126-1.014.259-1.514.4q-.38.1-.753.21l-.4.115c-.237.07-.475.141-.713.213l-.462.142c-.226.07-.449.141-.673.212l-.364.118-.015,0-.349.115-.433.145-.341.116-.3.105c-1.384.482-2.78,1.013-4.149,1.578q-.306.126-.608.253c-.388.163-.735.312-1.062.456l-.33.145q-.327.144-.646.289l-.319.145c-.32.146-.632.291-.941.437l-.309.146c-.987.471-1.975.965-2.935,1.468l-.234.124-.165.087C1370.255,1049.449,1369.792,1049.7,1369.335,1049.954Z" transform="translate(-1362.289 -1039.635)" fill="#151f2c"/>
          </g>
          <g id="Group_2541" data-name="Group 2541" transform="translate(136.703 6.294)">
            <path id="Path_2050" data-name="Path 2050" d="M1771.747,1066.762a.99.99,0,0,1-.694-.287,1.132,1.132,0,0,1-.334-.809V1058.3c0-.419.062-.954.4-1.166a1.341,1.341,0,0,1,1.148.107c.361.177.612.3.748.377l.054.029.147.08c1.836,1,4.45,2.582,7.77,4.692l.421.268c.335.213.661.422.974.623l1.165.752.582.378.083.053.025.016a1.069,1.069,0,0,1,.428,1.2.98.98,0,0,1-.918.743l-.126,0-11.847.308Zm.064-9.018a.434.434,0,0,0-.227.068.565.565,0,0,0-.254.488v7.367a.52.52,0,0,0,.15.371.388.388,0,0,0,.277.113l11.973-.311a.382.382,0,0,0,.346-.3.458.458,0,0,0-.173-.519l-.025-.016-.081-.052-.583-.379-1.162-.75q-.47-.3-.973-.623l-.42-.267c-3.309-2.1-5.911-3.675-7.735-4.672l-.149-.081-.045-.024c-.132-.071-.383-.2-.732-.369A.421.421,0,0,0,1771.811,1057.744Z" transform="translate(-1770.719 -1057.041)" fill="#151f2c"/>
          </g>
          <path id="Path_2051" data-name="Path 2051" d="M1371.314,1092.559l1.289,4.269-7.051.167a.418.418,0,0,1-.255-.757A33.5,33.5,0,0,1,1371.314,1092.559Z" transform="translate(-1305.81 -1079.489)" fill="#384152"/>
          <g id="Group_2542" data-name="Group 2542" transform="translate(103.878 3.022)">
            <path id="Path_2052" data-name="Path 2052" d="M1600.555,1053.632a1.874,1.874,0,0,1-1.872-1.874v-10.094a1.769,1.769,0,0,1,1.794-1.768c19.284.268,25.256.705,29.043,2.127l.224.084v10.834l-29.142.691Zm-.1-13.047a1.078,1.078,0,0,0-1.079,1.078v10.094a1.183,1.183,0,0,0,1.212,1.183l28.468-.675v-9.679c-3.685-1.308-10.005-1.743-28.586-2Z" transform="translate(-1598.683 -1039.895)" fill="#151f2c"/>
          </g>
          <path id="Path_2053" data-name="Path 2053" d="M1955.853,1135.728H1947.6a4,4,0,0,1-3.145-1.527l-3.12-3.965a.569.569,0,0,1,.448-.92h13.074l-.307.986-1.417-.494.6,2.132-.186.894,1.9.3Z" transform="translate(-1771.981 -1109.231)" fill="#c8817d"/>
          <g id="Group_2543" data-name="Group 2543" transform="translate(101.629 3.194)">
            <rect id="Rectangle_775" data-name="Rectangle 775" width="44.207" height="0.345" transform="translate(0 44.204) rotate(-89.316)" fill="#151f2c"/>
          </g>
          <g id="Group_2544" data-name="Group 2544" transform="translate(46.08 46.757)">
            <rect id="Rectangle_776" data-name="Rectangle 776" width="85.294" height="0.345" transform="translate(0 1.688) rotate(-1.134)" fill="#151f2c"/>
          </g>
          <path id="Path_2054" data-name="Path 2054" d="M1523.492,1154.9c0,.467-2.086.847-4.658.847s-4.659-.379-4.659-.847,2.086-.846,4.659-.846S1523.492,1154.431,1523.492,1154.9Z" transform="translate(-1426.422 -1129.248)" fill="#ed823a"/>
          <path id="Path_2055" data-name="Path 2055" d="M1750.892,1154.9c0,.467-2.086.847-4.658.847s-4.659-.379-4.659-.847,2.086-.846,4.659-.846S1750.892,1154.431,1750.892,1154.9Z" transform="translate(-1610.432 -1129.248)" fill="#384152"/>
          <g id="Group_2545" data-name="Group 2545" transform="translate(127.69 15.373)">
            <path id="Path_2056" data-name="Path 2056" d="M1723.829,1136.2l-.344-.019a18.828,18.828,0,0,1,3.871-11.008,18.283,18.283,0,0,1,7.494-5.426,28.383,28.383,0,0,1,10.374-1.971v-13.145h.346v13.5l-.18-.008a27.888,27.888,0,0,0-10.419,1.946,17.941,17.941,0,0,0-7.349,5.323A18.5,18.5,0,0,0,1723.829,1136.2Z" transform="translate(-1723.484 -1104.627)" fill="#151f2c"/>
          </g>
          <g id="Group_2546" data-name="Group 2546" transform="translate(56.46 17.145)">
            <path id="Path_2057" data-name="Path 2057" d="M1350.189,1145.176a184.381,184.381,0,0,1,1.057-23.9,56.124,56.124,0,0,1,1.255-7.363l.333.093c-.026.091-2.555,9.4-2.3,31.166Z" transform="translate(-1350.171 -1113.912)" fill="#151f2c"/>
          </g>
          <g id="Group_2547" data-name="Group 2547" transform="translate(98.917 3.194)">
            <rect id="Rectangle_777" data-name="Rectangle 777" width="6.75" height="0.345" fill="#151f2c"/>
          </g>
          <path id="Path_2058" data-name="Path 2058" d="M1976.865,1247.435a13.314,13.314,0,0,0-2.112-.72,45.513,45.513,0,0,0-5.413.447,26.851,26.851,0,0,1,3.029-1.788,60.062,60.062,0,0,1,5.912-1.366C1978.021,1244.579,1976.418,1245.53,1976.865,1247.435Z" transform="translate(-1794.739 -1202.041)" fill="#384152"/>
          <path id="Path_2059" data-name="Path 2059" d="M1989.986,1192.351l-4.131-1.714-2.459-3.286,5.514,2.019,2.233.07Z" transform="translate(-1806.113 -1156.194)" fill="#384152"/>
          <path id="Path_2060" data-name="Path 2060" d="M1964.795,1225.985s-3.948-.447-4.843,0-3.129,2.756-2.831,3.278,4.247-1.764,5.737-1.738a55.437,55.437,0,0,0,5.9-.72Z" transform="translate(-1784.829 -1187.296)" fill="#384152"/>
          <path id="Path_2061" data-name="Path 2061" d="M1943.57,1329.743s4.247-1.463,5.29-1.762a19.891,19.891,0,0,1,3.4-.362s-.51,1.306-.28,1.405,1.273.731,1.273.731Z" transform="translate(-1773.886 -1269.698)" fill="#677282"/>
          <path id="Path_2062" data-name="Path 2062" d="M2027.128,1333.176a18.45,18.45,0,0,1,3.477-1.315,33.006,33.006,0,0,1,3.527.657l-.3.669Z" transform="translate(-1841.5 -1273.13)" fill="#677282"/>
          <path id="Path_2063" data-name="Path 2063" d="M1990.934,1135.728h-4.5l-.186-.659,1.677-1.043-2.682-.745-.67-1.229,2.347-1.155-.857-1.582h3.883l-.307.986-1.417-.493.6,2.132-.187.894,1.9.3Z" transform="translate(-1807.061 -1109.231)" fill="#97615d"/>
          <path id="Path_2064" data-name="Path 2064" d="M2004.286,1335.229l.149-.651,1.49-.179.447.843Z" transform="translate(-1823.017 -1275.183)" fill="#de6b4d"/>
          <rect id="Rectangle_778" data-name="Rectangle 778" width="10.952" height="5.744" rx="2.872" transform="translate(64.494 14.295)" fill="#ed823a"/>
        </g>
      </g>
    </g>
  </g>
</svg>
