<svg xmlns="http://www.w3.org/2000/svg" width="25.64" height="19.23" viewBox="0 0 25.64 19.23"><path d="M25.039,10.109h-3l-.833-2.083A5.58,5.58,0,0,0,16,4.5H9.64A5.582,5.582,0,0,0,4.432,8.025L3.6,10.109H.6a.6.6,0,0,0-.583.747l.3,1.2a.6.6,0,0,0,.583.455H1.907A3.183,3.183,0,0,0,.8,14.916v2.4a3.179,3.179,0,0,0,.8,2.1v2.708a1.6,1.6,0,0,0,1.6,1.6h1.6a1.6,1.6,0,0,0,1.6-1.6v-1.6H19.23v1.6a1.6,1.6,0,0,0,1.6,1.6h1.6a1.6,1.6,0,0,0,1.6-1.6V19.42a3.177,3.177,0,0,0,.8-2.1v-2.4a3.184,3.184,0,0,0-1.105-2.4h1.005a.6.6,0,0,0,.583-.455l.3-1.2a.6.6,0,0,0-.583-.747ZM7.408,9.216A2.4,2.4,0,0,1,9.64,7.7H16a2.4,2.4,0,0,1,2.232,1.511l1,2.5H6.41l1-2.5Zm-2.6,8.094a1.512,1.512,0,0,1-1.6-1.6,1.512,1.512,0,0,1,1.6-1.6,3.083,3.083,0,0,1,2.4,2.4C7.211,17.47,5.769,17.31,4.808,17.31Zm16.025,0c-.962,0-2.4.16-2.4-.8a3.083,3.083,0,0,1,2.4-2.4,1.512,1.512,0,0,1,1.6,1.6,1.512,1.512,0,0,1-1.6,1.6Z" transform="translate(0 -4.5)" fill="#000f5f"/></svg>