<svg id="Icon_material-sentiment-neutral" data-name="Icon material-sentiment-neutral" xmlns="http://www.w3.org/2000/svg" width="31.277" height="31.277" viewBox="0 0 31.277 31.277">
  <path id="Path_1826" data-name="Path 1826" d="M13.5,21h9.383v2.346H13.5Z" transform="translate(-2.553 -2.234)" fill="#000f5f"/>
  <path id="Path_1827" data-name="Path 1827" d="M25.692,14.346A2.346,2.346,0,1,1,23.346,12,2.346,2.346,0,0,1,25.692,14.346Z" transform="translate(-2.234 -2.617)" fill="#000f5f"/>
  <path id="Path_1828" data-name="Path 1828" d="M15.192,14.346A2.346,2.346,0,1,1,12.846,12,2.346,2.346,0,0,1,15.192,14.346Z" transform="translate(-2.681 -2.617)" fill="#000f5f"/>
  <path id="Path_1829" data-name="Path 1829" d="M18.623,3A15.639,15.639,0,1,0,34.277,18.639,15.631,15.631,0,0,0,18.623,3Zm.016,28.149A12.511,12.511,0,1,1,31.149,18.639,12.507,12.507,0,0,1,18.639,31.149Z" transform="translate(-3 -3)" fill="#000f5f"/>
</svg>
