<svg xmlns="http://www.w3.org/2000/svg" width="23.796" height="27.244" viewBox="0 0 23.796 27.244">
  <g id="Group_2379" data-name="Group 2379" transform="translate(-1937.204 -1130)">
    <path id="notification_bell" d="M258.368,327.143a1.225,1.225,0,0,1-1.225-1.225V319.8a6.964,6.964,0,0,0-6.123-7.25v-1.321a1.225,1.225,0,1,0-2.449,0v1.321a6.964,6.964,0,0,0-6.123,7.25v6.123a1.225,1.225,0,0,1-1.225,1.225,1.225,1.225,0,1,0,0,2.449h4.9v1.225a3.674,3.674,0,1,0,7.347,0v-1.225h4.9a1.225,1.225,0,1,0,0-2.449Zm-7.347,3.674a1.225,1.225,0,1,1-2.449,0v-1.225h2.449Z" transform="translate(1697.204 822.754)" fill="#000f5f"/>
    <circle id="Ellipse_198" data-name="Ellipse 198" cx="5" cy="5" r="5" transform="translate(1951 1130)" fill="#c10000"/>
  </g>
</svg>
