<svg xmlns="http://www.w3.org/2000/svg" width="19.592" height="24.49" viewBox="0 0 19.592 24.49">
  <path id="notification_bell" d="M258.368,327.143a1.225,1.225,0,0,1-1.225-1.225V319.8a6.964,6.964,0,0,0-6.123-7.25v-1.321a1.225,1.225,0,1,0-2.449,0v1.321a6.964,6.964,0,0,0-6.123,7.25v6.123a1.225,1.225,0,0,1-1.225,1.225,1.225,1.225,0,1,0,0,2.449h4.9v1.225a3.674,3.674,0,1,0,7.347,0v-1.225h4.9a1.225,1.225,0,1,0,0-2.449Zm-7.347,3.674a1.225,1.225,0,1,1-2.449,0v-1.225h2.449Z" transform="translate(-240 -310)" fill="#000f5f"/>
</svg>
