<svg id="patient" xmlns="http://www.w3.org/2000/svg" width="18.5" height="18.5" viewBox="0 0 18.5 18.5">
  <path id="Path_1953" data-name="Path 1953" d="M13.24,22.167a.771.771,0,0,1-.641-.343l-1.313-1.97H9.771a.771.771,0,1,1,0-1.542H11.7a.772.772,0,0,1,.641.343l.8,1.207,1.718-3.437a.772.772,0,0,1,.66-.426.76.76,0,0,1,.691.373L18.3,19.854h1.491a.771.771,0,0,1,0,1.542H17.865a.77.77,0,0,1-.661-.374l-1.59-2.65L13.93,21.741a.772.772,0,0,1-.642.425Z" transform="translate(-2.062 -3.666)" fill="#5fa0bb"/>
  <circle id="Ellipse_206" data-name="Ellipse 206" cx="4" cy="4" r="4" transform="translate(3 0)" fill="#5fa0bb"/>
  <path id="Path_1954" data-name="Path 1954" d="M5.4,18.167a2.315,2.315,0,0,1,2.313-2.313H9.636a2.311,2.311,0,0,1,1.124.291l.662-1.325a2.3,2.3,0,0,1,1.707-1.229A3.842,3.842,0,0,0,10.021,12H3.854A3.855,3.855,0,0,0,0,15.854V18.36a.578.578,0,0,0,.578.578h4.96A2.287,2.287,0,0,1,5.4,18.167Z" transform="translate(0 -2.75)" fill="#5fa0bb"/>
</svg>
