<svg xmlns="http://www.w3.org/2000/svg" width="64.175" height="64.175" viewBox="0 0 64.175 64.175">
  <path id="Icon_awesome-check-circle" data-name="Icon awesome-check-circle" d="M64.737,32.65A32.087,32.087,0,1,1,32.65.563,32.087,32.087,0,0,1,64.737,32.65Zm-35.8,16.99L52.745,25.833a2.07,2.07,0,0,0,0-2.928l-2.928-2.928a2.07,2.07,0,0,0-2.928,0L27.475,39.393,18.41,30.329a2.07,2.07,0,0,0-2.928,0l-2.928,2.928a2.07,2.07,0,0,0,0,2.928L26.011,49.64A2.07,2.07,0,0,0,28.938,49.64Z" transform="translate(-0.563 -0.563)" fill="#40a2be"/>
</svg>
