<svg xmlns="http://www.w3.org/2000/svg" width="13.883" height="16.379" viewBox="0 0 13.883 16.379"><g transform="translate(0 0)"><g transform="translate(0 0)"><path d="M34.171,4.2a3.282,3.282,0,0,0-.682-2.94A5.157,5.157,0,0,0,29.6,0H24.512a.736.736,0,0,0-.735.63l-2.1,13.439a.444.444,0,0,0,.42.525h3.15l-.21,1.365a.372.372,0,0,0,.367.42h2.625a.624.624,0,0,0,.63-.525V15.7l.525-3.15.053-.157a.624.624,0,0,1,.63-.525h.42c2.572,0,4.567-1.05,5.145-4.042a3.443,3.443,0,0,0-.525-3.045,2.552,2.552,0,0,0-.735-.577h0" transform="translate(-21.669)" fill="#26a6d1"/><path d="M34.171,4.2a3.282,3.282,0,0,0-.682-2.94A5.157,5.157,0,0,0,29.6,0H24.512a.736.736,0,0,0-.735.63l-2.1,13.439a.444.444,0,0,0,.42.525h3.15l.787-4.987v.157a.736.736,0,0,1,.735-.63h1.47c2.94,0,5.25-1.207,5.88-4.62,0-.105.053-.21.053-.315" transform="translate(-21.669)" fill="#324d5b"/><path d="M26.874,4.2a.668.668,0,0,1,.367-.472.473.473,0,0,1,.262-.053h3.99a10.224,10.224,0,0,1,1.312.105c.105,0,.21.053.315.053a.746.746,0,0,1,.315.105c.053,0,.105.053.157.053.21.053.367.157.577.21a3.282,3.282,0,0,0-.682-2.94A5.157,5.157,0,0,0,29.6,0H24.512a.736.736,0,0,0-.735.63l-2.1,13.439a.444.444,0,0,0,.42.525h3.15l.787-4.987Z" transform="translate(-21.669)" fill="#324d5b"/></g></g></svg>