<svg xmlns="http://www.w3.org/2000/svg" width="20" height="20" viewBox="0 0 20 20">
  <path id="Path_1880" data-name="Path 1880" d="M297.83,707H282.17a2.169,2.169,0,0,0-2.17,2.17v15.66a2.169,2.169,0,0,0,2.17,2.17h15.66a2.169,2.169,0,0,0,2.17-2.17V709.17A2.169,2.169,0,0,0,297.83,707Zm-13.363,4.977a1,1,0,0,1,1-1h4a1,1,0,0,1,1,1v2a1,1,0,0,1-1,1h-4a1,1,0,0,1-1-1Zm11,11h-10a1,1,0,0,1,0-2h10a1,1,0,0,1,0,2Zm0-4h-10a1,1,0,0,1,0-2h10a1,1,0,0,1,0,2Z" transform="translate(-280 -707)" fill="#d1d7db"/>
</svg>
