<svg xmlns="http://www.w3.org/2000/svg" width="15.941" height="20.724" viewBox="0 0 15.941 20.724">
  <path id="Icon_ionic-ios-lock" data-name="Icon ionic-ios-lock" d="M20.7,10.548H19.5V8.222a4.782,4.782,0,1,0-9.565-.065v2.391h-1.2A2,2,0,0,0,6.75,12.541v9.565A2,2,0,0,0,8.743,24.1H20.7a2,2,0,0,0,1.993-1.993V12.541A2,2,0,0,0,20.7,10.548Zm-5.28,6.217v3.427a.714.714,0,0,1-.663.717.7.7,0,0,1-.732-.7V16.765a1.594,1.594,0,1,1,1.395,0Zm2.69-6.217H11.333V8.157a3.387,3.387,0,0,1,6.775,0Z" transform="translate(-6.75 -3.374)" fill="#000f5f"/>
</svg>
