<svg xmlns="http://www.w3.org/2000/svg" xmlns:xlink="http://www.w3.org/1999/xlink" width="140.962" height="140.961" viewBox="0 0 140.962 140.961"><defs><linearGradient id="a" x1="-0.184" y1="-0.149" x2="1.245" y2="1.047" gradientUnits="objectBoundingBox"><stop offset="0" stop-color="#000252"/><stop offset="1" stop-color="#40a2be"/></linearGradient></defs><path d="M46.621,10.738H11.381v35.24h35.24Zm8.81-8.81V54.789H2.571V1.928Zm-35.24,17.62h17.62v17.62H20.191Zm114.531-8.81H99.482v35.24h35.24V10.738Zm8.81-8.81V54.789H90.672V1.928h52.861Zm-35.24,17.62h17.62v17.62h-17.62ZM46.621,98.839H11.381v35.24h35.24Zm8.81-8.81V142.89H2.571V90.029Zm-35.24,17.62h17.62v17.62H20.191ZM64.241,1.928h8.81v8.81h-8.81Zm8.81,8.81h8.81v8.81h-8.81Zm-8.81,8.81h8.81v8.81h-8.81Zm8.81,8.81h8.81v8.81h-8.81Zm-8.81,8.81h8.81v8.81h-8.81Zm8.81,8.81h8.81v8.81h-8.81Zm-8.81,8.81h8.81V63.6h-8.81Zm0,17.62h8.81v8.81h-8.81Zm8.81,8.81h8.81v8.81h-8.81Zm-8.81,8.81h8.81v8.81h-8.81Zm8.81,8.81h8.81v8.81h-8.81Zm-8.81,8.81h8.81v8.81h-8.81Zm8.81,8.81h8.81v8.81h-8.81Zm-8.81,8.81h8.81v8.81h-8.81Zm8.81,8.81h8.81v8.81h-8.81Zm61.671-61.671h8.81v8.81h-8.81Zm-123.341,0h8.81v8.81h-8.81Zm8.81-8.81H29v8.81h-8.81Zm-17.62,0h8.81v8.81H2.571Zm35.24,0h8.81v8.81h-8.81Zm8.81,8.81h8.81v8.81h-8.81Zm8.81-8.81h8.81v8.81h-8.81Zm26.43,8.81h8.81v8.81h-8.81Zm8.81-8.81h8.81v8.81h-8.81Zm8.81,8.81h8.81v8.81h-8.81Zm8.81-8.81h8.81v8.81h-8.81Zm8.81,8.81h8.81v8.81H117.1Zm8.81-8.81h8.81v8.81h-8.81Zm8.81,26.43h8.81v8.81h-8.81Zm-52.861,0h8.81v8.81h-8.81Zm8.81-8.81h8.81v8.81h-8.81Zm8.81,8.81h8.81v8.81h-8.81Zm17.62,0h8.81v8.81H117.1Zm8.81-8.81h8.81v8.81h-8.81Zm8.81,26.43h8.81v8.81h-8.81Zm-52.861,0h8.81v8.81h-8.81Zm8.81-8.81h8.81v8.81h-8.81Zm17.62,0h8.81v8.81h-8.81Zm8.81,8.81h8.81v8.81H117.1Zm8.81-8.81h8.81v8.81h-8.81Zm8.81,26.43h8.81v8.81h-8.81Zm-44.05-8.81h8.81v8.81h-8.81Zm8.81,8.81h8.81v8.81h-8.81Zm8.81-8.81h8.81v8.81h-8.81Zm8.81,8.81h8.81v8.81H117.1Zm-26.43,8.81h8.81v8.81h-8.81Zm17.62,0h8.81v8.81h-8.81Zm17.62,0h8.81v8.81h-8.81Z" transform="translate(-2.571 -1.928)" fill="url(#a)"/></svg>