<svg id="Group_3040" data-name="Group 3040" xmlns="http://www.w3.org/2000/svg" width="20.978" height="28.465" viewBox="0 0 20.978 28.465">
  <path id="Icon_ionic-ios-star" data-name="Icon ionic-ios-star" d="M17.1,5.713H11.264L9.491.421a.643.643,0,0,0-1.206,0L6.511,5.713H.635A.637.637,0,0,0,0,6.348a.467.467,0,0,0,.012.107A.61.61,0,0,0,.278,6.9l4.8,3.38L3.234,15.636a.637.637,0,0,0,.218.714.614.614,0,0,0,.357.155.778.778,0,0,0,.4-.143l4.682-3.337,4.682,3.337a.743.743,0,0,0,.4.143.57.57,0,0,0,.353-.155.629.629,0,0,0,.218-.714L12.7,10.284l4.757-3.412.115-.1a.666.666,0,0,0,.206-.425A.672.672,0,0,0,17.1,5.713Z" transform="translate(0 12.082) rotate(-7)" fill="#03115b"/>
  <path id="Icon_ionic-ios-star-2" data-name="Icon ionic-ios-star" d="M5.887,1.967H3.878L3.267.145a.221.221,0,0,0-.415,0L2.242,1.967H.219A.219.219,0,0,0,0,2.186a.161.161,0,0,0,0,.037A.21.21,0,0,0,.1,2.377L1.747,3.541,1.113,5.383a.219.219,0,0,0,.075.246.211.211,0,0,0,.123.053.268.268,0,0,0,.137-.049L3.06,4.484,4.672,5.633a.256.256,0,0,0,.137.049.2.2,0,0,0,.122-.053A.217.217,0,0,0,5,5.383L4.371,3.541,6.009,2.366l.04-.034a.229.229,0,0,0,.071-.146A.231.231,0,0,0,5.887,1.967Z" transform="translate(14.951 7.078) rotate(10)" fill="#03115b"/>
  <path id="Icon_ionic-ios-star-3" data-name="Icon ionic-ios-star" d="M7.576,2.531H4.99L4.2.186a.285.285,0,0,0-.534,0L2.884,2.531H.281A.282.282,0,0,0,0,2.812a.207.207,0,0,0,.005.047.27.27,0,0,0,.118.2l2.125,1.5L1.433,6.927a.282.282,0,0,0,.1.316.272.272,0,0,0,.158.069.345.345,0,0,0,.176-.063L3.937,5.771,6.011,7.249a.329.329,0,0,0,.176.063.253.253,0,0,0,.156-.069.279.279,0,0,0,.1-.316L5.625,4.556,7.732,3.044,7.783,3a.3.3,0,0,0,.091-.188A.3.3,0,0,0,7.576,2.531Z" transform="matrix(0.974, -0.225, 0.225, 0.974, 6.713, 1.771)" fill="#03115b"/>
</svg>
