<svg xmlns="http://www.w3.org/2000/svg" width="23" height="23" viewBox="0 0 23 23"><path d="M0,18.207v1.918C0,21.711,3.863,23,8.625,23s8.625-1.289,8.625-2.875V18.207C15.395,19.514,12,20.125,8.625,20.125S1.855,19.514,0,18.207ZM14.375,5.75C19.137,5.75,23,4.461,23,2.875S19.137,0,14.375,0,5.75,1.289,5.75,2.875,9.613,5.75,14.375,5.75ZM0,13.495v2.318c0,1.586,3.863,2.875,8.625,2.875S17.25,17.4,17.25,15.812V13.495C15.395,15.022,12,15.812,8.625,15.812S1.855,15.022,0,13.495Zm18.688.494C21.262,13.49,23,12.565,23,11.5V9.582a11.031,11.031,0,0,1-4.312,1.55ZM8.625,7.187C3.863,7.187,0,8.8,0,10.781s3.863,3.594,8.625,3.594,8.625-1.608,8.625-3.594S13.387,7.187,8.625,7.187Zm9.851,2.529C21.172,9.231,23,8.279,23,7.187V5.269C21.405,6.4,18.665,7,15.781,7.147A5.031,5.031,0,0,1,18.476,9.717Z" fill="#000f5f"/></svg>