<svg id="Layer_2" data-name="Layer 2" xmlns="http://www.w3.org/2000/svg" width="56.941" height="56.822" viewBox="0 0 56.941 56.822">
  <g id="Layer_1" data-name="Layer 1" transform="translate(0 0)">
    <path id="Path_1681" data-name="Path 1681" d="M3.056,219.793c0,1.295-.024,2.59,0,3.884a5.31,5.31,0,0,0,5.471,5.409c2.166.023,4.333-.014,6.5.023a1.643,1.643,0,0,1,1.13.4,1.526,1.526,0,0,1,.327,1.255c-.157.41-.685.959-1.056.962a56.528,56.528,0,0,1-8.711-.213,7.658,7.658,0,0,1-6.34-7.551C.3,221.2.349,218.437.361,215.673A1.37,1.37,0,0,1,1.718,214.2a1.362,1.362,0,0,1,1.331,1.488c.014,1.369,0,2.739,0,4.108Z" transform="translate(-0.274 -174.994)" fill="#6e8694"/>
    <path id="Path_1682" data-name="Path 1682" d="M238.206,219.908a42.653,42.653,0,0,1-.3,5.43,7.883,7.883,0,0,1-7.6,6.422c-2.313.085-4.631.036-6.946.023a1.377,1.377,0,0,1-1.487-1.35,1.356,1.356,0,0,1,1.476-1.343c2.116-.014,4.233,0,6.35-.007a5.35,5.35,0,0,0,5.721-5.69c.011-2.515,0-5.03,0-7.545,0-1.024.5-1.642,1.311-1.66.835-.018,1.38.634,1.385,1.681.007,1.345,0,2.689,0,4.034Z" transform="translate(-181.266 -174.988)" fill="#6e8694"/>
    <path id="Path_1683" data-name="Path 1683" d="M0,11.153A36.444,36.444,0,0,1,.3,6.47,7.9,7.9,0,0,1,7.832.067c2.337-.092,4.68-.039,7.02-.027A1.374,1.374,0,0,1,16.329,1.4a1.361,1.361,0,0,1-1.486,1.334c-2.116.014-4.233,0-6.349.007a5.351,5.351,0,0,0-5.711,5.7c-.009,2.042,0,4.083,0,6.125,0,1.085-.488,1.71-1.325,1.72C.6,16.294.084,15.64.081,14.518s0-2.241,0-3.361Z" transform="translate(0 -0.011)" fill="#6e8694"/>
    <path id="Path_1684" data-name="Path 1684" d="M238.078,11.235c0,1.145.008,2.291,0,3.436-.009.984-.572,1.622-1.387,1.6-.794-.02-1.3-.627-1.308-1.587-.007-2.017,0-4.034,0-6.05,0-3.738-2.161-5.9-5.877-5.907-2.067,0-4.133.013-6.2-.008-1.129-.011-1.835-1.018-1.3-1.906a1.612,1.612,0,0,1,1.1-.747,68.4,68.4,0,0,1,7.906.1,7.879,7.879,0,0,1,7.066,7.861c.031,1.07,0,2.141,0,3.212Z" transform="translate(-181.221 0)" fill="#6e8694"/>
    <path id="Path_1685" data-name="Path 1685" d="M113.788,219.6a14.522,14.522,0,0,1-8.747-2.464,6.518,6.518,0,0,1-.7-.558,1.361,1.361,0,0,1-.187-1.879,1.293,1.293,0,0,1,1.922-.166,9.536,9.536,0,0,0,4.341,2.043c3.668.7,7.132.344,10.177-2.072a1.3,1.3,0,0,1,1.918.216,1.373,1.373,0,0,1-.288,1.927,12.411,12.411,0,0,1-6.205,2.727C115.138,219.515,114.24,219.555,113.788,219.6Z" transform="translate(-84.852 -174.978)" fill="#6e8694"/>
    <path id="Path_1686" data-name="Path 1686" d="M140.139,110.489c0,1.693.009,3.387,0,5.08a4.038,4.038,0,0,1-4.188,4.189c-.423,0-.848.016-1.27-.008a1.3,1.3,0,0,1-1.291-1.278,1.326,1.326,0,0,1,1.259-1.4c.4-.035.8-.007,1.195-.012,1.108-.016,1.6-.492,1.6-1.6.007-3.436,0-6.873,0-10.309,0-.9.38-1.439,1.067-1.569a1.335,1.335,0,0,1,1.623,1.452C140.148,106.853,140.139,108.671,140.139,110.489Z" transform="translate(-108.973 -84.601)" fill="#6e8694"/>
    <path id="Path_1687" data-name="Path 1687" d="M81.764,106.916c0-.671-.023-1.343.006-2.012a1.33,1.33,0,0,1,2.655-.106c.057,1.438.058,2.882,0,4.32A1.286,1.286,0,0,1,83,110.339,1.308,1.308,0,0,1,81.768,109c-.028-.694-.006-1.391-.006-2.087Z" transform="translate(-66.791 -84.62)" fill="#6e8694"/>
    <path id="Path_1688" data-name="Path 1688" d="M217.2,106.944c0,.671.021,1.342-.005,2.012a1.339,1.339,0,1,1-2.677.029q-.059-2.048,0-4.1a1.34,1.34,0,1,1,2.68.045c0,.05,0,.1,0,.149q0,.932,0,1.863Z" transform="translate(-175.23 -84.605)" fill="#6e8694"/>
  </g>
</svg>
