<svg xmlns="http://www.w3.org/2000/svg" width="18.592" height="18.597" viewBox="0 0 18.592 18.597"><path d="M21.557,13.8a2.392,2.392,0,0,1,1.535-2.232A9.483,9.483,0,0,0,21.945,8.8a2.425,2.425,0,0,1-.973.208,2.387,2.387,0,0,1-2.184-3.36A9.455,9.455,0,0,0,16.028,4.5a2.39,2.39,0,0,1-4.464,0A9.483,9.483,0,0,0,8.8,5.647a2.387,2.387,0,0,1-2.184,3.36A2.346,2.346,0,0,1,5.643,8.8,9.693,9.693,0,0,0,4.5,11.569a2.392,2.392,0,0,1,0,4.464A9.483,9.483,0,0,0,5.652,18.8,2.388,2.388,0,0,1,8.8,21.95,9.539,9.539,0,0,0,11.569,23.1a2.386,2.386,0,0,1,4.454,0,9.483,9.483,0,0,0,2.765-1.147A2.391,2.391,0,0,1,21.94,18.8a9.538,9.538,0,0,0,1.147-2.765A2.4,2.4,0,0,1,21.557,13.8ZM13.84,17.665a3.873,3.873,0,1,1,3.873-3.873A3.872,3.872,0,0,1,13.84,17.665Z" transform="translate(-4.5 -4.5)" fill="#000f5f"/></svg>