<svg xmlns="http://www.w3.org/2000/svg" width="37.177" height="50.445" viewBox="0 0 37.177 50.445"><g transform="translate(-85.036 -154.021)"><path d="M32.555,13.5H22.212L19.069,4.12a1.139,1.139,0,0,0-2.138,0L13.788,13.5H3.375A1.128,1.128,0,0,0,2.25,14.625a.827.827,0,0,0,.021.19,1.081,1.081,0,0,0,.471.795l8.5,5.991L7.98,31.085a1.128,1.128,0,0,0,.387,1.266A1.088,1.088,0,0,0,9,32.625a1.378,1.378,0,0,0,.7-.253L18,26.459l8.3,5.913a1.318,1.318,0,0,0,.7.253,1.01,1.01,0,0,0,.626-.274,1.114,1.114,0,0,0,.387-1.266L24.75,21.6l8.43-6.047.2-.176a1.18,1.18,0,0,0,.366-.752A1.191,1.191,0,0,0,32.555,13.5Z" transform="translate(82.392 172.358) rotate(-7)" fill="#000f5f"/><path d="M12.683,6.861H9.122L8.04,3.632a.392.392,0,0,0-.736,0L6.222,6.861H2.637a.388.388,0,0,0-.387.387.285.285,0,0,0,.007.065.372.372,0,0,0,.162.274L5.346,9.649,4.223,12.915a.388.388,0,0,0,.133.436.375.375,0,0,0,.218.094.475.475,0,0,0,.242-.087l2.856-2.036,2.856,2.036a.454.454,0,0,0,.242.087.348.348,0,0,0,.215-.094.384.384,0,0,0,.133-.436L10,9.649l2.9-2.082.07-.061a.37.37,0,0,0-.286-.646Z" transform="translate(109.903 162.852) rotate(10)" fill="#000f5f"/><path d="M15.675,7.861H11.093L9.7,3.705a.5.5,0,0,0-.947,0L7.362,7.861H2.748a.5.5,0,0,0-.5.5.366.366,0,0,0,.009.084.479.479,0,0,0,.209.352l3.766,2.654-1.445,4.2a.5.5,0,0,0,.171.561.482.482,0,0,0,.28.121.611.611,0,0,0,.311-.112L9.227,13.6l3.676,2.62a.584.584,0,0,0,.311.112.448.448,0,0,0,.277-.121.494.494,0,0,0,.171-.561l-1.445-4.2L15.953,8.77l.09-.078a.476.476,0,0,0-.368-.832Z" transform="matrix(0.974, -0.225, 0.225, 0.974, 93.981, 154.378)" fill="#000f5f"/></g></svg>