<svg xmlns="http://www.w3.org/2000/svg" width="14.769" height="19.692" viewBox="0 0 14.769 19.692">
  <path id="Icon_awesome-clipboard-check" data-name="Icon awesome-clipboard-check" d="M12.923,2.461H9.846a2.461,2.461,0,1,0-4.923,0H1.846A1.847,1.847,0,0,0,0,4.308V17.846a1.847,1.847,0,0,0,1.846,1.846H12.923a1.847,1.847,0,0,0,1.846-1.846V4.308A1.847,1.847,0,0,0,12.923,2.461ZM7.384,1.538a.923.923,0,1,1-.923.923A.921.921,0,0,1,7.384,1.538Zm4.661,8.915-5.5,5.454a.462.462,0,0,1-.654,0L2.715,12.7a.462.462,0,0,1,0-.654l1.092-1.085a.462.462,0,0,1,.654,0L6.234,12.75,10.311,8.7a.462.462,0,0,1,.654,0L12.05,9.8A.462.462,0,0,1,12.046,10.454Z" fill="#000f5f"/>
</svg>
