<svg xmlns="http://www.w3.org/2000/svg" width="20.035" height="20.354" viewBox="0 0 20.035 20.354">
  <path id="Path_1941" data-name="Path 1941" d="M23.44,10.217a.6.6,0,0,0-.6.6v4.829H21.357a1.877,1.877,0,0,0-1.748-2.554H11.587V2.474H14.86V3.831h-.678a.6.6,0,0,0-.6.6V7.623a.6.6,0,0,0,.6.6h2.554a.6.6,0,0,0,.6-.6V4.43a.6.6,0,0,0-.6-.6h-.678V1.876a.6.6,0,0,0-.6-.6H11.587V.6a.6.6,0,1,0-1.2,0V13.091H8.905a1.877,1.877,0,0,0-1.748-2.554H5.2V7.623a.6.6,0,1,0-1.2,0V19.756a.6.6,0,1,0,1.2,0V16.842H10.39v1.289l-1.933,1.1a.6.6,0,0,0,.3,1.119c.216,0,.149.005,2.234-1.186,2.148,1.228,2.022,1.186,2.234,1.186a.6.6,0,0,0,.3-1.119l-1.933-1.1V16.842H22.842v2.913a.6.6,0,1,0,1.2,0v-8.94a.6.6,0,0,0-.6-.6Z" transform="translate(-4.004)" fill="#5fa0bb"/>
</svg>
