<svg xmlns="http://www.w3.org/2000/svg" xmlns:xlink="http://www.w3.org/1999/xlink" width="379.247" height="263.79" viewBox="0 0 379.247 263.79">
  <defs>
    <clipPath id="clip-path">
      <path id="Path_1033" d="M1296.94,540.445c-7.621-30.859,14.245-74.326,61.63-79.482s43.438,10.785,74.579,16.737c33.476,6.4,67.49-6.472,83.544,9.494,33.629,33.443,16.414,71.487-9.231,88.926s-76.04,44.242-140.967,32.494S1300.129,553.361,1296.94,540.445Z" transform="translate(-1295.454 -459.952)" fill="#dcf1ff"/>
    </clipPath>
    <clipPath id="clip-path-2">
      <path id="Path_1037" d="M991.641,1136.957S970.6,1099.946,932.563,1098c0,0-4.639,33.683,23.28,66.862,26.084,31,46.947,31.832,46.947,31.832S1011.513,1171.683,991.641,1136.957Z" transform="translate(-932.274 -1098)" fill="#4949a5"/>
    </clipPath>
    <clipPath id="clip-path-3">
      <path id="Path_1045" d="M1627.137,1097.5H1520.3a10.189,10.189,0,0,0-6.5,2.33h0l-25.247,16.723a10.235,10.235,0,0,0-6.11,9.369v106.862a10.233,10.233,0,0,0,10.232,10.246h106.843a10.2,10.2,0,0,0,7.522-3.3l24.213-15.756a10.216,10.216,0,0,0,2.772-1.8h0a10.207,10.207,0,0,0,3.344-7.568V1107.743A10.233,10.233,0,0,0,1627.137,1097.5Z" transform="translate(-1482.44 -1097.5)" fill="#0ab9b4"/>
    </clipPath>
    <clipPath id="clip-path-4">
      <path id="Path_1129" d="M2610.572,800.8c-.056-.876-4.244-2.815-10.7-.541s-25.94,24.825-47.229,20.215-22.558,27.913-3.837,33.673,52.523-8.582,61.175-18.348,9.637-15.3,10.362-22.884C2621.442,801.439,2610.572,800.8,2610.572,800.8Z" transform="translate(-2535.66 -799.19)" fill="#2e4dce"/>
    </clipPath>
    <clipPath id="clip-path-5">
      <path id="Path_1136" d="M3110.178,1550.66l-.485,1.729a18.178,18.178,0,0,1-.613,4.144c-.494,1.262-8.669,16.558,0,25.1s45.324,12.815,45.324,12.815.878-14.739,10.975-16.309c0,0-23.429-17.249-29.246-19.411l-3.967-7.335Z" transform="translate(-3105.115 -1550.66)" fill="#080887"/>
    </clipPath>
    <clipPath id="clip-path-6">
      <path id="Path_1141" d="M2898.1,1139.778h0a42.236,42.236,0,0,0-9.948.956c-4.684,1.111-21.927,17.526-21.927,17.526s-.057,5.031,8.057,5.891c0,0,12.321-10.471,13.792-9.615s7.132,28.935,7.132,28.935,12.413,7.545,22.476-1c0,0-1.143-7.115-1.865-16.538-.073-.966.1-.646,1.4-2.114l1.278,3.167s7.686,1.144,9.092-6.017c0,0-7.006-15.234-9.253-17.787s-10.553-3.234-14.756-3.193Z" transform="translate(-2866.229 -1139.766)" fill="#fff"/>
    </clipPath>
    <clipPath id="clip-path-7">
      <path id="Path_1145" d="M3133.93,936.988a13.621,13.621,0,0,0,.2-5.073,9.779,9.779,0,0,1-4.616-6.974c-.3-3.627-.622-7.812-.622-7.812s1.712-2.187,5.1-.464,7.206-1.4,9.166-2.764a7.165,7.165,0,0,0,2.707,3.841l1.3,1s-.872,11.749-7.291,13.1l-.317,5.548A4.161,4.161,0,0,1,3133.93,936.988Z" transform="translate(-3128.89 -913.9)" fill="#f8b3a3"/>
    </clipPath>
  </defs>
  <g id="HL_M51_08" transform="translate(-80.78 -65.659)">
    <ellipse id="Ellipse_18" cx="27.857" cy="5.418" rx="27.857" ry="5.418" transform="translate(112.769 299.923)" fill="rgba(0,0,0,0.22)"/>
    <ellipse id="Ellipse_19" cx="86.624" cy="33.278" rx="86.624" ry="33.278" transform="translate(172.486 261.771)" fill="rgba(0,0,0,0.22)"/>
    <ellipse id="Ellipse_20" cx="30.308" cy="10.97" rx="30.308" ry="10.97" transform="translate(366.081 307.508)" fill="rgba(0,0,0,0.22)"/>
    <ellipse id="Ellipse_21" cx="30.308" cy="10.97" rx="30.308" ry="10.97" transform="translate(337.858 292.263)" fill="rgba(0,0,0,0.22)"/>
    <path id="Path_1028" d="M2187.4,486.569a.755.755,0,0,1-.11,0c-.1,0-10.81-.156-25.506-1.644-13.572-1.374-33.436-4.2-50.986-9.847-17.163-5.527-28.209-6.512-34.45-6.366-6.743.159-9.47,1.635-9.5,1.652a.932.932,0,0,1-.919-1.619c.12-.068,3-1.682,10.1-1.888a74.249,74.249,0,0,1,13.954,1.1,149.788,149.788,0,0,1,21.389,5.351c17.4,5.6,37.12,8.4,50.6,9.767,14.616,1.479,25.233,1.635,25.343,1.635a.932.932,0,0,1,.085,1.858Z" transform="translate(-1824.783 -400.473)" fill="#d4f0ff"/>
    <path id="Path_1029" d="M1296.94,540.445c-7.621-30.859,14.245-74.326,61.63-79.482s43.438,10.785,74.579,16.737c33.476,6.4,67.49-6.472,83.544,9.494,33.629,33.443,16.414,71.487-9.231,88.926s-76.04,44.242-140.967,32.494S1300.129,553.361,1296.94,540.445Z" transform="translate(-1133.418 -394.293)" fill="#dcf1ff"/>
    <g id="Group_1719" transform="translate(162.036 65.659)" clip-path="url(#clip-path)">
      <g id="Group_1716" transform="translate(-15.43 5.756)" opacity="0.39">
        <path id="Path_1030" d="M1165.782,516.29s4.23,32.75,47.683,35.475,84.5-14.649,104.665-1.035,87.53-29.321,87.53-29.321l9.592,78.854-17.566,55.315L1285.608,670.3s-112.154-13.649-112.378-15.514-28.81-115.2-28.81-115.2Z" transform="translate(-1144.42 -516.29)" fill="#71a6f4"/>
      </g>
      <g id="Group_1717" transform="translate(-21.95 38.66)" opacity="0.39">
        <path id="Path_1031" d="M1101.961,838.37s4.23,32.751,47.683,35.476,84.5-14.65,104.665-1.035,87.53-29.321,87.53-29.321l9.593,78.854-17.567,55.314-112.077,14.724s-112.155-13.649-112.379-15.514-28.81-115.2-28.81-115.2Z" transform="translate(-1080.6 -838.37)" fill="#71a6f4"/>
      </g>
      <g id="Group_1718" transform="translate(-19.874 67.228)" opacity="0.39">
        <path id="Path_1032" d="M1122.28,1118s4.228,32.75,47.682,35.476,84.5-14.65,104.667-1.036,87.529-29.321,87.529-29.321l9.594,78.858-17.564,55.309-112.08,14.723s-112.154-13.649-112.378-15.515-28.81-115.2-28.81-115.2Z" transform="translate(-1100.92 -1118)" fill="#71a6f4"/>
      </g>
    </g>
    <rect id="Rectangle_560" width="379.247" height="3.427" transform="translate(80.78 270.307)"/>
    <path id="Path_1034" d="M913.953,1568.276s-26.391-18.381-52.953-7.322c0,0,7.8,24.473,37.633,38,27.872,12.639,42.366,6.415,42.366,6.415S938.8,1585.479,913.953,1568.276Z" transform="translate(-743.349 -1354.669)" fill="#5d83ce"/>
    <path id="Path_1035" d="M991.641,1136.957S970.6,1099.946,932.563,1098c0,0-4.639,33.683,23.28,66.862,26.084,31,46.947,31.832,46.947,31.832S1011.513,1171.683,991.641,1136.957Z" transform="translate(-807.341 -946.977)" fill="#4949a5"/>
    <g id="Group_1720" transform="translate(124.933 151.023)" clip-path="url(#clip-path-2)">
      <path id="Path_1036" d="M1113.169,1328.916a.639.639,0,0,1-.589-.393l-2.331-5.633c-.4-.683-6.206-10.538-15.878-25.315-9.21-14.07-23.906-35.606-41.637-58.306a.638.638,0,1,1,1.005-.785c17.757,22.737,32.481,44.309,41.7,58.4,10,15.271,15.87,25.3,15.928,25.4a.569.569,0,0,1,.039.078l2.35,5.673a.636.636,0,0,1-.588.882Z" transform="translate(-1040.306 -1223.911)" fill="#fff"/>
    </g>
    <path id="Path_1038" d="M3258.8,641.491a4.559,4.559,0,1,1,2.708-.892A4.559,4.559,0,0,1,3258.8,641.491Zm-.01-8.344a1.906,1.906,0,1,1,0,.005Z" transform="translate(-2892.093 -549.1)" fill="#99ebe9"/>
    <path id="Path_1039" d="M2952.364,731.62l-2.854,8.756,10.2-1.516Z" transform="translate(-2618.491 -638.207)" fill="#0ab9b4"/>
    <path id="Path_1040" d="M3117.657,657.519h-.009l-5.39-.132a.392.392,0,0,1-.337-.575l2.828-5.338a.394.394,0,0,1,.346-.2h.01a.394.394,0,0,1,.345.226l2.561,5.468a.393.393,0,0,1-.355.56Zm-4.747-.9,4.121.1-1.96-4.181Z" transform="translate(-2764.27 -566.066)" fill="#4f4085"/>
    <rect id="Rectangle_561" width="4.374" height="4.373" transform="translate(373.824 99.148) rotate(-66.48)" fill="#073163"/>
    <path id="Path_1041" d="M3368.944,751.082a.4.4,0,0,1-.156-.033l-4.01-1.746a.391.391,0,0,1-.2-.216.4.4,0,0,1,0-.3l1.746-4.01a.392.392,0,0,1,.516-.2l4.005,1.751a.392.392,0,0,1,.2.517l-1.745,4.01a.393.393,0,0,1-.359.236Zm-3.493-2.342,3.29,1.43,1.43-3.291-3.29-1.43Z" transform="translate(-2991.127 -649.808)" fill="#fff"/>
    <path id="Path_1042" d="M1399.22,1592.064a3.648,3.648,0,0,1-.772-5.1l4.072-5.528a3.645,3.645,0,1,1,5.87,4.323l-4.073,5.528A3.645,3.645,0,0,1,1399.22,1592.064Zm7.178-9.744a1.6,1.6,0,0,0-2.227.338l-4.072,5.528a1.593,1.593,0,1,0,2.564,1.89l4.073-5.528A1.6,1.6,0,0,0,1406.4,1582.319Z" transform="translate(-1225.253 -1378.805)" fill="#1d4fbf"/>
    <path id="Path_1043" d="M1627.137,1097.5H1520.3a10.189,10.189,0,0,0-6.5,2.33h0l-25.247,16.723a10.235,10.235,0,0,0-6.11,9.369v106.862a10.233,10.233,0,0,0,10.232,10.246h106.843a10.2,10.2,0,0,0,7.522-3.3l24.213-15.756a10.216,10.216,0,0,0,2.772-1.8h0a10.207,10.207,0,0,0,3.344-7.568V1107.743A10.233,10.233,0,0,0,1627.137,1097.5Z" transform="translate(-1301.301 -927.68)" fill="#0ab9b4"/>
    <g id="Group_1721" transform="translate(181.139 169.82)" clip-path="url(#clip-path-3)">
      <path id="Path_1044" d="M2642.22,1123.308l37.234-25.808,4.867,144.845-38.847,8.274Z" transform="translate(-2523.734 -1097.5)" fill="#0ab9b4"/>
    </g>
    <path id="Path_1046" d="M1599.516,1402.971H1492.672a10.233,10.233,0,0,1-10.232-10.234V1285.874a10.234,10.234,0,0,1,10.234-10.235h106.842a10.233,10.233,0,0,1,10.233,10.234v106.863a10.234,10.234,0,0,1-10.234,10.235Z" transform="translate(-1301.301 -1087.62)" fill="#99ebe9"/>
    <rect id="Rectangle_562" width="112.077" height="112.1" rx="56.039" transform="translate(188.754 195.628)" fill="#c8fbfa"/>
    <g id="Group_1722" transform="translate(178.056 221.671)" opacity="0.12">
      <path id="Path_1047" d="M1843.7,1928.345a3.48,3.48,0,0,1-4.616,1.693l-5.944-2.758a3.477,3.477,0,1,1,2.924-6.31l5.943,2.758A3.482,3.482,0,0,1,1843.7,1928.345Zm-10.477-4.856a1.524,1.524,0,0,0,.741,2.019l5.943,2.758a1.52,1.52,0,1,0,1.278-2.758l-5.944-2.758a1.521,1.521,0,0,0-2.018.741Z" transform="translate(-1792.422 -1901.349)" fill="#490c1d"/>
      <path id="Path_1048" d="M1710.8,1861.969a3.48,3.48,0,0,1-4.634,1.643l-5.912-2.813a3.48,3.48,0,1,1,3-6.283l5.912,2.818a3.482,3.482,0,0,1,1.639,4.635ZM1700.375,1857a1.521,1.521,0,0,0,.715,2.026l5.913,2.819a1.52,1.52,0,0,0,1.307-2.744l-5.912-2.819a1.521,1.521,0,0,0-2.025.718Z" transform="translate(-1673.134 -1841.668)" fill="#490c1d"/>
      <path id="Path_1049" d="M1580.319,1803.948a3.48,3.48,0,0,1-4.614,1.7l-5.947-2.747a3.477,3.477,0,1,1,2.917-6.314l5.946,2.748A3.482,3.482,0,0,1,1580.319,1803.948Zm-10.482-4.844a1.524,1.524,0,0,0,.742,2.018l5.947,2.747a1.52,1.52,0,0,0,1.275-2.758l-5.949-2.749A1.521,1.521,0,0,0,1569.837,1799.1Z" transform="translate(-1555.942 -1789.672)" fill="#490c1d"/>
      <path id="Path_1050"  d="M1464.275,1740.493a3.479,3.479,0,0,1-4.784,1.132l-5.574-3.443a3.477,3.477,0,0,1,3.654-5.916l5.573,3.442A3.481,3.481,0,0,1,1464.275,1740.493Zm-9.824-6.065a1.522,1.522,0,0,0,.494,2.092l5.573,3.443a1.52,1.52,0,1,0,1.6-2.587l-5.573-3.443a1.521,1.521,0,0,0-2.091.5Z" transform="translate(-1452.267 -1731.747)" fill="#490c1d"/>
      <path id="Path_1051"  d="M1916.341,1971.835a1.223,1.223,0,0,1-1.55.741l-8.667-3.839a1.321,1.321,0,0,1,1.057-2.387l8.666,3.838A1.224,1.224,0,0,1,1916.341,1971.835Z" transform="translate(-1859.199 -1942.308)" fill="#490c1d"/>
      <path id="Path_1052"  d="M1784.328,1907.634a1.221,1.221,0,0,1-1.584.662l-8.462-4.269a1.321,1.321,0,0,1,1.176-2.329l8.462,4.268A1.224,1.224,0,0,1,1784.328,1907.634Z" transform="translate(-1740.871 -1884.24)" fill="#490c1d"/>
      <path id="Path_1053"  d="M1653.875,1848a1.222,1.222,0,0,1-1.539.763l-8.72-3.713a1.319,1.319,0,0,1,1.022-2.4l8.721,3.713A1.217,1.217,0,0,1,1653.875,1848Z" transform="translate(-1623.495 -1831.25)" fill="#490c1d"/>
      <path id="Path_1054"  d="M1524.367,1787.62a1.222,1.222,0,0,1-1.559.721l-8.616-3.948a1.318,1.318,0,0,1,1.087-2.367l8.615,3.948A1.214,1.214,0,0,1,1524.367,1787.62Z" transform="translate(-1507.318 -1776.807)" fill="#490c1d"/>
    </g>
    <g id="Group_1724"  transform="translate(253.035 192.902)" opacity="0.32">
      <path id="Path_1055"  d="M2740.092,1615.672l5.092-4.605a3.644,3.644,0,1,1,4.888,5.406l-5.092,4.606a3.644,3.644,0,0,1-4.888-5.406Zm6.468-3.084-5.092,4.605a1.593,1.593,0,0,0,2.136,2.363l5.092-4.605a1.593,1.593,0,0,0-2.136-2.363Z" transform="translate(-2682.426 -1595.99)" fill="#490c1d"/>
      <path id="Path_1056"  d="M2848.02,1517.492l5.092-4.605a3.644,3.644,0,1,1,4.887,5.406l-5.092,4.606a3.644,3.644,0,1,1-4.888-5.406Zm6.467-3.084-5.095,4.606a1.593,1.593,0,1,0,2.137,2.363l5.092-4.605a1.593,1.593,0,0,0-2.137-2.363Z" transform="translate(-2779.328 -1507.841)" fill="#490c1d"/>
      <g id="Group_1723"  opacity="0.51">
        <path id="Path_1057"  d="M2243.663,1912.64l5.944-2.758a3.477,3.477,0,0,1,2.923,6.31l-5.943,2.758a3.477,3.477,0,1,1-2.924-6.31Zm6.766-.979-5.943,2.758a1.52,1.52,0,1,0,1.277,2.759l5.944-2.759a1.52,1.52,0,1,0-1.278-2.758Z" transform="translate(-2235.98 -1864.833)" fill="#490c1d"/>
        <path id="Path_1058"  d="M2376.779,1846.25l5.913-2.819a3.477,3.477,0,0,1,2.992,6.278l-5.914,2.819a3.477,3.477,0,0,1-2.991-6.278Zm6.755-1.052-5.913,2.819a1.52,1.52,0,1,0,1.308,2.745l5.914-2.819a1.52,1.52,0,1,0-1.308-2.744Z" transform="translate(-2355.527 -1805.157)" fill="#490c1d"/>
        <path id="Path_1059"  d="M2507.022,1788.224l5.947-2.748a3.477,3.477,0,1,1,2.916,6.313l-5.946,2.748a3.477,3.477,0,1,1-2.917-6.313Zm6.767-.971-5.945,2.748a1.519,1.519,0,0,0,1.274,2.758l5.947-2.748a1.52,1.52,0,0,0-1.275-2.758Z" transform="translate(-2472.431 -1753.139)" fill="#490c1d"/>
        <path id="Path_1060"  d="M2639.851,1720.482l5.573-3.443a3.477,3.477,0,0,1,3.654,5.917l-5.573,3.443a3.477,3.477,0,0,1-3.654-5.917Zm6.6-1.778-5.573,3.443a1.52,1.52,0,1,0,1.6,2.587l5.573-3.443a1.52,1.52,0,0,0-1.594-2.587Z" transform="translate(-2592.021 -1691.516)" fill="#490c1d"/>
        <path id="Path_1061"  d="M2186.311,1960.721a1.221,1.221,0,0,0,1.55.74l8.667-3.838a1.32,1.32,0,0,0-1.056-2.385l-8.667,3.838A1.222,1.222,0,0,0,2186.311,1960.721Z" transform="translate(-2186.183 -1905.771)" fill="#490c1d"/>
        <path id="Path_1062"  d="M2319.984,1896.516a1.223,1.223,0,0,0,1.586.662l8.461-4.27a1.321,1.321,0,0,0-1.177-2.33l-8.462,4.269A1.222,1.222,0,0,0,2319.984,1896.516Z" transform="translate(-2306.17 -1847.698)" fill="#490c1d"/>
        <path id="Path_1063"  d="M2448.335,1836.9a1.223,1.223,0,0,0,1.54.763l8.719-3.713a1.318,1.318,0,0,0-1.022-2.4l-8.719,3.713A1.216,1.216,0,0,0,2448.335,1836.9Z" transform="translate(-2421.445 -1794.724)" fill="#490c1d"/>
        <path id="Path_1064"  d="M2578.706,1776.432a1.215,1.215,0,0,0,1.56.715l8.616-3.948a1.32,1.32,0,0,0-1.086-2.373l-8.617,3.949A1.233,1.233,0,0,0,2578.706,1776.432Z" transform="translate(-2538.484 -1740.195)" fill="#490c1d"/>
        <path id="Path_1065"  d="M2711.207,1680.788a1.221,1.221,0,0,0,1.717-.031l6.028-7.313a1.32,1.32,0,0,0-2.012-1.66l-6.028,7.312A1.222,1.222,0,0,0,2711.207,1680.788Z" transform="translate(-2657.101 -1651.02)" fill="#490c1d"/>
        <path id="Path_1066"  d="M2811.789,1580.09a1.221,1.221,0,0,0,1.708.191l6.926-6.469a1.32,1.32,0,0,0-1.78-1.907l-6.928,6.469A1.222,1.222,0,0,0,2811.789,1580.09Z" transform="translate(-2747.523 -1561.434)" fill="#490c1d"/>
        <path id="Path_1067"  d="M2920.549,1480.223a1.22,1.22,0,0,0,1.706.191l6.928-6.469a1.32,1.32,0,0,0-1.78-1.907l-6.927,6.469A1.219,1.219,0,0,0,2920.549,1480.223Z" transform="translate(-2845.171 -1471.771)" fill="#490c1d"/>
      </g>
    </g>
    <g id="Group_1725" data-name="Group 1725" transform="translate(230.611 241.363)" opacity="0.18">
      <path id="Path_1068" data-name="Path 1068" d="M1994,1896.362h-.83c0-.136.008-.272.008-.408v-5.122a11.411,11.411,0,0,0-11.413-11.412h0a11.41,11.41,0,0,0-11.409,11.411v5.123c0,.138,0,.275.007.408h-.83a2.844,2.844,0,0,0-2.844,2.845v17.7a2.844,2.844,0,0,0,2.844,2.845H1994a2.844,2.844,0,0,0,2.844-2.845v-17.7A2.845,2.845,0,0,0,1994,1896.362Zm-4.615-.526c0,.177-.009.353-.02.526h-15.2c-.012-.174-.02-.349-.02-.526v-4.89a7.618,7.618,0,0,1,7.617-7.618h0a7.618,7.618,0,0,1,7.619,7.618Z" transform="translate(-1966.69 -1879.42)" fill="#490c1d"/>
    </g>
    <rect id="Rectangle_563" data-name="Rectangle 563" width="33.589" height="8.526" rx="4.263" transform="translate(227.059 184.623)" fill="#0ab9b4"/>
    <path id="Path_1069" data-name="Path 1069" d="M1995.06,1874.78h0a11.411,11.411,0,0,0-11.41,11.411v5.123a11.412,11.412,0,0,0,11.411,11.412h0a11.412,11.412,0,0,0,11.407-11.412v-5.122a11.412,11.412,0,0,0-11.409-11.412Zm7.617,16.418a7.617,7.617,0,0,1-7.617,7.618h0a7.618,7.618,0,0,1-7.617-7.617v-4.892a7.618,7.618,0,0,1,7.618-7.619h0a7.618,7.618,0,0,1,7.617,7.618Z" transform="translate(-1751.306 -1635.917)" fill="#71a6f4"/>
    <path id="Path_1070" data-name="Path 1070" d="M1975.068,2064.034H1950.6a2.845,2.845,0,0,1-2.845-2.845v-17.7a2.845,2.845,0,0,1,2.845-2.845h24.464a2.845,2.845,0,0,1,2.845,2.845v17.7A2.845,2.845,0,0,1,1975.068,2064.034Z" transform="translate(-1719.082 -1782.196)" fill="#99ebe9"/>
    <ellipse id="Ellipse_22" data-name="Ellipse 22" cx="3.951" cy="3.952" rx="3.951" ry="3.952" transform="translate(239.804 261.756)" fill="#0ab9b4"/>
    <rect id="Rectangle_564" data-name="Rectangle 564" width="3.793" height="8.536" rx="1.897" transform="translate(241.89 268.162)" fill="#0ab9b4"/>
    <path id="Path_1071" data-name="Path 1071" d="M1862.219,1895.567a3.479,3.479,0,0,1-4.616,1.693l-5.943-2.758a3.477,3.477,0,0,1,2.923-6.31l5.943,2.759A3.481,3.481,0,0,1,1862.219,1895.567Zm-10.476-4.856a1.522,1.522,0,0,0,.74,2.019l5.943,2.758a1.52,1.52,0,1,0,1.278-2.758l-5.943-2.758A1.521,1.521,0,0,0,1851.743,1890.711Z" transform="translate(-1630.991 -1649.856)" fill="#1d4fbf"/>
    <path id="Path_1072" data-name="Path 1072" d="M1729.316,1829.175a3.48,3.48,0,0,1-4.633,1.643L1718.77,1828a3.477,3.477,0,0,1,2.991-6.278l5.913,2.819A3.48,3.48,0,0,1,1729.316,1829.175Zm-10.421-4.969a1.521,1.521,0,0,0,.715,2.026l5.913,2.819a1.52,1.52,0,1,0,1.308-2.744l-5.913-2.82a1.524,1.524,0,0,0-2.025.716Z" transform="translate(-1511.707 -1591.388)" fill="#1d4fbf"/>
    <path id="Path_1073" data-name="Path 1073" d="M1598.815,1771.147a3.479,3.479,0,0,1-4.614,1.7l-5.949-2.748a3.477,3.477,0,0,1,2.916-6.313l5.946,2.748A3.482,3.482,0,0,1,1598.815,1771.147Zm-10.482-4.844a1.522,1.522,0,0,0,.743,2.017l5.946,2.748a1.52,1.52,0,0,0,1.275-2.758l-5.946-2.748A1.523,1.523,0,0,0,1588.333,1766.3Z" transform="translate(-1394.49 -1540.467)" fill="#1d4fbf"/>
    <path id="Path_1074" data-name="Path 1074" d="M1468.732,1703.585a3.479,3.479,0,0,1-4.784,1.132l-5.573-3.443a3.477,3.477,0,0,1,3.653-5.916l5.573,3.442A3.481,3.481,0,0,1,1468.732,1703.585Zm-9.824-6.068a1.522,1.522,0,0,0,.494,2.091l5.573,3.443a1.52,1.52,0,1,0,1.6-2.587l-5.573-3.442A1.522,1.522,0,0,0,1458.908,1697.518Z" transform="translate(-1278.213 -1480.053)" fill="#1d4fbf"/>
    <path id="Path_1075" data-name="Path 1075" d="M1934.856,1939.079a1.221,1.221,0,0,1-1.55.741l-8.666-3.838a1.32,1.32,0,0,1,1.056-2.385l8.666,3.838A1.214,1.214,0,0,1,1934.856,1939.079Z" transform="translate(-1697.767 -1690.407)" fill="#1d4fbf"/>
    <path id="Path_1076" data-name="Path 1076" d="M1802.839,1874.826a1.222,1.222,0,0,1-1.585.662l-8.462-4.269a1.321,1.321,0,0,1,1.176-2.33l8.462,4.269A1.224,1.224,0,0,1,1802.839,1874.826Z" transform="translate(-1579.434 -1633.423)" fill="#1d4fbf"/>
    <path id="Path_1077" data-name="Path 1077" d="M1672.389,1815.205a1.222,1.222,0,0,1-1.539.763l-8.721-3.713a1.318,1.318,0,0,1,1.021-2.4l8.721,3.713A1.215,1.215,0,0,1,1672.389,1815.205Z" transform="translate(-1462.062 -1581.589)" fill="#1d4fbf"/>
    <path id="Path_1078" data-name="Path 1078" d="M1542.876,1754.742a1.213,1.213,0,0,1-1.559.715l-8.616-3.948a1.321,1.321,0,0,1,1.087-2.372l8.616,3.949A1.23,1.23,0,0,1,1542.876,1754.742Z" transform="translate(-1345.881 -1528.143)" fill="#1d4fbf"/>
    <path id="Path_1079" data-name="Path 1079" d="M1431.711,1659.106a1.222,1.222,0,0,1-1.717-.032l-6.028-7.313a1.32,1.32,0,0,1,2.013-1.66l6.027,7.313A1.222,1.222,0,0,1,1431.711,1659.106Z" transform="translate(-1248.598 -1440.467)" fill="#1d4fbf"/>
    <path id="Path_1080" data-name="Path 1080" d="M2934.352,1390.8l5.093-4.606a3.644,3.644,0,0,1,4.888,5.406l-5.093,4.606a3.644,3.644,0,0,1-4.889-5.406Zm6.468-3.084-5.092,4.606a1.593,1.593,0,1,0,2.136,2.363l5.093-4.606a1.593,1.593,0,0,0-2.137-2.363Z" transform="translate(-2603.805 -1207.734)" fill="#1d4fbf"/>
    <path id="Path_1081" data-name="Path 1081" d="M2218.22,1890.918l5.943-2.758a3.477,3.477,0,0,1,2.924,6.31l-5.944,2.758a3.477,3.477,0,1,1-2.923-6.31Zm6.765-.979-5.943,2.758a1.52,1.52,0,1,0,1.278,2.758l5.943-2.758a1.52,1.52,0,1,0-1.278-2.759Z" transform="translate(-1960.102 -1649.828)" fill="#1d4fbf"/>
    <path id="Path_1082" data-name="Path 1082" d="M2351.3,1824.54l5.913-2.819a3.477,3.477,0,0,1,2.992,6.278l-5.916,2.819a3.477,3.477,0,1,1-2.991-6.278Zm6.755-1.052-5.913,2.82a1.52,1.52,0,1,0,1.308,2.744l5.913-2.82a1.52,1.52,0,0,0-1.308-2.745Z" transform="translate(-2079.616 -1591.388)" fill="#1d4fbf"/>
    <path id="Path_1083" data-name="Path 1083" d="M2481.58,1766.532l5.946-2.748a3.477,3.477,0,1,1,2.917,6.313l-5.947,2.748a3.477,3.477,0,1,1-2.916-6.313Zm6.767-.972-5.947,2.748a1.52,1.52,0,0,0,1.275,2.758l5.942-2.748a1.519,1.519,0,0,0-1.274-2.758Z" transform="translate(-2196.552 -1540.467)" fill="#1d4fbf"/>
    <path id="Path_1084" data-name="Path 1084" d="M2614.4,1698.8l5.573-3.442a3.477,3.477,0,0,1,3.654,5.916l-5.573,3.443a3.477,3.477,0,0,1-3.653-5.917Zm6.6-1.776-5.571,3.442a1.52,1.52,0,0,0,1.6,2.587l5.573-3.443a1.52,1.52,0,0,0-1.6-2.586Z" transform="translate(-2316.135 -1480.052)" fill="#1d4fbf"/>
    <path id="Path_1085" data-name="Path 1085" d="M2160.871,1939.079a1.221,1.221,0,0,0,1.55.741l8.666-3.838a1.32,1.32,0,0,0-1.057-2.385l-8.666,3.838A1.218,1.218,0,0,0,2160.871,1939.079Z" transform="translate(-1910.307 -1690.407)" fill="#1d4fbf"/>
    <path id="Path_1086" data-name="Path 1086" d="M2294.564,1874.826a1.221,1.221,0,0,0,1.585.662l8.462-4.269a1.321,1.321,0,0,0-1.176-2.33l-8.462,4.269A1.216,1.216,0,0,0,2294.564,1874.826Z" transform="translate(-2030.31 -1633.423)" fill="#1d4fbf"/>
    <path id="Path_1087" data-name="Path 1087" d="M2422.914,1815.205a1.222,1.222,0,0,0,1.538.763l8.721-3.713a1.318,1.318,0,0,0-1.021-2.4l-8.727,3.709A1.216,1.216,0,0,0,2422.914,1815.205Z" transform="translate(-2145.583 -1581.589)" fill="#1d4fbf"/>
    <path id="Path_1088" data-name="Path 1088" d="M2553.249,1754.742a1.214,1.214,0,0,0,1.559.715l8.616-3.948a1.321,1.321,0,0,0-1.087-2.372l-8.616,3.949A1.23,1.23,0,0,0,2553.249,1754.742Z" transform="translate(-2262.591 -1528.143)" fill="#1d4fbf"/>
    <path id="Path_1089" data-name="Path 1089" d="M2685.761,1659.106a1.221,1.221,0,0,0,1.717-.032l6.028-7.313a1.32,1.32,0,0,0-2.013-1.66l-6.027,7.313A1.221,1.221,0,0,0,2685.761,1659.106Z" transform="translate(-2381.219 -1440.467)" fill="#1d4fbf"/>
    <path id="Path_1090" data-name="Path 1090" d="M2786.352,1558.413a1.221,1.221,0,0,0,1.707.191l6.928-6.469a1.32,1.32,0,0,0-1.781-1.907l-6.927,6.469A1.225,1.225,0,0,0,2786.352,1558.413Z" transform="translate(-2471.652 -1352.809)" fill="#1d4fbf"/>
    <path id="Path_1091" data-name="Path 1091" d="M2895.1,1458.533a1.222,1.222,0,0,0,1.707.191l6.927-6.469a1.32,1.32,0,0,0-1.78-1.908l-6.928,6.467A1.226,1.226,0,0,0,2895.1,1458.533Z" transform="translate(-2569.291 -1264.978)" fill="#1d4fbf"/>
    <path id="Path_1092" data-name="Path 1092" d="M2718.83,1588.4l5.092-4.607a3.644,3.644,0,1,1,4.888,5.406l-5.092,4.605a3.644,3.644,0,1,1-4.888-5.406Zm6.468-3.084-5.093,4.605a1.593,1.593,0,1,0,2.137,2.363l5.092-4.605a1.593,1.593,0,1,0-2.136-2.363Z" transform="translate(-2410.301 -1381.446)" fill="#1d4fbf"/>
    <path id="Path_1093" data-name="Path 1093" d="M2826.755,1490.247l5.093-4.607a3.644,3.644,0,1,1,4.887,5.407l-5.091,4.605a3.644,3.644,0,1,1-4.889-5.406Zm6.468-3.084-5.092,4.605a1.593,1.593,0,1,0,2.136,2.363l5.091-4.605a1.593,1.593,0,1,0-2.136-2.363Z" transform="translate(-2507.2 -1295.156)" fill="#1d4fbf"/>
    <ellipse id="Ellipse_23" data-name="Ellipse 23" cx="11.434" cy="11.436" rx="11.434" ry="11.436" transform="translate(231.346 204.383)" fill="#09b9b4"/>
    <ellipse id="Ellipse_24" data-name="Ellipse 24" cx="9.408" cy="9.41" rx="9.408" ry="9.41" transform="translate(233.372 206.351)" fill="#fff"/>
    <path id="Path_1094" data-name="Path 1094" d="M2136.97,1679.87h2.63l-2.018,1.7Z" transform="translate(-1888.963 -1467.776)" fill="#0ab9b4"/>
    <ellipse id="Ellipse_25" data-name="Ellipse 25" cx="6.542" cy="6.543" rx="6.542" ry="6.543" transform="translate(236.237 209.139)" fill="#09b9b4"/>
    <path id="Path_1095" data-name="Path 1095" d="M3098,2185.509c0-4.241,8.906-7.679,19.891-7.679s19.891,3.439,19.891,7.679a2.948,2.948,0,0,1-.026.391h0c-.534,4.057-9.224,7.284-19.865,7.284s-19.319-3.222-19.864-7.275A3.143,3.143,0,0,1,3098,2185.509Z" transform="translate(-2751.812 -1903.959)" fill="#ea9d03"/>
    <path id="Path_1096" data-name="Path 1096" d="M3039.045,2281.689c-15.905,0-28.81-4.958-28.906-11.091,0-.023.068-5.061.068-5.084,0-.466-.018-1.226.028-1.914,1.7,5.831,14.012,10.074,28.772,10.074s26.938-4.272,28.695-9.788a4.564,4.564,0,0,1,.217,1.375c0,.281.01,5.824-.042,6.1C3066.776,2277.135,3054.287,2281.689,3039.045,2281.689Z" transform="translate(-2672.927 -1974.648)" fill="#2c86f2"/>
    <path id="Path_1097" data-name="Path 1097" d="M3117.9,2193.1c-10.634,0-19.319-3.222-19.863-7.275a3.171,3.171,0,0,1-.028-.408c0-4.24,8.906-7.68,19.891-7.68s19.891,3.439,19.891,7.68a2.953,2.953,0,0,1-.026.391h0C3137.232,2189.875,3128.542,2193.1,3117.9,2193.1Z" transform="translate(-2751.82 -1903.88)" fill="#ea9d03"/>
    <path id="Path_1098" data-name="Path 1098" d="M3117.9,2193.1c-10.634,0-19.319-3.222-19.863-7.275a3.171,3.171,0,0,1-.028-.408c0-4.24,8.906-7.68,19.891-7.68s19.891,3.439,19.891,7.68a2.953,2.953,0,0,1-.026.391h0C3137.232,2189.875,3128.542,2193.1,3117.9,2193.1Z" transform="translate(-2751.82 -1903.88)" fill="#1b7fe2"/>
    <path id="Path_1099" data-name="Path 1099" d="M3067.244,2156.271c.027-.085.05-.17.073-.254s.042-.171.059-.255h0c.017-.091.033-.18.045-.271v-.02c.01-.074.018-.147.023-.22a.7.7,0,0,0,0-.079c.007-.089.01-.18.01-.27,0-6.165-12.945-11.163-28.912-11.163s-28.912,5-28.912,11.163a2.42,2.42,0,0,0,.01.27v.079c.005.074.012.146.023.22a.089.089,0,0,0,0,.02c.013.091.028.18.045.271h0c.017.084.038.17.06.255s.045.169.071.254c1.757,5.516,13.932,9.788,28.693,9.788S3065.488,2161.788,3067.244,2156.271Zm-48.587-1.369c0-4.241,8.907-7.68,19.891-7.68s19.891,3.438,19.891,7.68a2.839,2.839,0,0,1-.026.391h0c-.534,4.057-9.224,7.284-19.865,7.284s-19.319-3.222-19.864-7.275A3.225,3.225,0,0,1,3018.657,2154.9Z" transform="translate(-2672.469 -1867.033)" fill="#0b5aa8"/>
    <path id="Path_1100" data-name="Path 1100" d="M3118.133,2214.867c-10.634,0-19.319-3.222-19.864-7.275.321-1.839,9.213-5.612,19.865-5.612s19.237,3.25,19.865,5.6h0C3137.464,2211.639,3128.774,2214.867,3118.133,2214.867Z" transform="translate(-2752.054 -1925.569)" fill="#5a9dff"/>
    <path id="Path_1101" data-name="Path 1101" d="M3098,2095c0-4.241,8.906-7.68,19.891-7.68s19.891,3.438,19.891,7.68a2.987,2.987,0,0,1-.026.391h0c-.534,4.056-9.224,7.284-19.865,7.284s-19.319-3.222-19.864-7.276A3.118,3.118,0,0,1,3098,2095Z" transform="translate(-2751.812 -1824.42)" fill="#ea9d03"/>
    <path id="Path_1102" data-name="Path 1102" d="M3039.045,2191.24c-15.905,0-28.81-4.959-28.906-11.092,0-.023.068-5.062.068-5.085,0-.465-.018-1.226.028-1.914,1.7,5.831,14.012,10.074,28.772,10.074s26.938-4.271,28.695-9.788a4.558,4.558,0,0,1,.217,1.374c0,.28.01,5.824-.042,6.1C3066.776,2186.685,3054.287,2191.24,3039.045,2191.24Z" transform="translate(-2672.927 -1893.438)" fill="#2c86f2"/>
    <path id="Path_1103" data-name="Path 1103" d="M3117.9,2102.68c-10.634,0-19.319-3.222-19.863-7.276a3.14,3.14,0,0,1-.028-.4c0-4.241,8.906-7.68,19.891-7.68s19.891,3.438,19.891,7.68a2.946,2.946,0,0,1-.026.391h0C3137.232,2099.451,3128.542,2102.68,3117.9,2102.68Z" transform="translate(-2751.82 -1824.419)" fill="#ea9d03"/>
    <path id="Path_1104" data-name="Path 1104" d="M3117.9,2102.68c-10.634,0-19.319-3.222-19.863-7.276a3.14,3.14,0,0,1-.028-.4c0-4.241,8.906-7.68,19.891-7.68s19.891,3.438,19.891,7.68a2.946,2.946,0,0,1-.026.391h0C3137.232,2099.451,3128.542,2102.68,3117.9,2102.68Z" transform="translate(-2751.82 -1824.419)" fill="#1b7fe2"/>
    <path id="Path_1105" data-name="Path 1105" d="M3067.244,2065.862c.027-.084.05-.171.073-.255s.042-.171.059-.256h0c.017-.091.033-.181.045-.272v-.019c.01-.074.018-.147.023-.219a.708.708,0,0,0,0-.079c.007-.09.01-.181.01-.27,0-6.166-12.945-11.162-28.912-11.162s-28.912,5-28.912,11.162a2.439,2.439,0,0,0,.01.27v.079c.005.072.012.146.023.219a.081.081,0,0,0,0,.019c.013.091.028.181.045.272h0c.017.085.038.171.06.256s.045.171.071.255c1.757,5.517,13.932,9.787,28.693,9.787S3065.488,2071.379,3067.244,2065.862Zm-48.587-1.379c0-4.242,8.907-7.681,19.891-7.681s19.891,3.439,19.891,7.681a2.885,2.885,0,0,1-.026.392h0c-.534,4.056-9.224,7.284-19.865,7.284s-19.319-3.222-19.864-7.276A3.224,3.224,0,0,1,3018.657,2064.483Z" transform="translate(-2672.469 -1793.506)" fill="#0b5aa8"/>
    <path id="Path_1106" data-name="Path 1106" d="M3118.133,2124.407c-10.634,0-19.319-3.222-19.864-7.276.321-1.839,9.213-5.612,19.865-5.612s19.237,3.25,19.865,5.6h0C3137.464,2121.179,3128.774,2124.407,3118.133,2124.407Z" transform="translate(-2752.054 -1846.053)" fill="#5a9dff"/>
    <path id="Path_1107" data-name="Path 1107" d="M3098,2005.8c0-4.242,8.906-7.681,19.891-7.681s19.891,3.439,19.891,7.681a3,3,0,0,1-.026.391h0c-.534,4.056-9.224,7.284-19.865,7.284s-19.319-3.222-19.864-7.276A3.114,3.114,0,0,1,3098,2005.8Z" transform="translate(-2751.812 -1746.031)" fill="#ea9d03"/>
    <path id="Path_1108" data-name="Path 1108" d="M3039.045,2102.02c-15.905,0-28.81-4.959-28.906-11.092,0-.022.068-5.061.068-5.085,0-.465-.018-1.221.028-1.913,1.7,5.83,14.012,10.073,28.772,10.073s26.938-4.271,28.695-9.787a4.557,4.557,0,0,1,.217,1.374c0,.28.01,5.823-.042,6.1C3066.776,2097.467,3054.287,2102.02,3039.045,2102.02Z" transform="translate(-2672.927 -1821.031)" fill="#2c86f2"/>
    <path id="Path_1109" data-name="Path 1109" d="M3117.9,2013.48c-10.634,0-19.319-3.222-19.863-7.276a3.145,3.145,0,0,1-.028-.4c0-4.242,8.906-7.681,19.891-7.681s19.891,3.439,19.891,7.681a2.957,2.957,0,0,1-.026.391h0C3137.232,2010.251,3128.542,2013.48,3117.9,2013.48Z" transform="translate(-2751.82 -1746.03)" fill="#ea9d03"/>
    <path id="Path_1110" data-name="Path 1110" d="M3117.9,2013.48c-10.634,0-19.319-3.222-19.863-7.276a3.145,3.145,0,0,1-.028-.4c0-4.242,8.906-7.681,19.891-7.681s19.891,3.439,19.891,7.681a2.957,2.957,0,0,1-.026.391h0C3137.232,2010.251,3128.542,2013.48,3117.9,2013.48Z" transform="translate(-2751.82 -1746.03)" fill="#1b7fe2"/>
    <path id="Path_1111" data-name="Path 1111" d="M3067.244,1976.612c.027-.085.05-.171.073-.255s.042-.171.059-.256h0c.017-.09.033-.181.045-.271v-.02c.01-.073.018-.147.023-.22a.7.7,0,0,0,0-.078c.007-.09.01-.181.01-.27,0-6.166-12.945-11.162-28.912-11.162s-28.912,5-28.912,11.162a2.444,2.444,0,0,0,.01.27v.078c.005.073.012.146.023.22a.088.088,0,0,0,0,.02c.013.091.028.181.045.271h0c.017.085.038.171.06.256s.045.17.071.255c1.757,5.517,13.932,9.787,28.693,9.787S3065.488,1982.129,3067.244,1976.612Zm-48.587-1.374c0-4.242,8.907-7.681,19.891-7.681s19.891,3.439,19.891,7.681a2.874,2.874,0,0,1-.026.391h0c-.534,4.056-9.224,7.284-19.865,7.284s-19.319-3.222-19.864-7.276A3.211,3.211,0,0,1,3018.657,1975.238Z" transform="translate(-2672.469 -1715.131)" fill="#0b5aa8"/>
    <path id="Path_1112" data-name="Path 1112" d="M3118.133,2035.207c-10.634,0-19.319-3.222-19.864-7.276.321-1.839,9.213-5.612,19.865-5.612s19.237,3.251,19.865,5.6h0C3137.464,2031.979,3128.774,2035.207,3118.133,2035.207Z" transform="translate(-2752.054 -1767.644)" fill="#5a9dff"/>
    <path id="Path_1113" data-name="Path 1113" d="M3098,1919.029c0-4.241,8.906-7.68,19.891-7.68s19.891,3.439,19.891,7.68a2.853,2.853,0,0,1-.026.392h0c-.534,4.057-9.224,7.285-19.865,7.285s-19.319-3.223-19.864-7.276A3.242,3.242,0,0,1,3098,1919.029Z" transform="translate(-2751.811 -1669.777)" fill="#ea9d03"/>
    <path id="Path_1114" data-name="Path 1114" d="M3039.045,2015.268c-15.905,0-28.81-4.958-28.906-11.091,0-.023.068-5.061.068-5.085,0-.465-.018-1.226.028-1.913,1.7,5.83,14.012,10.073,28.772,10.073s26.938-4.27,28.695-9.787a4.559,4.559,0,0,1,.217,1.374c0,.28.01,5.823-.042,6.1C3066.776,2010.715,3054.287,2015.268,3039.045,2015.268Z" transform="translate(-2672.927 -1744.817)" fill="#2c86f2"/>
    <path id="Path_1115" data-name="Path 1115" d="M3117.9,1926.674c-10.634,0-19.318-3.223-19.863-7.276a3.087,3.087,0,0,1-.028-.408c0-4.241,8.906-7.68,19.891-7.68s19.891,3.439,19.891,7.68a2.929,2.929,0,0,1-.026.392h0C3137.232,1923.446,3128.542,1926.674,3117.9,1926.674Z" transform="translate(-2751.82 -1669.741)" fill="#ea9d03"/>
    <path id="Path_1116" data-name="Path 1116" d="M3117.9,1926.674c-10.634,0-19.318-3.223-19.863-7.276a3.087,3.087,0,0,1-.028-.408c0-4.241,8.906-7.68,19.891-7.68s19.891,3.439,19.891,7.68a2.929,2.929,0,0,1-.026.392h0C3137.232,1923.446,3128.542,1926.674,3117.9,1926.674Z" transform="translate(-2751.82 -1669.741)" fill="#1b7fe2"/>
    <path id="Path_1117" data-name="Path 1117" d="M3067.244,1889.871c.027-.085.05-.17.073-.255s.042-.171.059-.256h0c.017-.09.033-.18.045-.271v-.019c.01-.074.018-.147.023-.221a.691.691,0,0,0,0-.078c.007-.09.01-.181.01-.271,0-6.164-12.945-11.161-28.912-11.161s-28.912,5-28.912,11.161a2.444,2.444,0,0,0,.01.271v.078c.005.073.012.147.023.221a.086.086,0,0,0,0,.019c.013.091.028.181.045.271h0c.017.085.038.171.06.256s.045.171.071.255c1.757,5.517,13.932,9.787,28.693,9.787S3065.488,1895.388,3067.244,1889.871Zm-48.587-1.377c0-4.241,8.907-7.68,19.891-7.68s19.891,3.439,19.891,7.68a2.857,2.857,0,0,1-.026.392h0c-.534,4.057-9.224,7.285-19.865,7.285s-19.319-3.223-19.864-7.276A3.159,3.159,0,0,1,3018.657,1888.494Z" transform="translate(-2672.469 -1638.962)" fill="#0b5aa8"/>
    <path id="Path_1118" data-name="Path 1118" d="M3118.133,1948.438c-10.634,0-19.319-3.223-19.864-7.276.321-1.839,9.213-5.612,19.865-5.612s19.237,3.25,19.865,5.6h0C3137.464,1945.209,3128.774,1948.438,3118.133,1948.438Z" transform="translate(-2752.054 -1691.371)" fill="#5a9dff"/>
    <path id="Path_1119" data-name="Path 1119" d="M3098,1830.05c0-4.242,8.906-7.681,19.891-7.681s19.891,3.439,19.891,7.681a3,3,0,0,1-.026.391h0c-.534,4.057-9.224,7.284-19.865,7.284s-19.319-3.222-19.864-7.276A3.126,3.126,0,0,1,3098,1830.05Z" transform="translate(-2751.812 -1591.582)" fill="#ea9d03"/>
    <path id="Path_1120" data-name="Path 1120" d="M3039.045,1926.29c-15.905,0-28.81-4.959-28.906-11.091,0-.024.068-5.062.068-5.086,0-.465-.018-1.226.028-1.914,1.7,5.83,14.012,10.073,28.772,10.073s26.938-4.27,28.695-9.787a4.558,4.558,0,0,1,.217,1.374c0,.28.01,5.824-.042,6.1C3066.776,1921.735,3054.287,1926.29,3039.045,1926.29Z" transform="translate(-2672.927 -1666.644)" fill="#2c86f2"/>
    <path id="Path_1121" data-name="Path 1121" d="M3117.9,1837.685c-10.634,0-19.319-3.222-19.863-7.276a3.177,3.177,0,0,1-.028-.408c0-4.242,8.906-7.681,19.891-7.681s19.891,3.439,19.891,7.681a2.954,2.954,0,0,1-.026.391h0C3137.232,1834.458,3128.542,1837.685,3117.9,1837.685Z" transform="translate(-2751.82 -1591.537)" fill="#ea9d03"/>
    <path id="Path_1122" data-name="Path 1122" d="M3117.9,1837.685c-10.634,0-19.319-3.222-19.863-7.276a3.177,3.177,0,0,1-.028-.408c0-4.242,8.906-7.681,19.891-7.681s19.891,3.439,19.891,7.681a2.954,2.954,0,0,1-.026.391h0C3137.232,1834.458,3128.542,1837.685,3117.9,1837.685Z" transform="translate(-2751.82 -1591.537)" fill="#1b7fe2"/>
    <path id="Path_1123" data-name="Path 1123" d="M3067.244,1800.871c.027-.085.05-.171.073-.256s.042-.171.059-.254h0c.017-.091.033-.181.045-.272v-.019c.01-.073.018-.146.023-.219a.71.71,0,0,0,0-.079c.007-.09.01-.181.01-.27,0-6.165-12.945-11.162-28.912-11.162s-28.912,5-28.912,11.162a2.437,2.437,0,0,0,.01.27v.079c.005.073.012.146.023.219a.086.086,0,0,0,0,.019c.013.091.028.181.045.272h0c.017.084.038.17.06.254s.045.171.071.256c1.757,5.517,13.932,9.787,28.693,9.787S3065.488,1806.388,3067.244,1800.871Zm-48.587-1.374c0-4.242,8.907-7.681,19.891-7.681s19.891,3.439,19.891,7.681a2.873,2.873,0,0,1-.026.391h0c-.534,4.057-9.224,7.284-19.865,7.284s-19.319-3.222-19.864-7.276A3.206,3.206,0,0,1,3018.657,1799.5Z" transform="translate(-2672.469 -1560.807)" fill="#b0caff"/>
    <path id="Path_1124" data-name="Path 1124" d="M3118.133,1859.466c-10.634,0-19.319-3.222-19.864-7.276.321-1.839,9.213-5.611,19.865-5.611s19.237,3.25,19.865,5.6h0C3137.464,1856.239,3128.774,1859.466,3118.133,1859.466Z" transform="translate(-2752.054 -1613.166)" fill="#5a9dff"/>
    <path id="Path_1125" data-name="Path 1125" d="M3391.092,1350.661s2.122,5.619,3.755,5.469,9.942-4.061,15.33-5.026,10.89-1.865,14.016,1.879,2.974,10.789-1.517,9.058-6.436-7.245-6.436-7.245-20.565,9.613-23.417,9.664-7.643-9.854-7.643-9.854Z" transform="translate(-3009.652 -1176.784)" fill="#f8b3a3"/>
    <path id="Path_1126" data-name="Path 1126" d="M3711.614,1386.956l.528.423a2.324,2.324,0,0,1-1.963,2.7c-2.357.466-5.547-.268-6.13-4.379l2.043-.544Z" transform="translate(-3295.946 -1208.19)" fill="#f8b3a3"/>
    <path id="Path_1127" data-name="Path 1127" d="M2610.572,800.8c-.056-.876-4.244-2.815-10.7-.541s-25.94,24.825-47.229,20.215-22.558,27.913-3.837,33.673,52.523-8.582,61.175-18.348,9.637-15.3,10.362-22.884C2621.442,801.439,2610.572,800.8,2610.572,800.8Z" transform="translate(-2246.922 -690.846)" fill="#2e4dce"/>
    <g id="Group_1727" data-name="Group 1727" transform="translate(288.738 108.344)" clip-path="url(#clip-path-4)">
      <g id="Group_1726" data-name="Group 1726" transform="translate(-1.504 6.625)" opacity="0.49">
        <path id="Path_1128" data-name="Path 1128" d="M2520.94,902.372s14.37,6.121,34.129,0,27.98-30.01,27.98-30.01.261-2.963,5.9-2.412,8.479-3.882,8.259-5.91c0,0,1.821,6.459,5.163,7.956s2.212,8.943.748,12.377-7.509,13.179-7.509,13.179l-29.116,28.539s-28.292-4.387-28.74-4.387S2520.94,902.372,2520.94,902.372Z" transform="translate(-2520.94 -864.04)" fill="#053e91"/>
      </g>
    </g>
    <path id="Path_1130" data-name="Path 1130" d="M3423.474,1874.376c1.316-8.23,20.192-31.834,26.448-43.355s-4.719-17.748-4.719-17.748l-2.5-.723-13.251,8.377,9.548,6.931c-2.881,1.646-12.511,16.876-15.639,26.256s-6.584,19.757-6.584,19.757.613,2.785,6.614,2.751a9.112,9.112,0,0,1,.08-2.246Z" transform="translate(-3038.024 -1569.679)" fill="#f49987"/>
    <path id="Path_1131" data-name="Path 1131" d="M3370.487,2412.87c-3.951,1.895-5.268,9.879-5.268,9.879l2.634,1.812,1.893-2.635s.083,1.317,1.893,4.61,11.111,7.656,12.84,3.869c1.565-3.428-6.762-7.866-7.378-14.783C3371.1,2415.655,3370.487,2412.87,3370.487,2412.87Z" transform="translate(-2991.731 -2108.668)" fill="#3acac6"/>
    <path id="Path_1132" data-name="Path 1132" d="M3514.132,1894.136c-2.279-8.016,4.869-37.384,5.677-50.468s-11.768-14.1-11.768-14.1l-2.57.4L3497,1843.161l11.58,2.248c-1.917,2.709-4.218,20.582-3.093,30.409l2.37,20.691s1.737,2.265,7.157-.3A9.028,9.028,0,0,1,3514.132,1894.136Z" transform="translate(-3110.048 -1584.96)" fill="#f8b3a3"/>
    <path id="Path_1133" data-name="Path 1133" d="M3590.808,2482.2c-2.782,3.385-.606,11.18-.606,11.18l3.152.529.605-3.187s.63,1.159,3.661,3.381,13.3,2.248,13.273-1.915c-.029-3.768-9.451-4.277-12.928-10.287C3592.54,2484.464,3590.808,2482.2,3590.808,2482.2Z" transform="translate(-3193.002 -2170.645)" fill="#3acac6"/>
    <path id="Path_1134" data-name="Path 1134" d="M3110.178,1550.66l-.485,1.729a18.178,18.178,0,0,1-.613,4.144c-.494,1.262-8.669,16.558,0,25.1s45.324,12.815,45.324,12.815.878-14.739,10.975-16.309c0,0-23.429-17.249-29.246-19.411l-3.967-7.335Z" transform="translate(-2758.199 -1349.541)" fill="#080887"/>
    <g id="Group_1728" data-name="Group 1728" transform="translate(346.915 201.118)" clip-path="url(#clip-path-5)">
      <path id="Path_1135" data-name="Path 1135" d="M3058.312,1538.427s-12.386,10-6.343,16.883,41.819,14.7,41.819,14.7l-1.927,11.839-22.316-1.487L3039,1566.344l-5.959-23.129,7.866-9.546Z" transform="translate(-3040.403 -1535.406)" fill="#13136d"/>
    </g>
    <path id="Path_1137" data-name="Path 1137" d="M2898.1,1139.778h0a42.236,42.236,0,0,0-9.948.956c-4.684,1.111-21.927,17.526-21.927,17.526s-.057,5.031,8.057,5.891c0,0,12.321-10.471,13.792-9.615s7.132,28.935,7.132,28.935,12.413,7.545,22.476-1c0,0-1.143-7.115-1.865-16.538-.073-.966.1-.646,1.4-2.114l1.278,3.167s7.686,1.144,9.092-6.017c0,0-7.006-15.234-9.253-17.787s-10.553-3.234-14.756-3.193Z" transform="translate(-2543.719 -989.426)" fill="#fff"/>
    <g id="Group_1729" data-name="Group 1729" transform="translate(322.51 150.34)" clip-path="url(#clip-path-6)">
      <path id="Path_1138" data-name="Path 1138" d="M2839.638,1130.14s-15.782,20.359-9.72,27.01l-11.048-7.838,16.155-15.694Z" transform="translate(-2823.708 -1131.123)" fill="#ffdce5"/>
      <path id="Path_1139" data-name="Path 1139" d="M3038.634,1275.4l.024-1.394s2.834-.478,4.764,5.917,4.309,7.71,10.3,4.916,6.154,2.013,1.468,7.5,15.2,16.1,15.03,16.071-24.94,4.522-24.916,4.3-10.727-13.813-10.727-13.813Z" transform="translate(-3017.381 -1260.287)" fill="#ffdce5"/>
      <path id="Path_1140" data-name="Path 1140" d="M3351.132,1250.339l.219-1.022a10.26,10.26,0,0,0,1.652-4.471c.275-2.57-2.445-6.663-3.244-9.857l6.138,13.282s3.193,3.345,2.594,4.189-6.187,1.7-6.187,1.7Z" transform="translate(-3300.361 -1225.261)" fill="#ffdce5"/>
    </g>
    <path id="Path_1142" data-name="Path 1142" d="M3133.93,936.988a13.621,13.621,0,0,0,.2-5.073,9.779,9.779,0,0,1-4.616-6.974c-.3-3.627-.622-7.812-.622-7.812s1.712-2.187,5.1-.464,7.206-1.4,9.166-2.764a7.165,7.165,0,0,0,2.707,3.841l1.3,1s-.872,11.749-7.291,13.1l-.317,5.548A4.161,4.161,0,0,1,3133.93,936.988Z" transform="translate(-2779.546 -792.831)" fill="#f8b3a3"/>
    <g id="Group_1730" data-name="Group 1730" transform="translate(349.344 121.069)" clip-path="url(#clip-path-7)">
      <path id="Path_1143" data-name="Path 1143" d="M3113.209,889.22s.068,1.7,3.294,1.6,8.117,1.165,11.577-2.828c0,0,2.261,5.124,5.854,4.691l1-5.424L3125.817,882l-10.711,4.393Z" transform="translate(-3114.811 -885.259)" fill="#d35454"/>
      <path id="Path_1144" data-name="Path 1144" d="M3176.22,1090.606l.4-.386a11.828,11.828,0,0,0,4.038.286,5.051,5.051,0,0,1-4.291,1.464Z" transform="translate(-3171.384 -1072.207)" fill="#d35454"/>
    </g>
    <path id="Path_1146" data-name="Path 1146" d="M2853.506,1247.581s14.637-1.422,27.169-2.606a15.042,15.042,0,0,1,4.064-3.3c2.2-1.094,4-3.593,4.033-1.8s-2.056,3.149-2.056,3.149,3.1-.235,3.832,1.374-1.022,7.349-4.682,6.708-4.96-1.689-4.96-1.689-9.317,2.224-15.032,3.516-15.409,4.743-16.212-1.107C2849.136,1248,2853.506,1247.581,2853.506,1247.581Z" transform="translate(-2528.805 -1079.098)" fill="#f8b3a3"/>
    <path id="Path_1147" data-name="Path 1147" d="M2683.4,858.388a.294.294,0,0,1-.044-.585c1.124-.172,2.177-.33,3.167-.48,8.957-1.351,13.044-1.967,19.395-4.628,9-3.773,21.3-11.686,21.426-11.766a.294.294,0,0,1,.319.495c-.123.08-12.47,8.021-21.518,11.814-6.417,2.69-10.8,3.351-19.533,4.668-.995.149-2.05.307-3.167.48A.328.328,0,0,1,2683.4,858.388Z" transform="translate(-2379.302 -728.981)" fill="#0248b7"/>
    <g id="Group_1731" data-name="Group 1731" transform="translate(298.641 109.507)" opacity="0.36">
      <path id="Path_1148" data-name="Path 1148" d="M2643.653,845.017a32.548,32.548,0,0,1-10.9-1.874.245.245,0,1,1,.164-.463c22.3,7.866,42.109-11.34,49.568-18.566l.638-.618c6.8-6.562,10.451-4.688,10.6-4.605a.245.245,0,0,1-.234.431,4.127,4.127,0,0,0-2.522-.123c-1.541.306-4.094,1.358-7.506,4.65l-.637.613c-3.683,3.57-10.538,10.216-19.3,14.985C2656.714,843.158,2650.066,845.017,2643.653,845.017Z" transform="translate(-2632.586 -818.581)" fill="#073163"/>
    </g>
    <g id="Group_1732" data-name="Group 1732" transform="translate(297.667 113.859)" opacity="0.36">
      <path id="Path_1149" data-name="Path 1149" d="M2631.666,886.929a37.224,37.224,0,0,1-8.417-.98.245.245,0,0,1,.111-.478c26.672,6.174,44.941-19.286,50.944-27.652l.233-.324c3.566-4.964,6.138-6.3,7.669-6.538a2.5,2.5,0,0,1,1.813.272.245.245,0,0,1-.288.4h0a2.445,2.445,0,0,0-2.139-.008c-1.346.46-3.594,1.9-6.656,6.165l-.233.324c-3.236,4.511-9.262,12.907-17.95,19.546C2648.672,883.826,2640.264,886.929,2631.666,886.929Z" transform="translate(-2623.058 -850.911)" fill="#073163"/>
    </g>
    <path id="Path_1150" data-name="Path 1150" d="M3496.025,1394.388l-33.99-1.578-1.264,1.2-.792,40.489,33.99,1.577,1.263-1.2Z" transform="translate(-3076.81 -1211.355)" fill="#3378dd"/>
    <path id="Path_1151" data-name="Path 1151" d="M3506.34,1434.877l-33.99-1.579.792-40.489,33.99,1.578Z" transform="translate(-3087.917 -1211.489)" fill="#85bce5"/>
    <path id="Path_1152" data-name="Path 1152" d="M3620.746,1342.862c.378-.409.255-.852-.151-2.473s.971-3.328,3.669-2.934,1.955,2.9,1.669,3.519a2.471,2.471,0,0,0-.186,2.053Z" transform="translate(-3220.955 -1166.131)" fill="#0ab9b4"/>
    <ellipse id="Ellipse_26" data-name="Ellipse 26" cx="1.302" cy="0.987" rx="1.302" ry="0.987" transform="translate(399.126 172.146) rotate(-5.768)" fill="#fff"/>
    <path id="Path_1153" data-name="Path 1153" d="M3499.654,1418.14l28.714,1.332-.2,35.765-29.2-1.356Z" transform="translate(-3111.808 -1234.232)" fill="#fff"/>
    <path id="Path_1154" data-name="Path 1154" d="M3578.521,1389.2l.1-3.12a.971.971,0,0,1,1-.912l11.721.544a.755.755,0,0,1,.735.809l-.172,3.117a.973.973,0,0,1-1,.9l-11.655-.542a.753.753,0,0,1-.732-.791Z" transform="translate(-3183.24 -1208.171)" fill="#0ab9b4"/>
    <path id="Path_1155" data-name="Path 1155" d="M3548.595,1441.808l-23.837-1.107a.194.194,0,0,1-.186-.228.249.249,0,0,1,.252-.2l23.838,1.106a.193.193,0,0,1,.186.228A.248.248,0,0,1,3548.595,1441.808Z" transform="translate(-3134.801 -1256.949)" fill="#3289e0"/>
    <path id="Path_1156" data-name="Path 1156" d="M3547.624,1472.957l-24.016-1.115a.194.194,0,0,1-.186-.229.251.251,0,0,1,.253-.2l24.016,1.111a.2.2,0,0,1,.144.072.192.192,0,0,1,.041.156A.25.25,0,0,1,3547.624,1472.957Z" transform="translate(-3133.768 -1284.351)" fill="#3289e0"/>
    <path id="Path_1157" data-name="Path 1157" d="M3546.7,1504.115l-24.2-1.124a.193.193,0,0,1-.186-.228.248.248,0,0,1,.252-.2l24.195,1.124a.193.193,0,0,1,.186.228A.25.25,0,0,1,3546.7,1504.115Z" transform="translate(-3132.781 -1311.761)" fill="#3289e0"/>
    <path id="Path_1158" data-name="Path 1158" d="M3545.719,1535.271l-24.371-1.13a.195.195,0,0,1-.185-.228.251.251,0,0,1,.253-.2l24.374,1.132a.193.193,0,0,1,.18.226A.248.248,0,0,1,3545.719,1535.271Z" transform="translate(-3131.741 -1339.172)" fill="#3289e0"/>
    <path id="Path_1159" data-name="Path 1159" d="M3544.711,1566.421l-24.554-1.14a.193.193,0,0,1-.185-.228.248.248,0,0,1,.252-.2l24.553,1.139a.195.195,0,0,1,.186.229A.251.251,0,0,1,3544.711,1566.421Z" transform="translate(-3130.671 -1366.573)" fill="#3289e0"/>
    <path id="Path_1160" data-name="Path 1160" d="M3543.739,1597.579l-24.732-1.148a.193.193,0,0,1-.145-.071.2.2,0,0,1-.04-.157.25.25,0,0,1,.253-.2l24.731,1.148a.193.193,0,0,1,.186.228A.25.25,0,0,1,3543.739,1597.579Z" transform="translate(-3129.638 -1393.983)" fill="#3289e0"/>
    <path id="Path_1161" data-name="Path 1161" d="M3542.761,1628.727l-24.911-1.155a.194.194,0,0,1-.186-.229.249.249,0,0,1,.252-.2l24.911,1.154a.193.193,0,0,1,.186.228A.248.248,0,0,1,3542.761,1628.727Z" transform="translate(-3128.599 -1421.385)" fill="#3289e0"/>
    <path id="Path_1162" data-name="Path 1162" d="M3541.837,1659.886l-25.09-1.165a.193.193,0,0,1-.187-.228.252.252,0,0,1,.252-.2l25.09,1.165a.194.194,0,0,1,.186.229A.252.252,0,0,1,3541.837,1659.886Z" transform="translate(-3127.609 -1448.795)" fill="#3289e0"/>
    <path id="Path_1163" data-name="Path 1163" d="M3540.817,1691.035l-25.269-1.173a.194.194,0,0,1-.186-.229.251.251,0,0,1,.252-.2l25.269,1.173a.193.193,0,0,1,.186.228.25.25,0,0,1-.252.205Z" transform="translate(-3126.532 -1476.197)" fill="#3289e0"/>
    <path id="Path_1164" data-name="Path 1164" d="M3539.845,1722.192l-25.447-1.181a.193.193,0,0,1-.186-.228.249.249,0,0,1,.252-.2l25.448,1.181a.193.193,0,0,1,.186.228A.249.249,0,0,1,3539.845,1722.192Z" transform="translate(-3125.499 -1503.607)" fill="#3289e0"/>
    <path id="Path_1165" data-name="Path 1165" d="M3538.875,1753.377l-25.627-1.185a.193.193,0,0,1-.145-.071.2.2,0,0,1-.041-.157.252.252,0,0,1,.252-.2l25.626,1.189a.194.194,0,0,1,.186.229A.251.251,0,0,1,3538.875,1753.377Z" transform="translate(-3124.467 -1531.044)" fill="#3289e0"/>
    <ellipse id="Ellipse_27" data-name="Ellipse 27" cx="33.517" cy="33.524" rx="33.517" ry="33.524" transform="translate(104.472 239.166)" fill="#2c86f2"/>
    <ellipse id="Ellipse_28" data-name="Ellipse 28" cx="33.517" cy="33.524" rx="33.517" ry="33.524" transform="translate(108.1 239.166)" fill="#b0caff"/>
    <path id="Path_1166" data-name="Path 1166" d="M1094.455,1901.994a23.032,23.032,0,0,1-23.03,23.034,23.411,23.411,0,0,1-2.747-.162,23.038,23.038,0,0,0,0-45.745,23.325,23.325,0,0,1,2.746-.161A23.033,23.033,0,0,1,1094.455,1901.994Z" transform="translate(-929.81 -1636.669)" fill="#1b7fe2"/>
    <path id="Path_1167" data-name="Path 1167" d="M910.734,1903.413a20.429,20.429,0,1,1-20.281-22.873A23.037,23.037,0,0,1,910.734,1903.413Z" transform="translate(-751.582 -1638.11)" fill="#5a9dff"/>
    <path id="Path_1168" data-name="Path 1168" d="M1030.388,1976.517a5.066,5.066,0,0,0-1.124-2.452,6.2,6.2,0,0,0-2.029-1.526,17.53,17.53,0,0,0-3.826-1.233c-.17-.04-.2-.1-.2-.255v-5.464c0-.1-.033-.213.149-.138a3.853,3.853,0,0,1,1.958,1.694.34.34,0,0,0,.349.2c1.532,0,3.065-.026,4.6.016.089,0,.1-.032.1-.115a4.815,4.815,0,0,0-.469-1.88,7,7,0,0,0-3.037-3.058,10.669,10.669,0,0,0-3.441-1.226c-.152-.025-.222-.083-.219-.261.013-.724,0-1.449.009-2.173,0-.179-.048-.231-.228-.23q-1.409.014-2.817,0c-.185,0-.247.041-.243.237.012.681,0,1.363.006,2.043,0,.132-.016.216-.181.222a8.4,8.4,0,0,0-1.812.3,7.192,7.192,0,0,0-3.692,2.267,6,6,0,0,0-1.5,4.926,6.191,6.191,0,0,0,1.5,3.269,8.2,8.2,0,0,0,3.232,2.248,12.589,12.589,0,0,0,2.219.644c.107.021.235.014.234.2q-.012,2.722,0,5.443c0,.138-.04.184-.179.129a3.846,3.846,0,0,1-2.1-1.778.21.21,0,0,0-.213-.138q-2.3.006-4.6,0c-.14,0-.185.042-.181.184a4.393,4.393,0,0,0,.454,1.795,6.981,6.981,0,0,0,3.039,3.056,10.936,10.936,0,0,0,3.591,1.243c.164.029.194.093.193.237,0,.725,0,1.449-.006,2.172,0,.184.058.228.233.226.939-.007,1.878-.009,2.818,0,.192,0,.24-.055.237-.242-.01-.7,0-1.392,0-2.087,0-.1,0-.2.143-.213a11.891,11.891,0,0,0,3.023-.761,5.884,5.884,0,0,0,2.656-1.966A7.006,7.006,0,0,0,1030.388,1976.517Zm-10.646-6.2a2.717,2.717,0,0,1-1.57-2.644,2.564,2.564,0,0,1,1.455-2.332c.026-.013.051-.026.078-.036.228-.1.232-.1.232.153v4.734C1019.938,1970.364,1019.911,1970.4,1019.742,1970.316Zm4.1,9.923a2.3,2.3,0,0,1-.393.219c-.2.1-.234.078-.235-.144v-4.725c0-.226.008-.232.21-.133a2.716,2.716,0,0,1,1.551,2.238A2.627,2.627,0,0,1,1023.838,1980.239Z" transform="translate(-879.513 -1709.165)" fill="#0b5aa8"/>
  </g>
</svg>
