<svg xmlns="http://www.w3.org/2000/svg" xmlns:xlink="http://www.w3.org/1999/xlink" width="379.247" height="263.883" viewBox="0 0 379.247 263.883">
  <defs>
    <clipPath id="clip-path">
      <path id="Path_1324" data-name="Path 1324" d="M994.96,420.985c1.869-34.981,44.7-71.468,105-58.217s44.265,51.245,84.7,55.079,73.045-14.683,100.653,34.143-5.869,80.548-43.853,88.565-109.9,16.035-185.65-21.613S994.175,435.626,994.96,420.985Z" transform="translate(-993.429 -359.985)" fill="#d9ebf9"/>
    </clipPath>
    <clipPath id="clip-path-2">
      <path id="Path_1328" data-name="Path 1328" d="M978.211,1690.477s-16.228-28.3-45.379-29.677c0,0-3.457,25.821,18.032,51.16,20.077,23.676,36.064,24.253,36.064,24.253S993.538,1717.025,978.211,1690.477Z" transform="translate(-932.627 -1660.8)" fill="#5d83ce"/>
    </clipPath>
    <clipPath id="clip-path-3">
      <path id="Path_1414" data-name="Path 1414" d="M1057.843,2110.38l-2.268,2.382h-11.229v9.075h-10.434v8.962h-9.981v9.642h93.912V2110.38Z" transform="translate(-1023.93 -2110.38)" fill="#0ab9b4"/>
    </clipPath>
    <clipPath id="clip-path-4">
      <rect id="Rectangle_592" data-name="Rectangle 592" width="29.489" height="68.63" fill="#f9b2bb"/>
    </clipPath>
    <clipPath id="clip-path-5">
      <rect id="Rectangle_595" data-name="Rectangle 595" width="37.4" height="68.63" fill="#f5838d"/>
    </clipPath>
    <clipPath id="clip-path-6">
      <path id="Path_1418" data-name="Path 1418" d="M1458.22,1111.557l.169-2.467H1509v44.921h-32.664l-6.72-2.381Z" transform="translate(-1458.22 -1109.09)" fill="#ed4370"/>
    </clipPath>
    <clipPath id="clip-path-7">
      <path id="Path_1422" data-name="Path 1422" d="M1480.839,2262.5h-36.294a2.835,2.835,0,0,1-2.836-2.836v-4.451a2.836,2.836,0,0,1,2.836-2.837h36.294a2.836,2.836,0,0,1,2.836,2.837v4.451A2.835,2.835,0,0,1,1480.839,2262.5Z" transform="translate(-1441.71 -2252.38)" fill="#081ea0"/>
    </clipPath>
    <clipPath id="clip-path-8">
      <path id="Path_1425" data-name="Path 1425" d="M1480.839,2354.585h-36.294a2.836,2.836,0,0,1-2.836-2.837V2347.3a2.836,2.836,0,0,1,2.836-2.837h36.294a2.836,2.836,0,0,1,2.836,2.837v4.452A2.836,2.836,0,0,1,1480.839,2354.585Z" transform="translate(-1441.71 -2344.46)" fill="#081ea0"/>
    </clipPath>
    <clipPath id="clip-path-9">
      <path id="Path_1427" data-name="Path 1427" d="M1480.839,2446.674h-36.294a2.835,2.835,0,0,1-2.836-2.837v-4.452a2.834,2.834,0,0,1,2.836-2.835h36.294a2.834,2.834,0,0,1,2.836,2.835v4.452A2.836,2.836,0,0,1,1480.839,2446.674Z" transform="translate(-1441.71 -2436.55)" fill="#081ea0"/>
    </clipPath>
    <clipPath id="clip-path-10">
      <path id="Path_1445" data-name="Path 1445" d="M3256.473,1792.4l-.413,1.759s2.475,51.1,8.136,71.864l13.147-.426s-3.913-43.56-4.168-53.09c0,0,7.741,35.734,18.629,50.8l10.666-5.5s-15.2-46.17-16.447-65.227l-4.763-.907Z" transform="translate(-3256.06 -1791.67)" fill="#322f7c"/>
    </clipPath>
    <clipPath id="clip-path-11">
      <path id="Path_1448" data-name="Path 1448" d="M3141.194,1440.79s-4.083,8.678-5.278,12.644,5.785,13.782,13.838,20.7l-.625-7.828s-5.237-7.6-6.361-10.607,4.376-11.4,4.376-11.4Z" transform="translate(-3135.782 -1440.79)" fill="#f8b3a3"/>
    </clipPath>
    <clipPath id="clip-path-12">
      <path id="Path_1453" data-name="Path 1453" d="M3182.849,1284.808l2.175-.264s10.831-.228,13.326,6.578a116.63,116.63,0,0,1,4.083,14.691s-3.175,2.666-5.161,3.006c0,0,2.609,26.772,3.518,32.106,0,0-13.757,10.555-29.959,1.588,0,0-2.1-21.923-2.1-34.43,0,0-7.526-.253-8.433-4.139,0,0,6.181-13.329,7.117-16.25s7.031-3.628,9.9-3.431S3182.849,1284.808,3182.849,1284.808Z" transform="translate(-3160.3 -1284.232)" fill="#fff"/>
    </clipPath>
    <clipPath id="clip-path-13">
      <path id="Path_1458" data-name="Path 1458" d="M3263.172,1088.46s-3.46,13.272-.283,14.974,5.16.4,5.614,2.836a4,4,0,0,1-1.077,3.738s.17,2.1,3.572,2.325,4.141-2.042,4.141-2.042-1.342-5.427-.833-6.448-1.649-2.06-.812-2.987,2.684-1.229,3.079-3.366-2.457-2.439-3.119-3.364a6.391,6.391,0,0,1-1.266-3.933C3272.189,1090.2,3265.969,1091.069,3263.172,1088.46Z" transform="translate(-3261.547 -1088.46)" fill="#f8b3a3"/>
    </clipPath>
    <clipPath id="clip-path-14">
      <path id="Path_1461" data-name="Path 1461" d="M3485.852,1410.563s2.848,9.551,4.948,9.9,10.776-5.5,11.682-7.257-.076-8.148,2.608-9.7,5.406.378,6.012,4.31-1.4,6.466-4.349,8.81-10.931,11.486-16.979,13.417S3479,1413.966,3479,1413.966Z" transform="translate(-3479 -1402.968)" fill="#f8b3a3"/>
    </clipPath>
    <clipPath id="clip-path-15">
      <path id="Path_1465" data-name="Path 1465" d="M3638.565,1517.936c1.614,2.058,2.639,1.74,4.7.265s3.043.908,3.043.908l-1.241-100.661a11.722,11.722,0,0,0-12.592.2l.176,100.9a12.125,12.125,0,0,1,2.179-.22C3636.04,1519.312,3636.951,1515.877,3638.565,1517.936Z" transform="translate(-3632.48 -1416.677)" fill="#ed4370"/>
    </clipPath>
    <clipPath id="clip-path-16">
      <path id="Path_1472" data-name="Path 1472" d="M1755.722,788.22l137.569-2.5s-28.129-63.972-18.1-130.72c12.786-85.124-7.418-87.663-7.418-87.663H1730.15s28.285,2.4,18.531,91.333C1748.1,681.906,1735.975,750.447,1755.722,788.22Z" transform="translate(-1730.15 -567.34)" fill="#fff"/>
    </clipPath>
    <clipPath id="clip-path-17">
      <path id="Path_1482" data-name="Path 1482" d="M2108.256,865.758l-35.445,1.209a78.519,78.519,0,0,0-1.671-25.146l35.024-1.231A78.953,78.953,0,0,1,2108.256,865.758Z" transform="translate(-2071.14 -840.59)" fill="#5a92e5"/>
    </clipPath>
  </defs>
  <g id="HL_M51_04" transform="translate(-57.633 -35.141)">
    <path id="Path_1695" data-name="Path 1695" d="M0,0H379.247V3.427H0Z" transform="translate(57.633 243.083)"/>
    <ellipse id="Ellipse_31" data-name="Ellipse 31" cx="156.929" cy="21.584" rx="156.929" ry="21.584" transform="translate(95.658 255.855)" fill="#2b80aa"/>
    <g id="Group_1770" data-name="Group 1770" transform="translate(325.069 99.22)" opacity="0.65">
      <path id="Path_1319" data-name="Path 1319" d="M3047.976,944.863a.269.269,0,0,1-.021-.538,7.282,7.282,0,0,0,3.053-1.491.27.27,0,0,1,.313.44,7.551,7.551,0,0,1-3.325,1.59Z" transform="translate(-3047.709 -942.784)" fill="#fff"/>
    </g>
    <path id="Path_1320" data-name="Path 1320" d="M994.96,420.985c1.869-34.981,44.7-71.468,105-58.217s44.265,51.245,84.7,55.079,73.045-14.683,100.653,34.143-5.869,80.548-43.853,88.565-109.9,16.035-185.65-21.613S994.175,435.626,994.96,420.985Z" transform="translate(-894.23 -324.844)" fill="#d9ebf9"/>
    <g id="Group_1774" data-name="Group 1774" transform="translate(99.2 35.141)" clip-path="url(#clip-path)">
      <g id="Group_1771" data-name="Group 1771" transform="translate(-12.137 0.002)" opacity="0.39">
        <path id="Path_1321" data-name="Path 1321" d="M926.716,360s-7.3,35.5,44.957,56.191,109.226,19.67,128.77,42,118.538,5.794,118.538,5.794l-18.3,85.238-42.638,49.791-143.08-30.948S882.6,507.847,883.041,505.836s8.595-130.6,8.595-130.6Z" transform="translate(-883.04 -360)" fill="#71a6f4"/>
      </g>
      <g id="Group_1772" data-name="Group 1772" transform="translate(-32.681 31.238)" opacity="0.39">
        <path id="Path_1322" data-name="Path 1322" d="M739.874,644.09s-7.3,35.5,44.958,56.191,109.225,19.67,128.769,42,118.538,5.794,118.538,5.794l-18.3,85.234L971.2,883.1,828.119,852.16S695.764,791.937,696.2,789.928s8.593-130.606,8.593-130.606Z" transform="translate(-696.2 -644.09)" fill="#71a6f4"/>
      </g>
      <g id="Group_1773" data-name="Group 1773" transform="translate(-41.028 61.538)" opacity="0.39">
        <path id="Path_1323" data-name="Path 1323" d="M663.956,919.67s-7.3,35.5,44.957,56.191,109.226,19.671,128.77,42,118.538,5.794,118.538,5.794l-18.3,85.234-42.638,49.79L752.2,1127.74s-132.355-60.222-131.918-62.239,8.595-130.6,8.595-130.6Z" transform="translate(-620.28 -919.67)" fill="#71a6f4"/>
      </g>
    </g>
    <path id="Path_1325" data-name="Path 1325" d="M923.646,1995.812s-20.274-14-40.6-5.456c0,0,6.047,18.729,28.946,29.007,21.392,9.6,32.479,4.791,32.479,4.791S942.737,2008.922,923.646,1995.812Z" transform="translate(-795.987 -1773.495)" fill="#88adea"/>
    <path id="Path_1326" data-name="Path 1326" d="M978.211,1690.477s-16.228-28.3-45.379-29.677c0,0-3.457,25.821,18.032,51.16,20.077,23.676,36.064,24.253,36.064,24.253S993.538,1717.025,978.211,1690.477Z" transform="translate(-840.113 -1482.634)" fill="#5d83ce"/>
    <g id="Group_1775" data-name="Group 1775" transform="translate(92.514 178.166)" clip-path="url(#clip-path-2)">
      <path id="Path_1327" data-name="Path 1327" d="M1063.682,1828.354a.7.7,0,0,1-.646-.43l-1.8-4.295a655.486,655.486,0,0,0-44.288-63.866.7.7,0,0,1,1.1-.867,658.057,658.057,0,0,1,44.42,64.062.638.638,0,0,1,.043.086l1.816,4.34a.7.7,0,0,1-.376.917A.69.69,0,0,1,1063.682,1828.354Z" transform="translate(-1007.566 -1747.901)" fill="#fff"/>
    </g>
    <path id="Path_1329" data-name="Path 1329" d="M1034.427,1966.2a.647.647,0,0,1-.647-.646v-42a.647.647,0,0,1,.647-.646h32.75a.648.648,0,1,1,0,1.294h-32.105v41.354A.648.648,0,0,1,1034.427,1966.2Z" transform="translate(-930.144 -1715.921)" fill="#99ebe9"/>
    <path id="Path_1330" data-name="Path 1330" d="M1122.887,1957.665a.647.647,0,0,1-.647-.647v-33.461a.647.647,0,1,1,1.293,0v33.464A.647.647,0,0,1,1122.887,1957.665Z" transform="translate(-1008.878 -1715.925)" fill="#99ebe9"/>
    <path id="Path_1331" data-name="Path 1331" d="M1214.7,1957.665a.646.646,0,0,1-.646-.647v-33.461a.646.646,0,1,1,1.293,0v33.464A.647.647,0,0,1,1214.7,1957.665Z" transform="translate(-1090.593 -1715.925)" fill="#99ebe9"/>
    <path id="Path_1332" data-name="Path 1332" d="M1057.843,2110.38l-2.268,2.382h-11.229v9.075h-10.434v8.962h-9.981v9.642h93.912V2110.38Z" transform="translate(-921.377 -1882.782)" fill="#99ebe9"/>
    <g id="Group_1776" data-name="Group 1776" transform="translate(102.553 227.598)" clip-path="url(#clip-path-3)">
      <path id="Path_1333" data-name="Path 1333" d="M1093.126,2132.088h-8.566v-4.508h8.566Zm-8.327-.241h8.087v-4.025H1084.8Z" transform="translate(-1077.894 -2125.689)" fill="#0ab9b4"/>
      <path id="Path_1334" data-name="Path 1334" d="M1168.855,2132.088h-8.565v-4.508h8.565Zm-8.325-.241h8.084v-4.025h-8.086Z" transform="translate(-1145.297 -2125.689)" fill="#0ab9b4"/>
      <path id="Path_1335" data-name="Path 1335" d="M1244.568,2132.088H1236v-4.508h8.566Zm-8.327-.241h8.087v-4.025h-8.087Z" transform="translate(-1212.683 -2125.689)" fill="#0ab9b4"/>
      <path id="Path_1336" data-name="Path 1336" d="M1320.306,2132.088h-8.566v-4.508h8.566Zm-8.327-.241h8.087v-4.025h-8.087Z" transform="translate(-1280.095 -2125.689)" fill="#0ab9b4"/>
      <path id="Path_1337" data-name="Path 1337" d="M1396.036,2132.088h-8.566v-4.508h8.566Zm-8.327-.241h8.087v-4.025h-8.087Z" transform="translate(-1347.499 -2125.689)" fill="#0ab9b4"/>
      <path id="Path_1338" data-name="Path 1338" d="M1471.765,2132.088H1463.2v-4.508h8.565Zm-8.325-.241h8.086v-4.025h-8.086Z" transform="translate(-1414.902 -2125.689)" fill="#0ab9b4"/>
      <path id="Path_1339" data-name="Path 1339" d="M1547.486,2132.088h-8.566v-4.508h8.566Zm-8.327-.241h8.087v-4.025h-8.087Z" transform="translate(-1482.297 -2125.689)" fill="#0ab9b4"/>
      <path id="Path_1340" data-name="Path 1340" d="M1623.216,2132.088h-8.566v-4.508h8.566Zm-8.326-.241h8.087v-4.025h-8.087Z" transform="translate(-1549.7 -2125.689)" fill="#0ab9b4"/>
      <path id="Path_1341" data-name="Path 1341" d="M1698.946,2132.088h-8.566v-4.508h8.566Zm-8.327-.241h8.087v-4.025h-8.087Z" transform="translate(-1617.103 -2125.689)" fill="#0ab9b4"/>
      <path id="Path_1342" data-name="Path 1342" d="M1774.666,2132.088H1766.1v-4.508h8.565Zm-8.326-.241h8.086v-4.025h-8.086Z" transform="translate(-1684.498 -2125.689)" fill="#0ab9b4"/>
      <path id="Path_1343" data-name="Path 1343" d="M1850.4,2132.088h-8.566v-4.508h8.566Zm-8.326-.241h8.087v-4.025h-8.088Z" transform="translate(-1751.901 -2125.689)" fill="#0ab9b4"/>
      <path id="Path_1344" data-name="Path 1344" d="M1055.256,2170.878h-8.566v-4.508h8.566Zm-8.325-.24h8.086v-4.025h-8.086Z" transform="translate(-1044.188 -2160.214)" fill="#0ab9b4"/>
      <path id="Path_1345" data-name="Path 1345" d="M1130.986,2170.878h-8.566v-4.508h8.566Zm-8.327-.24h8.087v-4.025h-8.087Z" transform="translate(-1111.591 -2160.214)" fill="#0ab9b4"/>
      <path id="Path_1346" data-name="Path 1346" d="M1206.716,2170.878h-8.566v-4.508h8.566Zm-8.326-.24h8.087v-4.025h-8.087Z" transform="translate(-1178.995 -2160.214)" fill="#0ab9b4"/>
      <path id="Path_1347" data-name="Path 1347" d="M1282.446,2170.878h-8.566v-4.508h8.566Zm-8.327-.24h8.086v-4.025h-8.086Z" transform="translate(-1246.398 -2160.214)" fill="#0ab9b4"/>
      <path id="Path_1348" data-name="Path 1348" d="M1358.166,2170.878H1349.6v-4.508h8.566Zm-8.326-.24h8.086v-4.025h-8.086Z" transform="translate(-1313.793 -2160.214)" fill="#0ab9b4"/>
      <path id="Path_1349" data-name="Path 1349" d="M1433.9,2170.878h-8.566v-4.508h8.566Zm-8.327-.24h8.087v-4.025h-8.087Z" transform="translate(-1381.196 -2160.214)" fill="#0ab9b4"/>
      <path id="Path_1350" data-name="Path 1350" d="M1509.656,2170.878h-8.566v-4.508h8.566Zm-8.327-.24h8.087v-4.025h-8.087Z" transform="translate(-1448.626 -2160.214)" fill="#0ab9b4"/>
      <path id="Path_1351" data-name="Path 1351" d="M1585.355,2170.878h-8.565v-4.508h8.565Zm-8.325-.24h8.086v-4.025h-8.083Z" transform="translate(-1516.003 -2160.214)" fill="#0ab9b4"/>
      <path id="Path_1352" data-name="Path 1352" d="M1661.076,2170.878h-8.566v-4.508h8.566Zm-8.327-.24h8.087v-4.025h-8.087Z" transform="translate(-1583.397 -2160.214)" fill="#0ab9b4"/>
      <path id="Path_1353" data-name="Path 1353" d="M1736.806,2170.878h-8.566v-4.508h8.566Zm-8.327-.24h8.09v-4.025h-8.087Z" transform="translate(-1650.801 -2160.214)" fill="#0ab9b4"/>
      <path id="Path_1354" data-name="Path 1354" d="M1812.563,2170.878H1804v-4.508h8.566Zm-8.327-.24h8.087v-4.025h-8.087Z" transform="translate(-1718.231 -2160.214)" fill="#0ab9b4"/>
      <path id="Path_1355" data-name="Path 1355" d="M1888.265,2170.878H1879.7v-4.508h8.565Zm-8.325-.24h8.086v-4.025h-8.086Z" transform="translate(-1785.607 -2160.214)" fill="#0ab9b4"/>
      <path id="Path_1356" data-name="Path 1356" d="M1017.4,2209.678h-8.566v-4.508h8.566Zm-8.328-.239h8.087v-4.026h-8.087Z" transform="translate(-1010.49 -2194.748)" fill="#0ab9b4"/>
      <path id="Path_1357" data-name="Path 1357" d="M1093.126,2209.678h-8.566v-4.508h8.566Zm-8.327-.24h8.087v-4.026H1084.8Z" transform="translate(-1077.894 -2194.748)" fill="#0ab9b4"/>
      <path id="Path_1358" data-name="Path 1358" d="M1168.855,2209.678h-8.565v-4.508h8.565Zm-8.325-.24h8.084v-4.026h-8.086Z" transform="translate(-1145.297 -2194.748)" fill="#0ab9b4"/>
      <path id="Path_1359" data-name="Path 1359" d="M1244.568,2209.678H1236v-4.508h8.566Zm-8.327-.24h8.087v-4.026h-8.087Z" transform="translate(-1212.683 -2194.748)" fill="#0ab9b4"/>
      <path id="Path_1360" data-name="Path 1360" d="M1320.306,2209.678h-8.566v-4.508h8.566Zm-8.327-.24h8.087v-4.026h-8.087Z" transform="translate(-1280.095 -2194.748)" fill="#0ab9b4"/>
      <path id="Path_1361" data-name="Path 1361" d="M1396.036,2209.678h-8.566v-4.508h8.566Zm-8.327-.24h8.087v-4.026h-8.087Z" transform="translate(-1347.499 -2194.748)" fill="#0ab9b4"/>
      <path id="Path_1362" data-name="Path 1362" d="M1471.765,2209.678H1463.2v-4.508h8.565Zm-8.325-.24h8.086v-4.026h-8.086Z" transform="translate(-1414.902 -2194.748)" fill="#0ab9b4"/>
      <path id="Path_1363" data-name="Path 1363" d="M1547.486,2209.678h-8.566v-4.508h8.566Zm-8.327-.239h8.087v-4.026h-8.087Z" transform="translate(-1482.297 -2194.748)" fill="#0ab9b4"/>
      <path id="Path_1364" data-name="Path 1364" d="M1623.216,2209.678h-8.566v-4.508h8.566Zm-8.326-.24h8.087v-4.026h-8.087Z" transform="translate(-1549.7 -2194.748)" fill="#0ab9b4"/>
      <path id="Path_1365" data-name="Path 1365" d="M1698.946,2209.678h-8.566v-4.508h8.566Zm-8.327-.24h8.087v-4.026h-8.087Z" transform="translate(-1617.103 -2194.748)" fill="#0ab9b4"/>
      <path id="Path_1366" data-name="Path 1366" d="M1774.666,2209.678H1766.1v-4.508h8.565Zm-8.326-.24h8.086v-4.026h-8.086Z" transform="translate(-1684.498 -2194.748)" fill="#0ab9b4"/>
      <path id="Path_1367" data-name="Path 1367" d="M1850.4,2209.678h-8.566v-4.508h8.566Zm-8.328-.239h8.087v-4.026h-8.087Z" transform="translate(-1751.901 -2194.748)" fill="#0ab9b4"/>
      <path id="Path_1368" data-name="Path 1368" d="M1055.256,2248.508h-8.566V2244h8.566Zm-8.325-.241h8.086v-4.025h-8.086Z" transform="translate(-1044.188 -2229.308)" fill="#0ab9b4"/>
      <path id="Path_1369" data-name="Path 1369" d="M1130.986,2248.508h-8.566V2244h8.566Zm-8.327-.241h8.087v-4.025h-8.087Z" transform="translate(-1111.591 -2229.308)" fill="#0ab9b4"/>
      <path id="Path_1370" data-name="Path 1370" d="M1206.716,2248.508h-8.566V2244h8.566Zm-8.326-.241h8.087v-4.025h-8.087Z" transform="translate(-1178.995 -2229.308)" fill="#0ab9b4"/>
      <path id="Path_1371" data-name="Path 1371" d="M1282.446,2248.508h-8.566V2244h8.566Zm-8.327-.241h8.086v-4.025h-8.086Z" transform="translate(-1246.398 -2229.308)" fill="#0ab9b4"/>
      <path id="Path_1372" data-name="Path 1372" d="M1358.166,2248.508H1349.6V2244h8.566Zm-8.326-.241h8.086v-4.025h-8.086Z" transform="translate(-1313.793 -2229.308)" fill="#0ab9b4"/>
      <path id="Path_1373" data-name="Path 1373" d="M1433.9,2248.508h-8.566V2244h8.566Zm-8.327-.241h8.087v-4.025h-8.087Z" transform="translate(-1381.196 -2229.308)" fill="#0ab9b4"/>
      <path id="Path_1374" data-name="Path 1374" d="M1509.656,2248.508h-8.566V2244h8.566Zm-8.327-.241h8.087v-4.025h-8.087Z" transform="translate(-1448.626 -2229.308)" fill="#0ab9b4"/>
      <path id="Path_1375" data-name="Path 1375" d="M1585.355,2248.508h-8.565V2244h8.565Zm-8.325-.241h8.086v-4.025h-8.083Z" transform="translate(-1516.003 -2229.308)" fill="#0ab9b4"/>
      <path id="Path_1376" data-name="Path 1376" d="M1661.076,2248.508h-8.566V2244h8.566Zm-8.327-.241h8.087v-4.025h-8.087Z" transform="translate(-1583.397 -2229.308)" fill="#0ab9b4"/>
      <path id="Path_1377" data-name="Path 1377" d="M1736.806,2248.508h-8.566V2244h8.566Zm-8.327-.241h8.09v-4.025h-8.087Z" transform="translate(-1650.801 -2229.308)" fill="#0ab9b4"/>
      <path id="Path_1378" data-name="Path 1378" d="M1812.563,2248.508H1804V2244h8.566Zm-8.327-.241h8.087v-4.025h-8.087Z" transform="translate(-1718.231 -2229.308)" fill="#0ab9b4"/>
      <path id="Path_1379" data-name="Path 1379" d="M1888.265,2248.508H1879.7V2244h8.565Zm-8.325-.241h8.086v-4.025h-8.086Z" transform="translate(-1785.607 -2229.308)" fill="#0ab9b4"/>
      <path id="Path_1380" data-name="Path 1380" d="M1017.4,2287.268h-8.566v-4.508h8.566Zm-8.327-.24h8.087v-4.022h-8.088Z" transform="translate(-1010.49 -2263.807)" fill="#0ab9b4"/>
      <path id="Path_1381" data-name="Path 1381" d="M1093.126,2287.268h-8.566v-4.508h8.566Zm-8.327-.24h8.087v-4.022H1084.8Z" transform="translate(-1077.894 -2263.807)" fill="#0ab9b4"/>
      <path id="Path_1382" data-name="Path 1382" d="M1168.855,2287.268h-8.565v-4.508h8.565Zm-8.325-.24h8.084v-4.022h-8.086Z" transform="translate(-1145.297 -2263.807)" fill="#0ab9b4"/>
      <path id="Path_1383" data-name="Path 1383" d="M1244.568,2287.268H1236v-4.508h8.566Zm-8.327-.24h8.087v-4.022h-8.087Z" transform="translate(-1212.683 -2263.807)" fill="#0ab9b4"/>
      <path id="Path_1384" data-name="Path 1384" d="M1320.306,2287.268h-8.566v-4.508h8.566Zm-8.327-.24h8.087v-4.022h-8.087Z" transform="translate(-1280.095 -2263.807)" fill="#0ab9b4"/>
      <path id="Path_1385" data-name="Path 1385" d="M1396.036,2287.268h-8.566v-4.508h8.566Zm-8.327-.24h8.087v-4.022h-8.087Z" transform="translate(-1347.499 -2263.807)" fill="#0ab9b4"/>
      <path id="Path_1386" data-name="Path 1386" d="M1471.765,2287.268H1463.2v-4.508h8.565Zm-8.325-.24h8.086v-4.022h-8.086Z" transform="translate(-1414.902 -2263.807)" fill="#0ab9b4"/>
      <path id="Path_1387" data-name="Path 1387" d="M1547.486,2287.268h-8.566v-4.508h8.566Zm-8.327-.24h8.087v-4.022h-8.087Z" transform="translate(-1482.297 -2263.807)" fill="#0ab9b4"/>
      <path id="Path_1388" data-name="Path 1388" d="M1623.216,2287.268h-8.566v-4.508h8.566Zm-8.326-.24h8.087v-4.022h-8.087Z" transform="translate(-1549.7 -2263.807)" fill="#0ab9b4"/>
      <path id="Path_1389" data-name="Path 1389" d="M1698.946,2287.268h-8.566v-4.508h8.566Zm-8.327-.24h8.087v-4.022h-8.087Z" transform="translate(-1617.103 -2263.807)" fill="#0ab9b4"/>
      <path id="Path_1390" data-name="Path 1390" d="M1774.666,2287.268H1766.1v-4.508h8.565Zm-8.326-.24h8.086v-4.022h-8.086Z" transform="translate(-1684.498 -2263.807)" fill="#0ab9b4"/>
      <path id="Path_1391" data-name="Path 1391" d="M1850.4,2287.268h-8.566v-4.508h8.566Zm-8.326-.24h8.087v-4.022h-8.088Z" transform="translate(-1751.901 -2263.807)" fill="#0ab9b4"/>
      <path id="Path_1392" data-name="Path 1392" d="M1055.256,2326.069h-8.566v-4.508h8.566Zm-8.325-.24h8.086V2321.8h-8.086Z" transform="translate(-1044.188 -2298.341)" fill="#0ab9b4"/>
      <path id="Path_1393" data-name="Path 1393" d="M1130.986,2326.069h-8.566v-4.508h8.566Zm-8.327-.24h8.087V2321.8h-8.087Z" transform="translate(-1111.591 -2298.341)" fill="#0ab9b4"/>
      <path id="Path_1394" data-name="Path 1394" d="M1206.716,2326.069h-8.566v-4.508h8.566Zm-8.326-.24h8.087V2321.8h-8.087Z" transform="translate(-1178.995 -2298.341)" fill="#0ab9b4"/>
      <path id="Path_1395" data-name="Path 1395" d="M1282.446,2326.069h-8.566v-4.508h8.566Zm-8.327-.24h8.086V2321.8h-8.086Z" transform="translate(-1246.398 -2298.341)" fill="#0ab9b4"/>
      <path id="Path_1396" data-name="Path 1396" d="M1358.166,2326.069H1349.6v-4.508h8.566Zm-8.326-.24h8.086V2321.8h-8.086Z" transform="translate(-1313.793 -2298.341)" fill="#0ab9b4"/>
      <path id="Path_1397" data-name="Path 1397" d="M1433.9,2326.069h-8.566v-4.508h8.566Zm-8.327-.24h8.087V2321.8h-8.087Z" transform="translate(-1381.196 -2298.341)" fill="#0ab9b4"/>
      <path id="Path_1398" data-name="Path 1398" d="M1509.656,2326.069h-8.566v-4.508h8.566Zm-8.327-.24h8.087V2321.8h-8.087Z" transform="translate(-1448.626 -2298.341)" fill="#0ab9b4"/>
      <path id="Path_1399" data-name="Path 1399" d="M1585.355,2326.069h-8.565v-4.508h8.565Zm-8.325-.24h8.086V2321.8h-8.083Z" transform="translate(-1516.003 -2298.341)" fill="#0ab9b4"/>
      <path id="Path_1400" data-name="Path 1400" d="M1661.076,2326.069h-8.566v-4.508h8.566Zm-8.327-.24h8.087V2321.8h-8.087Z" transform="translate(-1583.397 -2298.341)" fill="#0ab9b4"/>
      <path id="Path_1401" data-name="Path 1401" d="M1736.806,2326.069h-8.566v-4.508h8.566Zm-8.327-.24h8.09V2321.8h-8.087Z" transform="translate(-1650.801 -2298.341)" fill="#0ab9b4"/>
      <path id="Path_1402" data-name="Path 1402" d="M1812.563,2326.069H1804v-4.508h8.566Zm-8.327-.24h8.087V2321.8h-8.087Z" transform="translate(-1718.231 -2298.341)" fill="#0ab9b4"/>
      <path id="Path_1403" data-name="Path 1403" d="M1017.4,2364.868h-8.566v-4.508h8.566Zm-8.327-.24h8.087V2360.6h-8.088Z" transform="translate(-1010.49 -2332.875)" fill="#0ab9b4"/>
      <path id="Path_1404" data-name="Path 1404" d="M1093.126,2364.868h-8.566v-4.508h8.566Zm-8.327-.24h8.087V2360.6H1084.8Z" transform="translate(-1077.894 -2332.875)" fill="#0ab9b4"/>
      <path id="Path_1405" data-name="Path 1405" d="M1168.855,2364.868h-8.565v-4.508h8.565Zm-8.325-.24h8.084V2360.6h-8.086Z" transform="translate(-1145.297 -2332.875)" fill="#0ab9b4"/>
      <path id="Path_1406" data-name="Path 1406" d="M1244.568,2364.868H1236v-4.508h8.566Zm-8.327-.24h8.087V2360.6h-8.087Z" transform="translate(-1212.683 -2332.875)" fill="#0ab9b4"/>
      <path id="Path_1407" data-name="Path 1407" d="M1320.306,2364.868h-8.566v-4.508h8.566Zm-8.327-.24h8.087V2360.6h-8.087Z" transform="translate(-1280.095 -2332.875)" fill="#0ab9b4"/>
      <path id="Path_1408" data-name="Path 1408" d="M1396.036,2364.868h-8.566v-4.508h8.566Zm-8.327-.24h8.087V2360.6h-8.087Z" transform="translate(-1347.499 -2332.875)" fill="#0ab9b4"/>
      <path id="Path_1409" data-name="Path 1409" d="M1471.765,2364.868H1463.2v-4.508h8.565Zm-8.325-.24h8.086V2360.6h-8.086Z" transform="translate(-1414.902 -2332.875)" fill="#0ab9b4"/>
      <path id="Path_1410" data-name="Path 1410" d="M1547.486,2364.868h-8.566v-4.508h8.566Zm-8.327-.24h8.087V2360.6h-8.087Z" transform="translate(-1482.297 -2332.875)" fill="#0ab9b4"/>
      <path id="Path_1411" data-name="Path 1411" d="M1623.216,2364.868h-8.566v-4.508h8.566Zm-8.326-.24h8.087V2360.6h-8.087Z" transform="translate(-1549.7 -2332.875)" fill="#0ab9b4"/>
      <path id="Path_1412" data-name="Path 1412" d="M1698.946,2364.868h-8.566v-4.508h8.566Zm-8.327-.24h8.087V2360.6h-8.087Z" transform="translate(-1617.103 -2332.875)" fill="#0ab9b4"/>
      <path id="Path_1413" data-name="Path 1413" d="M1774.666,2364.868H1766.1v-4.508h8.565Zm-8.326-.24h8.086V2360.6h-8.086Z" transform="translate(-1684.498 -2332.875)" fill="#0ab9b4"/>
    </g>
    <rect id="Rectangle_590" data-name="Rectangle 590" width="29.489" height="68.63" transform="translate(134.198 161.349)" fill="#7adbd9"/>
    <g id="Group_1777" data-name="Group 1777" transform="translate(134.198 161.349)" clip-path="url(#clip-path-4)">
      <rect id="Rectangle_591" data-name="Rectangle 591" width="33.242" height="3.633" transform="translate(-2.009 0.325)" fill="#0ab9b4"/>
    </g>
    <rect id="Rectangle_593" data-name="Rectangle 593" width="37.4" height="68.63" transform="translate(163.687 161.349)" fill="#99ebe9"/>
    <g id="Group_1779" data-name="Group 1779" transform="translate(163.687 161.349)" clip-path="url(#clip-path-5)">
      <g id="Group_1778" data-name="Group 1778" transform="translate(1.91 2.775)" opacity="0.59">
        <path id="Path_1415" data-name="Path 1415" d="M1618.277,1533.09a27.943,27.943,0,0,1,5.118,15.11c.5,9.413-6.767,48.564-26.085,50.74h0l15.273,7.052,26.334-3.219s-3.8-44.835-4.045-47.973-1.4-20.724-1.4-20.724Z" transform="translate(-1597.31 -1533.09)" fill="#c8fbfa"/>
      </g>
      <rect id="Rectangle_594" data-name="Rectangle 594" width="44.415" height="2.826" transform="translate(-1.667 1.078)" fill="#0ab9b4"/>
    </g>
    <rect id="Rectangle_596" data-name="Rectangle 596" width="21.351" height="21.355" transform="translate(172.93 180.974)" fill="#0ab9b4"/>
    <path id="Path_1416" data-name="Path 1416" d="M1458.22,1111.557l.169-2.467H1509v44.921h-32.664l-6.72-2.381Z" transform="translate(-1307.917 -991.585)" fill="#0ab9b4"/>
    <g id="Group_1780" data-name="Group 1780" transform="translate(150.304 117.505)" clip-path="url(#clip-path-6)">
      <path id="Path_1417" data-name="Path 1417" d="M1650.882,1060.455s11.668,19.564-1.979,33.782-20.033,13.207-20.033,13.207l33.351,1.78,4.508-17.834,4.288-34.62Z" transform="translate(-1610.107 -1062.523)" fill="#7adbd9"/>
      <path id="Path_1640" data-name="Path 1640" d="M0,0H60.76" transform="translate(-2.043 4.088)" fill="none" stroke="#fff" stroke-linecap="round" stroke-width="10" opacity="0.36"/>
      <line id="Line_30" data-name="Line 30" x2="61.091" transform="translate(-2.275 10.94)" fill="none" stroke="#fff" stroke-linecap="round" stroke-linejoin="round" stroke-width="10" opacity="0.36"/>
      <line id="Line_31" data-name="Line 31" x2="61.421" transform="translate(-2.506 17.792)" fill="none" stroke="#fff" stroke-linecap="round" stroke-linejoin="round" stroke-width="10" opacity="0.36"/>
      <line id="Line_32" data-name="Line 32" x2="61.75" transform="translate(-2.737 24.645)" fill="none" stroke="#fff" stroke-linecap="round" stroke-linejoin="round" stroke-width="10" opacity="0.36"/>
      <line id="Line_33" data-name="Line 33" x2="62.08" transform="translate(-2.968 31.498)" fill="none" stroke="#fff" stroke-linecap="round" stroke-linejoin="round" stroke-width="10" opacity="0.36"/>
      <line id="Line_34" data-name="Line 34" x2="62.41" transform="translate(-3.198 38.35)" fill="none" stroke="#fff" stroke-linecap="round" stroke-linejoin="round" stroke-width="10" opacity="0.36"/>
    </g>
    <path id="Path_1419" data-name="Path 1419" d="M1300.005,1109.09l-19.735,44.921h37.685Z" transform="translate(-1149.532 -991.585)" fill="#7adbd9"/>
    <path id="Path_1420" data-name="Path 1420" d="M1389.08,1355.177s0-11.407,6.307-11.407,6.4,11.377,6.4,11.377Z" transform="translate(-1246.379 -1200.462)" fill="#0ab9b4"/>
    <rect id="Rectangle_597" data-name="Rectangle 597" width="12.022" height="39.477" transform="translate(142.931 190.503)" fill="#0ab9b4"/>
    <path id="Path_1421" data-name="Path 1421" d="M1480.839,2262.5h-36.294a2.835,2.835,0,0,1-2.836-2.836v-4.451a2.836,2.836,0,0,1,2.836-2.837h36.294a2.836,2.836,0,0,1,2.836,2.837v4.451A2.835,2.835,0,0,1,1480.839,2262.5Z" transform="translate(-1293.222 -2009.17)" fill="#081ea0"/>
    <g id="Group_1781" data-name="Group 1781" transform="translate(148.488 243.211)" clip-path="url(#clip-path-7)">
      <rect id="Rectangle_598" data-name="Rectangle 598" width="44.689" height="2.036" transform="translate(-1.108 9.223)" fill="#010f4c"/>
    </g>
    <path id="Path_1423" data-name="Path 1423" d="M1250.962,2175.64l-17.127,32A2.834,2.834,0,0,1,1230,2208.8l-3.925-2.1a2.837,2.837,0,0,1-1.161-3.839l17.127-32a2.834,2.834,0,0,1,3.838-1.162l3.924,2.1A2.836,2.836,0,0,1,1250.962,2175.64Z" transform="translate(-1099.96 -1935.286)" fill="#081ea0"/>
    <path id="Path_1424" data-name="Path 1424" d="M1480.839,2354.585h-36.294a2.836,2.836,0,0,1-2.836-2.837V2347.3a2.836,2.836,0,0,1,2.836-2.837h36.294a2.836,2.836,0,0,1,2.836,2.837v4.452A2.836,2.836,0,0,1,1480.839,2354.585Z" transform="translate(-1293.222 -2091.125)" fill="#081ea0"/>
    <g id="Group_1782" data-name="Group 1782" transform="translate(148.488 253.335)" clip-path="url(#clip-path-8)">
      <rect id="Rectangle_599" data-name="Rectangle 599" width="44.689" height="2.036" transform="translate(-1.324 9.369)" fill="#010f4c"/>
    </g>
    <path id="Path_1426" data-name="Path 1426" d="M1480.839,2446.674h-36.294a2.835,2.835,0,0,1-2.836-2.837v-4.452a2.834,2.834,0,0,1,2.836-2.835h36.294a2.834,2.834,0,0,1,2.836,2.835v4.452A2.836,2.836,0,0,1,1480.839,2446.674Z" transform="translate(-1293.222 -2173.089)" fill="#081ea0"/>
    <g id="Group_1783" data-name="Group 1783" transform="translate(148.488 263.46)" clip-path="url(#clip-path-9)">
      <rect id="Rectangle_600" data-name="Rectangle 600" width="44.689" height="2.036" transform="translate(-1.324 9.432)" fill="#010f4c"/>
    </g>
    <path id="Path_1428" data-name="Path 1428" d="M3343.021,2428.216a20.325,20.325,0,0,0,6.456-2.882,32.963,32.963,0,0,1-2.241-10.164l-8.2.439c-.028.11.91,7.787-1.047,10.737-.014.022-.032.044-.049.067A6.384,6.384,0,0,0,3343.021,2428.216Z" transform="translate(-2980.96 -2154.061)" fill="#6a78e2"/>
    <path id="Path_1429" data-name="Path 1429" d="M3251.877,2507.61a20.321,20.321,0,0,1-6.457,2.882,6.381,6.381,0,0,1-5.081-1.8c-2.089,2.9-13.436,4.336-11.917,9.126,1.532,4.821,11.966,2.014,15.708,2.156s10.719.142,9.016-6.579C3252.661,2511.475,3252.239,2509.5,3251.877,2507.61Z" transform="translate(-2883.36 -2236.337)" fill="#4949a5"/>
    <path id="Path_1430" data-name="Path 1430" d="M3588.185,2364.375a20.382,20.382,0,0,0,4.661-5.315c-3.628-3.249-5.036-7.552-5.536-8.64l-7.019,3.841c.021.115,3.086,7.019,2.54,10.516a.428.428,0,0,1-.016.082A6.382,6.382,0,0,0,3588.185,2364.375Z" transform="translate(-3196.664 -2096.43)" fill="#6a78e2"/>
    <path id="Path_1431" data-name="Path 1431" d="M3550.709,2429a20.31,20.31,0,0,1-4.66,5.315,6.364,6.364,0,0,1-5.37.484c-.683,3.51-10.4,9.555-7.018,13.266,3.408,3.739,11.713-3.17,15.173-4.605s9.8-4.349,5.444-9.745C3553.04,2432.182,3551.828,2430.565,3550.709,2429Z" transform="translate(-3154.527 -2166.37)" fill="#4949a5"/>
    <path id="Path_1432" data-name="Path 1432" d="M3256.473,1792.4l-.413,1.759s2.475,51.1,8.136,71.864l13.147-.426s-3.913-43.56-4.168-53.09c0,0,7.741,35.734,18.629,50.8l10.666-5.5s-15.2-46.17-16.447-65.227l-4.763-.907Z" transform="translate(-2908.083 -1599.114)" fill="#322f7c"/>
    <g id="Group_1784" data-name="Group 1784" transform="translate(347.977 192.555)" clip-path="url(#clip-path-10)">
      <path id="Path_1433" data-name="Path 1433" d="M3343.492,1986.979l-.947-5.808s-2.768,11.853-2.355,18.656.495,16.2-2.477,20.706-3.713,14.91-3.713,14.91l11.972.416s-1.818-41.864-1.9-42.441S3343.492,1986.979,3343.492,1986.979Z" transform="translate(-3325.43 -1960.334)" fill="#100e63"/>
      <path id="Path_1434" data-name="Path 1434" d="M3536.71,1808.69s1.238,21.964,2.639,29.89-1.979,15.109,1.238,20.146,5.531,14.78,1.734,20.231c0,0,17.4-3.127,16.775-3.582s-6.788-19.867-6.788-19.867Z" transform="translate(-3505.853 -1806.818)" fill="#100e63"/>
      <path id="Path_1435" data-name="Path 1435" d="M3262.92,1779.06s2.9,54.46,8.755,76.495" transform="translate(-3262.166 -1780.447)" fill="none" stroke="#fff" stroke-miterlimit="10" stroke-width="6" opacity="0.32"/>
      <path id="Path_1436" data-name="Path 1436" d="M3295.89,1792.92s2.7,56.832,7.888,75.254" transform="translate(-3291.511 -1792.783)" fill="none" stroke="#fff" stroke-miterlimit="10" stroke-width="6" opacity="0.32"/>
      <path id="Path_1437" data-name="Path 1437" d="M3328.86,1806.79s2.5,59.205,7.021,74.013" transform="translate(-3320.856 -1805.128)" fill="none" stroke="#fff" stroke-miterlimit="10" stroke-width="6" opacity="0.32"/>
      <path id="Path_1438" data-name="Path 1438" d="M3361.83,1820.66s2.3,61.578,6.157,72.772" transform="translate(-3350.201 -1817.473)" fill="none" stroke="#fff" stroke-miterlimit="10" stroke-width="6" opacity="0.32"/>
      <path id="Path_1439" data-name="Path 1439" d="M3394.8,1834.53s2.089,63.95,5.285,71.531" transform="translate(-3379.546 -1829.817)" fill="none" stroke="#fff" stroke-miterlimit="10" stroke-width="6" opacity="0.32"/>
      <path id="Path_1440" data-name="Path 1440" d="M3404.821,1834.53s1.539,16.58,4.178,26.267,10.645,34.141,17.319,40.9" transform="translate(-3388.464 -1829.817)" fill="none" stroke="#fff" stroke-miterlimit="10" stroke-width="6" opacity="0.32"/>
      <path id="Path_1441" data-name="Path 1441" d="M3432.85,1823.79s1.65,15.44,4.423,26.263c2.874,11.251,10.159,34.268,16.586,41.258" transform="translate(-3413.412 -1820.258)" fill="none" stroke="#fff" stroke-miterlimit="10" stroke-width="6" opacity="0.32"/>
      <path id="Path_1442" data-name="Path 1442" d="M3460.88,1813.05s1.746,14.3,4.661,26.259c3.107,12.815,9.676,34.4,15.852,41.609" transform="translate(-3438.36 -1810.699)" fill="none" stroke="#fff" stroke-miterlimit="10" stroke-width="6" opacity="0.32"/>
      <path id="Path_1443" data-name="Path 1443" d="M3488.91,1802.32s1.848,13.161,4.9,26.252c3.34,14.379,9.188,34.525,15.116,41.964" transform="translate(-3463.308 -1801.149)" fill="none" stroke="#fff" stroke-miterlimit="10" stroke-width="6" opacity="0.32"/>
      <path id="Path_1444" data-name="Path 1444" d="M3516.94,1791.58s8.772,54.066,19.521,68.564" transform="translate(-3488.256 -1791.59)" fill="none" stroke="#fff" stroke-miterlimit="10" stroke-width="6" opacity="0.32"/>
    </g>
    <path id="Path_1446" data-name="Path 1446" d="M3141.194,1440.79s-4.083,8.678-5.278,12.644,5.785,13.782,13.838,20.7l-.625-7.828s-5.237-7.6-6.361-10.607,4.376-11.4,4.376-11.4Z" transform="translate(-2801.03 -1286.814)" fill="#f8b3a3"/>
    <g id="Group_1785" data-name="Group 1785" transform="translate(334.753 153.976)" clip-path="url(#clip-path-11)">
      <path id="Path_1447" data-name="Path 1447" d="M3191.543,1494s.963.276.33,2.7-2.395,3.826-1.734,5.973,4.559,6.935,4.559,6.935l-2.357-6.77,2.5-8.725Z" transform="translate(-3184.033 -1488.15)" fill="#e26a6a"/>
    </g>
    <path id="Path_1449" data-name="Path 1449" d="M3182.849,1284.808l2.175-.264s10.831-.228,13.326,6.578a116.63,116.63,0,0,1,4.083,14.691s-3.175,2.666-5.161,3.006c0,0,2.609,26.772,3.518,32.106,0,0-13.757,10.555-29.959,1.588,0,0-2.1-21.923-2.1-34.43,0,0-7.526-.253-8.433-4.139,0,0,6.181-13.329,7.117-16.25s7.031-3.628,9.9-3.431S3182.849,1284.808,3182.849,1284.808Z" transform="translate(-2822.852 -1147.469)" fill="#fff"/>
    <g id="Group_1786" data-name="Group 1786" transform="translate(337.448 136.762)" clip-path="url(#clip-path-12)">
      <path id="Path_1450" data-name="Path 1450" d="M3204.516,1393.769l.368-1.064,1.172-13.394s-2.529,11.854-5.137,13.174C3200.92,1392.484,3201.287,1393.842,3204.516,1393.769Z" transform="translate(-3196.454 -1368.856)" fill="#dce5ff"/>
      <path id="Path_1451" data-name="Path 1451" d="M3496.92,1297.29s3.181,14.765.625,22.241c-.016.045-.031.09-.048.135-2.639,7.432,5.66-2.495,5.66-2.495Z" transform="translate(-3459.908 -1295.854)" fill="#dce5ff"/>
      <path id="Path_1452" data-name="Path 1452" d="M3304.886,1410.267l-.576-.565s-1.812-8.967-2.437-11.011-.439,2.4-.476,6.287-15.009,18.152-11.063,17.148,11.325-4.853,7.917,2.3-15.521,23.1-15.521,23.1l21.589,7.587,7.089-10.764-2.26-27.09Z" transform="translate(-3269.269 -1385.648)" fill="#dce5ff"/>
    </g>
    <path id="Path_1454" data-name="Path 1454" d="M3258.541,1008.264s-2.722-1.334-2.467-5.559,4.82-4.962,6.437-4.281c0,0,6.1-4.68,14.036,1.106s4.2,14.576,1.588,17.072-8.791,5.766-8.791,5.766l-6.295-5.71Z" transform="translate(-2908.08 -891.496)" fill="#26217d"/>
    <path id="Path_1455" data-name="Path 1455" d="M3263.172,1088.46s-3.46,13.272-.283,14.974,5.16.4,5.614,2.836a4,4,0,0,1-1.077,3.738s.17,2.1,3.572,2.325,4.141-2.042,4.141-2.042-1.342-5.427-.833-6.448-1.649-2.06-.812-2.987,2.684-1.229,3.079-3.366-2.457-2.439-3.119-3.364a6.391,6.391,0,0,1-1.266-3.933C3272.189,1090.2,3265.969,1091.069,3263.172,1088.46Z" transform="translate(-2912.966 -973.223)" fill="#f8b3a3"/>
    <g id="Group_1787" data-name="Group 1787" transform="translate(348.58 115.237)" clip-path="url(#clip-path-13)">
      <path id="Path_1456" data-name="Path 1456" d="M3267.018,1080.506a20.389,20.389,0,0,0,8.054,2.349s3.046,6.037,7.669,6.734l1.137-3.3-6.751-6.421L3267,1078Z" transform="translate(-3266.401 -1079.15)" fill="#e26a6a"/>
      <path id="Path_1457" data-name="Path 1457" d="M3304.45,1226.823l.787-.894s2.943.4,4.429-1.209c0,0-2.436,4.239-3.55,3.909Z" transform="translate(-3299.733 -1209.738)" fill="#e26a6a"/>
    </g>
    <path id="Path_1459" data-name="Path 1459" d="M3485.852,1410.563s2.848,9.551,4.948,9.9,10.776-5.5,11.682-7.257-.076-8.148,2.608-9.7,5.406.378,6.012,4.31-1.4,6.466-4.349,8.81-10.931,11.486-16.979,13.417S3479,1413.966,3479,1413.966Z" transform="translate(-3106.51 -1253.15)" fill="#f8b3a3"/>
    <g id="Group_1788" data-name="Group 1788" transform="translate(372.49 149.817)" clip-path="url(#clip-path-14)">
      <path id="Path_1460" data-name="Path 1460" d="M3525.621,1452.871s2.164,12.284,8.291,11.293,5.54-5.422,5.65-5.5-10.676-8.476-10.676-8.476Z" transform="translate(-3520.495 -1444.998)" fill="#e26a6a"/>
    </g>
    <path id="Path_1462" data-name="Path 1462" d="M3638.565,1517.936c1.614,2.058,2.639,1.74,4.7.265s3.043.908,3.043.908l-1.241-100.661a11.722,11.722,0,0,0-12.592.2l.176,100.9a12.125,12.125,0,0,1,2.179-.22C3636.04,1519.312,3636.951,1515.877,3638.565,1517.936Z" transform="translate(-3243.115 -1265.352)" fill="#0ab9b4"/>
    <g id="Group_1791" data-name="Group 1791" transform="translate(389.365 151.325)" clip-path="url(#clip-path-15)">
      <g id="Group_1789" data-name="Group 1789" transform="translate(8.765 -3.887)" opacity="0.55">
        <path id="Path_1463" data-name="Path 1463" d="M3712.355,1381.4a.382.382,0,0,1,.609.306l.66,106.388a.383.383,0,1,1-.764.005l-.66-106.389A.381.381,0,0,1,3712.355,1381.4Z" transform="translate(-3712.2 -1381.325)" fill="#fff"/>
      </g>
      <g id="Group_1790" data-name="Group 1790" transform="translate(2.965 -2.806)" opacity="0.55">
        <path id="Path_1464" data-name="Path 1464" d="M3659.612,1391.227a.382.382,0,0,1,.608.3l.732,105.838a.385.385,0,1,1-.769.006l-.733-105.837A.383.383,0,0,1,3659.612,1391.227Z" transform="translate(-3659.45 -1391.152)" fill="#fff"/>
      </g>
    </g>
    <path id="Path_1466" data-name="Path 1466" d="M3682.971,2451.6a5.148,5.148,0,0,0-4.371.352l2.233,5.321Z" transform="translate(-3284.165 -2186.191)"/>
    <path id="Path_1467" data-name="Path 1467" d="M3644.094,2345.1l4.391-11.655s-.979-2.382-3.043-.908-3.091,1.793-4.7-.265-2.529,1.375-3.728,1.39a6.724,6.724,0,0,0-2.089.347l4.8,11.435A5.171,5.171,0,0,1,3644.094,2345.1Z" transform="translate(-3245.287 -2079.692)" fill="#99fffb"/>
    <path id="Path_1468" data-name="Path 1468" d="M1430.3,566.039l-1.877-.374s-32-5.717-37.273,42.951L1453.932,603l-15.484-31.933Z" transform="translate(-1248.221 -507.725)" fill="#13136d"/>
    <path id="Path_1469" data-name="Path 1469" d="M1755.722,788.22l137.569-2.5s-28.129-63.972-18.1-130.72c12.786-85.124-7.418-87.663-7.418-87.663H1730.15s28.285,2.4,18.531,91.333C1748.1,681.906,1735.975,750.447,1755.722,788.22Z" transform="translate(-1549.948 -509.4)" fill="#fff"/>
    <g id="Group_1792" data-name="Group 1792" transform="translate(180.202 57.94)" clip-path="url(#clip-path-16)">
      <path id="Path_1470" data-name="Path 1470" d="M2941.47,520.553s8.878,3.188,12.853,18.362,2.268,34.222,1.01,46.372-4.105,26.563-5.018,38.063-1.387,30.976,3,59.178c4.243,27.268,17.031,63.881,17.031,63.881l8.364.152-6.891-123.206s-5.775-95.5-5.475-96.414-5.778-8.82-5.778-8.82Z" transform="translate(-2808.285 -523.532)" fill="#0841b5"/>
      <path id="Path_1471" data-name="Path 1471" d="M1702.51,541.81h152.519l-4.189-4.19H1702.663Z" transform="translate(-1705.549 -540.888)" fill="#0841b5"/>
    </g>
    <path id="Path_1473" data-name="Path 1473" d="M1919.72,655.43s12.565,19.367,8.635,54.961h52.126s4.618-39.73-10.328-54.961Z" transform="translate(-1718.674 -587.805)" fill="#d9ebf9"/>
    <path id="Path_1474" data-name="Path 1474" d="M2108.256,865.758l-35.445,1.209a78.519,78.519,0,0,0-1.671-25.146l35.024-1.231A78.953,78.953,0,0,1,2108.256,865.758Z" transform="translate(-1853.445 -752.606)" fill="#5a92e5"/>
    <g id="Group_1793" data-name="Group 1793" transform="translate(217.695 87.984)" clip-path="url(#clip-path-17)">
      <path id="Path_1475" data-name="Path 1475" d="M2213.022,957.366a83.99,83.99,0,0,0-.272-10.646l7.792-.44a84.347,84.347,0,0,1,.44,10.681" transform="translate(-2197.18 -934.659)" fill="#fff"/>
      <path id="Path_1476" data-name="Path 1476" d="M2193.673,1042.41l12.67-.66c-.032.749-.053,1.123-.1,1.869l-12.577.609C2193.675,1043.5,2193.677,1043.139,2193.673,1042.41Z" transform="translate(-2180.19 -1019.632)" fill="#fff"/>
      <path id="Path_1477" data-name="Path 1477" d="M2176.47,1057.73l16.17-.88c-.03.762-.05,1.141-.1,1.9l-16.191.788C2176.408,1058.813,2176.432,1058.452,2176.47,1057.73Z" transform="translate(-2164.782 -1033.072)" fill="#fff"/>
      <path id="Path_1478" data-name="Path 1478" d="M2325.866,902.477l-5.923.388c-.235-2.139-.556-4.27-.973-6.377l5.89-.388C2325.288,898.206,2325.62,900.339,2325.866,902.477Z" transform="translate(-2291.721 -889.997)" fill="#fff"/>
      <path id="Path_1479" data-name="Path 1479" d="M2329.682,906.085l-5.032.33c-.208-1.819-.5-3.628-.83-5.425l5.009-.33C2329.164,902.463,2329.467,904.268,2329.682,906.085Z" transform="translate(-2296.037 -894.055)" fill="#444bd8"/>
      <path id="Path_1480" data-name="Path 1480" d="M2119.01,910.18l-5.946.165c-.138-2.137-.362-4.273-.684-6.39l5.932-.165C2118.639,905.908,2118.868,908.043,2119.01,910.18Z" transform="translate(-2107.845 -896.841)" fill="#fff"/>
      <path id="Path_1481" data-name="Path 1481" d="M2122.661,913.7l-5.058.141c-.125-1.818-.33-3.628-.583-5.433l5.043-.14C2122.326,910.072,2122.533,911.885,2122.661,913.7Z" transform="translate(-2111.975 -900.829)" fill="#444bd8"/>
    </g>
    <path id="Path_1483" data-name="Path 1483" d="M2070.293,724.33q-6.79,7.577-14.2,14.54l39.1-1.121Q2082.908,730.731,2070.293,724.33Z" transform="translate(-1840.05 -649.13)" fill="#97c1ff"/>
    <path id="Path_1484" data-name="Path 1484" d="M2096.276,736.51q-5.629,6.174-11.666,11.938l32.072-.919Q2106.588,741.815,2096.276,736.51Z" transform="translate(-1865.434 -659.97)" fill="#6f89dd"/>
    <path id="Path_1485" data-name="Path 1485" d="M2522.941,836.781l.587,7.54h-1.391l-.587-7.542Z" transform="translate(-2254.333 -749.215)" fill="#13136d"/>
    <path id="Path_1486" data-name="Path 1486" d="M2549.247,844.331l-.587-7.54h1.583l2.219,3.234a22.708,22.708,0,0,1,1.5,2.529h.023c-.169-1.007-.279-1.979-.368-3.133l-.2-2.629h1.289l.587,7.54h-1.436l-2.248-3.313a28.989,28.989,0,0,1-1.571-2.607l-.033.011c.132.973.22,1.969.318,3.211l.21,2.7Z" transform="translate(-2278.462 -749.224)" fill="#13136d"/>
    <path id="Path_1487" data-name="Path 1487" d="M2618.13,841.81a4.109,4.109,0,0,0,1.88.482c.894,0,1.359-.413,1.31-1.029-.044-.571-.455-.906-1.453-1.253-1.289-.448-2.144-1.108-2.229-2.2-.1-1.23.871-2.169,2.521-2.169a4.244,4.244,0,0,1,1.862.382l-.253,1.107a3.439,3.439,0,0,0-1.539-.358c-.88,0-1.229.469-1.2.906.046.582.508.85,1.556,1.242,1.361.493,2.056,1.152,2.141,2.238.095,1.209-.751,2.26-2.718,2.26a4.7,4.7,0,0,1-2.089-.471Z" transform="translate(-2339.85 -748.2)" fill="#13136d"/>
    <path id="Path_1488" data-name="Path 1488" d="M2672.8,836.821l.342,4.4c.115,1.477.79,2.159,1.729,2.161,1.006,0,1.551-.683,1.437-2.159l-.343-4.4h1.391l.33,4.307c.181,2.328-.948,3.356-2.78,3.356-1.759,0-2.981-.974-3.166-3.346l-.337-4.319Z" transform="translate(-2387.706 -749.251)" fill="#13136d"/>
    <path id="Path_1489" data-name="Path 1489" d="M2740.1,836.5a13.036,13.036,0,0,1,2.089-.156,3.756,3.756,0,0,1,2.4.6,2.069,2.069,0,0,1,.77,1.511,1.829,1.829,0,0,1-1.231,1.89v.034a2.132,2.132,0,0,1,1.176,1.455,15.922,15.922,0,0,0,.763,2.1h-1.436a11.155,11.155,0,0,1-.647-1.779c-.292-.99-.677-1.3-1.47-1.319h-.7l.242,3.1h-1.379Zm1.639,3.334h.825c.938,0,1.488-.493,1.43-1.241-.065-.828-.683-1.209-1.587-1.209a4.011,4.011,0,0,0-.854.067Z" transform="translate(-2448.853 -748.831)" fill="#13136d"/>
    <path id="Path_1490" data-name="Path 1490" d="M2801.416,842.254l-.489,2.136h-1.436l1.855-7.54h1.775l3.063,7.542h-1.492l-.856-2.138Zm2.1-1.04-.744-1.857c-.183-.458-.347-.973-.494-1.41h-.023c-.079.44-.151.962-.252,1.41l-.44,1.857Z" transform="translate(-2501.713 -749.278)" fill="#13136d"/>
    <path id="Path_1491" data-name="Path 1491" d="M2865.248,844.431l-.587-7.54h1.576l2.219,3.235a22.881,22.881,0,0,1,1.5,2.529h.022c-.168-1.007-.278-1.979-.368-3.133l-.2-2.63h1.289l.587,7.54h-1.43l-2.248-3.312a28.991,28.991,0,0,1-1.57-2.607l-.033.011c.132.973.22,1.969.318,3.211l.21,2.7Z" transform="translate(-2559.718 -749.313)" fill="#13136d"/>
    <path id="Path_1492" data-name="Path 1492" d="M2939.29,843.2a4.674,4.674,0,0,1-1.94.33,3.92,3.92,0,0,1-4.185-3.793,3.489,3.489,0,0,1,3.76-3.982,4.617,4.617,0,0,1,1.88.336l-.22,1.1a3.915,3.915,0,0,0-1.515-.291,2.313,2.313,0,0,0-2.452,2.774,2.724,2.724,0,0,0,2.869,2.719,3.739,3.739,0,0,0,1.493-.279Z" transform="translate(-2620.676 -748.299)" fill="#13136d"/>
    <path id="Path_1493" data-name="Path 1493" d="M2999.2,841.136h-2.872l.173,2.216h3.214l.088,1.129h-4.6l-.587-7.54h4.432l.088,1.13h-3.048l.152,1.947h2.871Z" transform="translate(-2675.379 -749.358)" fill="#13136d"/>
    <path id="Path_1494" data-name="Path 1494" d="M2507.782,683.671l.379,4.869h5.194l-.379-4.87h2.241l.947,12.155h-2.241l-.418-5.356h-5.193l.417,5.357h-2.242l-.947-12.155Z" transform="translate(-2240.083 -612.94)" fill="#13136d"/>
    <path id="Path_1495" data-name="Path 1495" d="M2626.8,688.062c.318,4.076-2,6.4-5.388,6.4-3.462,0-5.853-2.617-6.131-6.188-.292-3.733,1.869-6.366,5.335-6.365C2624.2,681.912,2626.527,684.6,2626.8,688.062Zm-9.154.178c.193,2.471,1.6,4.437,3.753,4.438,2.169,0,3.236-1.979,3.038-4.526-.179-2.29-1.5-4.455-3.738-4.456C2618.474,683.7,2617.449,685.733,2617.643,688.24Z" transform="translate(-2337.732 -611.373)" fill="#13136d"/>
    <path id="Path_1496" data-name="Path 1496" d="M2735.672,683.732l.55,7.088c.185,2.38,1.273,3.481,2.786,3.481,1.622,0,2.5-1.1,2.316-3.48l-.55-7.087h2.241l.541,6.943c.293,3.75-1.528,5.41-4.48,5.409-2.843,0-4.806-1.57-5.1-5.394l-.542-6.961Z" transform="translate(-2442.917 -612.993)" fill="#13136d"/>
    <path id="Path_1497" data-name="Path 1497" d="M2843.869,691.916a6.623,6.623,0,0,0,3.03.776c1.44,0,2.19-.666,2.112-1.658-.072-.92-.733-1.461-2.344-2.021-2.079-.723-3.456-1.787-3.592-3.536-.154-1.979,1.4-3.5,4.068-3.5a6.851,6.851,0,0,1,3,.615l-.408,1.785a5.534,5.534,0,0,0-2.487-.577c-1.422,0-1.979.756-1.927,1.46.074.938.818,1.371,2.507,2,2.2.794,3.316,1.859,3.452,3.609.152,1.947-1.209,3.642-4.382,3.642a7.744,7.744,0,0,1-3.376-.759Z" transform="translate(-2540.497 -611.436)" fill="#13136d"/>
    <path id="Path_1498" data-name="Path 1498" d="M2937.4,690.565h-4.629l.278,3.57h5.175l.142,1.822h-7.417L2930,683.8h7.146l.142,1.822h-4.9l.244,3.138h4.629Z" transform="translate(-2617.874 -613.056)" fill="#13136d"/>
    <rect id="Rectangle_601" data-name="Rectangle 601" width="56.209" height="3.8" rx="1.9" transform="translate(267.488 101.912)" fill="#8bbfea"/>
    <rect id="Rectangle_602" data-name="Rectangle 602" width="56.209" height="3.8" rx="1.9" transform="translate(267.488 109.853)" fill="#8bbfea"/>
    <rect id="Rectangle_603" data-name="Rectangle 603" width="56.209" height="3.8" rx="1.9" transform="translate(267.488 117.793)" fill="#8bbfea"/>
    <rect id="Rectangle_604" data-name="Rectangle 604" width="72.362" height="6.637" transform="translate(220.924 128.512)" fill="#8bbfea"/>
    <rect id="Rectangle_605" data-name="Rectangle 605" width="72.362" height="6.637" transform="translate(237.333 149.219)" fill="#8bbfea"/>
    <rect id="Rectangle_606" data-name="Rectangle 606" width="72.362" height="6.637" transform="translate(235.342 169.925)" fill="#8bbfea"/>
    <rect id="Rectangle_607" data-name="Rectangle 607" width="72.362" height="6.637" transform="translate(236.148 190.632)" fill="#8bbfea"/>
    <rect id="Rectangle_608" data-name="Rectangle 608" width="72.362" height="6.637" transform="translate(220.924 211.338)" fill="#8bbfea"/>
    <rect id="Rectangle_609" data-name="Rectangle 609" width="72.362" height="6.637" transform="translate(243.211 232.045)" fill="#8bbfea"/>
    <rect id="Rectangle_610" data-name="Rectangle 610" width="72.362" height="6.637" transform="translate(248.485 252.751)" fill="#8bbfea"/>
    <ellipse id="Ellipse_32" data-name="Ellipse 32" cx="5.217" cy="5.218" rx="5.217" ry="5.218" transform="translate(218.115 147.32)" fill="#b4f5f3"/>
    <ellipse id="Ellipse_33" data-name="Ellipse 33" cx="5.217" cy="5.218" rx="5.217" ry="5.218" transform="translate(216.172 168.025)" fill="#b4f5f3"/>
    <ellipse id="Ellipse_34" data-name="Ellipse 34" cx="5.217" cy="5.218" rx="5.217" ry="5.218" transform="translate(215.707 188.732)" fill="#b4f5f3"/>
    <ellipse id="Ellipse_35" data-name="Ellipse 35" cx="5.217" cy="5.218" rx="5.217" ry="5.218" transform="translate(220.51 230.145)" fill="#b4f5f3"/>
    <ellipse id="Ellipse_36" data-name="Ellipse 36" cx="5.217" cy="5.218" rx="5.217" ry="5.218" transform="translate(225.728 250.851)" fill="#b4f5f3"/>
    <path id="Path_1499" data-name="Path 1499" d="M3482.714,925.008a4.089,4.089,0,1,1,4.085-4.091A4.089,4.089,0,0,1,3482.714,925.008Zm0-7.314a3.226,3.226,0,1,0,3.226,3.223A3.226,3.226,0,0,0,3482.714,917.694Z" transform="translate(-3106.173 -820.464)" fill="#99ebe9"/>
    <path id="Path_1500" data-name="Path 1500" d="M3246.827,933.9l-3.257,2.321,3.954,2.106Z" transform="translate(-2896.966 -835.657)" fill="#fff"/>
    <path id="Path_1501" data-name="Path 1501" d="M3357.407,889.369a.434.434,0,0,1-.265-.09l-4.08-3.174a.431.431,0,0,1,.078-.729l5.221-2.5a.431.431,0,0,1,.608.474l-1.14,5.678a.431.431,0,0,1-.273.32A.441.441,0,0,1,3357.407,889.369Zm-3.267-3.518,2.981,2.318.834-4.146Z" transform="translate(-2994.271 -790.201)" fill="#4f4085"/>
    <path id="Path_1502" data-name="Path 1502" d="M3498.621,1066.974a.438.438,0,0,1-.371-.216l-1.649-2.859a.43.43,0,0,1,.157-.588l2.859-1.649a.431.431,0,0,1,.59.158l1.649,2.859a.43.43,0,0,1-.158.589l-2.859,1.649A.426.426,0,0,1,3498.621,1066.974Zm-1.06-3.13,1.219,2.11,2.11-1.218-1.218-2.11Z" transform="translate(-3122.124 -949.32)" fill="#4f4085"/>
  </g>
</svg>
