<svg xmlns="http://www.w3.org/2000/svg" xmlns:xlink="http://www.w3.org/1999/xlink" width="379.247" height="266.355" viewBox="0 0 379.247 266.355">
  <defs>
    <clipPath id="clip-path">
      <path id="Path_1176" data-name="Path 1176" d="M1198.95,468.264c-.471-36.715-4.159-77.67,49.006-101.286s108.183,17.687,126.51,49.276,41.433,17.173,50.7,48.394,5.66,65.377-83.014,70.113S1199.659,523.519,1198.95,468.264Z" transform="translate(-1198.723 -359.996)" fill="#d7efff"/>
    </clipPath>
    <clipPath id="clip-path-2">
      <path id="Path_1182" data-name="Path 1182" d="M2555.674,902.359a4.432,4.432,0,0,1-5.2-4.206c-.579-4.983,3.647-5.6,6.094-5.16s2.713,1.776,2.713,1.776,3.647-2.949,7.783-1.9,2.018,3.186,5.216,4.7,4.625,3.647,3.469,6.538.235,4.225-.8,6.048-2.713.4-3.247,2.267-2.109,2.962-4.952,2.783-.934,1.776-5.159,1.958Z" transform="translate(-2550.416 -892.646)" fill="#26217d"/>
    </clipPath>
    <clipPath id="clip-path-3">
      <path id="Path_1187" data-name="Path 1187" d="M2424.5,1149.431s5.916.391,8.673,1.307,9.563,10.967,10.765,13.592a120.125,120.125,0,0,1,5.071,13.965,1.688,1.688,0,0,1-2,2.219s-7.34-3.024-7.873-4.491-.311-2.357-1.868-5.6a26.494,26.494,0,0,0-3.781-5.693l-.354,21.881-27.177-2.757.756-18.812s-8.806,8.628-10.274,8.361-3.514-8.272-3.425-9.877,8.229-8.805,9.3-10.139,5.4-4.648,13.633-4.092S2424.5,1149.431,2424.5,1149.431Z" transform="translate(-2393.015 -1149.229)" fill="#fff"/>
    </clipPath>
    <clipPath id="clip-path-4">
      <path id="Path_1191" data-name="Path 1191" d="M2567.945,962.4a49.963,49.963,0,0,0-1.8,9.64c-.222,4.313,1.94,5.9,3.854,6.253s.845,4.626.845,4.626-.4,1.378,2.357,1.512,3.158-.8,3.158-.8a13.68,13.68,0,0,1,0-5.6c.666-2.8,1.424-3.247,3.336-3.914s2.442-3.329.979-4.181a3.806,3.806,0,0,1-2.536-2.09,5.255,5.255,0,0,1-5.649-3.9S2569.146,963.379,2567.945,962.4Z" transform="translate(-2566.128 -962.4)" fill="#f8b3a3"/>
    </clipPath>
    <clipPath id="clip-path-5">
      <path id="Path_1194" data-name="Path 1194" d="M2633.443,1118.814s-1.4,2.115-2.338,2.271-.221,6.9.6,6.326,4.338-3.811,3.938-5.256S2634.243,1118.77,2633.443,1118.814Z" transform="translate(-2630.663 -1118.813)" fill="#fbd2da"/>
    </clipPath>
    <clipPath id="clip-path-6">
      <path id="Path_1197" data-name="Path 1197" d="M2594.327,1122.93a7.932,7.932,0,0,0,.622,1.579c.378.666-.375,6.94-1,6.539s-1.817-2.958-1.728-4.737S2594.327,1122.93,2594.327,1122.93Z" transform="translate(-2592.218 -1122.93)" fill="#fbd2da"/>
    </clipPath>
    <clipPath id="clip-path-7">
      <path id="Path_1200" data-name="Path 1200" d="M2062.093,1176.827s-21.2-8.561-24.575-10.654-15.123-5.692-15.256,0,12.565,4,13.487,4.626,21.273,13.378,25.343,13.743,5.026-1.11,5.026-1.11Z" transform="translate(-2022.261 -1163.111)" fill="#f8b3a3"/>
    </clipPath>
    <clipPath id="clip-path-8">
      <path id="Path_1204" data-name="Path 1204" d="M2526.262,1389.345s-14.366.888-19.081.8-4.226-1.823-8.807-1.869-10.227,4.686-3.691,5.159,9.851.814,10.8.939,15.093,1.285,21.051,1.2,7.65-2.135,7.65-2.135Z" transform="translate(-2491.715 -1388.277)" fill="#f8b3a3"/>
    </clipPath>
    <clipPath id="clip-path-9">
      <path id="Path_1212" data-name="Path 1212" d="M1458.573,1443.938s.521-23.306,7.863-32.755c7.979-10.274,21.938-11.474,36.6-10.543s50.09,2.47,66.107,2.97,43.586-.111,52.322,10.136,9.125,30.257,9.9,39.065.777,18.679.777,18.679v58.4l-174.55-.629S1457.6,1456.412,1458.573,1443.938Z" transform="translate(-1457.59 -1400.384)" fill="#68a3ea"/>
    </clipPath>
    <clipPath id="clip-path-10">
      <path id="Path_1210" data-name="Path 1210" d="M1253.77,2085.938s126.713-5.271,217.785,2.22v16.717s-120.525,5.628-217.785-1.406Z" transform="translate(-1253.77 -2084.136)" fill="#3c80d3"/>
    </clipPath>
    <clipPath id="clip-path-11">
      <path id="Path_1217" data-name="Path 1217" d="M2682.2,1837.892c-9.641-2.234-6.912-2.9-10.772-2.542s-.271-10.534,2.2-16.287c2.042-4.759,2.939-8.338,6.034-10.671,1.383-.3,2.664-2.664,7.232-4.673a10.646,10.646,0,0,1,8.509-.4c5.871,1.6,4.146,7.389,3.339,9.274a1.92,1.92,0,0,1,.131-.143l-.34.48S2691.844,1840.127,2682.2,1837.892Z" transform="translate(-2669.729 -1802.644)" fill="#f5838d"/>
    </clipPath>
    <clipPath id="clip-path-12">
      <path id="Path_1220" data-name="Path 1220" d="M1588.5,1837.892c9.641-2.234,6.911-2.9,10.772-2.542s.271-10.534-2.2-16.287c-2.042-4.759-2.941-8.338-6.034-10.671-1.383-.3-2.664-2.664-7.232-4.673a10.645,10.645,0,0,0-8.509-.4c-5.871,1.6-4.146,7.389-3.341,9.274a1.585,1.585,0,0,0-.13-.143l.34.48S1578.861,1840.127,1588.5,1837.892Z" transform="translate(-1571.09 -1802.644)" fill="#f5838d"/>
    </clipPath>
    <clipPath id="clip-path-13">
      <path id="Path_1226" data-name="Path 1226" d="M1373.158,465.216s-5.4-35.958,36.146-57.126c38.891-19.817,68.083,2.8,68.083,2.8s-21.6-2.839-33.906,18.589c0,0-22.822-1.575-35.05,18.56C1408.432,448.036,1385.227,447.161,1373.158,465.216Z" transform="translate(-1372.928 -399.954)" fill="#ed4370"/>
    </clipPath>
    <clipPath id="clip-path-14">
      <path id="Path_1231" data-name="Path 1231" d="M2227.327,1552.04s-1.6-2.885-7.117-2.22-9.7,3.865-9.963,11.473a127.108,127.108,0,0,1-1.467,14.722s6.449,8.583,22.15,2.712c0,0-.089-10.5,0-14.587S2230.841,1551.952,2227.327,1552.04Z" transform="translate(-2208.78 -1549.721)" fill="#2e3e99"/>
    </clipPath>
    <clipPath id="clip-path-15">
      <path id="Path_1234" data-name="Path 1234" d="M2136.725,1763.77l-1.2.2s-4.492.111-8.895,5.181-11.959,13.7-8.719,14.587,11.9-8.938,11.9-8.938l.4,22.933s12.41,4.651,21.216-1.953l-2.5-20.538s18.181,9.164,21.517,5.784-15.879-12.319-17.392-12.808-7.517-5.271-12.1-4.269Z" transform="translate(-2117.125 -1763.77)" fill="#ed4370"/>
    </clipPath>
    <clipPath id="clip-path-16">
      <path id="Path_1238" data-name="Path 1238" d="M2276.435,1633.576s-.133,5.827-1.423,8.361a3.916,3.916,0,0,1-4,2.09v2.536a3.038,3.038,0,0,1-4.415-.146,20.126,20.126,0,0,0,.044-3.846c-.223-1.045-1.579-2.213-1.489-4.414a2.236,2.236,0,0,1-1.712-2.6c.223-2.246,2.09-1.623,2.09-1.623s.434-.067,2.458-.623,7.65-.868,8.656-1.579C2276.635,1631.73,2276.455,1633.04,2276.435,1633.576Z" transform="translate(-2263.419 -1631.73)" fill="#f8b3a3"/>
    </clipPath>
    <clipPath id="clip-path-17">
      <path id="Path_1241" data-name="Path 1241" d="M2375.752,2195.206a57.99,57.99,0,0,0,.325-10.136c-.333-4.2-2.169-19.612-1.2-23.417s4.5-5.236,7.018-1.665,1.254,11.875.854,16.721c-.373,4.511-1.431,12.185-.562,18.4C2380.981,2196.381,2378.065,2198.784,2375.752,2195.206Z" transform="translate(-2374.597 -2157.935)" fill="#f8b3a3"/>
    </clipPath>
    <clipPath id="clip-path-18">
      <path id="Path_1245" data-name="Path 1245" d="M2251.663,2195.206a58.014,58.014,0,0,1-.325-10.136c.333-4.2,2.167-19.612,1.2-23.417s-4.5-5.236-7.02-1.665-1.254,11.875-.853,16.721c.372,4.511,1.429,12.185.562,18.4C2246.436,2196.381,2249.348,2198.784,2251.663,2195.206Z" transform="translate(-2243.994 -2157.935)" fill="#f8b3a3"/>
    </clipPath>
    <clipPath id="clip-path-19">
      <path id="Path_1248" data-name="Path 1248" d="M2226.151,2099.4a14.874,14.874,0,0,0-2,10.14c.94,5.93,14.022,4.079,18.593,3.912s12.088.567,11.888-3.773-5.371-13.725-5.371-13.725Z" transform="translate(-2223.968 -2095.95)" fill="#ffdeea"/>
    </clipPath>
    <clipPath id="clip-path-20">
      <rect id="Rectangle_587" data-name="Rectangle 587" width="39.559" height="28.131" transform="translate(0 5.697) rotate(-8.28)" fill="#b7cced"/>
    </clipPath>
    <clipPath id="clip-path-21">
      <path id="Path_1290" data-name="Path 1290" d="M1790.3,2549s-7.2.333-7.739,2.067-2.8,14.61.666,17.011,6.872,5.4,7.072,1.267-1.068-12.474,4.137-16.01Z" transform="translate(-1781.339 -2549)" fill="#f8b3a3"/>
    </clipPath>
    <clipPath id="clip-path-22">
      <path id="Path_1295" data-name="Path 1295" d="M1813.905,1916.05l-1,.953a43.883,43.883,0,0,0-5.4,10.587c-1.736,5.47-1.067,14.343,5.271,20.08s8.474,8.073,8.474,8.073a200.756,200.756,0,0,0-13.63,16.167c-7.777,10.141-10.409,11.653-10.409,11.653s-.111,5.27,5.36,5.6a4.888,4.888,0,0,0,4.537,3.469,185.675,185.675,0,0,0,18.414-13.676c9.074-7.739,19.882-11.875,21.419-20.947s-7.408-20.147-9.642-24.083-4.439-15.877-4.439-15.877Z" transform="translate(-1797.208 -1916.05)" fill="#26217d"/>
    </clipPath>
    <clipPath id="clip-path-23">
      <path id="Path_1298" data-name="Path 1298" d="M1925.576,1585.15l-.768.122s-8.028.229-11.3,2.3.089,20.962,1.491,26.635.067,8.624.067,8.624,9.544,6.719,19.949,1.049c0,0-.467-9.006.6-11.275s5.538-5.1,3.136-10.974-.651-9.607-1.827-11.875-5.771-3.368-5.771-3.368Z" transform="translate(-1912.125 -1585.15)" fill="#fff"/>
    </clipPath>
    <clipPath id="clip-path-24">
      <path id="Path_1302" data-name="Path 1302" d="M2048.511,1437.974s-1.348,12-5.183,13.68-6.452-2.387-6.452-2.387l-1.342,4.023s-3.949,1.728-6.114-1.342l2.163-5.9s-.168-6.89,2.827-9.008,9.9-3.365,12.2-1.425S2048.511,1437.974,2048.511,1437.974Z" transform="translate(-2029.42 -1434.653)" fill="#f8b3a3"/>
    </clipPath>
    <clipPath id="clip-path-25">
      <path id="Path_1305" data-name="Path 1305" d="M2000.487,1332.566s3.956,3.86,8.5,2.552,6.77-6.585,5.608-9.149-5.159-1.791-5.159-1.791-2.545-7.547-15.145-5.243-11.023,16.967-7.018,20.9,9.922,4.135,11.271,1.694c0,0-3.457.765-4.244-1.876s1.032-4.948,2.614-4.258S2000.487,1332.566,2000.487,1332.566Z" transform="translate(-1984.386 -1318.498)" fill="#0ab9b4"/>
    </clipPath>
    <clipPath id="clip-path-26">
      <path id="Path_1308" data-name="Path 1308" d="M1868.481,1839.2s-.111,1.536.444,2.091,11.854,14.632,14.967,15.3,11.031-.712,11.7,4.181-12.985.044-14.189-.534-20.06-14.095-20.817-17.567a10.846,10.846,0,0,1,0-5.559Z" transform="translate(-1860.249 -1837.11)" fill="#f8b3a3"/>
    </clipPath>
    <clipPath id="clip-path-27">
      <path id="Path_1311" data-name="Path 1311" d="M1863.152,1601.745c-1.315,1.665-4.47,11.574-6.872,25.45,0,0,2.636,4.469,9.007,2.068,0,0,1.568-6.8,2.836-11.941s2.635-9.506,1.034-13.375S1865.053,1599.343,1863.152,1601.745Z" transform="translate(-1856.28 -1600.365)" fill="#fff"/>
    </clipPath>
  </defs>
  <g id="HL_M51_03" transform="translate(-57.882 -34.731)">
    <path id="Path_1695" data-name="Path 1695" d="M0,0H379.247V3.427H0Z" transform="translate(57.882 245.731)"/>
    <path id="Path_1169" data-name="Path 1169" d="M2350.84,556.114a.574.574,0,0,1-.486-.878c4.782-7.674,7.159-24.265,2.664-37.686-3.281-9.782-9.78-16.781-18.8-20.242-18.749-7.2-23.244-13.529-31.4-25.023-3.424-4.823-7.684-10.825-13.984-18.168a73.071,73.071,0,0,0-32.406-21.569,65.742,65.742,0,0,0-16.869-3.44.575.575,0,0,1,.033-1.149,66.848,66.848,0,0,1,17.161,3.485,76.13,76.13,0,0,1,16.223,7.579,72.389,72.389,0,0,1,16.729,14.345c6.335,7.382,10.612,13.409,14.05,18.251,8.029,11.312,12.452,17.544,30.877,24.616a31.535,31.535,0,0,1,12.528,8.62,35.57,35.57,0,0,1,6.945,12.329,53.085,53.085,0,0,1,2.183,21.809c-.677,6.741-2.484,12.882-4.957,16.849a.573.573,0,0,1-.494.272Z" transform="translate(-2002.723 -385.686)" fill="#d7efff"/>
    <rect id="Rectangle_567" data-name="Rectangle 567" width="38.326" height="98.407" transform="translate(355.586 153.997)" fill="#d5e7f5"/>
    <rect id="Rectangle_568" data-name="Rectangle 568" width="32.83" height="45.892" transform="translate(358.411 156.455)" fill="#98bdea"/>
    <rect id="Rectangle_569" data-name="Rectangle 569" width="32.83" height="2.611" transform="translate(358.411 204.369)" fill="#98bdea"/>
    <rect id="Rectangle_570" data-name="Rectangle 570" width="32.83" height="2.611" transform="translate(358.411 210.377)" fill="#98bdea"/>
    <rect id="Rectangle_571" data-name="Rectangle 571" width="32.83" height="2.611" transform="translate(358.411 216.385)" fill="#98bdea"/>
    <rect id="Rectangle_572" data-name="Rectangle 572" width="32.83" height="2.611" transform="translate(358.411 222.394)" fill="#98bdea"/>
    <rect id="Rectangle_573" data-name="Rectangle 573" width="32.83" height="2.611" transform="translate(358.411 228.401)" fill="#98bdea"/>
    <rect id="Rectangle_574" data-name="Rectangle 574" width="32.83" height="2.611" transform="translate(358.411 234.409)" fill="#98bdea"/>
    <rect id="Rectangle_575" data-name="Rectangle 575" width="32.83" height="2.611" transform="translate(358.411 240.418)" fill="#98bdea"/>
    <rect id="Rectangle_576" data-name="Rectangle 576" width="32.83" height="2.611" transform="translate(358.411 246.425)" fill="#98bdea"/>
    <ellipse id="Ellipse_29" data-name="Ellipse 29" cx="105.895" cy="12.975" rx="105.895" ry="12.975" transform="translate(132.55 275.136)" fill="#2b80aa"/>
    <ellipse id="Ellipse_30" data-name="Ellipse 30" cx="15.663" cy="4.554" rx="15.663" ry="4.554" transform="translate(97.769 258.457)" fill="#2b80aa"/>
    <path id="Path_1170" data-name="Path 1170" d="M1198.95,468.264c-.471-36.715-4.159-77.67,49.006-101.286s108.183,17.687,126.51,49.276,41.433,17.173,50.7,48.394,5.66,65.377-83.014,70.113S1199.659,523.519,1198.95,468.264Z" transform="translate(-1077.877 -325.265)" fill="#d7efff"/>
    <g id="Group_1738" data-name="Group 1738" transform="translate(120.846 34.731)" clip-path="url(#clip-path)">
      <g id="Group_1733" data-name="Group 1733" transform="translate(-16.109 -0.769)" opacity="0.89">
        <path id="Path_1171" data-name="Path 1171" d="M1251.2,392.855q-2.769,0-5.718-.232c-15.052-1.185-33.794-6.944-55.7-17.119-26.8-12.445-62.109-9.665-87.009-5.142a301.158,301.158,0,0,0-48.166,12.951.747.747,0,1,1-.535-1.394,302.4,302.4,0,0,1,48.431-13.027,217.9,217.9,0,0,1,44.374-3.826c16.885.452,31.533,3.508,43.536,9.083,21.743,10.1,40.308,15.81,55.181,16.98,12.129.957,21.878-1.092,28.979-6.088,7.8-5.488,11-13.637,12.3-19.507a42.269,42.269,0,0,0,.978-11.635.747.747,0,1,1,1.487-.135,42.862,42.862,0,0,1-1,12.044,37.888,37.888,0,0,1-4.024,10.633,30.279,30.279,0,0,1-8.879,9.814C1269.213,390.643,1261.076,392.854,1251.2,392.855Z" transform="translate(-1053.569 -353.066)" fill="#fff"/>
      </g>
      <g id="Group_1734" data-name="Group 1734" transform="translate(-9.871 38.784)" opacity="0.89">
        <path id="Path_1172" data-name="Path 1172" d="M1289.979,740.442q-3.957,0-8.134-.357c-12.953-1.11-27.8-4.832-44.12-11.065-28.177-10.765-61.176-9.014-83.9-5.66a263.694,263.694,0,0,0-43.053,9.988.746.746,0,0,1-.491-1.409,265.065,265.065,0,0,1,43.295-10.052,223.827,223.827,0,0,1,41.382-2.477c16.14.641,30.706,3.4,43.295,8.213,29.915,11.422,54.337,14.206,72.59,8.285,15.085-4.9,22.61-14.428,27.591-20.732,2.676-3.388,4.439-5.627,6.378-5.714a3.011,3.011,0,0,1,2.319,1.085.747.747,0,1,1-1.084,1.027c-.548-.579-.93-.631-1.169-.62-1.252.057-3.026,2.3-5.274,5.148a76.365,76.365,0,0,1-10.16,11.043,51.622,51.622,0,0,1-18.141,10.185A68.936,68.936,0,0,1,1289.979,740.442Z" transform="translate(-1109.784 -709.458)" fill="#fff"/>
      </g>
      <g id="Group_1735" data-name="Group 1735" transform="translate(-3.653 76.561)" opacity="0.89">
        <path id="Path_1173" data-name="Path 1173" d="M1326.115,1074.795q-2.961,0-5.974-.16a150.591,150.591,0,0,1-34.635-6.326c-29.743-8.835-60.433-8.133-80.943-5.993a237.159,237.159,0,0,0-37.8,6.85.746.746,0,0,1-.421-1.432,238.721,238.721,0,0,1,38.029-6.9,247.1,247.1,0,0,1,38.368-1.11,186.144,186.144,0,0,1,43.188,7.141c51.588,15.324,77.729-.03,95.026-10.189,5.267-3.093,9.427-5.537,13.242-6.454,4.236-1.018,7.658.037,10.765,3.317a.746.746,0,0,1-1.083,1.027c-5.861-6.182-12-2.577-22.17,3.4-8.675,5.094-19.47,11.431-34.9,14.714A98.676,98.676,0,0,1,1326.115,1074.795Z" transform="translate(-1165.81 -1049.852)" fill="#fff"/>
      </g>
      <g id="Group_1736" data-name="Group 1736" transform="translate(2.565 112.765)" opacity="0.89">
        <path id="Path_1174" data-name="Path 1174" d="M1359.795,1397.77a130.8,130.8,0,0,1-26.5-2.775,321.306,321.306,0,0,0-78.117-5.993,240.757,240.757,0,0,0-32.451,3.4.746.746,0,1,1-.292-1.464,242.3,242.3,0,0,1,32.639-3.424,326.9,326.9,0,0,1,35.328.305,312.279,312.279,0,0,1,43.194,5.721c37.215,7.658,63.193-2.181,84.067-10.084,9.449-3.577,17.609-6.667,24.952-7.278,8.1-.674,14.511,1.8,20.183,7.782a.747.747,0,0,1-1.085,1.028c-5.336-5.629-11.365-7.955-18.978-7.325-7.133.594-15.2,3.649-24.547,7.187-10.332,3.912-22.043,8.346-36,10.883A124.772,124.772,0,0,1,1359.795,1397.77Z" transform="translate(-1221.839 -1376.069)" fill="#fff"/>
      </g>
      <g id="Group_1737" data-name="Group 1737" transform="translate(8.807 147.756)" opacity="0.89">
        <path id="Path_1175" data-name="Path 1175" d="M1392.375,1712.518a110.808,110.808,0,0,1-11.078-.548c-63.666-6.391-102.1-6.065-102.483-6.062h-.009a.747.747,0,0,1-.008-1.493c.382,0,38.891-.333,102.648,6.069,25.458,2.553,48.4-4.456,68.651-10.642,13.718-4.192,26.676-8.15,38.417-8.462a43.148,43.148,0,0,1,16.948,2.675,41.579,41.579,0,0,1,15.365,10.593.747.747,0,0,1-1.083,1.028c-18.782-19.819-41.036-13.024-69.205-4.411C1433.114,1706.585,1413.72,1712.518,1392.375,1712.518Z" transform="translate(-1278.083 -1691.36)" fill="#fff"/>
      </g>
    </g>
    <path id="Path_1177" data-name="Path 1177" d="M3097.383,2002.677c-.777-.372-1.545-.722-2.3-1.1a64.287,64.287,0,0,1-18.389-13.6.537.537,0,0,0-.6-.179,62.74,62.74,0,0,1-16.02,1.476,67.607,67.607,0,0,1-9.378-.982c-.067.222-.128.4-.178.578q-2.3,8.545-4.607,17.1a45.822,45.822,0,0,0-1.566,8.1,43.693,43.693,0,0,0,12.668,35.577.611.611,0,0,0,.641.19,44.12,44.12,0,0,0,31.3-24.025,72.216,72.216,0,0,0,3.076-7.88q2.624-7.421,5.216-14.854C3097.3,2002.949,3097.338,2002.821,3097.383,2002.677Z" transform="translate(-2718.507 -1772.388)" fill="#c8fbfa"/>
    <path id="Path_1178" data-name="Path 1178" d="M3132.492,2064.125c-.6-.285-1.188-.555-1.766-.844a49.465,49.465,0,0,1-14.121-10.443.412.412,0,0,0-.458-.137,48.165,48.165,0,0,1-12.3,1.133,51.9,51.9,0,0,1-7.2-.755c-.052.168-.1.305-.136.444q-1.768,6.563-3.538,13.129a35.166,35.166,0,0,0-1.2,6.215,33.561,33.561,0,0,0,9.729,27.32.472.472,0,0,0,.493.144,33.886,33.886,0,0,0,24.038-18.448,55.963,55.963,0,0,0,2.363-6.05q2.015-5.7,4.008-11.407C3132.431,2064.334,3132.458,2064.236,3132.492,2064.125Z" transform="translate(-2760.7 -1830.093)" fill="#99ebe9"/>
    <path id="Path_1179" data-name="Path 1179" d="M3201.432,2194.932a1.22,1.22,0,0,1-.6-.657l-3.04-7.916a1.226,1.226,0,0,1,2.29-.877l2.606,6.786,14.018-5.148a1.226,1.226,0,1,1,.846,2.3l-15.148,5.566A1.221,1.221,0,0,1,3201.432,2194.932Z" transform="translate(-2855.019 -1947.457)" fill="#fff"/>
    <path id="Path_1180" data-name="Path 1180" d="M2555.674,902.359a4.432,4.432,0,0,1-5.2-4.206c-.579-4.983,3.647-5.6,6.094-5.16s2.713,1.776,2.713,1.776,3.647-2.949,7.783-1.9,2.018,3.186,5.216,4.7,4.625,3.647,3.469,6.538.235,4.225-.8,6.048-2.713.4-3.247,2.267-2.109,2.962-4.952,2.783-.934,1.776-5.159,1.958Z" transform="translate(-2279.558 -798.801)" fill="#26217d"/>
    <g id="Group_1739" data-name="Group 1739" transform="translate(270.858 93.845)" clip-path="url(#clip-path-2)">
      <path id="Path_1181" data-name="Path 1181" d="M2547.33,948.939a24.781,24.781,0,0,0,5.2-.867c2-.667,3.469,2.169,5.237,2.8s6.539.937,7.173,3.219a13.523,13.523,0,0,0,1.969,4.252c.8,1.366-2.569,4.8.534,4.236s3.4-.233,3.4-.233l-2.536,3.135-9.28,1.9-1.924-1.2,1.7-6.638-10.141-5Z" transform="translate(-2547.673 -941.831)" fill="#121266"/>
    </g>
    <path id="Path_1183" data-name="Path 1183" d="M2424.5,1149.431s5.916.391,8.673,1.307,9.563,10.967,10.765,13.592a120.125,120.125,0,0,1,5.071,13.965,1.688,1.688,0,0,1-2,2.219s-7.34-3.024-7.873-4.491-.311-2.357-1.868-5.6a26.494,26.494,0,0,0-3.781-5.693l-.354,21.881-27.177-2.757.756-18.812s-8.806,8.628-10.274,8.361-3.514-8.272-3.425-9.877,8.229-8.805,9.3-10.139,5.4-4.648,13.633-4.092S2424.5,1149.431,2424.5,1149.431Z" transform="translate(-2139.625 -1026.908)" fill="#fff"/>
    <g id="Group_1740" data-name="Group 1740" transform="translate(253.389 122.321)" clip-path="url(#clip-path-3)">
      <path id="Path_1184" data-name="Path 1184" d="M2427.2,1229.135s1.823-.534,5.025-4.092a22.65,22.65,0,0,0,4.8-7.471,7.449,7.449,0,0,1,.666-1.6l-.607,8.759-3,6.865-4.173,3.144Z" transform="translate(-2423.406 -1208.563)" fill="#fce3e9"/>
      <path id="Path_1185" data-name="Path 1185" d="M2764.05,1157.69c.7.976,6.138,8.747,7.172,12.516s-.333,3.268.634,5.637,1.5,5.838.567,7.872l6.973,4.936-.2-12.408-10.574-15.577Z" transform="translate(-2722.872 -1156.751)" fill="#fce3e9"/>
      <path id="Path_1186" data-name="Path 1186" d="M2543.036,1249.253l-.416-1.332s-.3-4.358-1.808-5.07-1.11,6.582-2.935,10.006-16.858,8.724-16.858,8.724l-5.249,6.842,26.91,1.378.8-19.167Z" transform="translate(-2502.147 -1232.418)" fill="#fce3e9"/>
    </g>
    <path id="Path_1188" data-name="Path 1188" d="M2567.945,962.4a49.963,49.963,0,0,0-1.8,9.64c-.222,4.313,1.94,5.9,3.854,6.253s.845,4.626.845,4.626-.4,1.378,2.357,1.512,3.158-.8,3.158-.8a13.68,13.68,0,0,1,0-5.6c.666-2.8,1.424-3.247,3.336-3.914s2.442-3.329.979-4.181a3.806,3.806,0,0,1-2.536-2.09,5.255,5.255,0,0,1-5.649-3.9S2569.146,963.379,2567.945,962.4Z" transform="translate(-2293.527 -860.814)" fill="#f8b3a3"/>
    <g id="Group_1741" data-name="Group 1741" transform="translate(272.601 101.586)" clip-path="url(#clip-path-4)">
      <path id="Path_1189" data-name="Path 1189" d="M2574.08,954.624a5.585,5.585,0,0,0,3.848,1.979c2.557.289.888,2.469,3.336,3.425s3.069,2.22,4.871,2.513,4.025.823,4.025.823l-12.144-9.852-3.336-.422Z" transform="translate(-2573.198 -954.123)" fill="#e26a6a"/>
      <path id="Path_1190" data-name="Path 1190" d="M2597.83,1100.819l.569-.215a12.413,12.413,0,0,0,3.742-.694s-1.743,2.267-3.069,2.331Z" transform="translate(-2594.312 -1084.649)" fill="#e26a6a"/>
    </g>
    <path id="Path_1192" data-name="Path 1192" d="M2633.443,1118.814s-1.4,2.115-2.338,2.271-.221,6.9.6,6.326,4.338-3.811,3.938-5.256S2634.243,1118.77,2633.443,1118.814Z" transform="translate(-2350.9 -999.868)" fill="#fbd2da"/>
    <g id="Group_1742" data-name="Group 1742" transform="translate(279.764 118.945)" clip-path="url(#clip-path-5)">
      <path id="Path_1193" data-name="Path 1193" d="M2637.837,1130.128a44.353,44.353,0,0,1-.656-4.537c-.055-1.429.523-1.332,1.467-2.1a8.38,8.38,0,0,0,1.59-1.79l2.058,3.747-2.48,4.217Z" transform="translate(-2636.454 -1121.38)" fill="#f9b2c2"/>
    </g>
    <path id="Path_1195" data-name="Path 1195" d="M2594.327,1122.93a7.932,7.932,0,0,0,.622,1.579c.378.666-.375,6.94-1,6.539s-1.817-2.958-1.728-4.737S2594.327,1122.93,2594.327,1122.93Z" transform="translate(-2316.721 -1003.528)" fill="#fbd2da"/>
    <g id="Group_1743" data-name="Group 1743" transform="translate(275.497 119.402)" clip-path="url(#clip-path-6)">
      <path id="Path_1196" data-name="Path 1196" d="M2605.723,1133.586c-.368-1.131.355-2.824.466-4.147s.127-4.248.127-4.248l.93,1.036-.411,5.982Z" transform="translate(-2604.133 -1124.939)" fill="#f9b2c2"/>
    </g>
    <path id="Path_1198" data-name="Path 1198" d="M2062.093,1176.827s-21.2-8.561-24.575-10.654-15.123-5.692-15.256,0,12.565,4,13.487,4.626,21.273,13.378,25.343,13.743,5.026-1.11,5.026-1.11Z" transform="translate(-1810.018 -1039.249)" fill="#f8b3a3"/>
    <g id="Group_1744" data-name="Group 1744" transform="translate(212.243 123.862)" clip-path="url(#clip-path-7)">
      <path id="Path_1199" data-name="Path 1199" d="M2173.8,1264.71s19.661,10.286,24.194,9.53,4.013,1.316,4.013,1.316l-2.758,3.069s-14.412-3.691-14.5-3.826S2173.8,1264.71,2173.8,1264.71Z" transform="translate(-2156.982 -1253.434)" fill="#e26a6a"/>
    </g>
    <path id="Path_1201" data-name="Path 1201" d="M2375.435,1261.346a2.1,2.1,0,0,1,2.331-.979c1.83.2,4.136,6.371,4.938,8.472s2,3.58-.435,4.414-4-2.969-4.937-5.4S2374.635,1262.464,2375.435,1261.346Z" transform="translate(-2123.816 -1125.692)" fill="#f9b2c2"/>
    <path id="Path_1202" data-name="Path 1202" d="M2526.262,1389.345s-14.366.888-19.081.8-4.226-1.823-8.807-1.869-10.227,4.686-3.691,5.159,9.851.814,10.8.939,15.093,1.285,21.051,1.2,7.65-2.135,7.65-2.135Z" transform="translate(-2227.372 -1239.426)" fill="#f8b3a3"/>
    <g id="Group_1745" data-name="Group 1745" transform="translate(264.343 148.851)" clip-path="url(#clip-path-8)">
      <path id="Path_1203" data-name="Path 1203" d="M2736.737,1421.17a3.514,3.514,0,0,1-2.424,2.043c-1.868.467-13.744,1.378-13.744,1.378l10.963,1.267,7.006-.8Z" transform="translate(-2695.171 -1417.519)" fill="#e26a6a"/>
    </g>
    <path id="Path_1205" data-name="Path 1205" d="M2794.688,1381.046c.142-.808,2.469-1.1,6.006.634s6.471,2.9,6.1,4.106-1.235,2.134-3.369,1.332S2794.188,1383.911,2794.688,1381.046Z" transform="translate(-2496.698 -1232.428)" fill="#f9b2c2"/>
    <path id="Path_1206" data-name="Path 1206" d="M1458.573,1443.938s.521-23.306,7.863-32.755c7.979-10.274,21.938-11.474,36.6-10.543s50.09,2.47,66.107,2.97,43.586-.111,52.322,10.136,9.125,30.257,9.9,39.065.777,18.679.777,18.679v58.4l-174.55-.629S1457.6,1456.412,1458.573,1443.938Z" transform="translate(-1308.015 -1250.189)" fill="#68a3ea"/>
    <g id="Group_1748" data-name="Group 1748" transform="translate(149.575 150.194)" clip-path="url(#clip-path-9)">
      <path id="Path_1207" data-name="Path 1207" d="M1348.29,2221.41l196.531,1.6,4.159,47.231-193.752.8Z" transform="translate(-1360.42 -2130.292)" fill="#a0c4f9"/>
      <path id="Path_1208" data-name="Path 1208" d="M1253.77,2085.938s126.713-5.271,217.785,2.22v16.717s-120.525,5.628-217.785-1.406Z" transform="translate(-1276.39 -2008.253)" fill="#3c80d3"/>
      <g id="Group_1746" data-name="Group 1746" transform="translate(-22.62 75.883)" clip-path="url(#clip-path-10)">
        <path id="Path_1209" data-name="Path 1209" d="M1525.508,2055.033a63.566,63.566,0,0,1,1.615,11.891c0,5.07-.4,7.271,9.942,8.545s115.691,4.269,116.758-4.4,3.773-19.121,6.489-18.766,4.992,29.434,4.992,29.434-31.892,2.134-34.027,2.664-103.281.134-103.281.134-19.348-9.607-18.681-9.073,6.84-17.762,6.84-17.762l9.353-2.664" transform="translate(-1480.939 -2055.825)" fill="#195dbf"/>
      </g>
      <g id="Group_1747" data-name="Group 1747" transform="translate(22.669 75.884)" opacity="0.1">
        <path id="Path_1211" data-name="Path 1211" d="M1688.715,2084.209s-4.714.16-.578,9.5-26.287,47.1-26.287,47.1l22.529,22.147s25.645-24.283,31.917-32.555,8.006-10.941,8.006-10.941l-.133,24.876h31.63s-3.2-30.613-2.134-40.619,10.808-10.585,1.6-15.5-66.541-4.006-66.541-4.006" transform="translate(-1661.85 -2084.144)" fill="#022659"/>
      </g>
    </g>
    <rect id="Rectangle_578" data-name="Rectangle 578" width="9.874" height="6.671" transform="translate(144.383 278.226)" fill="#26217d"/>
    <rect id="Rectangle_579" data-name="Rectangle 579" width="9.874" height="6.671" transform="translate(319.573 278.226)" fill="#26217d"/>
    <path id="Path_1213" data-name="Path 1213" d="M1319.015,1789.772c7.505-.2,18.214,4.576,20.717,15.4s2.8,41.839,0,55.251-13.511,16.61-21.217,15.41-12.309-2.6-13.71-20.013-.2-45.33,1.7-55.637S1319.015,1789.772,1319.015,1789.772Z" transform="translate(-1171.643 -1596.358)" fill="#87bbf9"/>
    <path id="Path_1214" data-name="Path 1214" d="M2869.509,1789.772c-7.507-.2-18.214,4.576-20.717,15.4s-2.8,41.839,0,55.251,13.511,16.61,21.218,15.41,12.309-2.6,13.711-20.013.2-45.33-1.7-55.637S2869.509,1789.772,2869.509,1789.772Z" transform="translate(-2543.05 -1596.358)" fill="#87bbf9"/>
    <path id="Path_1215" data-name="Path 1215" d="M2682.2,1837.892c-9.641-2.234-6.912-2.9-10.772-2.542s-.271-10.534,2.2-16.287c2.042-4.759,2.939-8.338,6.034-10.671,1.383-.3,2.664-2.664,7.232-4.673a10.646,10.646,0,0,1,8.509-.4c5.871,1.6,4.146,7.389,3.339,9.274a1.92,1.92,0,0,1,.131-.143l-.34.48S2691.844,1840.127,2682.2,1837.892Z" transform="translate(-2385.63 -1607.807)" fill="#99ebe9"/>
    <g id="Group_1749" data-name="Group 1749" transform="translate(284.099 194.837)" clip-path="url(#clip-path-11)">
      <path id="Path_1216" data-name="Path 1216" d="M2740.8,1813.391c1.616-3.835,3.535-6.155,5.471-7.506a9.185,9.185,0,0,1,3.963.666c5.871,1.6,4.146,7.389,3.341,9.274a1.543,1.543,0,0,1,.131-.143l-.341.48s-6.69,27.19-16.332,24.959c-2.3-.532-4.406-.976-6.343-1.342C2731.621,1834.637,2736.554,1823.464,2740.8,1813.391Z" transform="translate(-2723.925 -1805.521)" fill="#c8fbfa"/>
    </g>
    <path id="Path_1218" data-name="Path 1218" d="M1588.5,1837.892c9.641-2.234,6.911-2.9,10.772-2.542s.271-10.534-2.2-16.287c-2.042-4.759-2.941-8.338-6.034-10.671-1.383-.3-2.664-2.664-7.232-4.673a10.645,10.645,0,0,0-8.509-.4c-5.871,1.6-4.146,7.389-3.341,9.274a1.585,1.585,0,0,0-.13-.143l.34.48S1578.861,1840.127,1588.5,1837.892Z" transform="translate(-1408.919 -1607.807)" fill="#99ebe9"/>
    <g id="Group_1750" data-name="Group 1750" transform="translate(162.171 194.837)" clip-path="url(#clip-path-12)">
      <path id="Path_1219" data-name="Path 1219" d="M1578.977,1813.391c-1.616-3.835-3.536-6.155-5.471-7.506a9.194,9.194,0,0,0-3.964.666c-5.87,1.6-4.145,7.389-3.339,9.274a1.793,1.793,0,0,0-.131-.143l.341.48s6.69,27.19,16.331,24.959c2.3-.532,4.407-.976,6.344-1.342C1588.155,1834.637,1583.222,1823.464,1578.977,1813.391Z" transform="translate(-1565.969 -1805.521)" fill="#c8fbfa"/>
    </g>
    <path id="Path_1221" data-name="Path 1221" d="M1376.27,521.371l-1.27,5.353s15.615-10.782,28.159-7.587c0,0,8.546-13.121,26.907-13.151,0,0,8.981-15.283,27.523-15.131a33.138,33.138,0,0,1,21.635-18.456l-10.389-3.258L1419.4,483.06Z" transform="translate(-1234.591 -422.296)" fill="#0ab9b4"/>
    <rect id="Rectangle_580" data-name="Rectangle 580" width="1.704" height="60.684" transform="matrix(-0.884, 0.467, -0.467, -0.884, 222.497, 132.891)" fill="#fff"/>
    <path id="Path_1222" data-name="Path 1222" d="M1.792,0h0A1.791,1.791,0,0,1,3.584,1.791V13.248a1.792,1.792,0,0,1-1.792,1.8h0A1.791,1.791,0,0,1,0,13.253V1.792A1.792,1.792,0,0,1,1.792,0Z" transform="translate(185.445 68.762) rotate(-28.79)" fill="#85bce5"/>
    <path id="Path_1223" data-name="Path 1223" d="M1.792,0h0A1.791,1.791,0,0,1,3.584,1.792V13.248A1.792,1.792,0,0,1,1.791,15.04h0A1.791,1.791,0,0,1,0,13.249V1.792A1.792,1.792,0,0,1,1.792,0Z" transform="translate(215.496 125.236) rotate(-28.79)" fill="#85bce5"/>
    <rect id="Rectangle_581" data-name="Rectangle 581" width="1.404" height="7.917" rx="0.702" transform="translate(173.934 44.04) rotate(-27.58)" fill="#fff"/>
    <path id="Path_1224" data-name="Path 1224" d="M1373.158,465.216s-5.4-35.958,36.146-57.126c38.891-19.817,68.083,2.8,68.083,2.8s-21.6-2.839-33.906,18.589c0,0-22.822-1.575-35.05,18.56C1408.432,448.036,1385.227,447.161,1373.158,465.216Z" transform="translate(-1232.749 -360.788)" fill="#3acac6"/>
    <g id="Group_1752" data-name="Group 1752" transform="translate(140.179 39.166)" clip-path="url(#clip-path-13)">
      <g id="Group_1751" data-name="Group 1751" transform="translate(28.269 4.214)" opacity="0.33">
        <path id="Path_1225" data-name="Path 1225" d="M1632.875,441.441s-13.429,12.836,2.75,41.713l35.049-18.56s-13.1-28.546-28.864-26.57Z" transform="translate(-1627.646 -437.926)" fill="#fff"/>
      </g>
    </g>
    <path id="Path_1227" data-name="Path 1227" d="M2433.28,1792.83s-.456.689-2.08,2.6c0,0,10.94,10.964,14.41,12.065s4.533-.607,4.667-1.208.183-2.885-3.286-5.321S2433.28,1792.83,2433.28,1792.83Z" transform="translate(-2173.573 -1599.082)" fill="#3acac6"/>
    <path id="Path_1228" data-name="Path 1228" d="M2227.327,1552.04s-1.6-2.885-7.117-2.22-9.7,3.865-9.963,11.473a127.108,127.108,0,0,1-1.467,14.722s6.449,8.583,22.15,2.712c0,0-.089-10.5,0-14.587S2230.841,1551.952,2227.327,1552.04Z" transform="translate(-1975.837 -1382.953)" fill="#ed4370"/>
    <path id="Path_1229" data-name="Path 1229" d="M2227.327,1552.04s-1.6-2.885-7.117-2.22-9.7,3.865-9.963,11.473a127.108,127.108,0,0,1-1.467,14.722s6.449,8.583,22.15,2.712c0,0-.089-10.5,0-14.587S2230.841,1551.952,2227.327,1552.04Z" transform="translate(-1975.837 -1382.953)" fill="#2e3e99"/>
    <g id="Group_1753" data-name="Group 1753" transform="translate(232.943 166.768)" clip-path="url(#clip-path-14)">
      <path id="Path_1230" data-name="Path 1230" d="M2198,1617.608c2.713-1.378,5.56-.8,5.47-6.538s-2.178-11.741,2.981-11.829,11.875-2,11.7-4.136,1.332,6.226,1.914,9.518,2.623,2.934,2.623,2.934l-.177,12.143-16.725,3.529Z" transform="translate(-2199.197 -1589.761)" fill="#122989"/>
    </g>
    <path id="Path_1232" data-name="Path 1232" d="M2136.725,1763.77l-1.2.2s-4.492.111-8.895,5.181-11.959,13.7-8.719,14.587,11.9-8.938,11.9-8.938l.4,22.933s12.41,4.651,21.216-1.953l-2.5-20.538s18.181,9.164,21.517,5.784-15.879-12.319-17.392-12.808-7.517-5.271-12.1-4.269Z" transform="translate(-1894.354 -1573.247)" fill="#0ab9b4"/>
    <g id="Group_1754" data-name="Group 1754" transform="translate(222.771 190.523)" clip-path="url(#clip-path-15)">
      <path id="Path_1233" data-name="Path 1233" d="M2311.1,1740.5a5.766,5.766,0,0,0,2.134,4.07c2.17,1.909,2.847,4.419.044,6.335s-7.116,9.031-7.116,9.031l34.83,3.157-1.423-12.985s-24.019-11.563-24.33-11.563S2311.1,1740.5,2311.1,1740.5Z" transform="translate(-2285.18 -1741.34)" fill="#0ab9b4"/>
    </g>
    <path id="Path_1235" data-name="Path 1235" d="M2276.435,1633.576s-.133,5.827-1.423,8.361a3.916,3.916,0,0,1-4,2.09v2.536a3.038,3.038,0,0,1-4.415-.146,20.126,20.126,0,0,0,.044-3.846c-.223-1.045-1.579-2.213-1.489-4.414a2.236,2.236,0,0,1-1.712-2.6c.223-2.246,2.09-1.623,2.09-1.623s.434-.067,2.458-.623,7.65-.868,8.656-1.579C2276.635,1631.73,2276.455,1633.04,2276.435,1633.576Z" transform="translate(-2024.412 -1455.86)" fill="#f8b3a3"/>
    <g id="Group_1755" data-name="Group 1755" transform="translate(239.006 175.869)" clip-path="url(#clip-path-16)">
      <path id="Path_1236" data-name="Path 1236" d="M2291.53,1621.845s8.573.1,8.878.033,1.4,3.236,1.4,3.236,1-4.537,1-4.8a4.977,4.977,0,0,0-.6-1.2Z" transform="translate(-2288.41 -1620.511)" fill="#e26a6a"/>
      <path id="Path_1237" data-name="Path 1237" d="M2308.518,1731.425l-.4-.471-2.958-1.445,3.18,2.646Z" transform="translate(-2300.528 -1718.658)" fill="#e26a6a"/>
    </g>
    <path id="Path_1239" data-name="Path 1239" d="M2375.752,2195.206a57.99,57.99,0,0,0,.325-10.136c-.333-4.2-2.169-19.612-1.2-23.417s4.5-5.236,7.018-1.665,1.254,11.875.854,16.721c-.373,4.511-1.431,12.185-.562,18.4C2380.981,2196.381,2378.065,2198.784,2375.752,2195.206Z" transform="translate(-2123.252 -1923.667)" fill="#f8b3a3"/>
    <g id="Group_1756" data-name="Group 1756" transform="translate(251.345 234.268)" clip-path="url(#clip-path-17)">
      <path id="Path_1240" data-name="Path 1240" d="M2367.88,2221.071s5.27,0,6.2,4.669,1.83,13,1.83,13,4.842-12.8,4.574-14.337-2-9.006-2-9.006l-10.409,2.331Z" transform="translate(-2368.625 -2209.022)" fill="#e26a6a"/>
    </g>
    <path id="Path_1242" data-name="Path 1242" d="M2377.938,2492.96c2.314,3.574,5.231,1.175,6.437-.1.065.466.14.924.228,1.371,1.068,5.438,1.435,11.341-3.836,11.942s-3.5-8.406-3.1-11.075C2377.751,2494.507,2377.846,2493.779,2377.938,2492.96Z" transform="translate(-2125.438 -2221.422)" fill="#3acac6"/>
    <path id="Path_1243" data-name="Path 1243" d="M2251.663,2195.206a58.014,58.014,0,0,1-.325-10.136c.333-4.2,2.167-19.612,1.2-23.417s-4.5-5.236-7.02-1.665-1.254,11.875-.853,16.721c.372,4.511,1.429,12.185.562,18.4C2246.436,2196.381,2249.348,2198.784,2251.663,2195.206Z" transform="translate(-2007.143 -1923.667)" fill="#f8b3a3"/>
    <g id="Group_1757" data-name="Group 1757" transform="translate(236.851 234.268)" clip-path="url(#clip-path-18)">
      <path id="Path_1244" data-name="Path 1244" d="M2234.57,2216.268s6.789-.333,7.522,7.539.777,14.41.777,14.41l2.757-13.61,1.453-10.474L2235.97,2213Z" transform="translate(-2235.616 -2206.889)" fill="#e26a6a"/>
    </g>
    <path id="Path_1246" data-name="Path 1246" d="M2226.151,2099.4a14.874,14.874,0,0,0-2,10.14c.94,5.93,14.022,4.079,18.593,3.912s12.088.567,11.888-3.773-5.371-13.725-5.371-13.725Z" transform="translate(-1989.34 -1868.561)" fill="#ffdeea"/>
    <g id="Group_1758" data-name="Group 1758" transform="translate(234.628 227.389)" clip-path="url(#clip-path-19)">
      <path id="Path_1247" data-name="Path 1247" d="M2205.18,2119.235s.842,4.54,5.246,3.842,26.911-1.942,26.911-1.942l-1.913-5.915Z" transform="translate(-2207.265 -2113.082)" fill="#ffc2db"/>
    </g>
    <path id="Path_1249" data-name="Path 1249" d="M2254.487,2492.96c-2.315,3.574-5.23,1.175-6.437-.1-.065.466-.14.924-.229,1.371-1.067,5.438-1.434,11.341,3.837,11.942s3.5-8.406,3.107-11.075C2254.674,2494.507,2254.578,2493.779,2254.487,2492.96Z" transform="translate(-2009.967 -2221.422)" fill="#3acac6"/>
    <rect id="Rectangle_582" data-name="Rectangle 582" width="39.559" height="28.131" transform="translate(226.72 208.686) rotate(-8.28)" fill="#b7cced"/>
    <g id="Group_1759" data-name="Group 1759" transform="translate(226.72 202.989)" clip-path="url(#clip-path-20)">
      <path id="Path_1250" data-name="Path 1250" d="M2308.591,2019.77l-1.8-11.793,8.653-1.447,1.929,11.809" transform="translate(-2289.69 -1992.054)" fill="#fff"/>
      <path id="Path_1251" data-name="Path 1251" d="M2299.5,2110.8l13.966-2.289.312,2.09-13.856,2.224Z" transform="translate(-2283.209 -2082.717)" fill="#fff"/>
      <path id="Path_1252" data-name="Path 1252" d="M2285.55,2126.181l17.79-2.971.376,2.126-17.814,2.869Z" transform="translate(-2270.808 -2095.785)" fill="#fff"/>
      <rect id="Rectangle_583" data-name="Rectangle 583" width="6.672" height="7.105" transform="translate(30.002 8.285) rotate(-10)" fill="#fff"/>
      <rect id="Rectangle_584" data-name="Rectangle 584" width="5.641" height="6.006" transform="translate(28.499 8.667) rotate(-9.841)" fill="#73a2e5"/>
      <rect id="Rectangle_585" data-name="Rectangle 585" width="6.672" height="7.105" transform="matrix(0.991, -0.137, 0.137, 0.991, 4.695, 11.768)" fill="#fff"/>
      <rect id="Rectangle_586" data-name="Rectangle 586" width="5.671" height="6.038" transform="matrix(0.991, -0.137, 0.137, 0.991, 5.263, 12.227)" fill="#73a2e5"/>
    </g>
    <path id="Path_1253" data-name="Path 1253" d="M2225.6,2022.25a21.64,21.64,0,0,0,8.363.489c3.936-.731,7.049.333,5.56,2.442s-5.649,4.425-13.922,1Z" transform="translate(-1990.791 -1803.04)" fill="#f8b3a3"/>
    <path id="Path_1254" data-name="Path 1254" d="M2116.914,1928.622s-.374-.353-.631.529-1.064,6.77,12.984,14.107a3.794,3.794,0,0,1,1.062-4.085s-7.975-4.241-10.181-9.866Z" transform="translate(-1893.514 -1719.741)" fill="#0ab9b4"/>
    <path id="Path_1255" data-name="Path 1255" d="M2365.766,1752.5a71.117,71.117,0,0,0-6.85-5.271c-1.913-1.045-5.092-.356-3.468,2.38s8.873,4.8,8.873,4.8Z" transform="translate(-2105.831 -1558.13)" fill="#f8b3a3"/>
    <path id="Path_1256" data-name="Path 1256" d="M2154.44,1767.88l-18.84,18.513,43.659-6.071Z" transform="translate(-1910.779 -1576.901)" fill="#fff"/>
    <path id="Path_1257" data-name="Path 1257" d="M2183.722,1781.46l-15.462,15.193,35.832-4.983Z" transform="translate(-1939.814 -1588.974)" fill="#abd6f4"/>
    <path id="Path_1258" data-name="Path 1258" d="M3431.468,619.486a4.848,4.848,0,0,1,2.4-.033c1.625.279,5.8,1.134,6.171,9.239l-12.342.7a17.2,17.2,0,0,1,.144-5.882A5.824,5.824,0,0,1,3431.468,619.486Z" transform="translate(-3059.307 -555.824)" fill="#0ab9b4"/>
    <path id="Path_1259" data-name="Path 1259" d="M3119.15,644.212s9.363-.256,4.059-23.172c-4.9-21.514-3.9-27.418,2.2-30.42,0,0,26.021.6,34.326,3.3,0,0-5.7.4-5.7,6.1s2.7,21.614,3.4,28.919,0,13.909-4.9,16.71Z" transform="translate(-2785.174 -530.294)" fill="#99ebe9"/>
    <path id="Path_1260" data-name="Path 1260" d="M3199.535,642.616h-.021l-24.164-1.554a.327.327,0,0,1,.042-.653l24.164,1.554a.326.326,0,1,1-.021.653Z" transform="translate(-2834.879 -574.558)" fill="#fff"/>
    <path id="Path_1261" data-name="Path 1261" d="M3194.433,686.082h-.02l-24.247-1.506a.326.326,0,1,1,.04-.651l24.247,1.506a.326.326,0,0,1-.02.653Z" transform="translate(-2830.256 -613.243)" fill="#fff"/>
    <path id="Path_1262" data-name="Path 1262" d="M3196.083,729.568h-.02l-24.331-1.455a.327.327,0,0,1,.039-.653l24.332,1.455a.327.327,0,0,1-.019.654Z" transform="translate(-2831.663 -651.947)" fill="#fff"/>
    <path id="Path_1263" data-name="Path 1263" d="M3204.3,773.042h-.02l-24.416-1.405a.326.326,0,1,1,.038-.651l24.416,1.4a.326.326,0,0,1-.018.653Z" transform="translate(-2838.879 -690.642)" fill="#fff"/>
    <path id="Path_1264" data-name="Path 1264" d="M3211.713,816.522h-.019l-24.5-1.354a.327.327,0,1,1,.036-.653l24.5,1.354a.326.326,0,1,1-.018.653Z" transform="translate(-2845.392 -729.341)" fill="#fff"/>
    <path id="Path_1265" data-name="Path 1265" d="M3217.552,860.007h-.02l-24.583-1.3a.326.326,0,1,1,.034-.651l24.583,1.3a.326.326,0,0,1-.017.653Z" transform="translate(-2850.5 -768.045)" fill="#fff"/>
    <path id="Path_1266" data-name="Path 1266" d="M3224.831,903.492h-.017l-24.668-1.253a.327.327,0,0,1,.033-.653l24.668,1.253a.326.326,0,0,1-.017.653Z" transform="translate(-2856.906 -806.749)" fill="#fff"/>
    <path id="Path_1267" data-name="Path 1267" d="M3228.913,946.982h-.017l-24.749-1.2a.327.327,0,1,1,.031-.652l24.749,1.2a.326.326,0,0,1-.016.653Z" transform="translate(-2860.462 -845.457)" fill="#fff"/>
    <path id="Path_1268" data-name="Path 1268" d="M3230.5,990.461h-.016l-24.835-1.152a.327.327,0,1,1,.031-.653l24.835,1.148a.326.326,0,0,1-.016.653Z" transform="translate(-2861.795 -884.156)" fill="#fff"/>
    <path id="Path_1269" data-name="Path 1269" d="M3214.093,1033.951h-.014l-24.92-1.1a.327.327,0,0,1,.029-.653l24.919,1.1a.326.326,0,1,1-.014.653Z" transform="translate(-2847.136 -922.864)" fill="#fff"/>
    <path id="Path_1270" data-name="Path 1270" d="M3065.2,725.4a.444.444,0,0,1-.438-.444v-6.667a.438.438,0,0,1,.876,0v6.672a.438.438,0,0,1-.437.438Z" transform="translate(-2736.82 -643.422)" fill="#afd6ef"/>
    <path id="Path_1271" data-name="Path 1271" d="M3045.119,748.614h-5.752a.437.437,0,1,1,0-.874h5.752a.437.437,0,1,1,0,.874Z" transform="translate(-2713.856 -669.977)" fill="#afd6ef"/>
    <path id="Path_1272" data-name="Path 1272" d="M3554.022,835.054a.222.222,0,0,1-.221-.222V831.4a.225.225,0,1,1,.45,0v3.434a.222.222,0,0,1-.229.225Z" transform="translate(-3171.586 -744.147)" fill="#afd6ef"/>
    <path id="Path_1273" data-name="Path 1273" d="M3543.656,847.091h-2.961a.225.225,0,0,1,0-.451h2.961a.225.225,0,1,1,0,.451Z" transform="translate(-3159.735 -757.901)" fill="#afd6ef"/>
    <path id="Path_1274" data-name="Path 1274" d="M3117.332,833.024a.222.222,0,0,1-.222-.222v-3.437a.225.225,0,0,1,.451,0V832.8a.222.222,0,0,1-.229.225Z" transform="translate(-2783.36 -742.343)" fill="#d5e7f5"/>
    <path id="Path_1275" data-name="Path 1275" d="M3106.967,845.061h-2.961a.225.225,0,1,1,0-.451h2.961a.225.225,0,0,1,0,.451Z" transform="translate(-2771.51 -756.096)" fill="#afd6ef"/>
    <path id="Path_1276" data-name="Path 1276" d="M3088.386,889.572a.326.326,0,0,1-.326-.333v-4.973a.326.326,0,1,1,.652,0v4.979a.326.326,0,0,1-.326.327Z" transform="translate(-2757.534 -791.061)" fill="#afd6ef"/>
    <path id="Path_1277" data-name="Path 1277" d="M3073.409,907.023h-4.293a.326.326,0,0,1,0-.653h4.293a.326.326,0,0,1,0,.653Z" transform="translate(-2740.403 -811.002)" fill="#afd6ef"/>
    <path id="Path_1278" data-name="Path 1278" d="M3501.814,909.1a.255.255,0,0,1-.255-.255v-3.88a.254.254,0,0,1,.509,0v3.884A.255.255,0,0,1,3501.814,909.1Z" transform="translate(-3125.143 -809.526)" fill="#afd6ef"/>
    <path id="Path_1279" data-name="Path 1279" d="M3490.178,922.708h-3.344a.254.254,0,0,1,0-.508h3.344a.254.254,0,0,1,0,.508Z" transform="translate(-3111.826 -825.075)" fill="#afd6ef"/>
    <path id="Path_1280" data-name="Path 1280" d="M3497.322,744.008a.386.386,0,0,1-.386-.386v-5.883a.386.386,0,1,1,.771,0v5.882a.385.385,0,0,1-.385.387Z" transform="translate(-3121.032 -660.723)" fill="#afd6ef"/>
    <path id="Path_1281" data-name="Path 1281" d="M3479.591,764.777h-5.073a.388.388,0,0,1,0-.777h5.073a.388.388,0,0,1,0,.777Z" transform="translate(-3100.758 -684.432)" fill="#afd6ef"/>
    <path id="Path_1283" data-name="Path 1283" d="M1068.712,1528s-11.792.844-10.923,18.877c0,0-6.685,3.431-5.05,10.529s2.22,5.522,2.22,5.522-5.438,8.2-2.1,17.542,10.765,27.659,10.765,27.659,9.2-23.541,9.716-28.672c.666-6.6,1.727-11.864-2.263-15.971,4.378-2.573,4.823-8.151,1.623-12.4s-3.219-3.9-1.546-7.769C1074.78,1534.936,1068.712,1528,1068.712,1528Z" transform="translate(-947.237 -1363.643)" fill="#c8fbfa"/>
    <path id="Path_1284" data-name="Path 1284" d="M939.384,1756.285s1.573-28.571-1.687-41.35-15.216-22.615-21.232-21.558c0,0-2.153,5.641,2.857,8.688s1.316,4.55.991,5.831,1.314,6.836,4.122,8.395,5.418,1.807,4.106,8.5,1.8,6.437,3.942,9.94S939.836,1749.391,939.384,1756.285Z" transform="translate(-826.536 -1510.597)" fill="#99ebe9"/>
    <path id="Path_1285" data-name="Path 1285" d="M1143.817,1697.346a.465.465,0,0,1-.522-.4c-3.384-24.894,1.059-66.882,1.11-67.3a.465.465,0,0,1,.924.1c-.045.421-4.476,42.3-1.11,67.08a.464.464,0,0,1-.4.523Z" transform="translate(-1027.472 -1453.648)" fill="#fff"/>
    <path id="Path_1286" data-name="Path 1286" d="M1051.526,2214.62h17.667s2.008,24.742-8.332,25.6S1051.526,2222.431,1051.526,2214.62Z" transform="translate(-946.993 -1974.061)" fill="#a0c4f9"/>
    <path id="Path_1287" data-name="Path 1287" d="M2111.38,1618s1.563-1.018,3.447.767,5.493,11.775,8.161,14a31.115,31.115,0,0,0,3.692,2.8s-1.988,6.886-5.961,7.382c-.355.044-5.026-3.157-6.182-6.448Z" transform="translate(-1889.247 -1443.394)" fill="#d2edff"/>
    <path id="Path_1288" data-name="Path 1288" d="M1790.3,2549s-7.2.333-7.739,2.067-2.8,14.61.666,17.011,6.872,5.4,7.072,1.267-1.068-12.474,4.137-16.01Z" transform="translate(-1595.834 -2271.331)" fill="#f8b3a3"/>
    <g id="Group_1760" data-name="Group 1760" transform="translate(185.505 277.669)" clip-path="url(#clip-path-21)">
      <path id="Path_1289" data-name="Path 1289" d="M1770.034,2543.182s1.274-14.405,6.686-14.124-5.279-6.869-5.279-6.869l-5.982,12.842.235,8.033,3.695,2.7Z" transform="translate(-1767.222 -2525.165)" fill="#e26a6a"/>
    </g>
    <path id="Path_1291" data-name="Path 1291" d="M1731.29,2526.17s-7.2.333-7.739,2.069-2.8,14.609.666,17.011,6.872,5.4,7.072,1.268-1.067-12.475,4.137-16.011Z" transform="translate(-1543.373 -2251.035)" fill="#f8b3a3"/>
    <path id="Path_1292" data-name="Path 1292" d="M1813.905,1916.05l-1,.953a43.883,43.883,0,0,0-5.4,10.587c-1.736,5.47-1.067,14.343,5.271,20.08s8.474,8.073,8.474,8.073a200.756,200.756,0,0,0-13.63,16.167c-7.777,10.141-10.409,11.653-10.409,11.653s-.111,5.27,5.36,5.6a4.888,4.888,0,0,0,4.537,3.469,185.675,185.675,0,0,0,18.414-13.676c9.074-7.739,19.882-11.875,21.419-20.947s-7.408-20.147-9.642-24.083-4.439-15.877-4.439-15.877Z" transform="translate(-1609.942 -1708.627)" fill="#26217d"/>
    <g id="Group_1761" data-name="Group 1761" transform="translate(187.266 207.423)" clip-path="url(#clip-path-22)">
      <path id="Path_1293" data-name="Path 1293" d="M1903.77,1927.27s12.144,11.637,17.948,13.318,15.879,2.479,15.879,2.479l-.467-6.6-12.943.2L1907.039,1924Z" transform="translate(-1891.944 -1923.118)" fill="#161668"/>
      <path id="Path_1294" data-name="Path 1294" d="M1864.135,2041.38a96.207,96.207,0,0,0,7.606,13.51c3.936,5.47,6.872,9.139,3.136,15.2s-34.527,30.887-34.527,30.887l.344.278a1.27,1.27,0,0,1,.99-.767c.744-.1,4.592-3.736,8.729-6.316a71.528,71.528,0,0,0,12.365-9.339c5.727-5.226,8.674-7.672,10.987-10.574s8.095-6.237,4.8-12.2S1865.447,2043.46,1864.135,2041.38Z" transform="translate(-1835.562 -2027.471)" fill="#161668"/>
    </g>
    <path id="Path_1296" data-name="Path 1296" d="M1925.576,1585.15l-.768.122s-8.028.229-11.3,2.3.089,20.962,1.491,26.635.067,8.624.067,8.624,9.544,6.719,19.949,1.049c0,0-.467-9.006.6-11.275s5.538-5.1,3.136-10.974-.651-9.607-1.827-11.875-5.771-3.368-5.771-3.368Z" transform="translate(-1712.105 -1414.45)" fill="#fff"/>
    <g id="Group_1762" data-name="Group 1762" transform="translate(200.02 170.7)" clip-path="url(#clip-path-23)">
      <path id="Path_1297" data-name="Path 1297" d="M2013.857,1700.866c.089-.133,8.407-2.8,7.651-8.316s-13.118-8.317-5.6-9.741,13.743-8.805,12.763-15.609l2.4,11.608-1.291,6.411-.444,12.453-8.586,5.2Z" transform="translate(-2002.241 -1658.094)" fill="#eef9ff"/>
    </g>
    <path id="Path_1299" data-name="Path 1299" d="M2048.511,1437.974s-1.348,12-5.183,13.68-6.452-2.387-6.452-2.387l-1.342,4.023s-3.949,1.728-6.114-1.342l2.163-5.9s-.168-6.89,2.827-9.008,9.9-3.365,12.2-1.425S2048.511,1437.974,2048.511,1437.974Z" transform="translate(-1816.383 -1280.655)" fill="#f8b3a3"/>
    <g id="Group_1763" data-name="Group 1763" transform="translate(213.037 153.997)" clip-path="url(#clip-path-24)">
      <path id="Path_1300" data-name="Path 1300" d="M2068.49,1440.96c.067,0,1.11-.867,3.314,0s2.98-1.8,5.494-.888,6.16,1.8,6.16,1.8l1.8-5.492-11.253-.4-5.315,4.047Z" transform="translate(-2064.154 -1435.833)" fill="#e26a6a"/>
      <path id="Path_1301" data-name="Path 1301" d="M2038.253,1528.556s5.592,1.134,7.005-.233,1.127-1.753,1.127-1.753l-6.476.3-1.679.534Z" transform="translate(-2037.252 -1516.369)" fill="#e26a6a"/>
    </g>
    <path id="Path_1303" data-name="Path 1303" d="M2000.487,1332.566s3.956,3.86,8.5,2.552,6.77-6.585,5.608-9.149-5.159-1.791-5.159-1.791-2.545-7.547-15.145-5.243-11.023,16.967-7.018,20.9,9.922,4.135,11.271,1.694c0,0-3.457.765-4.244-1.876s1.032-4.948,2.614-4.258S2000.487,1332.566,2000.487,1332.566Z" transform="translate(-1776.347 -1177.392)" fill="#26217d"/>
    <g id="Group_1764" data-name="Group 1764" transform="translate(208.039 141.107)" clip-path="url(#clip-path-25)">
      <path id="Path_1304" data-name="Path 1304" d="M1978.85,1384.259s5.178,2.8,7.28-.6,4.234-7.2,8.74-6.3,16.647.732,14.878-6.506l1.768,7.238s-3.069,6.437-3.5,6.638-9.877.733-9.877.733l-3.416,7.406-8.824-1.554-4.273-2.879Z" transform="translate(-1979.464 -1365.04)" fill="#121266"/>
    </g>
    <path id="Path_1306" data-name="Path 1306" d="M1868.481,1839.2s-.111,1.536.444,2.091,11.854,14.632,14.967,15.3,11.031-.712,11.7,4.181-12.985.044-14.189-.534-20.06-14.095-20.817-17.567a10.846,10.846,0,0,1,0-5.559Z" transform="translate(-1665.986 -1638.447)" fill="#f8b3a3"/>
    <g id="Group_1765" data-name="Group 1765" transform="translate(194.262 198.662)" clip-path="url(#clip-path-26)">
      <path id="Path_1307" data-name="Path 1307" d="M1895,1848.617a9.877,9.877,0,0,0,3.425,2.337c1.993.711,12.583,11.748,12.583,11.748l-12.271-15.573Z" transform="translate(-1891.143 -1846.018)" fill="#e26a6a"/>
    </g>
    <path id="Path_1309" data-name="Path 1309" d="M1863.152,1601.745c-1.315,1.665-4.47,11.574-6.872,25.45,0,0,2.636,4.469,9.007,2.068,0,0,1.568-6.8,2.836-11.941s2.635-9.506,1.034-13.375S1865.053,1599.343,1863.152,1601.745Z" transform="translate(-1662.458 -1427.976)" fill="#fff"/>
    <g id="Group_1766" data-name="Group 1766" transform="translate(193.822 172.388)" clip-path="url(#clip-path-27)">
      <path id="Path_1310" data-name="Path 1310" d="M1896.876,1609.49a18.738,18.738,0,0,1-.444,7.694c-1.11,4.937-7.834,20-8.254,20.65s6.786.874,6.786.874l2.491-7.471,2.8-11.563-1.512-7.16Z" transform="translate(-1884.623 -1608.477)" fill="#d2edff"/>
    </g>
    <g id="Group_1767" data-name="Group 1767" transform="translate(209.657 145.432)" opacity="0.44">
      <path id="Path_1312" data-name="Path 1312" d="M2000.1,1370.5a.172.172,0,0,1-.158-.1,13.855,13.855,0,0,1-.96-4.455,10.511,10.511,0,0,1,3.245-8.415.172.172,0,1,1,.236.251,10.165,10.165,0,0,0-3.138,8.135,13.828,13.828,0,0,0,.931,4.346.172.172,0,0,1-.089.222A.167.167,0,0,1,2000.1,1370.5Z" transform="translate(-1998.961 -1357.477)" fill="#fff"/>
    </g>
    <g id="Group_1768" data-name="Group 1768" transform="translate(214.021 142.228)" opacity="0.44">
      <path id="Path_1313" data-name="Path 1313" d="M2038.462,1331.064a.166.166,0,0,1-.127-.056.173.173,0,0,1,.009-.243c.1-.091,2.489-2.249,8.037-2.157a.172.172,0,0,1,0,.344h0c-5.4-.086-7.774,2.046-7.8,2.066A.17.17,0,0,1,2038.462,1331.064Z" transform="translate(-2038.289 -1328.605)" fill="#fff"/>
    </g>
    <g id="Group_1769" data-name="Group 1769" transform="translate(280.122 94.633)" opacity="0.44">
      <path id="Path_1314" data-name="Path 1314" d="M2634.065,901.868a.178.178,0,0,1-.111-.04.173.173,0,0,1-.02-.243,6.145,6.145,0,0,1,4.94-1.829.172.172,0,1,1-.018.344,5.914,5.914,0,0,0-4.661,1.707A.169.169,0,0,1,2634.065,901.868Z" transform="translate(-2633.894 -899.745)" fill="#fff"/>
    </g>
    <path id="Path_1315" data-name="Path 1315" d="M2791.5,819.346a4.183,4.183,0,1,1,4.184-4.183A4.182,4.182,0,0,1,2791.5,819.346Zm0-7.791a3.609,3.609,0,1,0,3.609,3.609A3.609,3.609,0,0,0,2791.5,811.555Z" transform="translate(-2490.171 -726.198)" fill="#3acac6"/>
    <path id="Path_1316" data-name="Path 1316" d="M2566.592,813.57l-3.471,2.472,4.214,2.243Z" transform="translate(-2290.853 -728.501)" fill="#fff"/>
    <path id="Path_1317" data-name="Path 1317" d="M2659.114,781.739a.29.29,0,0,1-.177-.061l-4.347-3.38a.287.287,0,0,1,.052-.486l5.564-2.664a.287.287,0,0,1,.405.315l-1.215,6.048a.287.287,0,0,1-.182.212A.279.279,0,0,1,2659.114,781.739Zm-3.8-3.61,3.616,2.811,1.011-5.029Z" transform="translate(-2372.073 -694.319)" fill="#4f4085"/>
    <path id="Path_1318" data-name="Path 1318" d="M2808.148,969.1a.287.287,0,0,1-.249-.143l-1.756-3.043a.282.282,0,0,1-.029-.222.287.287,0,0,1,.133-.174l3.044-1.757a.291.291,0,0,1,.222-.029.288.288,0,0,1,.175.134l1.758,3.043a.287.287,0,0,1,.028.222.281.281,0,0,1-.133.174l-3.044,1.758A.287.287,0,0,1,2808.148,969.1Zm-1.365-3.225,1.47,2.546,2.546-1.469-1.47-2.546Z" transform="translate(-2506.869 -861.986)" fill="#4f4085"/>
  </g>
</svg>
