<svg xmlns="http://www.w3.org/2000/svg" xmlns:xlink="http://www.w3.org/1999/xlink" width="379.247" height="241.718" viewBox="0 0 379.247 241.718">
  <defs>
    <clipPath id="clip-path">
      <path id="Path_1510" data-name="Path 1510" d="M824.86,399.48c20.689-13.233,26.169-32.66,59.108-37.326s49.762-2.545,61.495,14.28,17.388,36.9,37.466,45.81,39.581,9.048,55.84,40.861,8.011,75.395-39.3,91.966-135.4,13.933-160.154,9.6-69.427-2.719-96.284-36.661-30.252-66.884-9.612-89.789S779.323,428.606,824.86,399.48Z" transform="translate(-720.08 -359.999)" fill="#d9ebf9"/>
    </clipPath>
    <clipPath id="clip-path-2">
      <path id="Path_1516" data-name="Path 1516" d="M3041.389,1702.814s18.416-32.107,51.495-33.674c0,0,3.922,29.3-20.461,58.052-22.782,26.865-40.923,27.521-40.923,27.521S3024,1732.94,3041.389,1702.814Z" transform="translate(-3029.891 -1669.14)" fill="#4949a5"/>
    </clipPath>
    <clipPath id="clip-path-3">
      <path id="Path_1520" data-name="Path 1520" d="M1589.839,765.824H1473.55s20.692-58.059,11.936-116.362c-11.168-74.353,6.479-76.57,6.479-76.57H1612.18s-14.189-4.916-12.277,70.942C1600.411,664.128,1607.088,732.831,1589.839,765.824Z" transform="translate(-1473.55 -572.827)" fill="#fffffa"/>
    </clipPath>
    <clipPath id="clip-path-4">
      <path id="Path_1544" data-name="Path 1544" d="M2404.143,1601.373s-5.968-24.215,3.154-38.967,22.762-19.7,33.42-25.836,25.065-19.271,31.8-19.7c2.216,0,3.223,5.59,2.462,8.7s-12.409,18.418-23.719,25.695c0,0,19.666-11.142,28.873-26.832s6.707-18.56,15.062-32.97,17.733-7.418,15.686.939-9.833,37.83-11.992,45.334-6.82,22.057-14.437,30.355-33.195,14.751-34.33,24.557c-1,8.654-.5,9.834-.5,9.834s-3.817,6.992-24.165,6.537S2404.143,1601.373,2404.143,1601.373Z" transform="translate(-2402.226 -1483.148)" fill="#f5838d"/>
    </clipPath>
    <clipPath id="clip-path-5">
      <path id="Path_1548" data-name="Path 1548" d="M2777.089,1172.529c-.037.152-1.439,8.6-.3,12.506s4.017,3.146,5.8,2.729,1.781,1.208.871,3.069a16.275,16.275,0,0,1-3.41,3.979s3.978,1.554,6.593.531,2.843-2.69,2.843-2.69a5.258,5.258,0,0,1-.342-5.23l2.084-5.325-.54-9.038-10.487-6.679-2.074,1.279Z" transform="translate(-2776.342 -1166.38)" fill="#f8b3a3"/>
    </clipPath>
    <clipPath id="clip-path-6">
      <path id="Path_1552" data-name="Path 1552" d="M2762.086,1107.819a4.472,4.472,0,0,0-4.32,2.9,16.887,16.887,0,0,0-.938,7.134s.654,1.081,4.32,1.734a10.022,10.022,0,0,1,.8-3.212,14.141,14.141,0,0,0,.143,3.468c.313,1.023,2.585,2.1,4.688,2.728a9.241,9.241,0,0,0,2.359.568,2.77,2.77,0,0,1,2.984,2.5c.454,2.758-1.847,1.847-2.047,3.3s-.906,4.037,1.649,4.6,5.825-3.122,8.042-2.928,5.485,1.848,9.521,4.8,10.145,1.961,11.51-2.9,3.608-5.338,7.7-5.656,9.492-1.677,11.368-6.821.824-6.792-1.478-6.281-8.7,5.286-12.078.824-4.8-6.168-10.2-5.656-5.8,3.638-10.8,3.042-7.3-6.708-14.153-6.993S2762.086,1107.819,2762.086,1107.819Z" transform="translate(-2756.773 -1104.958)" fill="#ed4370"/>
    </clipPath>
    <clipPath id="clip-path-7">
      <path id="Path_1556" data-name="Path 1556" d="M2121.465,2079.31c-.17.17-6.878,12.222-10.231,15.518a13.2,13.2,0,0,1-2.994,2.288c.26,1.145,1.4,3.476,6.369,3.99.924-4.244,7.957-10.051,10.38-12.59,2.709-2.839,7.786-9.778,7.786-9.778Z" transform="translate(-2108.24 -2078.74)" fill="#f8b3a3"/>
    </clipPath>
    <clipPath id="clip-path-8">
      <path id="Path_1559" data-name="Path 1559" d="M2331.884,2099.318c.9-3.82,1.761-12.375,1.761-12.375L2324,2084.21c-.061.234.442,22.975-.78,27.518a12.109,12.109,0,0,1-1.889,4.182c1.286.857,4.171,2.067,7.911-.705C2328.067,2111,2331.1,2102.672,2331.884,2099.318Z" transform="translate(-2321.33 -2084.21)" fill="#f8b3a3"/>
    </clipPath>
    <clipPath id="clip-path-9">
      <path id="Path_1564" data-name="Path 1564" d="M2270.221,1702.68c-.13.254-.266.5-.412.756-1.989,3.411-6.2,3.354-14.324,5.514s-19.722,4.321-25.861,11.369-13.584,19.726-12.956,22,11.026-4.431,15.573,1.2,17.335,8.809,17.335,8.809,20.8-13.7,26.884-18.134,8.923-9.948,8.7-12.9c-.2-2.619-.982-11.091-.625-15.643C2276.267,1706.512,2272.162,1704.437,2270.221,1702.68Z" transform="translate(-2216.631 -1702.68)" fill="#88ace5"/>
    </clipPath>
    <clipPath id="clip-path-10">
      <path id="Path_1567" data-name="Path 1567" d="M2298.594,1457.41s-10.344,5.876-14.948,5-24.62-1.592-27.121-2.123-8.488-4.281-13.262-1.25,8.259,5.722,12.011,5.154c0,0,21.182,4.168,24.857,4.321s15.422-2.619,15.422-2.619Z" transform="translate(-2242.225 -1457.41)" fill="#f8b3a3"/>
    </clipPath>
    <clipPath id="clip-path-11">
      <path id="Path_1572" data-name="Path 1572" d="M2779.318,1430.394a6.438,6.438,0,0,0-1.828-4.172,11.243,11.243,0,0,0-1.447-1.26c-1.761-1.265-2.087-1.136-2.087-1.136-3.05,3.511-8.211,1.561-8.211,1.561a15.532,15.532,0,0,0-4.195,3.478c-3.6,4.586-1.838,6.748-1.554,11.691a33.977,33.977,0,0,1-.052,5.284c2.008,1.757,6.186,3.774,14.5,2.838a97.119,97.119,0,0,0,4.078-9.012C2779.461,1436.808,2779.444,1432.829,2779.318,1430.394Z" transform="translate(-2759.315 -1423.823)" fill="#fff"/>
    </clipPath>
    <clipPath id="clip-path-12">
      <path id="Path_1575" data-name="Path 1575" d="M2910.19,1461.834c1.495-.544,2.956-.36,3.9,2.994s3.5,16.542,4.339,20.407,3.817,15.84,3.817,15.84-3.211,3.07-3.381,2.16-4.552-13.315-6.2-19.476-3.95-14.886-4.134-17.385S2908.6,1462.412,2910.19,1461.834Z" transform="translate(-2908.487 -1461.6)" fill="#f8b3a3"/>
    </clipPath>
    <clipPath id="clip-path-13">
      <path id="Path_1583" data-name="Path 1583" d="M1537.574,908.321a21.281,21.281,0,0,0,.719-7.5c-.266-4.661-4.584-7.2-9.737-6.935s-6.48,2.921-6.48,2.921-4.812-.114-5,5.76,1.667,11.672,7.5,14.742c1.511.834,1.895.379,1.895.379Z" transform="translate(-1517.061 -893.863)" fill="#26217d"/>
    </clipPath>
    <clipPath id="clip-path-14">
      <path id="Path_1587" data-name="Path 1587" d="M1579.488,971.94s1.174,8.451,1.4,13.112-5.722,3.942-6.29,4.7-1.511,5.874-1.511,5.874-3.183,2.5-6.517-1.705c0,0,2.159-6.647,1.781-8.924s-3.789.189-4.148-3.424,2.785-2.842,2.785-2.842a11.5,11.5,0,0,0,1.553-4.377C1568.537,974.347,1577.594,975.749,1579.488,971.94Z" transform="translate(-1564.176 -971.94)" fill="#f8b3a3"/>
    </clipPath>
    <clipPath id="clip-path-15">
      <path id="Path_1604" data-name="Path 1604" d="M1215.374,1621.58l-.36.208a54.924,54.924,0,0,0-5.722,13.434c-1.961,7.419-3.752,23.107-5.627,28.224s-19.608,29.929-19.608,29.929-.171,6.821,8.27,8.954c0,0,22.422-24.13,26.343-29.673a38.116,38.116,0,0,0,5.371-11.17s.511,17.48.6,26.859-.767,18.248-.767,18.248,6.565,4.432,13.555,0c0,0,2.132-20.635,2.473-35.386s-.161-48.628-.161-48.628l-5.64,1.048Z" transform="translate(-1184.058 -1621.58)" fill="#00025b"/>
    </clipPath>
    <clipPath id="clip-path-16">
      <path id="Path_1612" data-name="Path 1612" d="M1356.236,1190.56s-5.219.751-8.687,1.56-3.779,4.129-6.547,9.619-9.113,17.906-9.113,17.906,3.58,6.48,9.549,3.638l6.991-15.178.114,22.625s2.842,4.661,12.277,4.207,11.77-3.581,11.77-3.581,2.236-18.362,2.861-21.2l19.245,8.753a9.245,9.245,0,0,0,3.069-8.641s-15.876-9.189-19.855-13.68-13.007-4.766-13.007-4.766Z" transform="translate(-1331.89 -1190.56)" fill="#f5838d"/>
    </clipPath>
    <clipPath id="clip-path-17">
      <path id="Path_1615" data-name="Path 1615" d="M1986.833,1404.28s14.38,5.189,18.756,5.351,8.811-1.656,13.243-.576,6.48,7.105-1.989,6.481-10.457-1.309-10.457-1.309l-21.392-3.354S1983.67,1406.554,1986.833,1404.28Z" transform="translate(-1984.719 -1404.28)" fill="#f8b3a3"/>
    </clipPath>
    <clipPath id="clip-path-18">
      <path id="Path_1619" data-name="Path 1619" d="M1282.566,1512.65s-2.368,18.418-3.335,22.17-3.637,6.366,0,7.561,9.305,1.761,7.921-3.411-1.061-5.229,0-11.6,2.859-13.51,2.859-13.51Z" transform="translate(-1277.378 -1512.65)" fill="#f8b3a3"/>
    </clipPath>
  </defs>
  <g id="HL_M51_01" transform="translate(-45.604 -36.249)">
    <path id="Path_1695" data-name="Path 1695" d="M0,0H379.247V3.427H0Z" transform="translate(45.604 241.966)"/>
    <path id="Path_1503" data-name="Path 1503" d="M876.779,474.537a.923.923,0,0,1-.31-1.791c.122-.047.572-.3,1.048-.56a119.52,119.52,0,0,1,14.931-6.978,211.265,211.265,0,0,1,33.9-9.834c11.006-2.3,18.344-9.13,26.841-17.043a171.394,171.394,0,0,1,15.9-13.564,104.789,104.789,0,0,1,23.064-12.775.923.923,0,1,1,.689,1.712c-18.5,7.446-29.069,17.292-38.4,25.979-8.7,8.1-16.215,15.1-27.72,17.5-19.456,4.06-35.713,9.652-48.317,16.618a10.966,10.966,0,0,1-1.324.684A.907.907,0,0,1,876.779,474.537Z" transform="translate(-787.593 -370.447)" fill="#d9ebf9"/>
    <path id="Path_1504" data-name="Path 1504" d="M824.86,399.48c20.689-13.233,26.169-32.66,59.108-37.326s49.762-2.545,61.495,14.28,17.388,36.9,37.466,45.81,39.581,9.048,55.84,40.861,8.011,75.395-39.3,91.966-135.4,13.933-160.154,9.6-69.427-2.719-96.284-36.661-30.252-66.884-9.612-89.789S779.323,428.606,824.86,399.48Z" transform="translate(-647.504 -323.751)" fill="#d9ebf9"/>
    <g id="Group_1794" data-name="Group 1794" transform="translate(72.576 36.249)" clip-path="url(#clip-path)">
      <path id="Path_1505" data-name="Path 1505" d="M765.37,343.19s129.646,2.387,162.867,31.719,122.067-3.372,149.012-26.6" transform="translate(-760.809 -344.883)" fill="none" stroke="#fff" stroke-linecap="round" stroke-linejoin="round" stroke-width="13"/>
      <path id="Path_1506" data-name="Path 1506" d="M734.05,811.964c-.087-.418,122.621-13.832,163.319,14.3s127.367,22.528,154.564-2.175" transform="translate(-732.643 -763.244)" fill="none" stroke="#fff" stroke-linecap="round" stroke-linejoin="round" stroke-width="13"/>
      <path id="Path_1507" data-name="Path 1507" d="M702.728,1214.86c-.174-.834,115.6-30.052,163.771-3.108s132.669,48.43,160.121,22.258" transform="translate(-704.476 -1115.727)" fill="none" stroke="#fff" stroke-linecap="round" stroke-linejoin="round" stroke-width="13"/>
      <path id="Path_1508" data-name="Path 1508" d="M671.406,1590.707c-.259-1.252,108.571-46.271,164.222-20.522s137.969,74.328,165.677,46.683" transform="translate(-676.308 -1441.161)" fill="none" stroke="#fff" stroke-linecap="round" stroke-linejoin="round" stroke-width="13"/>
      <path id="Path_1509" data-name="Path 1509" d="M640.082,1954.574c-.344-1.67,101.545-62.491,164.67-37.937s143.269,100.233,171.234,71.111" transform="translate(-648.138 -1754.615)" fill="none" stroke="#fff" stroke-linecap="round" stroke-linejoin="round" stroke-width="13"/>
    </g>
    <ellipse id="Ellipse_37" data-name="Ellipse 37" cx="55.39" cy="8.584" rx="55.39" ry="8.584" transform="translate(229.774 260.798)" fill="#2b80aa"/>
    <ellipse id="Ellipse_38" data-name="Ellipse 38" cx="47.573" cy="8.129" rx="47.573" ry="8.129" transform="translate(105.271 259.367)" fill="#2b80aa"/>
    <path id="Path_1511" data-name="Path 1511" d="M904.564,1558.1c-1.173-.059-2.316-.1-3.461-.178a87.477,87.477,0,0,1-30.2-7.478.733.733,0,0,0-.844.088,85.266,85.266,0,0,1-19.35,10.225,91.88,91.88,0,0,1-12.287,3.666c.029.309.045.566.08.82q1.574,11.944,3.146,23.887a62.136,62.136,0,0,0,2.262,10.99q8.6,26.875,34.5,38.078a.831.831,0,0,0,.906-.1,60.039,60.039,0,0,0,26.767-46.54,98.771,98.771,0,0,0-.253-11.5q-.582-10.7-1.209-21.389C904.607,1558.489,904.583,1558.31,904.564,1558.1Z" transform="translate(-753.925 -1394.218)" fill="#b4f5f3"/>
    <path id="Path_1512" data-name="Path 1512" d="M972.667,1657.647c-.906-.045-1.781-.076-2.658-.137a67.211,67.211,0,0,1-23.193-5.741.565.565,0,0,0-.648.068,65.639,65.639,0,0,1-14.859,7.856,70.629,70.629,0,0,1-9.44,2.82c.023.238.036.435.061.63.806,6.114,1.624,12.228,2.417,18.343a47.652,47.652,0,0,0,1.737,8.439q6.6,20.638,26.494,29.241a.638.638,0,0,0,.694-.075,46.1,46.1,0,0,0,20.554-35.739,76.038,76.038,0,0,0-.194-8.835q-.445-8.214-.925-16.425C972.7,1657.942,972.682,1657.8,972.667,1657.647Z" transform="translate(-828.971 -1485.354)" fill="#99ebe9"/>
    <path id="Path_1513" data-name="Path 1513" d="M3050.645,2083.273s23.005-15.893,46.066-6.191c0,0-6.864,21.251-32.845,32.915-24.272,10.9-36.856,5.438-36.856,5.438S3028.982,2098.147,3050.645,2083.273Z" transform="translate(-2722.09 -1865.074)" fill="#5d83ce"/>
    <path id="Path_1514" data-name="Path 1514" d="M3041.389,1702.814s18.416-32.107,51.495-33.674c0,0,3.922,29.3-20.461,58.052-22.782,26.865-40.923,27.521-40.923,27.521S3024,1732.94,3041.389,1702.814Z" transform="translate(-2724.681 -1501.04)" fill="#4949a5"/>
    <g id="Group_1795" data-name="Group 1795" transform="translate(305.21 168.1)" clip-path="url(#clip-path-2)">
      <path id="Path_1515" data-name="Path 1515" d="M3019.769,1870.432a.629.629,0,0,1-.581-.874l2.061-4.924a.526.526,0,0,1,.039-.077c.05-.087,5.192-8.787,13.934-22.033,8.067-12.223,20.941-30.93,36.459-50.642a.631.631,0,1,1,.991.78,744.715,744.715,0,0,0-50.273,72.5l-2.044,4.885A.629.629,0,0,1,3019.769,1870.432Z" transform="translate(-3020.221 -1779.304)" fill="#fff"/>
    </g>
    <path id="Path_1517" data-name="Path 1517" d="M2624.024,575.236l10.292-1.766s20.973,1.137,21.086,28.082H2610.16Z" transform="translate(-2347.224 -515.721)" fill="#4f4085"/>
    <path id="Path_1518" data-name="Path 1518" d="M1589.839,765.824H1473.55s20.692-58.059,11.936-116.362c-11.168-74.353,6.479-76.57,6.479-76.57H1612.18s-14.189-4.916-12.277,70.942C1600.411,664.128,1607.088,732.831,1589.839,765.824Z" transform="translate(-1325.088 -515.144)" fill="#fffffa"/>
    <g id="Group_1796" data-name="Group 1796" transform="translate(148.462 57.684)" clip-path="url(#clip-path-3)">
      <path id="Path_1519" data-name="Path 1519" d="M1444.1,510.63c-.171.256-13.449,4.86-10.6,44.65.889,12.437,2.651,38.123,5.263,72.415s-15.061,85.522-15.061,85.522l-5.338-14.95L1422.7,504.92Z" transform="translate(-1423.919 -511.759)" fill="#4f4085"/>
    </g>
    <rect id="Rectangle_613" data-name="Rectangle 613" width="85.938" height="6.364" transform="translate(170.458 118.746)" fill="#d9ebf9"/>
    <rect id="Rectangle_614" data-name="Rectangle 614" width="56.176" height="6.364" transform="translate(200.22 137.037)" fill="#d9ebf9"/>
    <rect id="Rectangle_615" data-name="Rectangle 615" width="56.176" height="6.364" transform="translate(203.153 155.327)" fill="#d9ebf9"/>
    <rect id="Rectangle_616" data-name="Rectangle 616" width="56.176" height="6.364" transform="translate(206.436 173.617)" fill="#d9ebf9"/>
    <rect id="Rectangle_617" data-name="Rectangle 617" width="85.938" height="6.364" transform="translate(175.954 191.908)" fill="#d9ebf9"/>
    <rect id="Rectangle_618" data-name="Rectangle 618" width="56.176" height="6.364" transform="translate(201.105 209.312)" fill="#d9ebf9"/>
    <rect id="Rectangle_619" data-name="Rectangle 619" width="56.176" height="6.364" transform="translate(197.463 228.489)" fill="#d9ebf9"/>
    <ellipse id="Ellipse_39" data-name="Ellipse 39" cx="6.65" cy="6.651" rx="6.65" ry="6.651" transform="translate(174.985 133.567)" fill="#b4f5f3"/>
    <ellipse id="Ellipse_40" data-name="Ellipse 40" cx="6.65" cy="6.651" rx="6.65" ry="6.651" transform="translate(177.747 151.857)" fill="#b4f5f3"/>
    <ellipse id="Ellipse_41" data-name="Ellipse 41" cx="6.65" cy="6.651" rx="6.65" ry="6.651" transform="translate(179.251 170.148)" fill="#b4f5f3"/>
    <ellipse id="Ellipse_42" data-name="Ellipse 42" cx="6.65" cy="6.651" rx="6.65" ry="6.651" transform="translate(176.783 206.729)" fill="#b4f5f3"/>
    <ellipse id="Ellipse_43" data-name="Ellipse 43" cx="6.65" cy="6.651" rx="6.65" ry="6.651" transform="translate(172.601 225.019)" fill="#b4f5f3"/>
    <path id="Path_1521" data-name="Path 1521" d="M1629.233,609.87s-6.7,5.344-6.547,24.415.76,26.329.76,26.329h38.867s-6.053-33.946,3.323-50.745Z" transform="translate(-1459.201 -548.455)" fill="#a0cfef"/>
    <ellipse id="Ellipse_44" data-name="Ellipse 44" cx="7.913" cy="7.915" rx="7.913" ry="7.915" transform="translate(174.648 69.995)" fill="#fff"/>
    <path id="Path_1522" data-name="Path 1522" d="M1691.08,840.053a14.225,14.225,0,0,0,4.01,2.509,7.637,7.637,0,0,0,5.768-.394,26.389,26.389,0,0,0,3.195-2.115,4.92,4.92,0,0,1,3.19,1.152c1.568,1.273,2.578,3.865,2.964,7.161s.8,10.747-.4,12.326-2.472,1.974-6.031,1.974h-14.663a4.5,4.5,0,0,1-4.181-3.959c-.407-3.074-.064-11.152.621-13.341S1687.607,840.053,1691.08,840.053Z" transform="translate(-1515.02 -755.452)" fill="#fff"/>
    <path id="Path_1523" data-name="Path 1523" d="M2405.842,937.207a11.5,11.5,0,1,1,11.5-11.5A11.5,11.5,0,0,1,2405.842,937.207Zm0-22.511a11.013,11.013,0,1,0,11.011,11.012,11.013,11.013,0,0,0-11.011-11.012Z" transform="translate(-2153.14 -822.143)" fill="#33317c"/>
    <path id="Path_1524" data-name="Path 1524" d="M2449.926,970.987V973.3a1.208,1.208,0,0,1-1.208,1.209H2447a1.208,1.208,0,0,1-1.208-1.209V971a1.209,1.209,0,0,0-1.209-1.209h-2.31a1.209,1.209,0,0,1-1.209-1.209v-1.73a1.209,1.209,0,0,1,1.209-1.209h2.31a1.209,1.209,0,0,0,1.209-1.209v-2.306A1.209,1.209,0,0,1,2447,960.92h1.724a1.209,1.209,0,0,1,1.208,1.209v2.3a1.209,1.209,0,0,0,1.208,1.209h2.3a1.209,1.209,0,0,1,1.208,1.209v1.725a1.209,1.209,0,0,1-1.208,1.209h-2.305A1.209,1.209,0,0,0,2449.926,970.987Z" transform="translate(-2195.155 -864.149)" fill="#8bbfea"/>
    <rect id="Rectangle_620" data-name="Rectangle 620" width="31.09" height="2.615" transform="translate(206.834 95.55)" fill="#8bbfea"/>
    <rect id="Rectangle_621" data-name="Rectangle 621" width="31.09" height="2.615" transform="translate(206.834 101.86)" fill="#8bbfea"/>
    <rect id="Rectangle_622" data-name="Rectangle 622" width="31.09" height="2.615" transform="translate(206.834 108.17)" fill="#8bbfea"/>
    <path id="Path_1525" data-name="Path 1525" d="M2122.023,630.131l-.589,6.586h-1.215l.589-6.587Z" transform="translate(-1906.628 -566.675)" fill="#33317c"/>
    <path id="Path_1526" data-name="Path 1526" d="M2146.1,636.7l.589-6.587h1.382l1.466,2.82a16.246,16.246,0,0,1,.938,2.209h.02c0-.879.047-1.729.136-2.735l.2-2.3h1.126l-.589,6.586h-1.25l-1.479-2.894a20.494,20.494,0,0,1-.99-2.277l-.031.01c-.026.85-.094,1.72-.191,2.8l-.211,2.355Z" transform="translate(-1929.902 -566.657)" fill="#33317c"/>
    <path id="Path_1527" data-name="Path 1527" d="M2210.048,634.5a3.174,3.174,0,0,0,1.572.42c.78,0,1.246-.361,1.294-.9.044-.5-.265-.792-1.087-1.095-1.061-.391-1.712-.968-1.626-1.914a2.287,2.287,0,0,1,2.518-1.9,3.344,3.344,0,0,1,1.569.333l-.383.967a2.665,2.665,0,0,0-1.295-.313c-.77,0-1.142.41-1.177.792-.045.5.318.742,1.177,1.085,1.117.43,1.628,1.007,1.543,1.955-.094,1.055-.986,1.974-2.7,1.973a3.743,3.743,0,0,1-1.76-.411Z" transform="translate(-1987.087 -565.767)" fill="#33317c"/>
    <path id="Path_1528" data-name="Path 1528" d="M2266.965,630.18l-.344,3.84c-.116,1.29.375,1.886,1.194,1.886.879,0,1.455-.6,1.571-1.885l.343-3.84h1.215l-.337,3.763c-.181,2.032-1.319,2.931-2.921,2.931-1.54,0-2.461-.851-2.276-2.921l.338-3.772Z" transform="translate(-2037.174 -566.72)" fill="#33317c"/>
    <path id="Path_1529" data-name="Path 1529" d="M2329.14,629.855a11.992,11.992,0,0,1,1.849-.136,2.9,2.9,0,0,1,2.006.529,1.521,1.521,0,0,1,.454,1.318,1.965,1.965,0,0,1-1.352,1.652v.029a1.493,1.493,0,0,1,.815,1.27,12.236,12.236,0,0,0,.359,1.838h-1.254a8.42,8.42,0,0,1-.3-1.554c-.111-.859-.4-1.133-1.092-1.153h-.612l-.242,2.707h-1.208Zm.945,2.913h.72a1.271,1.271,0,0,0,1.43-1.084c.064-.723-.419-1.055-1.209-1.057a3.617,3.617,0,0,0-.755.058Z" transform="translate(-2093.986 -566.305)" fill="#33317c"/>
    <path id="Path_1530" data-name="Path 1530" d="M2382.094,634.94l-.74,1.866H2380.1l2.719-6.586h1.55l1.573,6.587h-1.3l-.435-1.866Zm1.986-.906-.378-1.62c-.093-.4-.161-.85-.226-1.232h-.019c-.133.382-.273.841-.427,1.232l-.658,1.622Z" transform="translate(-2140.334 -566.756)" fill="#33317c"/>
    <path id="Path_1531" data-name="Path 1531" d="M2447.35,636.79l.59-6.586h1.382l1.466,2.82a16.246,16.246,0,0,1,.938,2.209h.02c0-.88.045-1.73.136-2.736l.2-2.3h1.125l-.589,6.587h-1.254l-1.479-2.893a20.725,20.725,0,0,1-.991-2.277l-.031.009c-.027.851-.094,1.72-.192,2.8l-.21,2.355Z" transform="translate(-2200.811 -566.738)" fill="#33317c"/>
    <path id="Path_1532" data-name="Path 1532" d="M2517.733,635.7a4.45,4.45,0,0,1-1.744.293,2.825,2.825,0,0,1-3.1-3.314,3.988,3.988,0,0,1,5.459-3.185l-.353.958a3.088,3.088,0,0,0-1.284-.254,2.446,2.446,0,0,0-2.547,2.417,1.966,1.966,0,0,0,2.108,2.375,3.574,3.574,0,0,0,1.345-.244Z" transform="translate(-2259.733 -565.839)" fill="#33317c"/>
    <path id="Path_1533" data-name="Path 1533" d="M2575.254,633.945h-2.508l-.172,1.935h2.8l-.089.987h-4.019l.589-6.587h3.87l-.089.987h-2.656l-.152,1.7h2.508Z" transform="translate(-2312.251 -566.81)" fill="#33317c"/>
    <path id="Path_1534" data-name="Path 1534" d="M2102.475,754.557a17.653,17.653,0,0,1,3.035-.222,4.6,4.6,0,0,1,3.114.874,2.758,2.758,0,0,1,.847,2.366,3.539,3.539,0,0,1-1.148,2.428,5.177,5.177,0,0,1-3.518,1.142,5.55,5.55,0,0,1-.957-.063l-.362,4.029h-1.957Zm1.511,4.985a3.939,3.939,0,0,0,.956.08c1.476,0,2.438-.713,2.55-1.968.107-1.19-.671-1.826-2.034-1.826a5.672,5.672,0,0,0-1.147.095Z" transform="translate(-1889.82 -678.37)" fill="#33317c"/>
    <path id="Path_1535" data-name="Path 1535" d="M2199.571,758.854c-.32,3.589-2.7,5.635-5.684,5.634-3.048,0-4.767-2.3-4.485-5.447.294-3.285,2.586-5.6,5.634-5.6C2198.2,753.441,2199.844,755.807,2199.571,758.854Zm-8.081.157c-.194,2.174.757,3.9,2.65,3.906,1.908,0,3.139-1.745,3.34-3.983.18-2.014-.66-3.922-2.633-3.928C2192.889,755.007,2191.687,756.8,2191.49,759.012Z" transform="translate(-1968.815 -677.566)" fill="#33317c"/>
    <path id="Path_1536" data-name="Path 1536" d="M2303.628,755.19h1.973l-.812,9.064h4.444l-.146,1.635h-6.417Z" transform="translate(-2070.703 -679.139)" fill="#33317c"/>
    <path id="Path_1537" data-name="Path 1537" d="M2384.12,755.221l-.958,10.7h-1.972l.957-10.7Z" transform="translate(-2141.314 -679.166)" fill="#33317c"/>
    <path id="Path_1538" data-name="Path 1538" d="M2429.906,764.068a7.237,7.237,0,0,1-2.833.475c-3.433,0-5.328-2.129-5.036-5.383a6.015,6.015,0,0,1,6.281-5.65,5.947,5.947,0,0,1,2.587.477l-.572,1.556a5.023,5.023,0,0,0-2.08-.414,3.976,3.976,0,0,0-4.138,3.936c-.21,2.35,1.05,3.858,3.424,3.858a5.84,5.84,0,0,0,2.185-.4Z" transform="translate(-2178.021 -677.629)" fill="#33317c"/>
    <path id="Path_1539" data-name="Path 1539" d="M2520.084,765.915l.4-4.461-2.857-6.244h2.245l1.053,2.747c.3.794.517,1.4.74,2.127h.032c.333-.682.7-1.349,1.136-2.127l1.545-2.746h2.23l-4.147,6.19-.4,4.508Z" transform="translate(-2264.013 -679.157)" fill="#33317c"/>
    <path id="Path_1540" data-name="Path 1540" d="M2908.272,1015.972a2.981,2.981,0,1,1,2.98-2.981A2.981,2.981,0,0,1,2908.272,1015.972Zm0-5.671a2.69,2.69,0,1,0,2.689,2.69A2.69,2.69,0,0,0,2908.272,1010.3Z" transform="translate(-2612.629 -908.295)" fill="#7adbd9"/>
    <circle id="Ellipse_45" data-name="Ellipse 45" cx="1.962" cy="1.962" r="1.962" transform="translate(294.554 92.934)" fill="#fff"/>
    <path id="Path_1541" data-name="Path 1541" d="M2404.143,1601.373s-5.968-24.215,3.154-38.967,22.762-19.7,33.42-25.836,25.065-19.271,31.8-19.7c2.216,0,3.223,5.59,2.462,8.7s-12.409,18.418-23.719,25.695c0,0,19.666-11.142,28.873-26.832s6.707-18.56,15.062-32.97,17.733-7.418,15.686.939-9.833,37.83-11.992,45.334-6.82,22.057-14.437,30.355-33.195,14.751-34.33,24.557c-1,8.654-.5,9.834-.5,9.834s-3.817,6.992-24.165,6.537S2404.143,1601.373,2404.143,1601.373Z" transform="translate(-2160.231 -1333.781)" fill="#99ebe9"/>
    <g id="Group_1797" data-name="Group 1797" transform="translate(241.994 149.367)" clip-path="url(#clip-path-4)">
      <path id="Path_1542" data-name="Path 1542" d="M2494.49,1728.5c.227-.906,21.029-.454,22.963-14.438s8.98-16.581,21.6-23.126,30.92-8.935,38.876-39.517,17.165-37.177,17.165-37.177l-16.369,65.163-43.083,33.41-3.632,16.936s-24.367,5.338-25.029,5.116S2494.49,1728.5,2494.49,1728.5Z" transform="translate(-2485.198 -1601.037)" fill="#0ab9b4"/>
      <path id="Path_1543" data-name="Path 1543" d="M2786.829,1871.322c0-.256,2.984-8.954-2.643-3.324s-15.516,17.937-22.592,22.483a83.941,83.941,0,0,0-12.874,10.474l14.138-5.3s14.539-9.723,14.311-10.248S2786.829,1871.322,2786.829,1871.322Z" transform="translate(-2713.823 -1827.536)" fill="#0ab9b4"/>
    </g>
    <path id="Path_1545" data-name="Path 1545" d="M2777.089,1172.529c-.037.152-1.439,8.6-.3,12.506s4.017,3.146,5.8,2.729,1.781,1.208.871,3.069a16.275,16.275,0,0,1-3.41,3.979s3.978,1.554,6.593.531,2.843-2.69,2.843-2.69a5.258,5.258,0,0,1-.342-5.23l2.084-5.325-.54-9.038-10.487-6.679-2.074,1.279Z" transform="translate(-2496.669 -1048.916)" fill="#f8b3a3"/>
    <g id="Group_1798" data-name="Group 1798" transform="translate(279.674 117.464)" clip-path="url(#clip-path-5)">
      <path id="Path_1546" data-name="Path 1546" d="M2833.09,1367.456l.525-.6s2.979-1.933,3.282-1.137-2.82,3.24-2.82,3.24Z" transform="translate(-2827.375 -1345.465)" fill="#f8b3a3"/>
      <path id="Path_1547" data-name="Path 1547" d="M2774.11,1206.15s1.511.8,3.3,1.649,5.514,2.075,8.241,3.24,2.444,1.961,2.53,1.961c.045,0,3.835-1.993,1.705-5.031-1.869-2.665-9.691-6.424-9.691-6.424l-2.672-.455Z" transform="translate(-2774.335 -1197.594)" fill="#e26a6a"/>
    </g>
    <path id="Path_1549" data-name="Path 1549" d="M2948.858,1370.709c-1.795,0-3.974-1.044-6.353-3.079-2.776-2.375-6.331-.939-6.367-.924a.146.146,0,0,1-.112-.269c.037-.015,3.755-1.522,6.668.971,1.919,1.642,5.525,4.142,8.125,2.452a.145.145,0,1,1,.158.244A3.816,3.816,0,0,1,2948.858,1370.709Z" transform="translate(-2640.198 -1228.407)" fill="#0ab9b4"/>
    <path id="Path_1550" data-name="Path 1550" d="M2762.086,1107.819a4.472,4.472,0,0,0-4.32,2.9,16.887,16.887,0,0,0-.938,7.134s.654,1.081,4.32,1.734a10.022,10.022,0,0,1,.8-3.212,14.141,14.141,0,0,0,.143,3.468c.313,1.023,2.585,2.1,4.688,2.728a9.241,9.241,0,0,0,2.359.568,2.77,2.77,0,0,1,2.984,2.5c.454,2.758-1.847,1.847-2.047,3.3s-.906,4.037,1.649,4.6,5.825-3.122,8.042-2.928,5.485,1.848,9.521,4.8,10.145,1.961,11.51-2.9,3.608-5.338,7.7-5.656,9.492-1.677,11.368-6.821.824-6.792-1.478-6.281-8.7,5.286-12.078.824-4.8-6.168-10.2-5.656-5.8,3.638-10.8,3.042-7.3-6.708-14.153-6.993S2762.086,1107.819,2762.086,1107.819Z" transform="translate(-2479.07 -993.68)" fill="#7adbd9"/>
    <g id="Group_1799" data-name="Group 1799" transform="translate(277.703 111.278)" clip-path="url(#clip-path-6)">
      <path id="Path_1551" data-name="Path 1551" d="M2746.55,1199.511c-.058.2,4.092,3.894,4.774,2.558s2.16-5.4,3.552-1.393,4.8,3.354,7.389,5.344.88,6.338,3.1,7.19,6.508-2.473,11,.455,9.747,2.417,13.13-.938,6.366-2.672,11.339-3.3a23.572,23.572,0,0,0,8.952-3.24l-2.861,4.311s-11.9,2.921-12.011,2.921-3.638,8.793-3.751,8.793-7.389,1.554-7.881,1.4-8.259-4.282-8.259-4.282l-5.873-2.728-8.639,4.431-1.933-4.661-.114-6.043-5.228-1.914-7.05-4.321Z" transform="translate(-2747.247 -1189.488)" fill="#0ab9b4"/>
    </g>
    <path id="Path_1553" data-name="Path 1553" d="M1997.16,2261.2c-2.264,1.209-4.656,1.322-8.089.876-4.593-.6-6.219,3.573-1.563,5.9,4.377,2.189,5.826,1.166,9.577,3.95s5.713-2.216,6.394-6.48c.014-.086.031-.172.05-.259C1998.563,2264.676,1997.42,2262.345,1997.16,2261.2Z" transform="translate(-1784.775 -2033.471)" fill="#383166"/>
    <path id="Path_1554" data-name="Path 1554" d="M2121.465,2079.31c-.17.17-6.878,12.222-10.231,15.518a13.2,13.2,0,0,1-2.994,2.288c.26,1.145,1.4,3.476,6.369,3.99.924-4.244,7.957-10.051,10.38-12.59,2.709-2.839,7.786-9.778,7.786-9.778Z" transform="translate(-1895.855 -1869.387)" fill="#f8b3a3"/>
    <g id="Group_1800" data-name="Group 1800" transform="translate(212.385 209.353)" clip-path="url(#clip-path-7)">
      <path id="Path_1555" data-name="Path 1555" d="M2216.61,2031.886s5.911-2.729,1.137,14.1l10.686-9.781,6.479-11.482s-6.707-1.157-7.05-1.209-6.41.635-6.41.635Z" transform="translate(-2205.696 -2029.075)" fill="#ff928a"/>
    </g>
    <path id="Path_1557" data-name="Path 1557" d="M2331.884,2099.318c.9-3.82,1.761-12.375,1.761-12.375L2324,2084.21c-.061.234.442,22.975-.78,27.518a12.109,12.109,0,0,1-1.889,4.182c1.286.857,4.171,2.067,7.911-.705C2328.067,2111,2331.1,2102.672,2331.884,2099.318Z" transform="translate(-2087.483 -1874.306)" fill="#f8b3a3"/>
    <g id="Group_1801" data-name="Group 1801" transform="translate(233.847 209.904)" clip-path="url(#clip-path-8)">
      <path id="Path_1558" data-name="Path 1558" d="M2328.49,2061.751s9.409.171,7.05,21.573l5.313-12.534,1.961-10.811-12.348-6.58-2.4,5.512Z" transform="translate(-2327.391 -2056.503)" fill="#ff928a"/>
    </g>
    <path id="Path_1560" data-name="Path 1560" d="M2242.355,2392.723c-1.327,1.788-3.229,2.956-6.064,4.161-4.263,1.813-3.553,6.232,1.642,5.882,4.882-.33,5.614-1.947,10.259-1.445s3.8-4.8,2.231-8.826c-.058-.151-.11-.309-.156-.473C2246.526,2394.784,2243.642,2393.575,2242.355,2392.723Z" transform="translate(-2008.509 -2151.115)" fill="#383166"/>
    <path id="Path_1561" data-name="Path 1561" d="M2750.416,1642.43a16.675,16.675,0,0,1-1.7,6.068c1.944,1.757,6.043,3.827,14.309,2.963a13.192,13.192,0,0,1,.2-1.553,22.465,22.465,0,0,1,1.691-4.64C2756.6,1646.2,2752.424,1644.188,2750.416,1642.43Z" transform="translate(-2471.828 -1477.021)" fill="#4f4085"/>
    <path id="Path_1562" data-name="Path 1562" d="M2270.221,1702.68c-.13.254-.266.5-.412.756-1.989,3.411-6.2,3.354-14.324,5.514s-19.722,4.321-25.861,11.369-13.584,19.726-12.956,22,11.026-4.431,15.573,1.2,17.335,8.809,17.335,8.809,20.8-13.7,26.884-18.134,8.923-9.948,8.7-12.9c-.2-2.619-.982-11.091-.625-15.643C2276.267,1706.512,2272.162,1704.437,2270.221,1702.68Z" transform="translate(-1993.329 -1531.203)" fill="#88ace5"/>
    <g id="Group_1802" data-name="Group 1802" transform="translate(223.302 171.478)" clip-path="url(#clip-path-9)">
      <path id="Path_1563" data-name="Path 1563" d="M2332,1736.725a12.651,12.651,0,0,0,2.586-.412s6.394,5.357,13.157.924,4.869-10.016,15.062-11.54,23.335-17.395,22.267-29.616l5.583.228.625,11.54-1.621,16.456-10.741,13.276-17.478,8.809-7.082,3.154-12.616-3.739Z" transform="translate(-2320.38 -1696.745)" fill="#6898dd"/>
    </g>
    <path id="Path_1565" data-name="Path 1565" d="M2298.594,1457.41s-10.344,5.876-14.948,5-24.62-1.592-27.121-2.123-8.488-4.281-13.262-1.25,8.259,5.722,12.011,5.154c0,0,21.182,4.168,24.857,4.321s15.422-2.619,15.422-2.619Z" transform="translate(-2016.346 -1310.635)" fill="#f8b3a3"/>
    <g id="Group_1803" data-name="Group 1803" transform="translate(225.88 146.775)" clip-path="url(#clip-path-10)">
      <path id="Path_1566" data-name="Path 1566" d="M2382.46,1464.379s18.319,2.982,23.769,2.812,11.827-1.007,13.32-4.463a14.825,14.825,0,0,1,3.865-5.338l2.045.6-5.3,9.815-16.374,1.9Z" transform="translate(-2368.336 -1457.392)" fill="#ff928a"/>
    </g>
    <path id="Path_1568" data-name="Path 1568" d="M2779.318,1430.394a6.438,6.438,0,0,0-1.828-4.172,11.243,11.243,0,0,0-1.447-1.26c-1.761-1.265-2.087-1.136-2.087-1.136-3.05,3.511-8.211,1.561-8.211,1.561a15.532,15.532,0,0,0-4.195,3.478c-3.6,4.586-1.838,6.748-1.554,11.691a33.977,33.977,0,0,1-.052,5.284c2.008,1.757,6.186,3.774,14.5,2.838a97.119,97.119,0,0,0,4.078-9.012C2779.461,1436.808,2779.444,1432.829,2779.318,1430.394Z" transform="translate(-2481.357 -1280.431)" fill="#fff"/>
    <g id="Group_1804" data-name="Group 1804" transform="translate(277.959 143.392)" clip-path="url(#clip-path-11)">
      <path id="Path_1569" data-name="Path 1569" d="M2858.92,1510.832s4.181-3.979,4.408-8.186.691-11.066.691-11.066l6.13,12.013-2.754,6.259-3.764,2.043Z" transform="translate(-2848.888 -1484.756)" fill="#ffdaae"/>
      <path id="Path_1570" data-name="Path 1570" d="M2908.839,1504.977l-.292-.037a26.707,26.707,0,0,0,.3,5.21c.436,2.273,1.932,9.039,1.932,9.039s1.1-1.876,1.1-1.933S2908.839,1504.977,2908.839,1504.977Z" transform="translate(-2893.5 -1496.77)" fill="#f8b3a3"/>
      <path id="Path_1571" data-name="Path 1571" d="M2753.867,1454.918a46.957,46.957,0,0,0-.114-7.856c-.416-4.81-1.309-6.314,1.857-9.922,2.9-3.308,4.7-3.676,4.7-3.676l-1.327-.6-5.077,3.184-1.705,5.495.46,7.465v4.819Z" transform="translate(-2752.917 -1431.95)" fill="#0ab9b4"/>
    </g>
    <path id="Path_1573" data-name="Path 1573" d="M2910.19,1461.834c1.495-.544,2.956-.36,3.9,2.994s3.5,16.542,4.339,20.407,3.817,15.84,3.817,15.84-3.211,3.07-3.381,2.16-4.552-13.315-6.2-19.476-3.95-14.886-4.134-17.385S2908.6,1462.412,2910.19,1461.834Z" transform="translate(-2615.504 -1314.403)" fill="#f8b3a3"/>
    <g id="Group_1805" data-name="Group 1805" transform="translate(292.983 147.197)" clip-path="url(#clip-path-12)">
      <path id="Path_1574" data-name="Path 1574" d="M2898.263,1470.88s4.884,19.431,7.352,26.513,5.626,15.865,5.626,15.865l-2.671,1.023-5.265-13.98-6.185-23.023Z" transform="translate(-2898.265 -1469.945)" fill="#ff928a"/>
    </g>
    <path id="Path_1576" data-name="Path 1576" d="M2993.561,1142.888a13.325,13.325,0,0,1-5.456-1.41.146.146,0,0,1,.136-.258c.046.025,4.734,2.446,8.033.795l.346-.174c3.223-1.611,4.834-2.424,9.606-1.2a.144.144,0,0,1,.1.176.147.147,0,0,1-.177.106c-4.666-1.195-6.249-.4-9.4,1.181l-.347.174A6.333,6.333,0,0,1,2993.561,1142.888Z" transform="translate(-2687.041 -1025.237)" fill="#0ab9b4"/>
    <g id="Group_1806" data-name="Group 1806" transform="translate(295.94 121.084)" opacity="0.65">
      <path id="Path_1577" data-name="Path 1577" d="M2947.3,1208.793a1.54,1.54,0,0,1-.166-.009,1.634,1.634,0,0,1-1.108-.7c-2.287-2.994-7.882-3.087-7.937-3.088a.243.243,0,0,1,0-.485c.24,0,5.887.095,8.318,3.279a1.127,1.127,0,0,0,.776.5c.781.09,1.875-.817,3.14-1.866,2.49-2.065,5.9-4.893,10.777-3.9a.243.243,0,1,1-.1.475c-4.647-.943-7.957,1.8-10.374,3.8C2949.315,1207.909,2948.25,1208.793,2947.3,1208.793Z" transform="translate(-2937.85 -1202.323)" fill="#fff"/>
    </g>
    <path id="Path_1578" data-name="Path 1578" d="M3071.706,994.41l-2.526,1.8,3.067,1.633Z" transform="translate(-2760.013 -894.266)" fill="#fff"/>
    <path id="Path_1579" data-name="Path 1579" d="M3159.445,1083.015a.143.143,0,0,1-.145-.145v-4.01a.145.145,0,0,1,.21-.13l4.018,2a.146.146,0,0,1,0,.261l-4.018,2A.151.151,0,0,1,3159.445,1083.015Zm.146-3.919v3.538l3.546-1.77Z" transform="translate(-2841.056 -970.081)" fill="#4f4085"/>
    <path id="Path_1580" data-name="Path 1580" d="M1537.574,908.321a21.281,21.281,0,0,0,.719-7.5c-.266-4.661-4.584-7.2-9.737-6.935s-6.48,2.921-6.48,2.921-4.812-.114-5,5.76,1.667,11.672,7.5,14.742c1.511.834,1.895.379,1.895.379Z" transform="translate(-1364.217 -803.846)" fill="#26217d"/>
    <g id="Group_1808" data-name="Group 1808" transform="translate(152.844 90.017)" clip-path="url(#clip-path-13)">
      <g id="Group_1807" data-name="Group 1807" transform="translate(1.11 1.012)" opacity="0.65">
        <path id="Path_1581" data-name="Path 1581" d="M1529.023,917.528a.144.144,0,0,1-.13-.081c-.02-.039-1.745-4.4-.086-7.662,1.4-2.743,3.139-2.467,3.617-2.328.385-.635,2.541-3.86,6.472-3.525a.145.145,0,1,1-.024.289c-4.149-.357-6.233,3.438-6.253,3.477a.146.146,0,0,1-.188.064c-.075-.033-1.868-.787-3.363,2.15-1.573,3.089.066,7.362.086,7.4a.145.145,0,0,1-.13.21Z" transform="translate(-1528.087 -903.908)" fill="#fff"/>
      </g>
      <path id="Path_1582" data-name="Path 1582" d="M1526.94,963.453s2.841,2.331,2.785-.029,3.808-7.02,3.1-9.492c0,0,7.525,1.692,10.629-1.223s4.66-1.137,5,.54.512,7.5.512,7.5-2.132,3.183-2.216,3.183-7.3,6.907-7.3,6.907a35.37,35.37,0,0,1-3.836.654c-.54-.051-7.787-2.814-7.787-2.814Z" transform="translate(-1525.945 -945.385)" fill="#000049"/>
    </g>
    <path id="Path_1584" data-name="Path 1584" d="M1579.488,971.94s1.174,8.451,1.4,13.112-5.722,3.942-6.29,4.7-1.511,5.874-1.511,5.874-3.183,2.5-6.517-1.705c0,0,2.159-6.647,1.781-8.924s-3.789.189-4.148-3.424,2.785-2.842,2.785-2.842a11.5,11.5,0,0,0,1.553-4.377C1568.537,974.347,1577.594,975.749,1579.488,971.94Z" transform="translate(-1406.586 -874.059)" fill="#f8b3a3"/>
    <g id="Group_1809" data-name="Group 1809" transform="translate(157.589 97.881)" clip-path="url(#clip-path-14)">
      <path id="Path_1585" data-name="Path 1585" d="M1558.347,973.335c-.014-.042.228-3.254,2.288-2.444s3.368-3.993,3.368-4.05,6.849,1.478,10.585-2.53l-.34-1.961-12.462,2.856-3.666,6.224Z" transform="translate(-1558.73 -963.316)" fill="#d35454"/>
      <path id="Path_1586" data-name="Path 1586" d="M1641.954,1138.721s-4.2-1.152-5.413-.728,2.939,2.276,3.637,2.407Z" transform="translate(-1629.054 -1121.185)" fill="#d35454"/>
    </g>
    <path id="Path_1588" data-name="Path 1588" d="M1609.294,2479.825a6.787,6.787,0,0,0,3.973-2.729c-1.517-1.838-.743-5.565-.743-5.565l-7.654-.512v7.259A4.284,4.284,0,0,0,1609.294,2479.825Z" transform="translate(-1443.182 -2222.158)" fill="#f8b3a3"/>
    <path id="Path_1589" data-name="Path 1589" d="M1736.255,2572l.96-2.546c-.2-.09-.409-.183-.625-.285l-1.129,2.371Z" transform="translate(-1560.62 -2310.423)" fill="#d83b6e"/>
    <path id="Path_1590" data-name="Path 1590" d="M1715.389,2561.486l1.007-2.614q-.269-.144-.55-.3l-1.136,2.64Z" transform="translate(-1541.959 -2300.891)" fill="#d83b6e"/>
    <path id="Path_1591" data-name="Path 1591" d="M1623.174,2536.818c-.6-.294-1.72-.63-3.379-1.365l-.96,2.546-.795-.46,1.129-2.371q-.71-.332-1.533-.765l-1.007,2.614-.679-.272,1.136-2.64q-.632-.348-1.323-.764l-1.12,2.777-.806-.292,1.3-2.871a8.1,8.1,0,0,1-1.853-1.594,6.787,6.787,0,0,1-3.973,2.729,4.281,4.281,0,0,1-4.422-1.547v9.357h20.289S1625.839,2538.135,1623.174,2536.818Z" transform="translate(-1443.2 -2276.421)" fill="#28104f"/>
    <path id="Path_1592" data-name="Path 1592" d="M1694.545,2550.344l1.12-2.777c-.121-.073-.244-.147-.367-.224-.089-.054-.174-.109-.258-.163l-1.3,2.871Z" transform="translate(-1523.101 -2290.648)" fill="#d83b6e"/>
    <path id="Path_1593" data-name="Path 1593" d="M1150.822,2354.092a6.79,6.79,0,0,0,4.532,1.653c.616-2.3,4.1-3.835,4.1-3.835l-4.029-6.529-5.914,4.213A4.282,4.282,0,0,0,1150.822,2354.092Z" transform="translate(-1033.536 -2109.172)" fill="#f8b3a3"/>
    <path id="Path_1594" data-name="Path 1594" d="M1186.466,2519.182l2.63-.7c-.044-.216-.088-.439-.131-.675l-2.585.457Z" transform="translate(-1066.84 -2264.236)" fill="#d83b6e"/>
    <path id="Path_1595" data-name="Path 1595" d="M1180.933,2496.159l2.712-.7c-.026-.2-.052-.409-.077-.621l-2.809.6Z" transform="translate(-1061.787 -2243.58)" fill="#d83b6e"/>
    <path id="Path_1596" data-name="Path 1596" d="M1090.036,2404.627c-.1-.655-.486-1.767-.85-3.544l-2.63.7-.087-.915,2.585-.457c-.094-.514-.184-1.076-.266-1.692l-2.712.7-.173-.712,2.809-.6c-.055-.478-.1-.984-.146-1.522l-2.911.7-.229-.825,3.093-.6a8.114,8.114,0,0,1,.221-2.434,6.788,6.788,0,0,1-4.532-1.653,4.29,4.29,0,0,1-1.309-4.5l-7.619,5.431,11.776,16.525S1090.51,2407.563,1090.036,2404.627Z" transform="translate(-966.93 -2146.834)" fill="#28104f"/>
    <path id="Path_1597" data-name="Path 1597" d="M1176.259,2473.91l2.911-.7q-.017-.21-.03-.428c-.007-.1-.012-.2-.016-.3l-3.093.6Z" transform="translate(-1057.533 -2223.472)" fill="#d83b6e"/>
    <path id="Path_1598" data-name="Path 1598" d="M1215.374,1621.58l-.36.208a54.924,54.924,0,0,0-5.722,13.434c-1.961,7.419-3.752,23.107-5.627,28.224s-19.608,29.929-19.608,29.929-.171,6.821,8.27,8.954c0,0,22.422-24.13,26.343-29.673a38.116,38.116,0,0,0,5.371-11.17s.511,17.48.6,26.859-.767,18.248-.767,18.248,6.565,4.432,13.555,0c0,0,2.132-20.635,2.473-35.386s-.161-48.628-.161-48.628l-5.64,1.048Z" transform="translate(-1064.752 -1458.27)" fill="#00025b"/>
    <g id="Group_1814" data-name="Group 1814" transform="translate(119.306 163.31)" clip-path="url(#clip-path-15)">
      <path id="Path_1599" data-name="Path 1599" d="M1282.466,1802.935l.56-2.6s3.476-15.292,4.613-21.715-.341-3.012-.8-.056-3.354,17.508-5.46,22.8-4.432,8.532-9.719,14.883-22.045,24.454-22.045,24.454a15.6,15.6,0,0,0,2.549.967c0-.17,20.291-22.795,20.291-22.795l8.128-9.664Z" transform="translate(-1243.017 -1759.515)" fill="#000211"/>
      <g id="Group_1810" data-name="Group 1810" transform="translate(38.915 0.524)" opacity="0.41">
        <path id="Path_1600" data-name="Path 1600" d="M1584.99,1627.254s.057,13.126,0,18.57-.568,19.684-.682,31-13.869,40.387-13.869,40.387l17.045-5.253,5.088-55.743-5.088-29.431Z" transform="translate(-1570.44 -1626.78)" fill="#000211"/>
      </g>
      <g id="Group_1811" data-name="Group 1811" transform="translate(-0.424 -0.985)" opacity="0.38">
        <path id="Path_1601" data-name="Path 1601" d="M1180.469,1686.779a87.952,87.952,0,0,0,7.2-8.337c2.69-3.752,12.134-16.96,15.228-23.61s2.914-15.784,5.357-24.254,12.413-14.761,12.413-14.761l-9.333-4.017-9.151,16.428-5.6,28.583L1181.1,1680.5l-1.252,4.689Z" transform="translate(-1179.85 -1611.8)" fill="#fff"/>
      </g>
      <g id="Group_1812" data-name="Group 1812" transform="translate(24.205 -1.91)" opacity="0.65">
        <path id="Path_1602" data-name="Path 1602" d="M1424.663,1615.122a.291.291,0,0,1-.006-.581c5.32-.115,9.165-2.108,11.424-5.926a13.524,13.524,0,0,0,1.813-5.721.291.291,0,1,1,.582.021,13.843,13.843,0,0,1-1.894,6,11.9,11.9,0,0,1-4.136,4.188,15.549,15.549,0,0,1-7.777,2.023Z" transform="translate(-1424.386 -1602.613)" fill="#fff"/>
      </g>
      <g id="Group_1813" data-name="Group 1813" transform="translate(-1.227 8.228)" opacity="0.65">
        <path id="Path_1603" data-name="Path 1603" d="M1172.163,1773.417a.291.291,0,0,1-.2-.5c.128-.128,12.85-12.944,19.068-22.946,6.209-9.986,13.525-46.117,13.6-46.481a.291.291,0,0,1,.57.115c-.018.092-1.863,9.234-4.455,19.5-3.486,13.8-6.587,22.943-9.22,27.176-6.253,10.058-19.022,22.921-19.151,23.05a.292.292,0,0,1-.208.086Z" transform="translate(-1171.877 -1703.273)" fill="#fff"/>
      </g>
    </g>
    <path id="Path_1605" data-name="Path 1605" d="M1492.575,1587.72l-.568.17-.587,3.448s2.82,4.51,13.7,4.244,11.026-3.454,11.026-3.454l-.095-3.613-.7-.114Z" transform="translate(-1341.158 -1427.821)" fill="#0ab9b4"/>
    <path id="Path_1606" data-name="Path 1606" d="M1356.236,1190.56s-5.219.751-8.687,1.56-3.779,4.129-6.547,9.619-9.113,17.906-9.113,17.906,3.58,6.48,9.549,3.638l6.991-15.178.114,22.625s2.842,4.661,12.277,4.207,11.77-3.581,11.77-3.581,2.236-18.362,2.861-21.2l19.245,8.753a9.245,9.245,0,0,0,3.069-8.641s-15.876-9.189-19.855-13.68-13.007-4.766-13.007-4.766Z" transform="translate(-1197.695 -1070.661)" fill="#99ebe9"/>
    <g id="Group_1816" data-name="Group 1816" transform="translate(134.195 119.899)" clip-path="url(#clip-path-16)">
      <path id="Path_1607" data-name="Path 1607" d="M1436.86,1305.636l.473-2.047s1.881-3.808,1.2-6.082-.114,1.023-1.136,3.013-6.647,15.793-6.647,15.793l2.1.239Z" transform="translate(-1420.793 -1286.044)" fill="#0ab9b4"/>
      <path id="Path_1608" data-name="Path 1608" d="M1730.692,1311.727l-.441-1.933a22.4,22.4,0,0,0,.073-6.679c-.568-2.871-1.081-2.014-.8,1.108a37.868,37.868,0,0,1-.654,9.38c-.483,2.9-2.444,19.384-2.444,19.384l1.334-.993Z" transform="translate(-1686.694 -1290.203)" fill="#0ab9b4"/>
      <path id="Path_1609" data-name="Path 1609" d="M1597.492,1219.72s-1.8,1.421-2.292,9.948.416,22.2,1.155,23.352,5.677,5.3,5.677,5.3l3.021-6.107-6.144-21.065-.341-11.256Z" transform="translate(-1568.555 -1216.783)" fill="#0ab9b4"/>
      <path id="Path_1610" data-name="Path 1610" d="M1759.348,1319.34s6,6.935,12.791,9.095,8.44.655,8.1,3.581.085,4.548-6.622,1.99-14.437-8.072-14.437-8.072Z" transform="translate(-1716.145 -1306.37)" fill="#0ab9b4"/>
      <g id="Group_1815" data-name="Group 1815" transform="translate(-1.234)" opacity="0.38">
        <path id="Path_1611" data-name="Path 1611" d="M1337.624,1190.56a14.907,14.907,0,0,0-4.48,8.876c-.465,4.862-4.673,7.025-5.468,11.443a37.155,37.155,0,0,1-2.921,8.681l-5.115-1.825s8.953-19.406,9.037-19.833,6.309-6.48,6.309-6.48Z" transform="translate(-1319.64 -1190.56)" fill="#fff"/>
      </g>
    </g>
    <path id="Path_1613" data-name="Path 1613" d="M1986.833,1404.28s14.38,5.189,18.756,5.351,8.811-1.656,13.243-.576,6.48,7.105-1.989,6.481-10.457-1.309-10.457-1.309l-21.392-3.354S1983.67,1406.554,1986.833,1404.28Z" transform="translate(-1784.774 -1262.856)" fill="#f8b3a3"/>
    <g id="Group_1817" data-name="Group 1817" transform="translate(199.945 141.424)" clip-path="url(#clip-path-17)">
      <path id="Path_1614" data-name="Path 1614" d="M1949.819,1406.54s-2.76,3.586,16.788,8.956h0s-11.885.254-12.054.254-5.854-1.4-6.025-1.495-2.619-1.349-2.619-1.349Z" transform="translate(-1949.818 -1406.313)" fill="#d35454"/>
    </g>
    <path id="Path_1616" data-name="Path 1616" d="M1936.8,1369.759l-3.122,8.941a.875.875,0,0,0,.5,1.108l4.016,1.584a.876.876,0,0,0,1.15-.526l3.229-9.235a.877.877,0,0,0-.565-1.126l-4.129-1.294A.876.876,0,0,0,1936.8,1369.759Z" transform="translate(-1738.826 -1231.284)" fill="#0ab9b4"/>
    <path id="Path_1617" data-name="Path 1617" d="M1282.566,1512.65s-2.368,18.418-3.335,22.17-3.637,6.366,0,7.561,9.305,1.761,7.921-3.411-1.061-5.229,0-11.6,2.859-13.51,2.859-13.51Z" transform="translate(-1148.673 -1360.312)" fill="#f8b3a3"/>
    <g id="Group_1818" data-name="Group 1818" transform="translate(128.704 152.339)" clip-path="url(#clip-path-18)">
      <path id="Path_1618" data-name="Path 1618" d="M1340.1,1507.88s4.523,2,4.257,4.649-1.636,15.708-1.636,15.708l5.387-19.078Z" transform="translate(-1333.783 -1508.36)" fill="#d35454"/>
    </g>
    <path id="Path_1620" data-name="Path 1620" d="M1314.388,1449.766l9.89,2.652a1.087,1.087,0,0,1,.74,1.418l-1.437,3.985a1.087,1.087,0,0,1-1.248.694l-10-2.125a1.087,1.087,0,0,1-.806-1.415l1.546-4.512A1.086,1.086,0,0,1,1314.388,1449.766Z" transform="translate(-1179.332 -1303.727)" fill="#0ab9b4"/>
    <path id="Path_1621" data-name="Path 1621" d="M1604.4,1206.05s2.487.74,3.154,0l.214,1.5s-1.051,1.237-.939,2,1.265,17.021,4.079,21.97,2.727,7.277,2.727,7.277l-2.9,6.366-5.2-4.491a86.239,86.239,0,0,0-1.537-9.155c-1.137-5.116-.228-11.824,0-16.939s1.309-4.7.739-6.144a15.55,15.55,0,0,0-.72-1.686Z" transform="translate(-1441.897 -1084.591)" fill="#fff"/>
    <path id="Path_1622" data-name="Path 1622" d="M1574.226,1162.536l-1.309,4.473a5.581,5.581,0,0,1-4.276-4.206s1.833-3.525,2.487-3.156c.6.343.845,1.685,2.74,2.265A.521.521,0,0,1,1574.226,1162.536Z" transform="translate(-1410.601 -1042.837)" fill="#0ab9b4"/>
    <path id="Path_1623" data-name="Path 1623" d="M1641,1179.954l.133,4.532a2.691,2.691,0,0,0,2.216-2.417l-.264-2.921a.1.1,0,0,0-.171-.067,2.549,2.549,0,0,1-1.639.57.286.286,0,0,0-.275.3Z" transform="translate(-1475.669 -1060.313)" fill="#0ab9b4"/>
    <path id="Path_1624" data-name="Path 1624" d="M1274.285,1789.59h-10.575a1.629,1.629,0,0,0-1.63,1.63v3.41a1.629,1.629,0,0,0,1.63,1.63h10.575a1.629,1.629,0,0,0,1.629-1.63v-3.41A1.629,1.629,0,0,0,1274.285,1789.59Zm-.271,4.665a1.088,1.088,0,0,1-1.088,1.089h-7.856a1.089,1.089,0,0,1-1.088-1.089v-1.924a1.089,1.089,0,0,1,1.088-1.089h7.856a1.088,1.088,0,0,1,1.088,1.089Z" transform="translate(-1134.916 -1609.359)" fill="#5d83ce"/>
    <path id="Path_1625" data-name="Path 1625" d="M1120,1843.373h9.427v22.6H1120a2.537,2.537,0,0,1-2.537-2.537v-17.524a2.537,2.537,0,0,1,2.537-2.537Z" transform="translate(-1004.862 -1657.723)" fill="#fff"/>
    <rect id="Rectangle_623" data-name="Rectangle 623" width="28.504" height="22.596" rx="11.298" transform="translate(120.725 185.65)" fill="#becbeb"/>
    <path id="Path_1626" data-name="Path 1626" d="M1278.911,1091.6a2.981,2.981,0,1,1,2.981-2.981A2.981,2.981,0,0,1,1278.911,1091.6Zm0-5.671a2.69,2.69,0,1,0,2.69,2.69A2.69,2.69,0,0,0,1278.911,1085.931Z" transform="translate(-1147.371 -976.308)" fill="#ff5876"/>
    <circle id="Ellipse_46" data-name="Ellipse 46" cx="1.962" cy="1.962" r="1.962" transform="translate(133.06 99.243)" fill="#fff"/>
    <path id="Path_1627" data-name="Path 1627" d="M1400.706,1142.59l-2.526,1.8,3.067,1.633Z" transform="translate(-1257.309 -1027.522)" fill="#fff"/>
    <path id="Path_1628" data-name="Path 1628" d="M1417.076,1011.335a.151.151,0,0,1-.078-.021.147.147,0,0,1-.068-.124v-4.009a.145.145,0,0,1,.21-.13l4.018,2a.146.146,0,0,1,0,.261l-4.018,2A.142.142,0,0,1,1417.076,1011.335Zm.145-3.919v3.543l3.546-1.77Z" transform="translate(-1274.17 -905.62)" fill="#4f4085"/>
    <path id="Path_1629" data-name="Path 1629" d="M3040.459,1080.473a.111.111,0,0,1-.037,0,.145.145,0,0,1-.089-.068l-1.279-2.216a.145.145,0,0,1,.053-.2l2.216-1.279a.147.147,0,0,1,.111-.014.15.15,0,0,1,.089.068l1.278,2.216a.146.146,0,0,1-.052.2l-2.216,1.279A.143.143,0,0,1,3040.459,1080.473Zm-1.08-2.307,1.133,1.963,1.963-1.133-1.129-1.963Z" transform="translate(-2732.903 -968.259)" fill="#fff"/>
    <g id="Group_1819" data-name="Group 1819" transform="translate(295.425 113.25)" opacity="0.65">
      <path id="Path_1630" data-name="Path 1630" d="M2943.575,1131.434a8.523,8.523,0,0,1-6.368-3.48,6.544,6.544,0,0,0-4.256-2.932.243.243,0,0,1,.038-.484,6.893,6.893,0,0,1,4.611,3.131,7.878,7.878,0,0,0,6.153,3.273.243.243,0,1,1,.033.483A1.948,1.948,0,0,1,2943.575,1131.434Z" transform="translate(-2932.738 -1124.539)" fill="#fff"/>
    </g>
    <g id="Group_1820" data-name="Group 1820" transform="translate(309.626 117.856)" opacity="0.65">
      <path id="Path_1631" data-name="Path 1631" d="M3073.977,1172.1a.243.243,0,0,1-.019-.484,6.331,6.331,0,0,0,2.664-1.3.243.243,0,1,1,.282.4,6.609,6.609,0,0,1-2.908,1.39Z" transform="translate(-3073.737 -1170.272)" fill="#fff"/>
    </g>
    <g id="Group_1821" data-name="Group 1821" transform="translate(279.122 112.39)" opacity="0.65">
      <path id="Path_1632" data-name="Path 1632" d="M2771.112,1122.63h0a.242.242,0,0,1-.242-.243c0-.033.045-3.324,3.909-3.653a8.367,8.367,0,0,1,7.074-2.7.243.243,0,1,1-.035.483,7.95,7.95,0,0,0-6.724,2.6.242.242,0,0,1-.175.095c-3.51.246-3.563,3.059-3.564,3.179a.242.242,0,0,1-.243.242Z" transform="translate(-2770.87 -1116.007)" fill="#fff"/>
    </g>
  </g>
</svg>
