<svg xmlns="http://www.w3.org/2000/svg" width="12.064" height="12.064" viewBox="0 0 12.064 12.064">
  <path id="Icon_simple-whatsapp" data-name="Icon simple-whatsapp" d="M8.8,7.23c-.151-.075-.888-.436-1.025-.486s-.238-.075-.338.075-.388.485-.475.584-.175.106-.325.038a4.08,4.08,0,0,1-1.208-.746,4.561,4.561,0,0,1-.834-1.041c-.087-.151-.01-.234.065-.309s.151-.173.227-.263a1.274,1.274,0,0,0,.149-.249.276.276,0,0,0-.013-.263c-.038-.075-.338-.814-.463-1.109S4.311,3.2,4.218,3.2,4.032,3.2,3.931,3.2a.567.567,0,0,0-.4.18,1.678,1.678,0,0,0-.525,1.244,2.941,2.941,0,0,0,.613,1.546A6.7,6.7,0,0,0,6.182,8.421c.359.151.638.241.857.316a2.08,2.08,0,0,0,.945.061A1.547,1.547,0,0,0,9,8.082a1.244,1.244,0,0,0,.09-.716C9.05,7.3,8.951,7.26,8.8,7.192M6.063,10.933H6.055a5.029,5.029,0,0,1-2.541-.694l-.181-.108-1.885.49L1.953,8.79,1.833,8.6A4.986,4.986,0,0,1,9.6,2.451,4.92,4.92,0,0,1,11.06,5.965a4.992,4.992,0,0,1-4.994,4.969m4.249-9.2A6.1,6.1,0,0,0,6.055,0a5.977,5.977,0,0,0-5.2,8.967L0,12.064l3.185-.83a6.063,6.063,0,0,0,2.87.727h0a6,6,0,0,0,6.007-5.98,5.929,5.929,0,0,0-1.757-4.228" fill="#fafafa"/>
</svg>
