<svg xmlns="http://www.w3.org/2000/svg" width="10.913" height="10.913" viewBox="0 0 10.913 10.913">
  <path id="Icon_ionic-logo-whatsapp" data-name="Icon ionic-logo-whatsapp" d="M7.806,2.25A5.337,5.337,0,0,0,2.448,7.566a5.261,5.261,0,0,0,.769,2.745L2.25,13.163l2.966-.942A5.329,5.329,0,1,0,7.806,2.25ZM10.47,9.585a1.384,1.384,0,0,1-.948.611c-.251.013-.258.195-1.628-.4A5.59,5.59,0,0,1,5.635,7.66,2.627,2.627,0,0,1,5.13,6.236a1.518,1.518,0,0,1,.521-1.114.525.525,0,0,1,.371-.156c.108,0,.178,0,.258,0s.2-.017.3.259.352.954.384,1.023a.248.248,0,0,1,0,.238.93.93,0,0,1-.145.221c-.071.077-.15.172-.214.23s-.145.136-.071.275a4.1,4.1,0,0,0,.725.968,3.738,3.738,0,0,0,1.074.714c.134.073.215.065.3-.023s.357-.384.453-.516.187-.107.31-.057.783.4.918.476.224.11.256.168A1.125,1.125,0,0,1,10.47,9.585Z" transform="translate(-2.25 -2.25)" fill="#27d952"/>
</svg>
